<svg xmlns="http://www.w3.org/2000/svg" width="43.594" height="22.467" viewBox="0 0 43.594 22.467">
  <g id="Group_2138" data-name="Group 2138" transform="translate(-1004 3960.5)">
    <path id="Path_3020" data-name="Path 3020" d="M3,0H40.594a3,3,0,0,1,3,3V19.467a3,3,0,0,1-3,3H3a3,3,0,0,1-3-3V3A3,3,0,0,1,3,0" transform="translate(1004 -3960.5)" fill="#ce0016"/>
    <path id="Path_3021" data-name="Path 3021" d="M17.674,18.02,13.633,4.373H10.041L6,18.02H8.548l.773-2.694h4.761l.752,2.694Zm-4.166-4.793H9.937l1.8-6.349Z" transform="translate(1004 -3960.5)" fill="#fff"/>
    <path id="Path_3022" data-name="Path 3022" d="M21.2,18.021H18.612V4.373h4a8.736,8.736,0,0,1,2.343.287,4.851,4.851,0,0,1,1.713.841,3.593,3.593,0,0,1,1.055,1.362,4.54,4.54,0,0,1,.36,1.854,5.381,5.381,0,0,1-.355,1.968,4.264,4.264,0,0,1-1.055,1.561,4.858,4.858,0,0,1-1.744,1.027,7.346,7.346,0,0,1-2.417.362H21.2V18.02Zm.032-7.182a.291.291,0,0,0-.252.108.444.444,0,0,0,.024.41.289.289,0,0,0,.109.181.706.706,0,0,0,.208.164l.031.02a3.4,3.4,0,0,0,1.869.6,3.054,3.054,0,0,0,1.334-.314,3.451,3.451,0,0,0,2.2-2.966,2.233,2.233,0,0,0-.019-.786.982.982,0,0,0-.234-.4c-.063-.07-.128-.136-.194-.2v-.01c0-.05,0-.1,0-.158a2.4,2.4,0,0,1,.04-.432c.009-.058.018-.115.025-.173a.752.752,0,0,0-.133-.6.45.45,0,0,0-.314-.165h-.045a.737.737,0,0,0-.527.225.2.2,0,0,0-.013.274.177.177,0,0,0,.117.07c.057,0,.1-.062.136-.188.027-.1.082-.154.16-.154A.373.373,0,0,1,26,6.478a.318.318,0,0,1,.1.206.782.782,0,0,1-.452.619,1.322,1.322,0,0,0-.166-.011,1.543,1.543,0,0,0-.646.163H24.8a.64.64,0,0,0-.59.479c-.194.56-.4,1.125-.6,1.672q-.123.333-.244.665l-.063.085-.063.085A2.139,2.139,0,0,1,22,10.995a1.372,1.372,0,0,1-.521-.108.666.666,0,0,0-.25-.048" transform="translate(1004 -3960.5)" fill="#fff"/>
    <path id="Path_3023" data-name="Path 3023" d="M32.088,6.472V15.9H29.081v2.12h8.625V15.9H34.7V6.472h3.007v-2.1H29.081v2.1Z" transform="translate(1004 -3960.5)" fill="#fff"/>
    <rect id="Rectangle_1101" data-name="Rectangle 1101" width="43.594" height="22.467" transform="translate(1004 -3960.5)" fill="none"/>
  </g>
</svg>
