<svg xmlns="http://www.w3.org/2000/svg" width="82.478" height="26.933" viewBox="0 0 82.478 26.933">
  <g id="Group_1610" data-name="Group 1610" transform="translate(-881.522 -805.148)">
    <path id="Path_1183" data-name="Path 1183" d="M9.45-4.284a1.208,1.208,0,0,1,.81.234.834.834,0,0,1,.27.666q0,.9-1.08.9H8.532v1.422A1.149,1.149,0,0,1,8.217-.2,1.126,1.126,0,0,1,7.4.108,1.126,1.126,0,0,1,6.579-.2a1.149,1.149,0,0,1-.315-.864V-2.484H1.548a1,1,0,0,1-.756-.279.957.957,0,0,1-.27-.693A1.388,1.388,0,0,1,.81-4.284l5.562-7.992a1.213,1.213,0,0,1,.45-.387A1.233,1.233,0,0,1,7.38-12.8a1.175,1.175,0,0,1,.81.306,1.1,1.1,0,0,1,.342.864v7.344Zm-6.534,0H6.264V-9.126ZM13.032.108a1.278,1.278,0,0,1-.954-.387,1.324,1.324,0,0,1-.378-.963,1.324,1.324,0,0,1,.378-.963,1.278,1.278,0,0,1,.954-.387,1.278,1.278,0,0,1,.954.387,1.324,1.324,0,0,1,.378.963,1.324,1.324,0,0,1-.378.963A1.278,1.278,0,0,1,13.032.108Zm7.218-12.96a4.487,4.487,0,0,1,3.717,1.629A7.283,7.283,0,0,1,25.272-6.57a9.592,9.592,0,0,1-.612,3.591A5.1,5.1,0,0,1,22.9-.648a4.533,4.533,0,0,1-2.691.81,6.1,6.1,0,0,1-2.061-.369,5.37,5.37,0,0,1-1.755-1,1.352,1.352,0,0,1-.333-.387.979.979,0,0,1-.1-.459,1.041,1.041,0,0,1,.225-.675.666.666,0,0,1,.531-.279.935.935,0,0,1,.342.063,2.569,2.569,0,0,1,.4.207,4.836,4.836,0,0,0,2.664,1.044,2.33,2.33,0,0,0,2.07-1.215,6.674,6.674,0,0,0,.792-3.411,3.088,3.088,0,0,1-1.242,1.287,3.647,3.647,0,0,1-1.854.477,3.936,3.936,0,0,1-2.016-.513A3.578,3.578,0,0,1,16.5-6.507,4.42,4.42,0,0,1,16-8.622a4.337,4.337,0,0,1,.549-2.187,3.914,3.914,0,0,1,1.512-1.5A4.394,4.394,0,0,1,20.25-12.852Zm.126,6.462a2.169,2.169,0,0,0,1.629-.639,2.288,2.288,0,0,0,.621-1.665,2.312,2.312,0,0,0-.621-1.683,2.169,2.169,0,0,0-1.629-.639,2.059,2.059,0,0,0-1.584.639A2.373,2.373,0,0,0,18.2-8.694a2.341,2.341,0,0,0,.594,1.674A2.074,2.074,0,0,0,20.376-6.39Z" transform="translate(881 818)"/>
    <text id="_" data-name="★★★★★" transform="translate(910 815)" font-size="8" font-family="SFProDisplay-Bold, SF Pro Display" font-weight="700"><tspan x="0" y="0">★★★★★</tspan></text>
    <path id="Path_1182" data-name="Path 1182" d="M4.509-.936q.54,0,.54.459,0,.477-.54.477H1.467Q.918,0,.918-.477q0-.459.549-.459H2.4v-4.1l-.864.531a.465.465,0,0,1-.225.072A.4.4,0,0,1,.994-4.6a.56.56,0,0,1-.13-.36A.451.451,0,0,1,1.1-5.364l1.395-.864a1,1,0,0,1,.513-.162.547.547,0,0,1,.4.153.572.572,0,0,1,.153.423V-.936ZM9.927-6.345a.477.477,0,0,1,.36.13.466.466,0,0,1,.126.338.885.885,0,0,1-.126.432L7.416-.234a.552.552,0,0,1-.5.306.558.558,0,0,1-.383-.149.47.47,0,0,1-.166-.364.6.6,0,0,1,.09-.306L9.045-5.409H6.327q-.54,0-.54-.459,0-.477.54-.477Zm5.6,4.2a.6.6,0,0,1,.405.117.417.417,0,0,1,.135.333q0,.45-.54.45h-.459v.711a.575.575,0,0,1-.157.432.563.563,0,0,1-.41.153A.563.563,0,0,1,14.09-.1a.575.575,0,0,1-.158-.432v-.711H11.574a.5.5,0,0,1-.378-.14.479.479,0,0,1-.135-.347.694.694,0,0,1,.144-.414l2.781-4a.607.607,0,0,1,.225-.193A.617.617,0,0,1,14.49-6.4a.587.587,0,0,1,.405.153.55.55,0,0,1,.171.432v3.672Zm-3.267,0h1.674V-4.563ZM24.4-.729a.569.569,0,0,1,.108.315.422.422,0,0,1-.167.342.6.6,0,0,1-.392.135A.59.59,0,0,1,23.674,0a.59.59,0,0,1-.22-.2l-1.2-1.818a1.166,1.166,0,0,0-.382-.405,1.045,1.045,0,0,0-.527-.117h-.882V-.531a.587.587,0,0,1-.153.428A.55.55,0,0,1,19.9.054.566.566,0,0,1,19.48-.1a.578.578,0,0,1-.157-.428V-5.8a.538.538,0,0,1,.149-.405.563.563,0,0,1,.41-.144h2.25a2.461,2.461,0,0,1,1.642.482,1.73,1.73,0,0,1,.563,1.39,1.758,1.758,0,0,1-.419,1.211,1.981,1.981,0,0,1-1.183.608,1.135,1.135,0,0,1,.459.225,1.98,1.98,0,0,1,.387.45Zm-2.43-2.709a1.524,1.524,0,0,0,.963-.248.92.92,0,0,0,.306-.76.9.9,0,0,0-.306-.76,1.567,1.567,0,0,0-.963-.239H20.457v2.007ZM31.257-.693a.554.554,0,0,1,.054.234.447.447,0,0,1-.167.351.568.568,0,0,1-.382.144.511.511,0,0,1-.27-.077.51.51,0,0,1-.2-.238l-.54-1.206H26.586l-.54,1.206a.51.51,0,0,1-.2.238.527.527,0,0,1-.279.077.573.573,0,0,1-.378-.144.443.443,0,0,1-.171-.351.554.554,0,0,1,.054-.234L27.558-6.03a.581.581,0,0,1,.247-.274.709.709,0,0,1,.356-.095.709.709,0,0,1,.355.095.581.581,0,0,1,.247.274ZM26.982-2.385h2.376L28.17-5.058Zm6.5,2.43a.578.578,0,0,1-.428-.158A.566.566,0,0,1,32.9-.531v-4.86H31.257q-.54,0-.54-.477t.54-.477h4.437q.54,0,.54.477t-.54.477H34.056v4.86a.566.566,0,0,1-.158.419A.566.566,0,0,1,33.48.045Zm4.014.009a.557.557,0,0,1-.418-.162.581.581,0,0,1-.158-.423V-5.814a.566.566,0,0,1,.158-.418.566.566,0,0,1,.418-.157.578.578,0,0,1,.428.157.566.566,0,0,1,.158.418V-.531a.581.581,0,0,1-.158.423A.569.569,0,0,1,37.494.054ZM44.253-6.39a.524.524,0,0,1,.4.157.585.585,0,0,1,.149.418V-.531a.591.591,0,0,1-.153.423.52.52,0,0,1-.4.162.515.515,0,0,1-.441-.207L40.527-4.428v3.9a.613.613,0,0,1-.144.423.5.5,0,0,1-.4.162.5.5,0,0,1-.4-.162.613.613,0,0,1-.144-.423V-5.814a.575.575,0,0,1,.153-.418.539.539,0,0,1,.4-.157.506.506,0,0,1,.432.207l3.276,4.257V-5.814a.585.585,0,0,1,.148-.418A.513.513,0,0,1,44.253-6.39ZM51-3.429a.46.46,0,0,1,.333.122.424.424,0,0,1,.126.32v1.935a1.157,1.157,0,0,1-.108.585.79.79,0,0,1-.441.279,4.647,4.647,0,0,1-.837.2,6.153,6.153,0,0,1-.918.072,3.542,3.542,0,0,1-1.7-.387,2.615,2.615,0,0,1-1.1-1.12,3.741,3.741,0,0,1-.382-1.75,3.7,3.7,0,0,1,.382-1.732,2.67,2.67,0,0,1,1.084-1.125A3.346,3.346,0,0,1,49.1-6.426a3.111,3.111,0,0,1,2.079.684.7.7,0,0,1,.158.2.517.517,0,0,1,.049.234.516.516,0,0,1-.108.333.324.324,0,0,1-.261.135.493.493,0,0,1-.18-.031,1.022,1.022,0,0,1-.189-.1,2.865,2.865,0,0,0-.738-.391,2.471,2.471,0,0,0-.774-.113,1.846,1.846,0,0,0-1.48.581,2.58,2.58,0,0,0-.5,1.724q0,2.34,2.052,2.34a4.53,4.53,0,0,0,1.224-.171V-2.6H49.41a.49.49,0,0,1-.338-.108.388.388,0,0,1-.121-.306.388.388,0,0,1,.121-.306.49.49,0,0,1,.338-.108Zm3.96,3.51A4.545,4.545,0,0,1,53.653-.1a2.883,2.883,0,0,1-1-.5.506.506,0,0,1-.207-.432.507.507,0,0,1,.112-.329.333.333,0,0,1,.265-.14.731.731,0,0,1,.369.126,2.7,2.7,0,0,0,.81.4,3.271,3.271,0,0,0,.936.126,1.843,1.843,0,0,0,1.008-.23.751.751,0,0,0,.351-.671.577.577,0,0,0-.328-.526,4.35,4.35,0,0,0-1.093-.355,6.478,6.478,0,0,1-1.287-.4,1.817,1.817,0,0,1-.747-.576,1.49,1.49,0,0,1-.252-.891,1.677,1.677,0,0,1,.315-1,2.075,2.075,0,0,1,.877-.688,3.108,3.108,0,0,1,1.264-.247,3.139,3.139,0,0,1,2.1.684.676.676,0,0,1,.167.194.511.511,0,0,1,.05.239.507.507,0,0,1-.113.328.333.333,0,0,1-.265.14.5.5,0,0,1-.167-.027,1.334,1.334,0,0,1-.2-.1,3.041,3.041,0,0,0-.715-.4,2.426,2.426,0,0,0-.851-.131,1.668,1.668,0,0,0-.967.247.792.792,0,0,0-.355.688A.632.632,0,0,0,54.036-4a3.692,3.692,0,0,0,1.071.369,7.206,7.206,0,0,1,1.3.4,1.929,1.929,0,0,1,.765.563,1.352,1.352,0,0,1,.265.855,1.633,1.633,0,0,1-.31.986,2.024,2.024,0,0,1-.873.666A3.284,3.284,0,0,1,54.963.081Z" transform="translate(881 832)"/>
  </g>
</svg>
