<svg xmlns="http://www.w3.org/2000/svg" width="344" height="48" viewBox="0 0 344 48">
  <g id="partners_invest_cuffs" transform="translate(-176 -1281)">
    <path id="Path_7727" data-name="Path 7727" d="M0,0H172V48H0Z" transform="translate(176 1281)" fill="#151515" opacity="0"/>
    <rect id="Rectangle_1057" data-name="Rectangle 1057" width="172" height="48" transform="translate(348 1281)" fill="#151515" opacity="0"/>
    <g id="blockchainreporterBlack" transform="translate(349.553 1289.141)">
      <path id="Path_7708" data-name="Path 7708" d="M1001.6,110.262v2.72h2.859V110.2Z" transform="translate(-842.918 -91.086)" fill="#c85855"/>
      <path id="Path_7709" data-name="Path 7709" d="M973.3,60.622a2.216,2.216,0,0,0-2.471-.109,2.254,2.254,0,0,0-.622,1.818v6.216l-2.409-.031.031-10.427,2.409-.062.031.715a3.733,3.733,0,0,1,1.243-.793,2.482,2.482,0,0,1,1.507.031c.435.2.311.2.311.2Z" transform="translate(-814.37 -46.869)" fill="#fff"/>
      <path id="Path_7710" data-name="Path 7710" d="M589.5,60.622a2.216,2.216,0,0,0-2.471-.109,2.254,2.254,0,0,0-.622,1.818v6.216L584,68.517l.031-10.427,2.409-.062.031.715a3.731,3.731,0,0,1,1.243-.793,2.482,2.482,0,0,1,1.507.031c.435.2.311.2.311.2Z" transform="translate(-490.213 -46.869)" fill="#fff"/>
      <g id="Group_2124" data-name="Group 2124" transform="translate(142.885 11.276)">
        <path id="Path_7711" data-name="Path 7711" d="M909.273,62.207c-.932-2.067-3.621-2.424-3.621-2.424a5.959,5.959,0,0,0-3.45.73,5.713,5.713,0,0,0-2.145,3.248,6.634,6.634,0,0,0,.482,4.025,4.857,4.857,0,0,0,3.139,2.5,7.968,7.968,0,0,0,3.574-.109,5.012,5.012,0,0,0,1.772-1.29l.388-.513L907.8,67.164a2.883,2.883,0,0,1-2.207,1.4,3.124,3.124,0,0,1-2.611-.979,4.044,4.044,0,0,1-.653-1.632l7.506-.016A6.574,6.574,0,0,0,909.273,62.207Zm-6.993,2a5.867,5.867,0,0,1,.218-.886c.156-.466,1.057-1.678,2.082-1.663a2.932,2.932,0,0,1,2.315.808,2.806,2.806,0,0,1,.653,1.725Z" transform="translate(-899.94 -59.761)" fill="#fff"/>
      </g>
      <g id="Group_2125" data-name="Group 2125" transform="translate(99.077 11.276)">
        <path id="Path_7712" data-name="Path 7712" d="M627.373,62.207c-.932-2.067-3.621-2.424-3.621-2.424a5.959,5.959,0,0,0-3.45.73,5.714,5.714,0,0,0-2.145,3.248,6.633,6.633,0,0,0,.482,4.025,4.857,4.857,0,0,0,3.139,2.5,7.745,7.745,0,0,0,3.574-.109,5.012,5.012,0,0,0,1.772-1.29l.388-.513L625.9,67.164a2.883,2.883,0,0,1-2.207,1.4,3.124,3.124,0,0,1-2.611-.979,4.044,4.044,0,0,1-.653-1.632l7.506-.016A6.573,6.573,0,0,0,627.373,62.207Zm-6.993,2a5.867,5.867,0,0,1,.218-.886c.155-.466,1.057-1.678,2.082-1.663a2.932,2.932,0,0,1,2.315.808,2.806,2.806,0,0,1,.653,1.725Z" transform="translate(-618.04 -59.761)" fill="#fff"/>
      </g>
      <path id="Path_7713" data-name="Path 7713" d="M833.467,53.177l.016,1.9h-2.3a2.291,2.291,0,0,1-1.336-.575,3.132,3.132,0,0,1-1.088-2.036c-.062-.9-.016-5.936-.016-5.936l-2.144-.016a2.326,2.326,0,0,0-1.336.528c-.653.528-.87.824-.87.995s-.016,7.04-.016,7.04l-2.176.016.047-10.272h2.176l-.062,1.228a6.4,6.4,0,0,1,1.383-1.1,6.268,6.268,0,0,1,2.347-.249h.653l.016-3.077,2.253-.016.016,3.046h2.549l-.047,1.943h-2.471v5.486a1.226,1.226,0,0,0,.4.808,2.069,2.069,0,0,0,1.15.342Z" transform="translate(-691.396 -33.146)" fill="#fff"/>
      <g id="Group_2126" data-name="Group 2126" transform="translate(120.109 11.263)">
        <path id="Path_7714" data-name="Path 7714" d="M761.993,60.985a5.438,5.438,0,0,0-3.59-1.305,5.026,5.026,0,0,0-3.03.917,4.847,4.847,0,0,0-1.927,3.294c-.093.963-.264,3.186.964,4.6a4.657,4.657,0,0,0,2.657,1.725,6.827,6.827,0,0,0,2.813.047,5.3,5.3,0,0,0,2.626-1.74,6.11,6.11,0,0,0,1.072-2.937S763.718,62.446,761.993,60.985Zm-.87,4.988a3.646,3.646,0,0,1-.932,1.911,2.653,2.653,0,0,1-1.663.637,2.33,2.33,0,0,1-1.834-.746,3.41,3.41,0,0,1-.948-2.362,5,5,0,0,1,.622-2.751,2.622,2.622,0,0,1,4.1-.218C761.5,63.472,761.123,65.974,761.123,65.974Z" transform="translate(-753.381 -59.676)" fill="#fff"/>
      </g>
      <g id="Group_2127" data-name="Group 2127" transform="translate(20.031 11.263)">
        <path id="Path_7715" data-name="Path 7715" d="M117.993,60.985a5.438,5.438,0,0,0-3.59-1.305,5.026,5.026,0,0,0-3.03.917,4.847,4.847,0,0,0-1.927,3.294c-.093.963-.264,3.186.963,4.6a4.658,4.658,0,0,0,2.657,1.725,6.827,6.827,0,0,0,2.813.047,5.3,5.3,0,0,0,2.626-1.74,6.111,6.111,0,0,0,1.072-2.937S119.718,62.446,117.993,60.985Zm-.87,4.988a3.646,3.646,0,0,1-.932,1.911,2.653,2.653,0,0,1-1.663.637,2.33,2.33,0,0,1-1.834-.746,3.41,3.41,0,0,1-.948-2.362,5,5,0,0,1,.622-2.751,2.622,2.622,0,0,1,4.1-.218C117.511,63.472,117.123,65.974,117.123,65.974Z" transform="translate(-109.381 -59.676)" fill="#77ac57"/>
      </g>
      <path id="Path_7716" data-name="Path 7716" d="M695.387,61.229a4.394,4.394,0,0,0-5.144-1.2,5.857,5.857,0,0,0-1.274.948V59.955H686.7l.016,14.3,2.269-.016L689,69.155s.093.078.233.218a7.018,7.018,0,0,0,1.694.87,5.264,5.264,0,0,0,2.176.078,4.675,4.675,0,0,0,2.346-1.507,6.352,6.352,0,0,0,1.041-3.419C696.506,64.695,696.583,62.5,695.387,61.229Zm-1.554,5.7a2.522,2.522,0,0,1-1.6,1.476,3.382,3.382,0,0,1-2-.186A12.789,12.789,0,0,1,689,67.337V62.612a6.218,6.218,0,0,1,1.414-.886,3.163,3.163,0,0,1,2.346.109,3.316,3.316,0,0,1,1.29,1.709A7.3,7.3,0,0,1,693.833,66.933Z" transform="translate(-576.953 -48.393)" fill="#fff"/>
      <path id="Path_7717" data-name="Path 7717" d="M516.3,60.5V70.646l2.3.016.047-7.319a6.5,6.5,0,0,1,1.865-1.259,3.3,3.3,0,0,1,2,.218,1.541,1.541,0,0,1,.824,1.383c.047.637.109,6.977.109,6.977h2.269l-.016-7.584a3.149,3.149,0,0,0-1.274-2.176,5.4,5.4,0,0,0-3.046-.606,5.47,5.47,0,0,0-1.958.653l-.808.622v-1.15Z" transform="translate(-433.033 -48.921)" fill="#77ac57"/>
      <path id="Path_7718" data-name="Path 7718" d="M490.431,61.7h2.315V71.77H490.4Z" transform="translate(-411.158 -50.122)" fill="#77ac57"/>
      <path id="Path_7719" data-name="Path 7719" d="M494,26.749l1.772,1.772L497.59,26.7l-1.8-1.8Z" transform="translate(-414.199 -19.041)" fill="#77ac57"/>
      <g id="Group_2128" data-name="Group 2128" transform="translate(68.738 11.219)">
        <path id="Path_7720" data-name="Path 7720" d="M432.052,69.947l-.016-7.04a3.23,3.23,0,0,0-.979-2.378A4.579,4.579,0,0,0,428,59.4a5.9,5.9,0,0,0-3,.575,9.219,9.219,0,0,0-1.554.963l1.4,1.368a4.649,4.649,0,0,1,2.3-1.041,3.058,3.058,0,0,1,2.02.622,2.167,2.167,0,0,1,.575,1.259,6.92,6.92,0,0,1,0,1.336,6.023,6.023,0,0,0-1.865-.963,5.957,5.957,0,0,0-3.388.513,3.23,3.23,0,0,0-1.663,2.486,2.884,2.884,0,0,0,1.538,2.937,5.792,5.792,0,0,0,3.574.653,5.479,5.479,0,0,0,1.507-.761c.233-.186.326-.28.326-.28l-.016.886Zm-2.316-2.626a2.96,2.96,0,0,1-1.165.808,3.788,3.788,0,0,1-2.486,0,1.361,1.361,0,0,1-.824-1.134,1.629,1.629,0,0,1,.684-1.336,3.134,3.134,0,0,1,2.315-.326,2.954,2.954,0,0,1,1.492.793v1.2Z" transform="translate(-422.807 -59.395)" fill="#77ac57"/>
      </g>
      <path id="Path_7721" data-name="Path 7721" d="M359.3,34.9h2.284v5.361a4.7,4.7,0,0,1,2.409-1.368,3.708,3.708,0,0,1,3.574.761,3.122,3.122,0,0,1,1.026,2.642v6.884h-2.331l.078-7.148a2.052,2.052,0,0,0-1.616-1.476c-1.383-.311-3.2,1.538-3.2,1.538V49.15h-2.16C359.378,49.15,359.362,34.962,359.3,34.9Z" transform="translate(-300.431 -27.487)" fill="#77ac57"/>
      <path id="Path_7722" data-name="Path 7722" d="M302.775,62.938l1.74-1.2A6.641,6.641,0,0,0,301.9,59.6a7.107,7.107,0,0,0-3.807.078,5.071,5.071,0,0,0-2.766,2.937,6.713,6.713,0,0,0,.622,5.423,5.071,5.071,0,0,0,2.875,2.02,5.8,5.8,0,0,0,3.714-.42,7.327,7.327,0,0,0,1.632-1.461l.342-.466-1.834-1.1s-.622,1.383-1.663,1.57a2.858,2.858,0,0,1-2.58-.513,3.692,3.692,0,0,1-1.165-3.046,3.509,3.509,0,0,1,1.29-2.828,3.383,3.383,0,0,1,2.424-.389,3.085,3.085,0,0,1,1.29.855A6.732,6.732,0,0,1,302.775,62.938Z" transform="translate(-246.113 -48.159)" fill="#77ac57"/>
      <path id="Path_7723" data-name="Path 7723" d="M184.175,62.938l1.74-1.2A6.641,6.641,0,0,0,183.3,59.6a7.107,7.107,0,0,0-3.807.078,5.071,5.071,0,0,0-2.766,2.937,6.713,6.713,0,0,0,.622,5.423,5.071,5.071,0,0,0,2.875,2.02,5.8,5.8,0,0,0,3.714-.42,7.326,7.326,0,0,0,1.632-1.461l.342-.466-1.834-1.1s-.622,1.383-1.663,1.57a2.858,2.858,0,0,1-2.58-.513,3.692,3.692,0,0,1-1.165-3.046,3.509,3.509,0,0,1,1.29-2.828,3.383,3.383,0,0,1,2.424-.389,3.24,3.24,0,0,1,1.29.855A6.724,6.724,0,0,1,184.175,62.938Z" transform="translate(-145.943 -48.159)" fill="#77ac57"/>
      <path id="Path_7724" data-name="Path 7724" d="M240.3,49.09h2.253V46.4l1.8-2.113,2.875,4.771h2.58l-4.118-6.247,3.559-3.932-2.8.016L242.6,43.48l-.016-8.765L240.3,34.7Z" transform="translate(-199.924 -27.318)" fill="#77ac57"/>
      <path id="Path_7725" data-name="Path 7725" d="M89.8,34.7h2.315V49.059H89.831Z" transform="translate(-72.811 -27.318)" fill="#77ac57"/>
      <g id="Group_2129" data-name="Group 2129" transform="translate(7.447 7.475)">
        <path id="Path_7726" data-name="Path 7726" d="M37.18,42.386a5.159,5.159,0,0,0-1.8-2.378,4.989,4.989,0,0,0-2.036-.591,6.562,6.562,0,0,0-2.16.249,2.851,2.851,0,0,1-.575.249V35.3l-2.207.016.047,11.251a2.806,2.806,0,0,0,1.072,1.8,4.3,4.3,0,0,0,2.533,1.1,5.4,5.4,0,0,0,3.015-.559,5.336,5.336,0,0,0,2.16-2.751A9.067,9.067,0,0,0,37.18,42.386Zm-2.207,3.621a2.6,2.6,0,0,1-2.082,1.383,2.44,2.44,0,0,1-1.8-.435,1.737,1.737,0,0,1-.466-1.088V42.215l.28-.3a2.939,2.939,0,0,1,1.663-.482,2.4,2.4,0,0,1,1.74.42,2.861,2.861,0,0,1,.9,1.368A5.322,5.322,0,0,1,34.973,46.007Z" transform="translate(-28.4 -35.3)" fill="#77ac57"/>
      </g>
    </g>
    <g id="blockchainreporterBlack-2" data-name="blockchainreporterBlack" transform="translate(177.553 1289.141)">
      <path id="Path_7708-2" data-name="Path 7708" d="M1001.6,110.262v2.72h2.859V110.2Z" transform="translate(-842.918 -91.086)" fill="#c85855"/>
      <path id="Path_7709-2" data-name="Path 7709" d="M973.3,60.622a2.216,2.216,0,0,0-2.471-.109,2.254,2.254,0,0,0-.622,1.818v6.216l-2.409-.031.031-10.427,2.409-.062.031.715a3.733,3.733,0,0,1,1.243-.793,2.482,2.482,0,0,1,1.507.031c.435.2.311.2.311.2Z" transform="translate(-814.37 -46.869)"/>
      <path id="Path_7710-2" data-name="Path 7710" d="M589.5,60.622a2.216,2.216,0,0,0-2.471-.109,2.254,2.254,0,0,0-.622,1.818v6.216L584,68.517l.031-10.427,2.409-.062.031.715a3.731,3.731,0,0,1,1.243-.793,2.482,2.482,0,0,1,1.507.031c.435.2.311.2.311.2Z" transform="translate(-490.213 -46.869)"/>
      <g id="Group_2124-2" data-name="Group 2124" transform="translate(142.885 11.276)">
        <path id="Path_7711-2" data-name="Path 7711" d="M909.273,62.207c-.932-2.067-3.621-2.424-3.621-2.424a5.959,5.959,0,0,0-3.45.73,5.713,5.713,0,0,0-2.145,3.248,6.634,6.634,0,0,0,.482,4.025,4.857,4.857,0,0,0,3.139,2.5,7.968,7.968,0,0,0,3.574-.109,5.012,5.012,0,0,0,1.772-1.29l.388-.513L907.8,67.164a2.883,2.883,0,0,1-2.207,1.4,3.124,3.124,0,0,1-2.611-.979,4.044,4.044,0,0,1-.653-1.632l7.506-.016A6.574,6.574,0,0,0,909.273,62.207Zm-6.993,2a5.867,5.867,0,0,1,.218-.886c.156-.466,1.057-1.678,2.082-1.663a2.932,2.932,0,0,1,2.315.808,2.806,2.806,0,0,1,.653,1.725Z" transform="translate(-899.94 -59.761)"/>
      </g>
      <g id="Group_2125-2" data-name="Group 2125" transform="translate(99.077 11.276)">
        <path id="Path_7712-2" data-name="Path 7712" d="M627.373,62.207c-.932-2.067-3.621-2.424-3.621-2.424a5.959,5.959,0,0,0-3.45.73,5.714,5.714,0,0,0-2.145,3.248,6.633,6.633,0,0,0,.482,4.025,4.857,4.857,0,0,0,3.139,2.5,7.745,7.745,0,0,0,3.574-.109,5.012,5.012,0,0,0,1.772-1.29l.388-.513L625.9,67.164a2.883,2.883,0,0,1-2.207,1.4,3.124,3.124,0,0,1-2.611-.979,4.044,4.044,0,0,1-.653-1.632l7.506-.016A6.573,6.573,0,0,0,627.373,62.207Zm-6.993,2a5.867,5.867,0,0,1,.218-.886c.155-.466,1.057-1.678,2.082-1.663a2.932,2.932,0,0,1,2.315.808,2.806,2.806,0,0,1,.653,1.725Z" transform="translate(-618.04 -59.761)"/>
      </g>
      <path id="Path_7713-2" data-name="Path 7713" d="M833.467,53.177l.016,1.9h-2.3a2.291,2.291,0,0,1-1.336-.575,3.132,3.132,0,0,1-1.088-2.036c-.062-.9-.016-5.936-.016-5.936l-2.144-.016a2.326,2.326,0,0,0-1.336.528c-.653.528-.87.824-.87.995s-.016,7.04-.016,7.04l-2.176.016.047-10.272h2.176l-.062,1.228a6.4,6.4,0,0,1,1.383-1.1,6.268,6.268,0,0,1,2.347-.249h.653l.016-3.077,2.253-.016.016,3.046h2.549l-.047,1.943h-2.471v5.486a1.226,1.226,0,0,0,.4.808,2.069,2.069,0,0,0,1.15.342Z" transform="translate(-691.396 -33.146)"/>
      <g id="Group_2126-2" data-name="Group 2126" transform="translate(120.109 11.263)">
        <path id="Path_7714-2" data-name="Path 7714" d="M761.993,60.985a5.438,5.438,0,0,0-3.59-1.305,5.026,5.026,0,0,0-3.03.917,4.847,4.847,0,0,0-1.927,3.294c-.093.963-.264,3.186.964,4.6a4.657,4.657,0,0,0,2.657,1.725,6.827,6.827,0,0,0,2.813.047,5.3,5.3,0,0,0,2.626-1.74,6.11,6.11,0,0,0,1.072-2.937S763.718,62.446,761.993,60.985Zm-.87,4.988a3.646,3.646,0,0,1-.932,1.911,2.653,2.653,0,0,1-1.663.637,2.33,2.33,0,0,1-1.834-.746,3.41,3.41,0,0,1-.948-2.362,5,5,0,0,1,.622-2.751,2.622,2.622,0,0,1,4.1-.218C761.5,63.472,761.123,65.974,761.123,65.974Z" transform="translate(-753.381 -59.676)"/>
      </g>
      <g id="Group_2127-2" data-name="Group 2127" transform="translate(20.031 11.263)">
        <path id="Path_7715-2" data-name="Path 7715" d="M117.993,60.985a5.438,5.438,0,0,0-3.59-1.305,5.026,5.026,0,0,0-3.03.917,4.847,4.847,0,0,0-1.927,3.294c-.093.963-.264,3.186.963,4.6a4.658,4.658,0,0,0,2.657,1.725,6.827,6.827,0,0,0,2.813.047,5.3,5.3,0,0,0,2.626-1.74,6.111,6.111,0,0,0,1.072-2.937S119.718,62.446,117.993,60.985Zm-.87,4.988a3.646,3.646,0,0,1-.932,1.911,2.653,2.653,0,0,1-1.663.637,2.33,2.33,0,0,1-1.834-.746,3.41,3.41,0,0,1-.948-2.362,5,5,0,0,1,.622-2.751,2.622,2.622,0,0,1,4.1-.218C117.511,63.472,117.123,65.974,117.123,65.974Z" transform="translate(-109.381 -59.676)" fill="#77ac57"/>
      </g>
      <path id="Path_7716-2" data-name="Path 7716" d="M695.387,61.229a4.394,4.394,0,0,0-5.144-1.2,5.857,5.857,0,0,0-1.274.948V59.955H686.7l.016,14.3,2.269-.016L689,69.155s.093.078.233.218a7.018,7.018,0,0,0,1.694.87,5.264,5.264,0,0,0,2.176.078,4.675,4.675,0,0,0,2.346-1.507,6.352,6.352,0,0,0,1.041-3.419C696.506,64.695,696.583,62.5,695.387,61.229Zm-1.554,5.7a2.522,2.522,0,0,1-1.6,1.476,3.382,3.382,0,0,1-2-.186A12.789,12.789,0,0,1,689,67.337V62.612a6.218,6.218,0,0,1,1.414-.886,3.163,3.163,0,0,1,2.346.109,3.316,3.316,0,0,1,1.29,1.709A7.3,7.3,0,0,1,693.833,66.933Z" transform="translate(-576.953 -48.393)"/>
      <path id="Path_7717-2" data-name="Path 7717" d="M516.3,60.5V70.646l2.3.016.047-7.319a6.5,6.5,0,0,1,1.865-1.259,3.3,3.3,0,0,1,2,.218,1.541,1.541,0,0,1,.824,1.383c.047.637.109,6.977.109,6.977h2.269l-.016-7.584a3.149,3.149,0,0,0-1.274-2.176,5.4,5.4,0,0,0-3.046-.606,5.47,5.47,0,0,0-1.958.653l-.808.622v-1.15Z" transform="translate(-433.033 -48.921)" fill="#77ac57"/>
      <path id="Path_7718-2" data-name="Path 7718" d="M490.431,61.7h2.315V71.77H490.4Z" transform="translate(-411.158 -50.122)" fill="#77ac57"/>
      <path id="Path_7719-2" data-name="Path 7719" d="M494,26.749l1.772,1.772L497.59,26.7l-1.8-1.8Z" transform="translate(-414.199 -19.041)" fill="#77ac57"/>
      <g id="Group_2128-2" data-name="Group 2128" transform="translate(68.738 11.219)">
        <path id="Path_7720-2" data-name="Path 7720" d="M432.052,69.947l-.016-7.04a3.23,3.23,0,0,0-.979-2.378A4.579,4.579,0,0,0,428,59.4a5.9,5.9,0,0,0-3,.575,9.219,9.219,0,0,0-1.554.963l1.4,1.368a4.649,4.649,0,0,1,2.3-1.041,3.058,3.058,0,0,1,2.02.622,2.167,2.167,0,0,1,.575,1.259,6.92,6.92,0,0,1,0,1.336,6.023,6.023,0,0,0-1.865-.963,5.957,5.957,0,0,0-3.388.513,3.23,3.23,0,0,0-1.663,2.486,2.884,2.884,0,0,0,1.538,2.937,5.792,5.792,0,0,0,3.574.653,5.479,5.479,0,0,0,1.507-.761c.233-.186.326-.28.326-.28l-.016.886Zm-2.316-2.626a2.96,2.96,0,0,1-1.165.808,3.788,3.788,0,0,1-2.486,0,1.361,1.361,0,0,1-.824-1.134,1.629,1.629,0,0,1,.684-1.336,3.134,3.134,0,0,1,2.315-.326,2.954,2.954,0,0,1,1.492.793v1.2Z" transform="translate(-422.807 -59.395)" fill="#77ac57"/>
      </g>
      <path id="Path_7721-2" data-name="Path 7721" d="M359.3,34.9h2.284v5.361a4.7,4.7,0,0,1,2.409-1.368,3.708,3.708,0,0,1,3.574.761,3.122,3.122,0,0,1,1.026,2.642v6.884h-2.331l.078-7.148a2.052,2.052,0,0,0-1.616-1.476c-1.383-.311-3.2,1.538-3.2,1.538V49.15h-2.16C359.378,49.15,359.362,34.962,359.3,34.9Z" transform="translate(-300.431 -27.487)" fill="#77ac57"/>
      <path id="Path_7722-2" data-name="Path 7722" d="M302.775,62.938l1.74-1.2A6.641,6.641,0,0,0,301.9,59.6a7.107,7.107,0,0,0-3.807.078,5.071,5.071,0,0,0-2.766,2.937,6.713,6.713,0,0,0,.622,5.423,5.071,5.071,0,0,0,2.875,2.02,5.8,5.8,0,0,0,3.714-.42,7.327,7.327,0,0,0,1.632-1.461l.342-.466-1.834-1.1s-.622,1.383-1.663,1.57a2.858,2.858,0,0,1-2.58-.513,3.692,3.692,0,0,1-1.165-3.046,3.509,3.509,0,0,1,1.29-2.828,3.383,3.383,0,0,1,2.424-.389,3.085,3.085,0,0,1,1.29.855A6.732,6.732,0,0,1,302.775,62.938Z" transform="translate(-246.113 -48.159)" fill="#77ac57"/>
      <path id="Path_7723-2" data-name="Path 7723" d="M184.175,62.938l1.74-1.2A6.641,6.641,0,0,0,183.3,59.6a7.107,7.107,0,0,0-3.807.078,5.071,5.071,0,0,0-2.766,2.937,6.713,6.713,0,0,0,.622,5.423,5.071,5.071,0,0,0,2.875,2.02,5.8,5.8,0,0,0,3.714-.42,7.326,7.326,0,0,0,1.632-1.461l.342-.466-1.834-1.1s-.622,1.383-1.663,1.57a2.858,2.858,0,0,1-2.58-.513,3.692,3.692,0,0,1-1.165-3.046,3.509,3.509,0,0,1,1.29-2.828,3.383,3.383,0,0,1,2.424-.389,3.24,3.24,0,0,1,1.29.855A6.724,6.724,0,0,1,184.175,62.938Z" transform="translate(-145.943 -48.159)" fill="#77ac57"/>
      <path id="Path_7724-2" data-name="Path 7724" d="M240.3,49.09h2.253V46.4l1.8-2.113,2.875,4.771h2.58l-4.118-6.247,3.559-3.932-2.8.016L242.6,43.48l-.016-8.765L240.3,34.7Z" transform="translate(-199.924 -27.318)" fill="#77ac57"/>
      <path id="Path_7725-2" data-name="Path 7725" d="M89.8,34.7h2.315V49.059H89.831Z" transform="translate(-72.811 -27.318)" fill="#77ac57"/>
      <g id="Group_2129-2" data-name="Group 2129" transform="translate(7.447 7.475)">
        <path id="Path_7726-2" data-name="Path 7726" d="M37.18,42.386a5.159,5.159,0,0,0-1.8-2.378,4.989,4.989,0,0,0-2.036-.591,6.562,6.562,0,0,0-2.16.249,2.851,2.851,0,0,1-.575.249V35.3l-2.207.016.047,11.251a2.806,2.806,0,0,0,1.072,1.8,4.3,4.3,0,0,0,2.533,1.1,5.4,5.4,0,0,0,3.015-.559,5.336,5.336,0,0,0,2.16-2.751A9.067,9.067,0,0,0,37.18,42.386Zm-2.207,3.621a2.6,2.6,0,0,1-2.082,1.383,2.44,2.44,0,0,1-1.8-.435,1.737,1.737,0,0,1-.466-1.088V42.215l.28-.3a2.939,2.939,0,0,1,1.663-.482,2.4,2.4,0,0,1,1.74.42,2.861,2.861,0,0,1,.9,1.368A5.322,5.322,0,0,1,34.973,46.007Z" transform="translate(-28.4 -35.3)" fill="#77ac57"/>
      </g>
    </g>
  </g>
</svg>
