<svg xmlns="http://www.w3.org/2000/svg" viewBox="0 0 318.23 97.42"><defs><style>.cls-1{isolation:isolate;}.cls-2{fill:#ffb30d;}.cls-2,.cls-3,.cls-4,.cls-5{fill-rule:evenodd;}.cls-3{fill:#ffd272;}.cls-4{fill:#fff;}</style></defs><title>eAsset 1Partners</title><g id="Layer_2" data-name="Layer 2"><g id="_-e-Shape_1" data-name="-e-Shape 1" class="cls-1"><g id="_-e-Shape_1-2" data-name="-e-Shape 1"><path class="cls-2" d="M48.71,0A48.71,48.71,0,1,0,97.42,48.71,48.71,48.71,0,0,0,48.71,0Z"/></g></g><g id="_-e-Rounded_Rectangle_1" data-name="-e-Rounded Rectangle 1" class="cls-1"><g id="_-e-Rounded_Rectangle_1-2" data-name="-e-Rounded Rectangle 1"><path class="cls-3" d="M74.59,21.77,65.75,30.6a24.86,24.86,0,0,1,0,36.25l8.84,8.84a37.36,37.36,0,0,0,0-53.92Z"/></g></g><g id="_-e-Rounded_Rectangle_1_copy" data-name="-e-Rounded Rectangle 1 copy" class="cls-1"><g id="_-e-Rounded_Rectangle_1_copy-2" data-name="-e-Rounded Rectangle 1 copy"><path class="cls-4" d="M48.71,73.58a24.87,24.87,0,1,1,17-43l8.84-8.83a37.35,37.35,0,1,0,0,53.92l-8.84-8.84A24.8,24.8,0,0,1,48.71,73.58Z"/></g></g><g id="_-e-COINS" data-name="-e-COINS" class="cls-1"><g id="_-e-COINS-2" data-name="-e-COINS"><path class="cls-5" d="M148.81,34.58A13.43,13.43,0,0,1,159.7,40l5.75-6.52a21.88,21.88,0,0,0-17.06-7.76A21.24,21.24,0,0,0,133,31.91a20.59,20.59,0,0,0-6.31,15.37,20.4,20.4,0,0,0,6.19,15.25q6.18,6,15.75,6t16.61-7.94l-5.92-6.1a13.6,13.6,0,0,1-11.13,5.39,11.53,11.53,0,0,1-8.47-3.49,12.53,12.53,0,0,1-3.5-9.27A11.86,11.86,0,0,1,139.9,38,12.67,12.67,0,0,1,148.81,34.58ZM191,25.75a21.27,21.27,0,0,0-15.45,6.13,20.44,20.44,0,0,0-6.28,15.25,20.44,20.44,0,0,0,6.28,15.25,22.55,22.55,0,0,0,30.91,0,20.48,20.48,0,0,0,6.28-15.25,20.48,20.48,0,0,0-6.28-15.25A21.31,21.31,0,0,0,191,25.75Zm8.77,30.83a11.77,11.77,0,0,1-17.47,0,13.46,13.46,0,0,1-3.56-9.42,13.52,13.52,0,0,1,3.56-9.44,11.71,11.71,0,0,1,17.47,0,13.52,13.52,0,0,1,3.55,9.44A13.45,13.45,0,0,1,199.74,56.58ZM220.52,68.1h9.24V26.7h-9.24ZM268.9,53.35,248.59,26.7H240V68.1h9.23V42.16L268.9,68.1h9.24V26.7H268.9ZM315,47.61a21.24,21.24,0,0,0-9.15-4.36q-5.9-1.44-7.52-2.51a3.28,3.28,0,0,1-1.63-2.88A3.56,3.56,0,0,1,298,35a5.57,5.57,0,0,1,3.64-1.09A18.28,18.28,0,0,1,312.79,38l4.67-6.75a22.19,22.19,0,0,0-7.22-4A25.66,25.66,0,0,0,302,25.75,17,17,0,0,0,291.38,29,10.7,10.7,0,0,0,287.14,38q0,5.9,3.35,8.65t10.57,4.47a20.14,20.14,0,0,1,6.1,2.22,3.44,3.44,0,0,1,1.54,3,3.51,3.51,0,0,1-1.45,3,6.51,6.51,0,0,1-4,1.1q-5.69,0-12.38-5.87l-5.5,6.75q7.88,7.29,17.7,7.29,6.81,0,11-3.47a11.16,11.16,0,0,0,4.17-9Q318.23,50.51,315,47.61Z"/></g></g></g></svg>