<svg xmlns="http://www.w3.org/2000/svg" width="42" height="43" viewBox="0 0 42 43">
  <defs>
    <style>
      .cls-1 {
        fill: #ffb30d;
      }

      .cls-1, .cls-2, .cls-3 {
        fill-rule: evenodd;
      }

      .cls-2 {
        fill: #ffd272;
      }

      .cls-3 {
        fill: #fff;
      }
    </style>
  </defs>
  <path class="cls-1" d="M41.656,21.469A20.713,20.713,0,1,1,20.942.756,20.713,20.713,0,0,1,41.656,21.469Z"/>
  <path id="Rounded_Rectangle_1" data-name="Rounded Rectangle 1" class="cls-2" d="M31.518,21.469a10.546,10.546,0,0,1-3.342,7.714l3.758,3.758a15.886,15.886,0,0,0,.014-22.93L28.19,13.768A10.545,10.545,0,0,1,31.518,21.469Z"/>
  <path id="Rounded_Rectangle_1_copy" data-name="Rounded Rectangle 1 copy" class="cls-3" d="M28.176,29.183a10.575,10.575,0,1,1,.014-15.415l3.757-3.757a15.887,15.887,0,1,0-.014,22.93Z"/>
</svg>
