<svg xmlns="http://www.w3.org/2000/svg" width="344" height="48" viewBox="0 0 344 48">
  <g id="partners_invest_cuffs" transform="translate(-176 -1281)">
    <path id="Path_7727" data-name="Path 7727" d="M0,0H172V48H0Z" transform="translate(176 1281)" fill="#151515" opacity="0"/>
    <rect id="Rectangle_1057" data-name="Rectangle 1057" width="172" height="48" transform="translate(348 1281)" fill="#151515" opacity="0"/>
    <path id="Union_100" data-name="Union 100" d="M-44.153,23.593l2.654-7.168a4.6,4.6,0,0,0,1.064.144,4.666,4.666,0,0,0,4.627-3.542,4.612,4.612,0,0,0-2.486-5.241L-35.64.626c.333.134.647.278.956.436l-1.062,2.862,0,.006a9.182,9.182,0,0,1,4.139,11.2A9.33,9.33,0,0,1-42.075,21.01l-1.064,2.862C-43.48,23.8-43.817,23.7-44.153,23.593Zm-1.937-.805,1.062-2.866A9.182,9.182,0,0,1-49.089,8.77a9.331,9.331,0,0,1,10.383-5.9L-37.644,0c.349.076.679.167,1.016.272l-2.656,7.169a4.549,4.549,0,0,0-1.073-.121,4.664,4.664,0,0,0-4.531,3.546,4.612,4.612,0,0,0,2.407,5.2l-2.656,7.167Q-45.625,23.027-46.09,22.788Zm-36.338-5.451a5.908,5.908,0,0,1-2.3-2.186,5.978,5.978,0,0,1-.833-3.126,5.819,5.819,0,0,1,3.136-5.254,6.881,6.881,0,0,1,3.3-.783,6.908,6.908,0,0,1,3.292.783,5.867,5.867,0,0,1,2.307,2.16,5.842,5.842,0,0,1,.836,3.094,5.958,5.958,0,0,1-.836,3.126,5.874,5.874,0,0,1-2.307,2.186,6.833,6.833,0,0,1-3.292.79h-.112A6.816,6.816,0,0,1-82.429,17.337Zm1.911-8.046V9.3a3.028,3.028,0,0,0-1.061,1.149,3.289,3.289,0,0,0-.4,1.609,3.345,3.345,0,0,0,.4,1.608,3.071,3.071,0,0,0,1.061,1.149,2.631,2.631,0,0,0,1.441.425,2.517,2.517,0,0,0,1.393-.425,2.913,2.913,0,0,0,1.019-1.149,3.7,3.7,0,0,0,0-3.234,2.891,2.891,0,0,0-1.01-1.149,2.542,2.542,0,0,0-1.4-.421A2.662,2.662,0,0,0-80.518,9.291Zm-13.445,8.037a5.779,5.779,0,0,1-2.231-2.193A6.158,6.158,0,0,1-97,12.007a5.868,5.868,0,0,1,.826-3.075A5.847,5.847,0,0,1-93.9,6.772a6.85,6.85,0,0,1,5.919-.207,6.466,6.466,0,0,1,2.224,1.517l-2.029,2.376A4.226,4.226,0,0,0-89.107,9.3,3.086,3.086,0,0,0-90.6,8.863a2.628,2.628,0,0,0-1.432.4,2.829,2.829,0,0,0-1.012,1.107,3.622,3.622,0,0,0,0,3.186,2.879,2.879,0,0,0,1.012,1.117,2.593,2.593,0,0,0,1.432.409,3.336,3.336,0,0,0,1.44-.367,4.664,4.664,0,0,0,1.372-1l2.022,2.135a7.165,7.165,0,0,1-2.321,1.65,6.507,6.507,0,0,1-2.766.616A6.505,6.505,0,0,1-93.963,17.328Zm36.292.567-5.007-6.5v6.5h-3.21V6.2h3l5,6.523V6.2h3.2V17.9Zm-13.71,0V6.2h3.506V17.9Zm58.07-3.05a5.762,5.762,0,0,1,0-5.919,6,6,0,0,1,2.227-2.147,6.314,6.314,0,0,1,6.122,0A6,6,0,0,1-2.737,8.926a5.762,5.762,0,0,1,0,5.919,6.174,6.174,0,0,1-5.287,2.969A6.174,6.174,0,0,1-13.311,14.845Zm2.6-7.472a5.345,5.345,0,0,0-1.964,1.894,5.088,5.088,0,0,0,0,5.235,5.386,5.386,0,0,0,1.964,1.912,5.46,5.46,0,0,0,5.381,0A5.386,5.386,0,0,0-3.37,14.5a5.088,5.088,0,0,0,0-5.235,5.458,5.458,0,0,0-4.662-2.6A5.467,5.467,0,0,0-10.715,7.373Zm-8.861,10.439h-.036a6.113,6.113,0,0,1-5.242-2.95,5.776,5.776,0,0,1,0-5.928,6.1,6.1,0,0,1,5.271-2.946,6.1,6.1,0,0,1,2.234.417,6.266,6.266,0,0,1,1.915,1.169l-.423.533a5.5,5.5,0,0,0-1.7-1.067,5.512,5.512,0,0,0-4.714.317,5.324,5.324,0,0,0-1.964,1.9,5.1,5.1,0,0,0,0,5.242,5.389,5.389,0,0,0,1.964,1.912,5.349,5.349,0,0,0,2.708.709,5.4,5.4,0,0,0,2-.375,5.593,5.593,0,0,0,1.711-1.059l.439.486a6.137,6.137,0,0,1-1.915,1.2,6.014,6.014,0,0,1-2.246.435Zm70.813-.065V6.07h7.608v.69h-6.9v4.653h6.139V12.1H51.947v4.952h7.108v.69Zm-4.233,0-2.789-3.958a6.27,6.27,0,0,1-.995.067H39.763v3.892h-.7V6.07h4.165a5.109,5.109,0,0,1,3.382,1A3.5,3.5,0,0,1,47.8,9.911a3.886,3.886,0,0,1-.742,2.446A3.752,3.752,0,0,1,44.9,13.666l2.952,4.076Zm-7.242-4.585H43.25a4.344,4.344,0,0,0,2.859-.835,2.935,2.935,0,0,0,1-2.386,2.859,2.859,0,0,0-1-2.354,4.463,4.463,0,0,0-2.854-.829H39.763Zm-3.635,4.585-1.534-3.323H27.7l-1.518,3.323H25.4L30.749,6.07h.758l5.4,11.672Zm-8.136-4.025h6.276l-3.15-6.846ZM16.65,17.742V6.07H20.8a5.045,5.045,0,0,1,3.356,1,3.536,3.536,0,0,1,1.181,2.84,3.653,3.653,0,0,1-1.181,2.913A4.955,4.955,0,0,1,20.8,13.848h-3.44v3.894Zm.709-4.585h3.424a4.384,4.384,0,0,0,2.866-.835,2.939,2.939,0,0,0,1.006-2.386,2.837,2.837,0,0,0-1.011-2.354,4.462,4.462,0,0,0-2.866-.82H17.359Zm-5.406,4.585-.019-10.7L6.909,16.474H6.6L1.562,7.039v10.7H.889L.882,6.07H1.86l4.907,9.2,4.881-9.2h.962V17.742Z" transform="translate(281 1293)" fill="#06f"/>
    <path id="Union_101" data-name="Union 101" d="M-44.153,23.593l2.654-7.168a4.6,4.6,0,0,0,1.064.144,4.666,4.666,0,0,0,4.627-3.542,4.612,4.612,0,0,0-2.486-5.241L-35.64.626c.333.134.647.278.956.436l-1.062,2.862,0,.006a9.182,9.182,0,0,1,4.139,11.2A9.33,9.33,0,0,1-42.075,21.01l-1.064,2.862C-43.48,23.8-43.817,23.7-44.153,23.593Zm-1.937-.805,1.062-2.866A9.182,9.182,0,0,1-49.089,8.77a9.331,9.331,0,0,1,10.383-5.9L-37.644,0c.349.076.679.167,1.016.272l-2.656,7.169a4.549,4.549,0,0,0-1.073-.121,4.664,4.664,0,0,0-4.531,3.546,4.612,4.612,0,0,0,2.407,5.2l-2.656,7.167Q-45.625,23.027-46.09,22.788Zm-36.338-5.451a5.908,5.908,0,0,1-2.3-2.186,5.978,5.978,0,0,1-.833-3.126,5.819,5.819,0,0,1,3.136-5.254,6.881,6.881,0,0,1,3.3-.783,6.908,6.908,0,0,1,3.292.783,5.867,5.867,0,0,1,2.307,2.16,5.842,5.842,0,0,1,.836,3.094,5.958,5.958,0,0,1-.836,3.126,5.874,5.874,0,0,1-2.307,2.186,6.833,6.833,0,0,1-3.292.79h-.112A6.816,6.816,0,0,1-82.429,17.337Zm1.911-8.046V9.3a3.028,3.028,0,0,0-1.061,1.149,3.289,3.289,0,0,0-.4,1.609,3.345,3.345,0,0,0,.4,1.608,3.071,3.071,0,0,0,1.061,1.149,2.631,2.631,0,0,0,1.441.425,2.517,2.517,0,0,0,1.393-.425,2.913,2.913,0,0,0,1.019-1.149,3.7,3.7,0,0,0,0-3.234,2.891,2.891,0,0,0-1.01-1.149,2.542,2.542,0,0,0-1.4-.421A2.662,2.662,0,0,0-80.518,9.291Zm-13.445,8.037a5.779,5.779,0,0,1-2.231-2.193A6.158,6.158,0,0,1-97,12.007a5.868,5.868,0,0,1,.826-3.075A5.847,5.847,0,0,1-93.9,6.772a6.85,6.85,0,0,1,5.919-.207,6.466,6.466,0,0,1,2.224,1.517l-2.029,2.376A4.226,4.226,0,0,0-89.107,9.3,3.086,3.086,0,0,0-90.6,8.863a2.628,2.628,0,0,0-1.432.4,2.829,2.829,0,0,0-1.012,1.107,3.622,3.622,0,0,0,0,3.186,2.879,2.879,0,0,0,1.012,1.117,2.593,2.593,0,0,0,1.432.409,3.336,3.336,0,0,0,1.44-.367,4.664,4.664,0,0,0,1.372-1l2.022,2.135a7.165,7.165,0,0,1-2.321,1.65,6.507,6.507,0,0,1-2.766.616A6.505,6.505,0,0,1-93.963,17.328Zm36.292.567-5.007-6.5v6.5h-3.21V6.2h3l5,6.523V6.2h3.2V17.9Zm-13.71,0V6.2h3.506V17.9Zm58.07-3.05a5.762,5.762,0,0,1,0-5.919,6,6,0,0,1,2.227-2.147,6.314,6.314,0,0,1,6.122,0A6,6,0,0,1-2.737,8.926a5.762,5.762,0,0,1,0,5.919,6.174,6.174,0,0,1-5.287,2.969A6.174,6.174,0,0,1-13.311,14.845Zm2.6-7.472a5.345,5.345,0,0,0-1.964,1.894,5.088,5.088,0,0,0,0,5.235,5.386,5.386,0,0,0,1.964,1.912,5.46,5.46,0,0,0,5.381,0A5.386,5.386,0,0,0-3.37,14.5a5.088,5.088,0,0,0,0-5.235,5.458,5.458,0,0,0-4.662-2.6A5.467,5.467,0,0,0-10.715,7.373Zm-8.861,10.439h-.036a6.113,6.113,0,0,1-5.242-2.95,5.776,5.776,0,0,1,0-5.928,6.1,6.1,0,0,1,5.271-2.946,6.1,6.1,0,0,1,2.234.417,6.266,6.266,0,0,1,1.915,1.169l-.423.533a5.5,5.5,0,0,0-1.7-1.067,5.512,5.512,0,0,0-4.714.317,5.324,5.324,0,0,0-1.964,1.9,5.1,5.1,0,0,0,0,5.242,5.389,5.389,0,0,0,1.964,1.912,5.349,5.349,0,0,0,2.708.709,5.4,5.4,0,0,0,2-.375,5.593,5.593,0,0,0,1.711-1.059l.439.486a6.137,6.137,0,0,1-1.915,1.2,6.014,6.014,0,0,1-2.246.435Zm70.813-.065V6.07h7.608v.69h-6.9v4.653h6.139V12.1H51.947v4.952h7.108v.69Zm-4.233,0-2.789-3.958a6.27,6.27,0,0,1-.995.067H39.763v3.892h-.7V6.07h4.165a5.109,5.109,0,0,1,3.382,1A3.5,3.5,0,0,1,47.8,9.911a3.886,3.886,0,0,1-.742,2.446A3.752,3.752,0,0,1,44.9,13.666l2.952,4.076Zm-7.242-4.585H43.25a4.344,4.344,0,0,0,2.859-.835,2.935,2.935,0,0,0,1-2.386,2.859,2.859,0,0,0-1-2.354,4.463,4.463,0,0,0-2.854-.829H39.763Zm-3.635,4.585-1.534-3.323H27.7l-1.518,3.323H25.4L30.749,6.07h.758l5.4,11.672Zm-8.136-4.025h6.276l-3.15-6.846ZM16.65,17.742V6.07H20.8a5.045,5.045,0,0,1,3.356,1,3.536,3.536,0,0,1,1.181,2.84,3.653,3.653,0,0,1-1.181,2.913A4.955,4.955,0,0,1,20.8,13.848h-3.44v3.894Zm.709-4.585h3.424a4.384,4.384,0,0,0,2.866-.835,2.939,2.939,0,0,0,1.006-2.386,2.837,2.837,0,0,0-1.011-2.354,4.462,4.462,0,0,0-2.866-.82H17.359Zm-5.406,4.585-.019-10.7L6.909,16.474H6.6L1.562,7.039v10.7H.889L.882,6.07H1.86l4.907,9.2,4.881-9.2h.962V17.742Z" transform="translate(453 1293)" fill="#fff"/>
  </g>
</svg>
