<svg xmlns="http://www.w3.org/2000/svg" xmlns:xlink="http://www.w3.org/1999/xlink" width="344" height="48" viewBox="0 0 344 48">
  <defs>
    <clipPath id="clip-path">
      <rect id="Rectangle_1122" data-name="Rectangle 1122" width="113.563" height="27" fill="none"/>
    </clipPath>
    <clipPath id="clip-path-2">
      <rect id="Rectangle_1122-2" data-name="Rectangle 1122" width="113.563" height="27" fill="#fff"/>
    </clipPath>
  </defs>
  <g id="partners_ambcrypto" transform="translate(-176 -1281)">
    <rect id="Rectangle_1053" data-name="Rectangle 1053" width="172" height="48" transform="translate(176 1281)" fill="#151515" opacity="0"/>
    <path id="Path_4109" data-name="Path 4109" d="M0,0H172V48H0Z" transform="translate(348 1281)" fill="#151515" opacity="0"/>
    <g id="Group_2112" data-name="Group 2112" transform="translate(205 1292)">
      <g id="Group_2111" data-name="Group 2111" clip-path="url(#clip-path)">
        <path id="Path_4288" data-name="Path 4288" d="M816.255,100.774a5.044,5.044,0,0,0-.824-3.188.774.774,0,0,0-.5-.382,7,7,0,0,0-1.51-.121c-.892-.057-1.764-.379-2.682-.358-1.169.027-2.35.112-3.505.045a31.916,31.916,0,0,0-4.128.152c-.172.012-.481,0-.54.312a1.4,1.4,0,0,1,.788.15.589.589,0,0,1,.123.11.589.589,0,0,0-.123-.11,1.4,1.4,0,0,0-.788-.15l-.286.623c-.112.03-.108.067-.006.11l-.181,1.189a.267.267,0,0,0-.1.418q-.01,2.3-.021,4.607a1.624,1.624,0,0,0,.164.711c-.127.247.034.392.192.539l.061.108c.058.352.138.685.576.743l.032.033c.008.174.066.3.272.3l.587.317c.1.2.236.213.407.1.184.006.369.01.553.02a48.33,48.33,0,0,0,5.011-.231c1.166-.06,2.34.03,3.505-.038a3.313,3.313,0,0,0,2.2-.514c.109-.012.156-.087.228-.165.458-.495.155-1.14.366-1.695.451-1.185.042-2.422.124-3.63m-2.219,1.89h0l0,0,0,0m.74,1.733.007.019Zm.041.107-.025-.06.025.06m-8.178-5.853a.371.371,0,0,0,.125.476c1.251,0,2.5,0,3.753.012a1.681,1.681,0,0,1,1.767,1.373c.056,1.292.408,2.643-.376,3.863a11.21,11.21,0,0,1-4.956.32c-1.009-.088-1.37-.892-1.364-1.833a5.21,5.21,0,0,0-.02-1.038,3.762,3.762,0,0,1,.268-1.96c.158-.464.658-.444.929-.737a.371.371,0,0,1-.125-.476m.1-.218c-.021.045-.044.089-.066.134.021-.045.044-.09.066-.134m-3.162-.46a.565.565,0,0,0,.07,0,.565.565,0,0,1-.07,0,.548.548,0,0,1-.135-.018.548.548,0,0,0,.135.018" transform="translate(-702.784 -84.766)" fill="#637d9a"/>
        <path id="Path_4289" data-name="Path 4289" d="M689.35,87.047a1.971,1.971,0,0,1,0-1.431c.27-.519-.215-1.441-.677-1.435a8.109,8.109,0,0,1-1.862-.356c-.212-.046-.5-.193-.618.174-.282.248-.081.575-.142.859-.177.048-.351.106-.53.143a9.705,9.705,0,0,1-2.97.1,20.857,20.857,0,0,0-4.382.448,1.344,1.344,0,0,0-1.152.879c.179.074.294-.022.419-.123.023-.018.046-.037.07-.055-.024.018-.047.036-.07.055-.125.1-.239.2-.419.123l-.023.025c-.345.089-.358.348-.324.632a3.236,3.236,0,0,0-.28.9c-.2.834-.083,1.695-.292,2.52a.275.275,0,0,0-.093.418,11.431,11.431,0,0,0,.06,2.234c-.085.681.17,1.006.847,1.083a4.1,4.1,0,0,0,2.328.807c.056.137.125.234.274.09.574.014,1.151-.006,1.721.05,1.4.138,2.764-.342,4.161-.229h0c.07.1.145.2.207.3a1.146,1.146,0,0,1-.528,1.619,25.785,25.785,0,0,1-6.866.277c-.246-.006-.4.014-.44.282a5.33,5.33,0,0,0-.035,1.394.266.266,0,0,0,.093.422.691.691,0,0,0,.04-.12.329.329,0,0,0,.007-.112.329.329,0,0,1-.007.112.691.691,0,0,1-.04.12,1.557,1.557,0,0,1,.112.472c-.052.58.241.662.745.648a36.958,36.958,0,0,1,3.864.009c1.053.082,2.036-.336,3.069-.262a5.444,5.444,0,0,0,2.362-.4,2.45,2.45,0,0,0,1.057-2.833.349.349,0,0,1,.035-.348,1.745,1.745,0,0,0,.213-1.306,6.821,6.821,0,0,1-.046-1.027,11.148,11.148,0,0,0,.124-1.905,18.518,18.518,0,0,1,.006-2.382,11.128,11.128,0,0,0-.021-2.878m-8.031,5.619a1.6,1.6,0,0,1-1.37-1.366c-.111-.571-.253-1.128-.333-1.712-.126-.915.5-1.165,1.013-1.568,1.312,0,2.624-.027,3.934.022,1.141.043,1.387.333,1.315,1.357-.027.388-.008.779-.01,1.168h0a.151.151,0,0,0,0,.236l0,.815h0a.445.445,0,0,0-.3.416.322.322,0,0,0-.05.085c.006.173.307.436.08.538.227-.1-.074-.365-.08-.538a8.434,8.434,0,0,1-4.2.546m-.566.613h0c-.044.032-.134.012-.219,0,.084.014.174.034.219,0m-3.31-2.867a2.705,2.705,0,0,0-.424.561,2.705,2.705,0,0,1,.424-.561m4.544-4.048h0l.008-.007-.008.007M686.8,97.858l0,0,0,0m-.019-9.013-.066-.007.008-.021-.008.021.066.007m-.05-.049h0m-5.513-3.15a.432.432,0,0,1,.072.028.432.432,0,0,0-.072-.028.136.136,0,0,0-.129.02.136.136,0,0,1,.129-.02m-.219.219a.425.425,0,0,1,.063-.17.425.425,0,0,0-.063.17,1.184,1.184,0,0,0-.132-.11,1.184,1.184,0,0,1,.132.11m-.167-.133a.274.274,0,0,0-.059-.027.274.274,0,0,1,.059.027m-.083-.032a.079.079,0,0,0-.039.005.079.079,0,0,1,.039-.005m-.1.111c0,.017-.007.035-.009.054,0-.019.006-.037.009-.054m-3,1.8h0l.031-.026-.031.026m7.065,5.913h0l0,0,0,0M679.264,98.5l-.039.027.039-.027m-.591.893c.039.12.149.2.352.186-.2.017-.313-.066-.352-.186m8.914-1.833h0c.015-.035.049-.077.039-.1.01.026-.024.068-.039.1" transform="translate(-592.372 -73.402)" fill="#637d9a"/>
        <path id="Path_4290" data-name="Path 4290" d="M134.2,101.426c-.046-.341.047-.721-.015-1.09a3.659,3.659,0,0,1-.078-1.025,2.421,2.421,0,0,0-2.1-2.519c-1.618-.026-3.212-.335-4.841-.278-1.99.069-3.987-.014-5.971.21-.26.03-.583.091-.678.437a2.163,2.163,0,0,0-.442,1.441c-.258.131-.231.323-.115.534q-.083,2.658,0,5.317c-.137.191-.084.318.131.392a4.542,4.542,0,0,0,1.727,1.9.239.239,0,0,0,.41.081,33.378,33.378,0,0,0,3.594-.011c.135.129.214.045.284-.074a19.143,19.143,0,0,1,3.563-.123,12.558,12.558,0,0,0,3.736-.4,1.789,1.789,0,0,0,.749-1.775c-.171-1.025.176-2,.04-3.013m-1.453-1.174.012-.012-.012.012m-8.157-1.981,0,0,0,0m-1.6.87h0c.026,0,.053.007.078.014-.025-.007-.052-.01-.078-.014m-.5-1.241h0c.011-.085-.041-.165-.054-.26.013.1.066.175.054.26m0,0h0l-.368-.123.368.123m.938.342h0a.605.605,0,0,0-.071-.035.616.616,0,0,1,.071.035m-1.307-.467h0a.567.567,0,0,0-.037-.132.567.567,0,0,1,.037.132m-.058-.167a.125.125,0,0,0-.065-.045.125.125,0,0,1,.065.045m-.54,4.124c.057.01.123.013.154.058-.03-.045-.1-.048-.153-.057s-.179-.019-.161.092c-.018-.111.091-.087.161-.093m7.544,3.463a1.132,1.132,0,0,0,.18-.127,1.132,1.132,0,0,1-.18.127m.71-1.125a1.527,1.527,0,0,1-.445.92,1.527,1.527,0,0,0,.445-.92,5.5,5.5,0,0,0-.75.4,2.358,2.358,0,0,1-1.218.235c-.922-.056-1.851.118-2.778-.016a1.459,1.459,0,0,1-1.183-1.111,18.342,18.342,0,0,1-.283-3.045,1.669,1.669,0,0,1,.91-1.606h0c.452,0,.9-.009,1.354.009a12.818,12.818,0,0,1,3.413.223,1.242,1.242,0,0,1,.9.849,13.641,13.641,0,0,1,.2,3.172c-.357.188-.328.62-.561.886h0l0,0m.4.072a.125.125,0,0,1,.005.131.125.125,0,0,0-.005-.131" transform="translate(-105.063 -84.575)" fill="#637d9a"/>
        <path id="Path_4291" data-name="Path 4291" d="M313.851,94.041a3.732,3.732,0,0,0-2.13-2.736c-1.361-.593-4.257-.479-5.37.989-.312.411-.556.255-.666-.157a.7.7,0,0,0-.517-.538,11.6,11.6,0,0,0-2.873-.161c-.263-.014-.292.171-.208.383.014,1.371.325,2.719.3,4.092a.285.285,0,0,0,.158.277,9.536,9.536,0,0,0,.218,2.687l.046.133c0,.406.029.813.009,1.217-.021.431.171.554.581.561a8.343,8.343,0,0,0,1.962-.3c.293.1.564.073.432-.313a6.2,6.2,0,0,1-.006-1.913c-.035-.872.31-1.769-.128-2.622-.06-.116.114-.089.127-.151.125-.584.636-.745,1.072-.988a4.194,4.194,0,0,1,1.574-.154,1.277,1.277,0,0,1,1.489,1.333,11.791,11.791,0,0,1-.221,4.376,1.511,1.511,0,0,0,.006.726c.031.172.157.393.38.3.477-.209.978-.028,1.456-.139.468-.07.974.2,1.41-.157l.815-.09c.229.014.23-.144.281-.313a5.4,5.4,0,0,0,0-1.334,15.572,15.572,0,0,0-.2-5m-8.982,4.571-.007.006.007-.006m7.5-4.922a.218.218,0,0,1-.144.089.218.218,0,0,0,.144-.089m.926,4.164.114.131-.114-.131-.005.005.005-.005a1.32,1.32,0,0,0-.125-.086,1.4,1.4,0,0,1,.125.086m-.448.429.033-.04-.025-.047.025.047-.034.04M309.9,93.22a.9.9,0,0,1,.023-.123.914.914,0,0,0-.023.123m-.125-.242a.737.737,0,0,0-.08.112.737.737,0,0,1,.08-.112m.159-.049h0l0,0,0,0" transform="translate(-264.699 -79.723)" fill="#637d9a"/>
        <path id="Path_4292" data-name="Path 4292" d="M431.571,99.347a.765.765,0,0,0-.2-.773h0c.072-.187-.084-.324-.109-.489.231-.086.331-.184.3-.493a7.471,7.471,0,0,0-.54-2.245,3.058,3.058,0,0,0-2.443-2.01,14.944,14.944,0,0,0-3.445,0c-.888.075-1.773.192-2.658.3a.839.839,0,0,1-.963-.585.567.567,0,0,0-.831-.368,2.3,2.3,0,0,1-.715.1c-.535.013-1.07,0-1.6.015-.2.007-.539-.07-.373.352q0,1.667-.007,3.334c-.089.21-.121.406.134.528.185,2.263.054,4.531.076,6.8a1.825,1.825,0,0,1-.094.416c-.2.091-.216.232-.113.406-.006.761-.008,1.522-.018,2.282,0,.312.079.519.448.507.78-.026,1.561-.04,2.341-.058.5.183.642-.13.6-.516-.076-.77.031-1.535,0-2.3a2.974,2.974,0,0,1,.192-.948c.128-.449.366-.626.819-.447a2.445,2.445,0,0,0,1.56.782c.839.013,1.678-.012,2.517-.021.2.173.306.075.383-.123a12.4,12.4,0,0,1,1.593-.137.3.3,0,0,0,.283.063,4.588,4.588,0,0,0,2.584-1.831,1.173,1.173,0,0,0,.293-1.135,2.979,2.979,0,0,1,0-1.4m-3.7-1.288a.065.065,0,0,0-.044-.057.065.065,0,0,1,.044.057m1.465,4.5a.872.872,0,0,0,.038-.127c.011-.046.019-.1.026-.15h0c-.007.053-.015.1-.026.149a.872.872,0,0,1-.038.127.432.432,0,0,1-.053.1.432.432,0,0,0,.053-.1m-.924-2.3a1.526,1.526,0,0,1,.31-.777,1.526,1.526,0,0,0-.31.777m.6-2.894h0l.015-.014-.015.014m.027-.024.019-.017-.019.017m-.26,2.08-.022.024.022-.024m.136-.1.007-.007-.007.007m.116-1.847h0l.007.037-.007-.037m-.352-1.2a1.012,1.012,0,0,1,.037-.116,1.012,1.012,0,0,0-.037.116m.054-1.051-.1-.045.1.044h0m-4.723,1.766a.336.336,0,0,0-.246.144.336.336,0,0,1,.246-.144m.153.013a.555.555,0,0,0-.079-.013.555.555,0,0,1,.079.013M420.574,94.1l-.1-.043.1.043h0m-1.107,6.182a.64.64,0,0,0-.075-.036.641.641,0,0,1,.075.036h0m2.705-5.123.008-.079h0c0,.026-.006.053-.008.079m-1.3-.04h0l0,0Zm.442,5.166a2.8,2.8,0,0,1,.127-2.3c.182-.27.607-.091.8-.381.541.036.933-.468,1.48-.407h0c.215.05.413.052.529-.184a8.935,8.935,0,0,0,1.159,0,2.563,2.563,0,0,1,2.376.982h0l.089.113.014.225c-.128.163,0,.215.118.268a4.854,4.854,0,0,1-.6,2.441h0c-.758-.037-1.492.2-2.256.166a6.739,6.739,0,0,1-2.57-.438.65.65,0,0,0-.176-.048c-.4-.058-.958.142-1.084-.44" transform="translate(-366.241 -81.172)" fill="#637d9a"/>
        <path id="Path_4293" data-name="Path 4293" d="M259.9,121.718c-.017-.82-.194-1.007-1.022-1.01a8.5,8.5,0,0,0-2.007.2l-.21-.016c-.186-.059-.342-.059-.373.189a3.805,3.805,0,0,0-.091,1.341c0,2.244.011,4.488,0,6.731,0,.538.14.77.737.74.684-.035,1.29-.368,1.967-.406.165-.009.262-.185.238-.378a.13.13,0,0,0-.117-.139v-.007c.464-.454.291-1.1.419-1.639.077-.326.31-.668.214-1.051a2.6,2.6,0,0,1,.051-1.533c.114-.321.334-.7.251-.976a7.222,7.222,0,0,1-.053-2.048m-.833.085h0a.677.677,0,0,0-.075-.036.7.7,0,0,1,.075.036m-1.8.274h0a.516.516,0,0,0,.181-.074.516.516,0,0,1-.181.074m.225-.131a.092.092,0,0,0,0-.031.092.092,0,0,1,0,.031" transform="translate(-224.504 -105.784)" fill="#637d9a"/>
        <path id="Path_4294" data-name="Path 4294" d="M12.923,89.393c-.179-.36-.247-.387-.6-.292a4.4,4.4,0,0,1-1.965.279,2.372,2.372,0,0,0-1.079.178,10.163,10.163,0,0,1-2.486.4,12,12,0,0,0-2.843.253l-.335-.46h0A9.3,9.3,0,0,1,3.434,87.7c-.008-.942.171-1.9.156-2.856a.8.8,0,0,1,.671-.827c.6-.181,1.2-.384,1.794-.577l.622-.033c.168.02.336.04.415-.165l2.763-.023c.137.341.421.162.648.182a.414.414,0,0,0-.091-.144.257.257,0,0,0-.073-.051.288.288,0,0,0-.081-.023.288.288,0,0,1,.081.023.257.257,0,0,1,.073.051.414.414,0,0,1,.091.144,7.867,7.867,0,0,0,.97.243c.328.042.635-.018.413-.484h0a27.054,27.054,0,0,0-.05-2.813c-.05-.445.194-1.136-.5-1.322a11.285,11.285,0,0,0-2.414-.43,22.033,22.033,0,0,0-4.036.186c-1.109.156-2.391.181-3.045,1.415-.188.186-.444.34-.552.565A9.124,9.124,0,0,0,.2,84.627c-.19.092-.239.221-.106.4a31.88,31.88,0,0,0-.029,3.34.264.264,0,0,0,.107.422q.067.285.134.57a.259.259,0,0,0,.106.411l.576,1.46a.778.778,0,0,0,.548.63l.03.029c.021.166.062.314.277.3a.2.2,0,0,0,.087.059.524.524,0,0,0,.661.367,25.353,25.353,0,0,0,5.567.226c.5-.083,1.059.159,1.512-.241a7.69,7.69,0,0,0,3.441-.778A.391.391,0,0,0,13.4,91.3a14.552,14.552,0,0,0-.474-1.907M7.167,81.817h0m-1.609.865-.021.013Zm-.044.032c-.031.027-.059.06-.089.088.03-.028.058-.061.089-.088m-.112.108a.187.187,0,0,1-.047.029.187.187,0,0,0,.047-.029M1.484,84.9l.052.051L1.484,84.9l0,0,0,0a.565.565,0,0,1,.041-.345.565.565,0,0,0-.041.345m.862,2.1a.616.616,0,0,0,.1-.028A.616.616,0,0,1,2.347,87.007Zm.122,2.964c0,.01,0,.02,0,.03C2.471,89.99,2.47,89.981,2.469,89.971Zm0-7.412-.013.027c-.009.02-.017.041-.025.062.008-.021.017-.043.025-.062l.013-.027m-1.344,2.1v0" transform="translate(0 -68.859)" fill="#637d9a"/>
        <path id="Path_4295" data-name="Path 4295" d="M490.408,14.2c-.022-.2-.022-.478-.331-.526l-.037-.214a1.237,1.237,0,0,0-.346-1.067.691.691,0,0,1-.166-.965,10.929,10.929,0,0,0,.844-2.361c.056-.285.106-.541-.293-.589.286-.24-.024-.471-.012-.706.166-.282,0-.422-.229-.533l-.158-.214A1.411,1.411,0,0,0,488.7,5.9a.11.11,0,0,0-.075-.042.366.366,0,0,0-.407-.347L487.229,4.4a2.6,2.6,0,0,0-1.5-1.589L484.169,1.39a.323.323,0,0,0-.414-.308L483.53.939a1.13,1.13,0,0,0-.7-.631,6.8,6.8,0,0,0-2.06-.3c-3.322.161-6.634.509-9.964.5a1.258,1.258,0,0,0-1.07.7,4.375,4.375,0,0,0-.964,1.737c-.464,1.207-1.029,2.366-1.586,3.53-.434.909-.842,1.8-.222,2.826a3.427,3.427,0,0,0,1.849,1.193c1.371.613,2.737,1.246,4.142,1.772a10.789,10.789,0,0,1,2.868,1.811l.106.119a.357.357,0,0,1,.195.25c-.151.293.016.429.261.526a44.394,44.394,0,0,1,.069,4.749,1.594,1.594,0,0,0,.418,1.174c.265.287.543.561.815.84.181.559.6.622,1.1.532l2.608.006a2.573,2.573,0,0,0,1.724-.246,36.19,36.19,0,0,0,6.574-.282.465.465,0,0,0,.505-.5c.039-.826.547-1.58.365-2.442-.087-.411.321-.7.311-1.09-.03-1.189-.34-2.343-.47-3.521m-1.843,6.172h0c.159-.144.259-.158.333-.109a.268.268,0,0,1,.067.068.268.268,0,0,0-.067-.068c-.074-.049-.174-.035-.333.109m-7.678-.6c-.964-.254-1.08-1.106-.371-1.866a5.22,5.22,0,0,0,2.552,1.433,2.916,2.916,0,0,0,1.669-.205h0c.238-.106.489.08.763-.168a2.9,2.9,0,0,0,.9-2.767c-.066-.441-.072-.975-.646-1.16a3.177,3.177,0,0,1,.34,1.612,2.261,2.261,0,0,1-.043.276,2.261,2.261,0,0,0,.043-.276,3.176,3.176,0,0,0-.34-1.612l-.01-.013q-.013-.231-.025-.461l.015-.012c.9.345.985,1.173,1.088,1.943a11.215,11.215,0,0,1-.02,2.27c-.036.5-.657.443-.713.877a8.629,8.629,0,0,1-5.2.129m-.367.929-.049-.124.049.124.087-.047-.087.047m-2.1-2.67.536.026Zm1.555-.405a.274.274,0,0,1,.1-.028.274.274,0,0,0-.1.028m3.281-5.416c0-.177-.014-.348-.253-.36a6.07,6.07,0,0,1-1.783-2.091,1.321,1.321,0,0,0-.5-.738c-.489-.4-.436-.689.122-.937.4-.178.791-.371,1.186-.556h0c.164-.07.328-.1.424.094a5.386,5.386,0,0,0,2.363,2.018c.326.192.408.308.179.685a4.584,4.584,0,0,0-.562,1.524c.26.124.131.388.164.59-.033-.2.1-.467-.164-.59a.615.615,0,0,0-.408.342c-.123.3-.355.331-.63.242h0l-.138-.224m-.673-5.186c-.255,0-.545-.047-.57.283.025-.33.315-.282.57-.283m4.107,5.825.021-.018Zm-2.209.37h0l.518.245-.518-.245m.743-.076c.044,0,.1.036.177.11-.08-.074-.133-.112-.177-.11m-.582.674a3.169,3.169,0,0,0,.58.637h0a3.177,3.177,0,0,1-.58-.637m4.162,3.963c-.015-.068-.033-.136-.049-.2C488.776,17.637,488.794,17.705,488.809,17.774ZM467.3,7.448c-.022.067-.045.134-.065.2.02-.068.043-.135.065-.2m-.1.322a1.692,1.692,0,0,0-.034.169,1.692,1.692,0,0,1,.034-.169m.244.984a.861.861,0,0,1-.282-.791.861.861,0,0,0,.282.791c.353-1.837,1.392-3.4,2.042-5.12.15-.4.348-.776.5-1.171a1.605,1.605,0,0,1,1.73-1.223,4.136,4.136,0,0,1,1.257-.288,4.135,4.135,0,0,0-1.257.288,4.638,4.638,0,0,0,2.137-.024h.234c1.378.148,2.719-.289,4.1-.244.98.032,1.965-.045,2.945-.105a4,4,0,0,1,3.3,1.456c1.093,1.2,2.288,2.294,3.392,3.478a8.04,8.04,0,0,1,1.626,1.956,1.171,1.171,0,0,1,.089.983,19.822,19.822,0,0,1-1.493,3.452,6.114,6.114,0,0,1-.533.5,6.152,6.152,0,0,0,.533-.5c-.787.046-1.541-.383-2.34-.168-.331.089-.369-.081-.276-.329.158-.42.1-.875.265-1.305.11-.281.221-.688-.163-.941l-.114-.153c-.225-.51-.708-.58-1.17-.689A4.493,4.493,0,0,1,482.782,7a.656.656,0,0,0-.81-.361c-.588.117-1.057.558-1.684.6-.148.01-.316.25-.265.491-.783.359-.858.663-.307,1.274.629.7,1.274,1.379,1.891,2.085.213.243.545.485.281.893a21.678,21.678,0,0,0-3.93.161c-.331.038-.713.058-.908.427-.268.291-.566.574-.239,1a.527.527,0,0,1-.526-.188,6.473,6.473,0,0,0-2.1-1.661c-.485-.216-1-.363-1.472-.607-1.271-.663-2.652-1.057-3.953-1.645a1.9,1.9,0,0,0-.48-.081,1,1,0,0,1-.839-.637m9.776,5.648a.245.245,0,0,0-.261-.219l-.009-.01c0-.207-.208-.37-.132-.593a.739.739,0,0,0,.609.175,4.279,4.279,0,0,0,1.984,1.683.469.469,0,0,0,.107.008c.04.211.322.418.336.249.052-.664.649-.878.925-1.337a21.057,21.057,0,0,1,3.306.133,2.421,2.421,0,0,0,.964.482,2.108,2.108,0,0,1,.67,1.785c-.006.543-.4.835-.563,1.261a3.382,3.382,0,0,1-3.522-.141c-.2-.116-.313-.413-.619-.331l-2.425-2.028h0a.745.745,0,0,0-.661-.584,1.084,1.084,0,0,1-.706-.533h0m12.326,6.677a.445.445,0,0,0-.085-.049.445.445,0,0,1,.085.049m.671-2.88-.047-.055,0,0,0,0,.047.055" transform="translate(-408.954 0)" fill="#637d9a"/>
        <path id="Path_4296" data-name="Path 4296" d="M253.851,82.278c.081,0,.183.022.239-.018.709-.494.737-1.005.582-1.887a1.865,1.865,0,0,0-1.034-1.526,1.551,1.551,0,0,0-1.646.192c-.74.32-.93,1.781-.347,2.526a1.773,1.773,0,0,0,2.206.713" transform="translate(-220.231 -68.967)" fill="#637d9a"/>
      </g>
    </g>
    <g id="Group_2113" data-name="Group 2113" transform="translate(377 1292)">
      <g id="Group_2111-2" data-name="Group 2111" clip-path="url(#clip-path-2)">
        <path id="Path_4288-2" data-name="Path 4288" d="M816.255,100.774a5.044,5.044,0,0,0-.824-3.188.774.774,0,0,0-.5-.382,7,7,0,0,0-1.51-.121c-.892-.057-1.764-.379-2.682-.358-1.169.027-2.35.112-3.505.045a31.916,31.916,0,0,0-4.128.152c-.172.012-.481,0-.54.312a1.4,1.4,0,0,1,.788.15.589.589,0,0,1,.123.11.589.589,0,0,0-.123-.11,1.4,1.4,0,0,0-.788-.15l-.286.623c-.112.03-.108.067-.006.11l-.181,1.189a.267.267,0,0,0-.1.418q-.01,2.3-.021,4.607a1.624,1.624,0,0,0,.164.711c-.127.247.034.392.192.539l.061.108c.058.352.138.685.576.743l.032.033c.008.174.066.3.272.3l.587.317c.1.2.236.213.407.1.184.006.369.01.553.02a48.33,48.33,0,0,0,5.011-.231c1.166-.06,2.34.03,3.505-.038a3.313,3.313,0,0,0,2.2-.514c.109-.012.156-.087.228-.165.458-.495.155-1.14.366-1.695.451-1.185.042-2.422.124-3.63m-2.219,1.89h0l0,0,0,0m.74,1.733.007.019Zm.041.107-.025-.06.025.06m-8.178-5.853a.371.371,0,0,0,.125.476c1.251,0,2.5,0,3.753.012a1.681,1.681,0,0,1,1.767,1.373c.056,1.292.408,2.643-.376,3.863a11.21,11.21,0,0,1-4.956.32c-1.009-.088-1.37-.892-1.364-1.833a5.21,5.21,0,0,0-.02-1.038,3.762,3.762,0,0,1,.268-1.96c.158-.464.658-.444.929-.737a.371.371,0,0,1-.125-.476m.1-.218c-.021.045-.044.089-.066.134.021-.045.044-.09.066-.134m-3.162-.46a.565.565,0,0,0,.07,0,.565.565,0,0,1-.07,0,.548.548,0,0,1-.135-.018.548.548,0,0,0,.135.018" transform="translate(-702.784 -84.766)" fill="#fff"/>
        <path id="Path_4289-2" data-name="Path 4289" d="M689.35,87.047a1.971,1.971,0,0,1,0-1.431c.27-.519-.215-1.441-.677-1.435a8.109,8.109,0,0,1-1.862-.356c-.212-.046-.5-.193-.618.174-.282.248-.081.575-.142.859-.177.048-.351.106-.53.143a9.705,9.705,0,0,1-2.97.1,20.857,20.857,0,0,0-4.382.448,1.344,1.344,0,0,0-1.152.879c.179.074.294-.022.419-.123.023-.018.046-.037.07-.055-.024.018-.047.036-.07.055-.125.1-.239.2-.419.123l-.023.025c-.345.089-.358.348-.324.632a3.236,3.236,0,0,0-.28.9c-.2.834-.083,1.695-.292,2.52a.275.275,0,0,0-.093.418,11.431,11.431,0,0,0,.06,2.234c-.085.681.17,1.006.847,1.083a4.1,4.1,0,0,0,2.328.807c.056.137.125.234.274.09.574.014,1.151-.006,1.721.05,1.4.138,2.764-.342,4.161-.229h0c.07.1.145.2.207.3a1.146,1.146,0,0,1-.528,1.619,25.785,25.785,0,0,1-6.866.277c-.246-.006-.4.014-.44.282a5.33,5.33,0,0,0-.035,1.394.266.266,0,0,0,.093.422.691.691,0,0,0,.04-.12.329.329,0,0,0,.007-.112.329.329,0,0,1-.007.112.691.691,0,0,1-.04.12,1.557,1.557,0,0,1,.112.472c-.052.58.241.662.745.648a36.958,36.958,0,0,1,3.864.009c1.053.082,2.036-.336,3.069-.262a5.444,5.444,0,0,0,2.362-.4,2.45,2.45,0,0,0,1.057-2.833.349.349,0,0,1,.035-.348,1.745,1.745,0,0,0,.213-1.306,6.821,6.821,0,0,1-.046-1.027,11.148,11.148,0,0,0,.124-1.905,18.518,18.518,0,0,1,.006-2.382,11.128,11.128,0,0,0-.021-2.878m-8.031,5.619a1.6,1.6,0,0,1-1.37-1.366c-.111-.571-.253-1.128-.333-1.712-.126-.915.5-1.165,1.013-1.568,1.312,0,2.624-.027,3.934.022,1.141.043,1.387.333,1.315,1.357-.027.388-.008.779-.01,1.168h0a.151.151,0,0,0,0,.236l0,.815h0a.445.445,0,0,0-.3.416.322.322,0,0,0-.05.085c.006.173.307.436.08.538.227-.1-.074-.365-.08-.538a8.434,8.434,0,0,1-4.2.546m-.566.613h0c-.044.032-.134.012-.219,0,.084.014.174.034.219,0m-3.31-2.867a2.705,2.705,0,0,0-.424.561,2.705,2.705,0,0,1,.424-.561m4.544-4.048h0l.008-.007-.008.007M686.8,97.858l0,0,0,0m-.019-9.013-.066-.007.008-.021-.008.021.066.007m-.05-.049h0m-5.513-3.15a.432.432,0,0,1,.072.028.432.432,0,0,0-.072-.028.136.136,0,0,0-.129.02.136.136,0,0,1,.129-.02m-.219.219a.425.425,0,0,1,.063-.17.425.425,0,0,0-.063.17,1.184,1.184,0,0,0-.132-.11,1.184,1.184,0,0,1,.132.11m-.167-.133a.274.274,0,0,0-.059-.027.274.274,0,0,1,.059.027m-.083-.032a.079.079,0,0,0-.039.005.079.079,0,0,1,.039-.005m-.1.111c0,.017-.007.035-.009.054,0-.019.006-.037.009-.054m-3,1.8h0l.031-.026-.031.026m7.065,5.913h0l0,0,0,0M679.264,98.5l-.039.027.039-.027m-.591.893c.039.12.149.2.352.186-.2.017-.313-.066-.352-.186m8.914-1.833h0c.015-.035.049-.077.039-.1.01.026-.024.068-.039.1" transform="translate(-592.372 -73.402)" fill="#fff"/>
        <path id="Path_4290-2" data-name="Path 4290" d="M134.2,101.426c-.046-.341.047-.721-.015-1.09a3.659,3.659,0,0,1-.078-1.025,2.421,2.421,0,0,0-2.1-2.519c-1.618-.026-3.212-.335-4.841-.278-1.99.069-3.987-.014-5.971.21-.26.03-.583.091-.678.437a2.163,2.163,0,0,0-.442,1.441c-.258.131-.231.323-.115.534q-.083,2.658,0,5.317c-.137.191-.084.318.131.392a4.542,4.542,0,0,0,1.727,1.9.239.239,0,0,0,.41.081,33.378,33.378,0,0,0,3.594-.011c.135.129.214.045.284-.074a19.143,19.143,0,0,1,3.563-.123,12.558,12.558,0,0,0,3.736-.4,1.789,1.789,0,0,0,.749-1.775c-.171-1.025.176-2,.04-3.013m-1.453-1.174.012-.012-.012.012m-8.157-1.981,0,0,0,0m-1.6.87h0c.026,0,.053.007.078.014-.025-.007-.052-.01-.078-.014m-.5-1.241h0c.011-.085-.041-.165-.054-.26.013.1.066.175.054.26m0,0h0l-.368-.123.368.123m.938.342h0a.605.605,0,0,0-.071-.035.616.616,0,0,1,.071.035m-1.307-.467h0a.567.567,0,0,0-.037-.132.567.567,0,0,1,.037.132m-.058-.167a.125.125,0,0,0-.065-.045.125.125,0,0,1,.065.045m-.54,4.124c.057.01.123.013.154.058-.03-.045-.1-.048-.153-.057s-.179-.019-.161.092c-.018-.111.091-.087.161-.093m7.544,3.463a1.132,1.132,0,0,0,.18-.127,1.132,1.132,0,0,1-.18.127m.71-1.125a1.527,1.527,0,0,1-.445.92,1.527,1.527,0,0,0,.445-.92,5.5,5.5,0,0,0-.75.4,2.358,2.358,0,0,1-1.218.235c-.922-.056-1.851.118-2.778-.016a1.459,1.459,0,0,1-1.183-1.111,18.342,18.342,0,0,1-.283-3.045,1.669,1.669,0,0,1,.91-1.606h0c.452,0,.9-.009,1.354.009a12.818,12.818,0,0,1,3.413.223,1.242,1.242,0,0,1,.9.849,13.641,13.641,0,0,1,.2,3.172c-.357.188-.328.62-.561.886h0l0,0m.4.072a.125.125,0,0,1,.005.131.125.125,0,0,0-.005-.131" transform="translate(-105.063 -84.575)" fill="#fff"/>
        <path id="Path_4291-2" data-name="Path 4291" d="M313.851,94.041a3.732,3.732,0,0,0-2.13-2.736c-1.361-.593-4.257-.479-5.37.989-.312.411-.556.255-.666-.157a.7.7,0,0,0-.517-.538,11.6,11.6,0,0,0-2.873-.161c-.263-.014-.292.171-.208.383.014,1.371.325,2.719.3,4.092a.285.285,0,0,0,.158.277,9.536,9.536,0,0,0,.218,2.687l.046.133c0,.406.029.813.009,1.217-.021.431.171.554.581.561a8.343,8.343,0,0,0,1.962-.3c.293.1.564.073.432-.313a6.2,6.2,0,0,1-.006-1.913c-.035-.872.31-1.769-.128-2.622-.06-.116.114-.089.127-.151.125-.584.636-.745,1.072-.988a4.194,4.194,0,0,1,1.574-.154,1.277,1.277,0,0,1,1.489,1.333,11.791,11.791,0,0,1-.221,4.376,1.511,1.511,0,0,0,.006.726c.031.172.157.393.38.3.477-.209.978-.028,1.456-.139.468-.07.974.2,1.41-.157l.815-.09c.229.014.23-.144.281-.313a5.4,5.4,0,0,0,0-1.334,15.572,15.572,0,0,0-.2-5m-8.982,4.571-.007.006.007-.006m7.5-4.922a.218.218,0,0,1-.144.089.218.218,0,0,0,.144-.089m.926,4.164.114.131-.114-.131-.005.005.005-.005a1.32,1.32,0,0,0-.125-.086,1.4,1.4,0,0,1,.125.086m-.448.429.033-.04-.025-.047.025.047-.034.04M309.9,93.22a.9.9,0,0,1,.023-.123.914.914,0,0,0-.023.123m-.125-.242a.737.737,0,0,0-.08.112.737.737,0,0,1,.08-.112m.159-.049h0l0,0,0,0" transform="translate(-264.699 -79.723)" fill="#fff"/>
        <path id="Path_4292-2" data-name="Path 4292" d="M431.571,99.347a.765.765,0,0,0-.2-.773h0c.072-.187-.084-.324-.109-.489.231-.086.331-.184.3-.493a7.471,7.471,0,0,0-.54-2.245,3.058,3.058,0,0,0-2.443-2.01,14.944,14.944,0,0,0-3.445,0c-.888.075-1.773.192-2.658.3a.839.839,0,0,1-.963-.585.567.567,0,0,0-.831-.368,2.3,2.3,0,0,1-.715.1c-.535.013-1.07,0-1.6.015-.2.007-.539-.07-.373.352q0,1.667-.007,3.334c-.089.21-.121.406.134.528.185,2.263.054,4.531.076,6.8a1.825,1.825,0,0,1-.094.416c-.2.091-.216.232-.113.406-.006.761-.008,1.522-.018,2.282,0,.312.079.519.448.507.78-.026,1.561-.04,2.341-.058.5.183.642-.13.6-.516-.076-.77.031-1.535,0-2.3a2.974,2.974,0,0,1,.192-.948c.128-.449.366-.626.819-.447a2.445,2.445,0,0,0,1.56.782c.839.013,1.678-.012,2.517-.021.2.173.306.075.383-.123a12.4,12.4,0,0,1,1.593-.137.3.3,0,0,0,.283.063,4.588,4.588,0,0,0,2.584-1.831,1.173,1.173,0,0,0,.293-1.135,2.979,2.979,0,0,1,0-1.4m-3.7-1.288a.065.065,0,0,0-.044-.057.065.065,0,0,1,.044.057m1.465,4.5a.872.872,0,0,0,.038-.127c.011-.046.019-.1.026-.15h0c-.007.053-.015.1-.026.149a.872.872,0,0,1-.038.127.432.432,0,0,1-.053.1.432.432,0,0,0,.053-.1m-.924-2.3a1.526,1.526,0,0,1,.31-.777,1.526,1.526,0,0,0-.31.777m.6-2.894h0l.015-.014-.015.014m.027-.024.019-.017-.019.017m-.26,2.08-.022.024.022-.024m.136-.1.007-.007-.007.007m.116-1.847h0l.007.037-.007-.037m-.352-1.2a1.012,1.012,0,0,1,.037-.116,1.012,1.012,0,0,0-.037.116m.054-1.051-.1-.045.1.044h0m-4.723,1.766a.336.336,0,0,0-.246.144.336.336,0,0,1,.246-.144m.153.013a.555.555,0,0,0-.079-.013.555.555,0,0,1,.079.013M420.574,94.1l-.1-.043.1.043h0m-1.107,6.182a.64.64,0,0,0-.075-.036.641.641,0,0,1,.075.036h0m2.705-5.123.008-.079h0c0,.026-.006.053-.008.079m-1.3-.04h0l0,0Zm.442,5.166a2.8,2.8,0,0,1,.127-2.3c.182-.27.607-.091.8-.381.541.036.933-.468,1.48-.407h0c.215.05.413.052.529-.184a8.935,8.935,0,0,0,1.159,0,2.563,2.563,0,0,1,2.376.982h0l.089.113.014.225c-.128.163,0,.215.118.268a4.854,4.854,0,0,1-.6,2.441h0c-.758-.037-1.492.2-2.256.166a6.739,6.739,0,0,1-2.57-.438.65.65,0,0,0-.176-.048c-.4-.058-.958.142-1.084-.44" transform="translate(-366.241 -81.172)" fill="#fff"/>
        <path id="Path_4293-2" data-name="Path 4293" d="M259.9,121.718c-.017-.82-.194-1.007-1.022-1.01a8.5,8.5,0,0,0-2.007.2l-.21-.016c-.186-.059-.342-.059-.373.189a3.805,3.805,0,0,0-.091,1.341c0,2.244.011,4.488,0,6.731,0,.538.14.77.737.74.684-.035,1.29-.368,1.967-.406.165-.009.262-.185.238-.378a.13.13,0,0,0-.117-.139v-.007c.464-.454.291-1.1.419-1.639.077-.326.31-.668.214-1.051a2.6,2.6,0,0,1,.051-1.533c.114-.321.334-.7.251-.976a7.222,7.222,0,0,1-.053-2.048m-.833.085h0a.677.677,0,0,0-.075-.036.7.7,0,0,1,.075.036m-1.8.274h0a.516.516,0,0,0,.181-.074.516.516,0,0,1-.181.074m.225-.131a.092.092,0,0,0,0-.031.092.092,0,0,1,0,.031" transform="translate(-224.504 -105.784)" fill="#fff"/>
        <path id="Path_4294-2" data-name="Path 4294" d="M12.923,89.393c-.179-.36-.247-.387-.6-.292a4.4,4.4,0,0,1-1.965.279,2.372,2.372,0,0,0-1.079.178,10.163,10.163,0,0,1-2.486.4,12,12,0,0,0-2.843.253l-.335-.46h0A9.3,9.3,0,0,1,3.434,87.7c-.008-.942.171-1.9.156-2.856a.8.8,0,0,1,.671-.827c.6-.181,1.2-.384,1.794-.577l.622-.033c.168.02.336.04.415-.165l2.763-.023c.137.341.421.162.648.182a.414.414,0,0,0-.091-.144.257.257,0,0,0-.073-.051.288.288,0,0,0-.081-.023.288.288,0,0,1,.081.023.257.257,0,0,1,.073.051.414.414,0,0,1,.091.144,7.867,7.867,0,0,0,.97.243c.328.042.635-.018.413-.484h0a27.054,27.054,0,0,0-.05-2.813c-.05-.445.194-1.136-.5-1.322a11.285,11.285,0,0,0-2.414-.43,22.033,22.033,0,0,0-4.036.186c-1.109.156-2.391.181-3.045,1.415-.188.186-.444.34-.552.565A9.124,9.124,0,0,0,.2,84.627c-.19.092-.239.221-.106.4a31.88,31.88,0,0,0-.029,3.34.264.264,0,0,0,.107.422q.067.285.134.57a.259.259,0,0,0,.106.411l.576,1.46a.778.778,0,0,0,.548.63l.03.029c.021.166.062.314.277.3a.2.2,0,0,0,.087.059.524.524,0,0,0,.661.367,25.353,25.353,0,0,0,5.567.226c.5-.083,1.059.159,1.512-.241a7.69,7.69,0,0,0,3.441-.778A.391.391,0,0,0,13.4,91.3a14.552,14.552,0,0,0-.474-1.907M7.167,81.817h0m-1.609.865-.021.013Zm-.044.032c-.031.027-.059.06-.089.088.03-.028.058-.061.089-.088m-.112.108a.187.187,0,0,1-.047.029.187.187,0,0,0,.047-.029M1.484,84.9l.052.051L1.484,84.9l0,0,0,0a.565.565,0,0,1,.041-.345.565.565,0,0,0-.041.345m.862,2.1a.616.616,0,0,0,.1-.028A.616.616,0,0,1,2.347,87.007Zm.122,2.964c0,.01,0,.02,0,.03C2.471,89.99,2.47,89.981,2.469,89.971Zm0-7.412-.013.027c-.009.02-.017.041-.025.062.008-.021.017-.043.025-.062l.013-.027m-1.344,2.1v0" transform="translate(0 -68.859)" fill="#fff"/>
        <path id="Path_4295-2" data-name="Path 4295" d="M490.408,14.2c-.022-.2-.022-.478-.331-.526l-.037-.214a1.237,1.237,0,0,0-.346-1.067.691.691,0,0,1-.166-.965,10.929,10.929,0,0,0,.844-2.361c.056-.285.106-.541-.293-.589.286-.24-.024-.471-.012-.706.166-.282,0-.422-.229-.533l-.158-.214A1.411,1.411,0,0,0,488.7,5.9a.11.11,0,0,0-.075-.042.366.366,0,0,0-.407-.347L487.229,4.4a2.6,2.6,0,0,0-1.5-1.589L484.169,1.39a.323.323,0,0,0-.414-.308L483.53.939a1.13,1.13,0,0,0-.7-.631,6.8,6.8,0,0,0-2.06-.3c-3.322.161-6.634.509-9.964.5a1.258,1.258,0,0,0-1.07.7,4.375,4.375,0,0,0-.964,1.737c-.464,1.207-1.029,2.366-1.586,3.53-.434.909-.842,1.8-.222,2.826a3.427,3.427,0,0,0,1.849,1.193c1.371.613,2.737,1.246,4.142,1.772a10.789,10.789,0,0,1,2.868,1.811l.106.119a.357.357,0,0,1,.195.25c-.151.293.016.429.261.526a44.394,44.394,0,0,1,.069,4.749,1.594,1.594,0,0,0,.418,1.174c.265.287.543.561.815.84.181.559.6.622,1.1.532l2.608.006a2.573,2.573,0,0,0,1.724-.246,36.19,36.19,0,0,0,6.574-.282.465.465,0,0,0,.505-.5c.039-.826.547-1.58.365-2.442-.087-.411.321-.7.311-1.09-.03-1.189-.34-2.343-.47-3.521m-1.843,6.172h0c.159-.144.259-.158.333-.109a.268.268,0,0,1,.067.068.268.268,0,0,0-.067-.068c-.074-.049-.174-.035-.333.109m-7.678-.6c-.964-.254-1.08-1.106-.371-1.866a5.22,5.22,0,0,0,2.552,1.433,2.916,2.916,0,0,0,1.669-.205h0c.238-.106.489.08.763-.168a2.9,2.9,0,0,0,.9-2.767c-.066-.441-.072-.975-.646-1.16a3.177,3.177,0,0,1,.34,1.612,2.261,2.261,0,0,1-.043.276,2.261,2.261,0,0,0,.043-.276,3.176,3.176,0,0,0-.34-1.612l-.01-.013q-.013-.231-.025-.461l.015-.012c.9.345.985,1.173,1.088,1.943a11.215,11.215,0,0,1-.02,2.27c-.036.5-.657.443-.713.877a8.629,8.629,0,0,1-5.2.129m-.367.929-.049-.124.049.124.087-.047-.087.047m-2.1-2.67.536.026Zm1.555-.405a.274.274,0,0,1,.1-.028.274.274,0,0,0-.1.028m3.281-5.416c0-.177-.014-.348-.253-.36a6.07,6.07,0,0,1-1.783-2.091,1.321,1.321,0,0,0-.5-.738c-.489-.4-.436-.689.122-.937.4-.178.791-.371,1.186-.556h0c.164-.07.328-.1.424.094a5.386,5.386,0,0,0,2.363,2.018c.326.192.408.308.179.685a4.584,4.584,0,0,0-.562,1.524c.26.124.131.388.164.59-.033-.2.1-.467-.164-.59a.615.615,0,0,0-.408.342c-.123.3-.355.331-.63.242h0l-.138-.224m-.673-5.186c-.255,0-.545-.047-.57.283.025-.33.315-.282.57-.283m4.107,5.825.021-.018Zm-2.209.37h0l.518.245-.518-.245m.743-.076c.044,0,.1.036.177.11-.08-.074-.133-.112-.177-.11m-.582.674a3.169,3.169,0,0,0,.58.637h0a3.177,3.177,0,0,1-.58-.637m4.162,3.963c-.015-.068-.033-.136-.049-.2C488.776,17.637,488.794,17.705,488.809,17.774ZM467.3,7.448c-.022.067-.045.134-.065.2.02-.068.043-.135.065-.2m-.1.322a1.692,1.692,0,0,0-.034.169,1.692,1.692,0,0,1,.034-.169m.244.984a.861.861,0,0,1-.282-.791.861.861,0,0,0,.282.791c.353-1.837,1.392-3.4,2.042-5.12.15-.4.348-.776.5-1.171a1.605,1.605,0,0,1,1.73-1.223,4.136,4.136,0,0,1,1.257-.288,4.135,4.135,0,0,0-1.257.288,4.638,4.638,0,0,0,2.137-.024h.234c1.378.148,2.719-.289,4.1-.244.98.032,1.965-.045,2.945-.105a4,4,0,0,1,3.3,1.456c1.093,1.2,2.288,2.294,3.392,3.478a8.04,8.04,0,0,1,1.626,1.956,1.171,1.171,0,0,1,.089.983,19.822,19.822,0,0,1-1.493,3.452,6.114,6.114,0,0,1-.533.5,6.152,6.152,0,0,0,.533-.5c-.787.046-1.541-.383-2.34-.168-.331.089-.369-.081-.276-.329.158-.42.1-.875.265-1.305.11-.281.221-.688-.163-.941l-.114-.153c-.225-.51-.708-.58-1.17-.689A4.493,4.493,0,0,1,482.782,7a.656.656,0,0,0-.81-.361c-.588.117-1.057.558-1.684.6-.148.01-.316.25-.265.491-.783.359-.858.663-.307,1.274.629.7,1.274,1.379,1.891,2.085.213.243.545.485.281.893a21.678,21.678,0,0,0-3.93.161c-.331.038-.713.058-.908.427-.268.291-.566.574-.239,1a.527.527,0,0,1-.526-.188,6.473,6.473,0,0,0-2.1-1.661c-.485-.216-1-.363-1.472-.607-1.271-.663-2.652-1.057-3.953-1.645a1.9,1.9,0,0,0-.48-.081,1,1,0,0,1-.839-.637m9.776,5.648a.245.245,0,0,0-.261-.219l-.009-.01c0-.207-.208-.37-.132-.593a.739.739,0,0,0,.609.175,4.279,4.279,0,0,0,1.984,1.683.469.469,0,0,0,.107.008c.04.211.322.418.336.249.052-.664.649-.878.925-1.337a21.057,21.057,0,0,1,3.306.133,2.421,2.421,0,0,0,.964.482,2.108,2.108,0,0,1,.67,1.785c-.006.543-.4.835-.563,1.261a3.382,3.382,0,0,1-3.522-.141c-.2-.116-.313-.413-.619-.331l-2.425-2.028h0a.745.745,0,0,0-.661-.584,1.084,1.084,0,0,1-.706-.533h0m12.326,6.677a.445.445,0,0,0-.085-.049.445.445,0,0,1,.085.049m.671-2.88-.047-.055,0,0,0,0,.047.055" transform="translate(-408.954 0)" fill="#fff"/>
        <path id="Path_4296-2" data-name="Path 4296" d="M253.851,82.278c.081,0,.183.022.239-.018.709-.494.737-1.005.582-1.887a1.865,1.865,0,0,0-1.034-1.526,1.551,1.551,0,0,0-1.646.192c-.74.32-.93,1.781-.347,2.526a1.773,1.773,0,0,0,2.206.713" transform="translate(-220.231 -68.967)" fill="#fff"/>
      </g>
    </g>
  </g>
</svg>
