<svg xmlns="http://www.w3.org/2000/svg" xmlns:xlink="http://www.w3.org/1999/xlink" width="344" height="48" viewBox="0 0 344 48">
  <defs>
    <clipPath id="clip-path">
      <rect id="Rectangle_1121" data-name="Rectangle 1121" width="145.594" height="27.703" fill="none"/>
    </clipPath>
    <clipPath id="clip-path-2">
      <rect id="Rectangle_1121-2" data-name="Rectangle 1121" width="145.594" height="27.703" fill="#fff"/>
    </clipPath>
  </defs>
  <g id="partners_ambcrypto" transform="translate(-176 -1281)">
    <rect id="Rectangle_1053" data-name="Rectangle 1053" width="172" height="48" transform="translate(176 1281)" fill="#151515" opacity="0"/>
    <path id="Path_4109" data-name="Path 4109" d="M0,0H172V48H0Z" transform="translate(348 1281)" fill="#151515" opacity="0"/>
    <g id="Group_2106" data-name="Group 2106" transform="translate(190.598 1296)">
      <g id="Group_2109" data-name="Group 2109" transform="translate(-1.598 -4.851)">
        <g id="Group_2109-2" data-name="Group 2109" transform="translate(0 0)" clip-path="url(#clip-path)">
          <path id="Path_4240" data-name="Path 4240" d="M129.771,17.358c1.575,1.521,1.561,3.658,2.454,5.594-.788,0-1.457-.016-2.125.006-.4.014-.478-.226-.57-.532-.3-1-.623-1.993-.95-2.984-.278-.841-.619-1.562-1.743-1.493-.694.043-.793-.354-.4-.912A2.131,2.131,0,0,1,127.6,16.2a1.981,1.981,0,0,0,1.562-2.175,2.2,2.2,0,0,0-2.02-1.715c-.064-.008-.13-.01-.2-.013-1.46-.092-1.46-.092-1.46,1.381,0,2.791-.027,5.582.018,8.372.012.722-.145.952-.9.923-1.55-.061-1.551-.012-1.551-1.529q0-4.875,0-9.75c0-.368-.141-.809.461-.894a12.626,12.626,0,0,1,5.173-.045,3.622,3.622,0,0,1,2.965,3.043,3.369,3.369,0,0,1-1.883,3.559" transform="translate(-32.913 -2.808)" fill="#050605"/>
          <path id="Path_4241" data-name="Path 4241" d="M84.587,16.57a4.438,4.438,0,0,1,2.187-1.187,3.46,3.46,0,0,1,3.3,1.562A5.355,5.355,0,0,1,90,22.784,3.676,3.676,0,0,1,85.76,24.26c-.406-.114-.474-.248-.289-.6a1.733,1.733,0,0,1,.977-.915,2.5,2.5,0,0,0,1.935-2.9,6.758,6.758,0,0,0-.165-1.07c-.27-1.11-.942-1.713-1.779-1.625a1.975,1.975,0,0,0-1.75,2.072c0,2.76-.026,5.52.018,8.279.011.715-.214.871-.886.853-1.491-.04-1.492,0-1.492-1.523q0-4.386,0-8.772c0-.427-.048-.856-.018-1.28.029-.4-.555-1.024.076-1.145.68-.13,1.617-.428,2.055.589.039.09.076.181.146.346" transform="translate(-21.959 -4.111)" fill="#050606"/>
          <path id="Path_4242" data-name="Path 4242" d="M51.969,23.156c-3.42-.053-5.645-1.837-6.327-4.949a6.215,6.215,0,0,1,3.381-7.04,7.383,7.383,0,0,1,5.464-.231c.306.1.626.209.32.582-.286.348.034,1.169-.82,1.066-.194-.023-.385-.075-.576-.113-3.106-.62-5.265,1.033-5.308,4.21-.053,3.871,2.788,5.538,5.6,4.355.91-.383.8.4,1.061.8.383.582-.066.729-.464.875a5.247,5.247,0,0,1-2.334.448" transform="translate(-12.168 -2.815)" fill="#050606"/>
          <path id="Path_4243" data-name="Path 4243" d="M181.2,20.266a1.617,1.617,0,0,1,1.91-1.359c.917.058,1.032-.166.657-.99a1.473,1.473,0,0,0-2.379-.491c-1.261,1.051-1.091,4.027.292,4.915a2.882,2.882,0,0,0,2.918,0c.894-.431.854.218,1.109.659.38.659-.034.832-.532,1.023-2.625,1-5.1.385-6.294-1.59a5.138,5.138,0,0,1,.271-5.547,4.436,4.436,0,0,1,4.814-1.3,3.139,3.139,0,0,1,2.131,2.6c.27,1.683-.119,2.124-1.777,2.124q-1.428,0-2.856,0a2.245,2.245,0,0,1-.264-.039" transform="translate(-47.667 -4.103)" fill="#050606"/>
          <path id="Path_4244" data-name="Path 4244" d="M11.235,24.994c-.146.213-.3.419-.436.64a6.115,6.115,0,0,1-5.186,3.307,28.16,28.16,0,0,0-3.373.615c-1.166.207-2.065-.3-2.219-1.221-.139-.829.443-1.516,1.586-1.763,1.437-.311,2.879-.62,4.333-.831a2.375,2.375,0,0,0,1.747-1.088c.426-.617.942-1.172,1.418-1.754a.382.382,0,0,1,.564-.006,4.056,4.056,0,0,0,1.416,1.332c.119.243.426.45.151.771" transform="translate(0 -6.091)" fill="#f6790e"/>
          <path id="Path_4245" data-name="Path 4245" d="M99.134,11.817c0,2.593,0,5.018,0,7.443a6.594,6.594,0,0,0,.061,1.077c.2,1.187.775,1.664,1.912,1.329,1.023-.3.749.512.963.9.3.546-.127.622-.512.738-2.751.828-4.547-.437-4.629-3.287-.029-.983-.035-1.968,0-2.951.02-.539-.119-.8-.7-.727-.366.045-.761.059-.705-.511.041-.417-.193-.945.557-1.028.324-.036.828.018.845-.587.015-.552-.259-1.3.119-1.609a7.229,7.229,0,0,1,2.088-.788" transform="translate(-25.552 -3.161)" fill="#050606"/>
          <path id="Path_4246" data-name="Path 4246" d="M76.579,15.638c-1.392,3.615-2.446,7.258-4.032,10.7a3.212,3.212,0,0,1-3.983,2.036c-.212-.061-.831.029-.567-.526.2-.413.022-1.234.778-1.138,1.549.2,2.1-.743,2.485-1.951.856-2.707,1.732-5.41,2.534-8.133.218-.739.481-1.143,1.319-1a9.352,9.352,0,0,0,1.466.013" transform="translate(-18.172 -4.172)" fill="#060706"/>
          <path id="Path_4247" data-name="Path 4247" d="M61.713,16.914a2.612,2.612,0,0,1,2.247-1.505c.6.018,1.053.191.827.928-.144.471.275,1.363-.909,1.074-.783-.192-1.334.3-1.687,1.039a7.542,7.542,0,0,0-.364,3.2,8.272,8.272,0,0,0,.01,1.476c.145.954-.205,1.179-1.154,1.187-.983.008-1.161-.289-1.157-1.207a44.109,44.109,0,0,0-.162-7.08c-.064-.413.1-.409.392-.44,1.337-.141,1.431-.086,1.957,1.332" transform="translate(-15.876 -4.121)" fill="#070808"/>
          <path id="Path_4248" data-name="Path 4248" d="M191.15,15.664c1.907-.185,1.907-.185,2.457,1.246a2.542,2.542,0,0,1,2.458-1.491c.9.094.637.731.579,1.234-.049.431.053,1-.8.768-.827-.222-1.4.264-1.77,1.047a8.424,8.424,0,0,0-.357,3.4c-.012.294,0,.591,0,.886,0,1.559,0,1.516-1.557,1.535-.675.008-.727-.27-.724-.812.011-2.1-.015-4.2-.034-6.306a3.819,3.819,0,0,0-.246-1.5" transform="translate(-51.133 -4.121)" fill="#070808"/>
          <path id="Path_4249" data-name="Path 4249" d="M138.235,18.984c0-.854.032-1.71-.011-2.562-.03-.577.1-.8.746-.795,1.678.01,1.678-.026,1.679,1.626,0,1.479.007,2.957,0,4.436,0,.779.3,1.2,1.138,1a.941.941,0,0,1,.669.075,1.257,1.257,0,0,1,.719.89c.039.375-.459.371-.735.5a3.91,3.91,0,0,1-1.713.376,2.26,2.26,0,0,1-2.389-2.008,3.63,3.63,0,0,1-.078-.586c-.009-.985,0-1.971,0-2.956h-.02" transform="translate(-36.974 -4.18)" fill="#090909"/>
          <path id="Path_4250" data-name="Path 4250" d="M160.811,20.778v1.969c0,1.475-.574,1.879-2.058,1.51-.478-.119-.292-.45-.294-.692-.018-1.674,0-3.348-.011-5.021-.006-1.228-.1-1.33-1.329-1.3a1.3,1.3,0,0,1-1.105-.691c-.248-.33-.134-.489.213-.657,2.78-1.346,4.729-.127,4.591,2.617-.038.753-.006,1.51-.006,2.264" transform="translate(-41.698 -4.105)" fill="#050606"/>
          <path id="Path_4251" data-name="Path 4251" d="M174,20.8c0,.919-.034,1.839.012,2.756.028.566-.163.705-.713.708-1.662.007-1.662.032-1.662-1.609,0-1.411,0-2.822,0-4.233,0-.847-.209-1.445-1.26-1.2-.587.136-.9-.278-1.19-.686-.182-.255-.2-.441.159-.6a3.716,3.716,0,0,1,3.3-.327A2.739,2.739,0,0,1,174,18.434c-.015.787,0,1.575,0,2.362" transform="translate(-45.225 -4.1)" fill="#050606"/>
          <path id="Path_4252" data-name="Path 4252" d="M151.849,19.914a21.3,21.3,0,0,0-.183-3.894c-.034-.149-.086-.3.118-.408a1.729,1.729,0,0,1,2.386,1.2,23.449,23.449,0,0,1,.113,3.635c.019,1.05-.017,2.1.013,3.152.014.49-.1.678-.644.691-1.8.046-1.8.073-1.8-1.69Z" transform="translate(-40.562 -4.132)" fill="#0a0909"/>
          <path id="Path_4253" data-name="Path 4253" d="M164.782,15.718c2.271-.208,2.526-.286,2.664,2.23.1,1.866,0,3.743.034,5.614.012.593-.134.784-.757.78-1.693-.01-1.694.023-1.694-1.7,0-1.149.008-2.3,0-3.448a13.292,13.292,0,0,0-.245-3.474" transform="translate(-44.079 -4.179)" fill="#0a0909"/>
          <path id="Path_4254" data-name="Path 4254" d="M148.023,19.73a21.621,21.621,0,0,0,.188,4.089c.086.366-.026.49-.434.52-1.65.121-2.1-.252-2.114-1.941-.02-2,.015-3.994-.018-5.991-.01-.571.09-.789.734-.779,1.644.025,1.644-.014,1.644,1.628V19.73" transform="translate(-38.96 -4.18)" fill="#050606"/>
          <path id="Path_4255" data-name="Path 4255" d="M67.386,15.7c2.492-.167,2.46-.157,3.187,2.1.579,1.8,1.039,3.583.324,5.449-.089.234-.187.465-.373.929L67.386,15.7" transform="translate(-18.026 -4.183)" fill="#070707"/>
          <path id="Path_4256" data-name="Path 4256" d="M101.234,15.649c.7,0,1.311.012,1.922-.005.348-.01.6.065.516.472s.288,1.009-.256,1.212a1.442,1.442,0,0,1-1.446-.379,2.555,2.555,0,0,1-.735-1.3" transform="translate(-27.08 -4.184)" fill="#0e0d0d"/>
          <path id="Path_4257" data-name="Path 4257" d="M19.686,33.887c.092.375-.148.7-.168,1.054a1.135,1.135,0,0,0,.478,1.2,1.043,1.043,0,0,0,1.275-.09,8.924,8.924,0,0,1,.82-.533,1.492,1.492,0,0,1-1.431,1.242,1.336,1.336,0,0,1-1.384-.736,1.754,1.754,0,0,1,.409-2.137" transform="translate(-5.1 -9.064)" fill="#f77d17"/>
          <path id="Path_4258" data-name="Path 4258" d="M27.532,27.74a1.84,1.84,0,0,1,.048-.578,1.954,1.954,0,0,0-.637-2.337c1.521.413,1.74,1.5.588,2.915" transform="translate(-7.208 -6.64)" fill="#f77d17"/>
          <path id="Path_4259" data-name="Path 4259" d="M25.647,24.073a.82.82,0,0,1-1.13-.565,1.781,1.781,0,0,1,1.13.565" transform="translate(-6.558 -6.288)" fill="#f77d17"/>
          <path id="Path_4260" data-name="Path 4260" d="M15.283,25.525q-.076-.386-.151-.771c.641.141.649.407.151.771" transform="translate(-4.048 -6.621)" fill="#fb943f"/>
          <path id="Path_4261" data-name="Path 4261" d="M12.993,22.806l-.563.006c.051-.19.14-.371.36-.361.205.01.208.194.2.355" transform="translate(-3.325 -6.005)" fill="#fda45a"/>
          <path id="Path_4262" data-name="Path 4262" d="M24.519,33.745c0-.282-.01-.568.385-.59a.576.576,0,0,1-.385.59" transform="translate(-6.559 -8.869)" fill="#f77d17"/>
          <path id="Path_4263" data-name="Path 4263" d="M110.613,15.378a4.367,4.367,0,0,0-4.534,4.5,4.3,4.3,0,0,0,4.424,4.586,4.488,4.488,0,0,0,4.574-4.521,4.343,4.343,0,0,0-4.464-4.567m1.721,5.788a1.774,1.774,0,0,1-1.866,1.536,2.01,2.01,0,0,1-1.8-1.893,8.592,8.592,0,0,1-.058-.881,3.6,3.6,0,0,1,.39-1.792,1.663,1.663,0,0,1,1.549-1,1.619,1.619,0,0,1,1.559.982,4.253,4.253,0,0,1,.226,3.05" transform="translate(-28.376 -4.113)" fill="#050606"/>
          <path id="Path_4264" data-name="Path 4264" d="M32.538,9.714a1.449,1.449,0,0,0-2.181-.1,18.115,18.115,0,0,0-1.88,1.735c-.628.7-1.081.749-1.792.042-2.351-2.336-4.779-4.6-7.165-6.9a1.848,1.848,0,0,0-1.74-.7c-1.918.442-3.834.891-5.738,1.385a1.325,1.325,0,0,0-1.05,1.639,1.411,1.411,0,0,0,1.755,1.157c.839-.152,1.663-.379,2.494-.571,2.428-.563,2.412-.549,4.11,1.328.357.395.305.589-.029.941-1.741,1.832-3.45,3.694-5.179,5.538-1.232,1.314-1.067,2.356.539,3.183s3.205,1.664,4.833,2.441c.605.289.754.516.349,1.131-.829,1.257-1.57,2.572-2.348,3.863-.036.092-.073.183-.108.275-.412,1.063-.327,1.744.265,2.133.645.423,1.314.227,2.126-.622a1.911,1.911,0,0,0,.122-.154l.97-1.577c.147-.185.2-.434.385-.59l1.98-3.186c.711-1.781.664-2.014-.588-2.916l-.648-.4a2.777,2.777,0,0,1-1.13-.565c-.355-.156-.708-.317-1.067-.467-.754-.316-.763-.709-.211-1.277,1.121-1.153,2.214-2.334,3.294-3.526.36-.4.612-.32.971,0,.834.741,1.7,1.453,2.564,2.152a1.5,1.5,0,0,0,2.345-.043q1.794-1.612,3.537-3.282c.754-.724.8-1.4.214-2.065" transform="translate(-2.932 -1.003)" fill="#f8831f"/>
          <path id="Path_4265" data-name="Path 4265" d="M31.209,7.665a3.857,3.857,0,0,0,3.783-3.881A3.806,3.806,0,0,0,31.136,0a3.87,3.87,0,0,0-3.862,3.807,3.928,3.928,0,0,0,3.935,3.858m-1.22-5.445c-.108-.257.029-.448.232-.335.579.322.659-.281.9-.486.41.171.062.533.289.708.16.01.2-.119.253-.231.087-.185.415-.3.385-.2-.251.833,1.579,1.22.464,2.2-.031.028.149.256.183.4.15.656-.1,1.153-.765,1.224a1.453,1.453,0,0,0-1.2.576c-.063-.211-.125-.423-.188-.633-.271.049-.127.493-.436.434s-.121-.311-.14-.479c-.048-.435-.58-.24-.711-.561a2.065,2.065,0,0,0,.73-2.622" transform="translate(-7.296 0)" fill="#f8831f"/>
          <path id="Path_4266" data-name="Path 4266" d="M32.429,6.388c.343.017.677-.054.673-.407,0-.423-.388-.538-.752-.595-.452-.07-.44.333-.48.566-.075.439.337.357.559.435" transform="translate(-8.523 -1.439)" fill="#f8831f"/>
          <path id="Path_4267" data-name="Path 4267" d="M32.782,4.537c.291.018.518-.061.56-.385-.028-.4-.339-.484-.615-.54-.32-.065-.341.234-.39.448-.081.362.147.459.445.478" transform="translate(-8.646 -0.963)" fill="#f8831f"/>
        </g>
      </g>
    </g>
    <g id="Group_2110" data-name="Group 2110" transform="translate(362.598 1296)">
      <g id="Group_2109-3" data-name="Group 2109" transform="translate(-1.598 -4.851)">
        <g id="Group_2109-4" data-name="Group 2109" transform="translate(0 0)" clip-path="url(#clip-path-2)">
          <path id="Path_4240-2" data-name="Path 4240" d="M129.771,17.358c1.575,1.521,1.561,3.658,2.454,5.594-.788,0-1.457-.016-2.125.006-.4.014-.478-.226-.57-.532-.3-1-.623-1.993-.95-2.984-.278-.841-.619-1.562-1.743-1.493-.694.043-.793-.354-.4-.912A2.131,2.131,0,0,1,127.6,16.2a1.981,1.981,0,0,0,1.562-2.175,2.2,2.2,0,0,0-2.02-1.715c-.064-.008-.13-.01-.2-.013-1.46-.092-1.46-.092-1.46,1.381,0,2.791-.027,5.582.018,8.372.012.722-.145.952-.9.923-1.55-.061-1.551-.012-1.551-1.529q0-4.875,0-9.75c0-.368-.141-.809.461-.894a12.626,12.626,0,0,1,5.173-.045,3.622,3.622,0,0,1,2.965,3.043,3.369,3.369,0,0,1-1.883,3.559" transform="translate(-32.913 -2.808)" fill="#fff"/>
          <path id="Path_4241-2" data-name="Path 4241" d="M84.587,16.57a4.438,4.438,0,0,1,2.187-1.187,3.46,3.46,0,0,1,3.3,1.562A5.355,5.355,0,0,1,90,22.784,3.676,3.676,0,0,1,85.76,24.26c-.406-.114-.474-.248-.289-.6a1.733,1.733,0,0,1,.977-.915,2.5,2.5,0,0,0,1.935-2.9,6.758,6.758,0,0,0-.165-1.07c-.27-1.11-.942-1.713-1.779-1.625a1.975,1.975,0,0,0-1.75,2.072c0,2.76-.026,5.52.018,8.279.011.715-.214.871-.886.853-1.491-.04-1.492,0-1.492-1.523q0-4.386,0-8.772c0-.427-.048-.856-.018-1.28.029-.4-.555-1.024.076-1.145.68-.13,1.617-.428,2.055.589.039.09.076.181.146.346" transform="translate(-21.959 -4.111)" fill="#fff"/>
          <path id="Path_4242-2" data-name="Path 4242" d="M51.969,23.156c-3.42-.053-5.645-1.837-6.327-4.949a6.215,6.215,0,0,1,3.381-7.04,7.383,7.383,0,0,1,5.464-.231c.306.1.626.209.32.582-.286.348.034,1.169-.82,1.066-.194-.023-.385-.075-.576-.113-3.106-.62-5.265,1.033-5.308,4.21-.053,3.871,2.788,5.538,5.6,4.355.91-.383.8.4,1.061.8.383.582-.066.729-.464.875a5.247,5.247,0,0,1-2.334.448" transform="translate(-12.168 -2.815)" fill="#fff"/>
          <path id="Path_4243-2" data-name="Path 4243" d="M181.2,20.266a1.617,1.617,0,0,1,1.91-1.359c.917.058,1.032-.166.657-.99a1.473,1.473,0,0,0-2.379-.491c-1.261,1.051-1.091,4.027.292,4.915a2.882,2.882,0,0,0,2.918,0c.894-.431.854.218,1.109.659.38.659-.034.832-.532,1.023-2.625,1-5.1.385-6.294-1.59a5.138,5.138,0,0,1,.271-5.547,4.436,4.436,0,0,1,4.814-1.3,3.139,3.139,0,0,1,2.131,2.6c.27,1.683-.119,2.124-1.777,2.124q-1.428,0-2.856,0a2.245,2.245,0,0,1-.264-.039" transform="translate(-47.667 -4.103)" fill="#fff"/>
          <path id="Path_4244-2" data-name="Path 4244" d="M11.235,24.994c-.146.213-.3.419-.436.64a6.115,6.115,0,0,1-5.186,3.307,28.16,28.16,0,0,0-3.373.615c-1.166.207-2.065-.3-2.219-1.221-.139-.829.443-1.516,1.586-1.763,1.437-.311,2.879-.62,4.333-.831a2.375,2.375,0,0,0,1.747-1.088c.426-.617.942-1.172,1.418-1.754a.382.382,0,0,1,.564-.006,4.056,4.056,0,0,0,1.416,1.332c.119.243.426.45.151.771" transform="translate(0 -6.091)" fill="#fff"/>
          <path id="Path_4245-2" data-name="Path 4245" d="M99.134,11.817c0,2.593,0,5.018,0,7.443a6.594,6.594,0,0,0,.061,1.077c.2,1.187.775,1.664,1.912,1.329,1.023-.3.749.512.963.9.3.546-.127.622-.512.738-2.751.828-4.547-.437-4.629-3.287-.029-.983-.035-1.968,0-2.951.02-.539-.119-.8-.7-.727-.366.045-.761.059-.705-.511.041-.417-.193-.945.557-1.028.324-.036.828.018.845-.587.015-.552-.259-1.3.119-1.609a7.229,7.229,0,0,1,2.088-.788" transform="translate(-25.552 -3.161)" fill="#fff"/>
          <path id="Path_4246-2" data-name="Path 4246" d="M76.579,15.638c-1.392,3.615-2.446,7.258-4.032,10.7a3.212,3.212,0,0,1-3.983,2.036c-.212-.061-.831.029-.567-.526.2-.413.022-1.234.778-1.138,1.549.2,2.1-.743,2.485-1.951.856-2.707,1.732-5.41,2.534-8.133.218-.739.481-1.143,1.319-1a9.352,9.352,0,0,0,1.466.013" transform="translate(-18.172 -4.172)" fill="#fff"/>
          <path id="Path_4247-2" data-name="Path 4247" d="M61.713,16.914a2.612,2.612,0,0,1,2.247-1.505c.6.018,1.053.191.827.928-.144.471.275,1.363-.909,1.074-.783-.192-1.334.3-1.687,1.039a7.542,7.542,0,0,0-.364,3.2,8.272,8.272,0,0,0,.01,1.476c.145.954-.205,1.179-1.154,1.187-.983.008-1.161-.289-1.157-1.207a44.109,44.109,0,0,0-.162-7.08c-.064-.413.1-.409.392-.44,1.337-.141,1.431-.086,1.957,1.332" transform="translate(-15.876 -4.121)" fill="#fff"/>
          <path id="Path_4248-2" data-name="Path 4248" d="M191.15,15.664c1.907-.185,1.907-.185,2.457,1.246a2.542,2.542,0,0,1,2.458-1.491c.9.094.637.731.579,1.234-.049.431.053,1-.8.768-.827-.222-1.4.264-1.77,1.047a8.424,8.424,0,0,0-.357,3.4c-.012.294,0,.591,0,.886,0,1.559,0,1.516-1.557,1.535-.675.008-.727-.27-.724-.812.011-2.1-.015-4.2-.034-6.306a3.819,3.819,0,0,0-.246-1.5" transform="translate(-51.133 -4.121)" fill="#fff"/>
          <path id="Path_4249-2" data-name="Path 4249" d="M138.235,18.984c0-.854.032-1.71-.011-2.562-.03-.577.1-.8.746-.795,1.678.01,1.678-.026,1.679,1.626,0,1.479.007,2.957,0,4.436,0,.779.3,1.2,1.138,1a.941.941,0,0,1,.669.075,1.257,1.257,0,0,1,.719.89c.039.375-.459.371-.735.5a3.91,3.91,0,0,1-1.713.376,2.26,2.26,0,0,1-2.389-2.008,3.63,3.63,0,0,1-.078-.586c-.009-.985,0-1.971,0-2.956h-.02" transform="translate(-36.974 -4.18)" fill="#fff"/>
          <path id="Path_4250-2" data-name="Path 4250" d="M160.811,20.778v1.969c0,1.475-.574,1.879-2.058,1.51-.478-.119-.292-.45-.294-.692-.018-1.674,0-3.348-.011-5.021-.006-1.228-.1-1.33-1.329-1.3a1.3,1.3,0,0,1-1.105-.691c-.248-.33-.134-.489.213-.657,2.78-1.346,4.729-.127,4.591,2.617-.038.753-.006,1.51-.006,2.264" transform="translate(-41.698 -4.105)" fill="#fff"/>
          <path id="Path_4251-2" data-name="Path 4251" d="M174,20.8c0,.919-.034,1.839.012,2.756.028.566-.163.705-.713.708-1.662.007-1.662.032-1.662-1.609,0-1.411,0-2.822,0-4.233,0-.847-.209-1.445-1.26-1.2-.587.136-.9-.278-1.19-.686-.182-.255-.2-.441.159-.6a3.716,3.716,0,0,1,3.3-.327A2.739,2.739,0,0,1,174,18.434c-.015.787,0,1.575,0,2.362" transform="translate(-45.225 -4.1)" fill="#fff"/>
          <path id="Path_4252-2" data-name="Path 4252" d="M151.849,19.914a21.3,21.3,0,0,0-.183-3.894c-.034-.149-.086-.3.118-.408a1.729,1.729,0,0,1,2.386,1.2,23.449,23.449,0,0,1,.113,3.635c.019,1.05-.017,2.1.013,3.152.014.49-.1.678-.644.691-1.8.046-1.8.073-1.8-1.69Z" transform="translate(-40.562 -4.132)" fill="#fff"/>
          <path id="Path_4253-2" data-name="Path 4253" d="M164.782,15.718c2.271-.208,2.526-.286,2.664,2.23.1,1.866,0,3.743.034,5.614.012.593-.134.784-.757.78-1.693-.01-1.694.023-1.694-1.7,0-1.149.008-2.3,0-3.448a13.292,13.292,0,0,0-.245-3.474" transform="translate(-44.079 -4.179)" fill="#fff"/>
          <path id="Path_4254-2" data-name="Path 4254" d="M148.023,19.73a21.621,21.621,0,0,0,.188,4.089c.086.366-.026.49-.434.52-1.65.121-2.1-.252-2.114-1.941-.02-2,.015-3.994-.018-5.991-.01-.571.09-.789.734-.779,1.644.025,1.644-.014,1.644,1.628V19.73" transform="translate(-38.96 -4.18)" fill="#fff"/>
          <path id="Path_4255-2" data-name="Path 4255" d="M67.386,15.7c2.492-.167,2.46-.157,3.187,2.1.579,1.8,1.039,3.583.324,5.449-.089.234-.187.465-.373.929L67.386,15.7" transform="translate(-18.026 -4.183)" fill="#fff"/>
          <path id="Path_4256-2" data-name="Path 4256" d="M101.234,15.649c.7,0,1.311.012,1.922-.005.348-.01.6.065.516.472s.288,1.009-.256,1.212a1.442,1.442,0,0,1-1.446-.379,2.555,2.555,0,0,1-.735-1.3" transform="translate(-27.08 -4.184)" fill="#fff"/>
          <path id="Path_4257-2" data-name="Path 4257" d="M19.686,33.887c.092.375-.148.7-.168,1.054a1.135,1.135,0,0,0,.478,1.2,1.043,1.043,0,0,0,1.275-.09,8.924,8.924,0,0,1,.82-.533,1.492,1.492,0,0,1-1.431,1.242,1.336,1.336,0,0,1-1.384-.736,1.754,1.754,0,0,1,.409-2.137" transform="translate(-5.1 -9.064)" fill="#fff"/>
          <path id="Path_4258-2" data-name="Path 4258" d="M27.532,27.74a1.84,1.84,0,0,1,.048-.578,1.954,1.954,0,0,0-.637-2.337c1.521.413,1.74,1.5.588,2.915" transform="translate(-7.208 -6.64)" fill="#fff"/>
          <path id="Path_4259-2" data-name="Path 4259" d="M25.647,24.073a.82.82,0,0,1-1.13-.565,1.781,1.781,0,0,1,1.13.565" transform="translate(-6.558 -6.288)" fill="#fff"/>
          <path id="Path_4260-2" data-name="Path 4260" d="M15.283,25.525q-.076-.386-.151-.771c.641.141.649.407.151.771" transform="translate(-4.048 -6.621)" fill="#fff"/>
          <path id="Path_4261-2" data-name="Path 4261" d="M12.993,22.806l-.563.006c.051-.19.14-.371.36-.361.205.01.208.194.2.355" transform="translate(-3.325 -6.005)" fill="#fff"/>
          <path id="Path_4262-2" data-name="Path 4262" d="M24.519,33.745c0-.282-.01-.568.385-.59a.576.576,0,0,1-.385.59" transform="translate(-6.559 -8.869)" fill="#fff"/>
          <path id="Path_4263-2" data-name="Path 4263" d="M110.613,15.378a4.367,4.367,0,0,0-4.534,4.5,4.3,4.3,0,0,0,4.424,4.586,4.488,4.488,0,0,0,4.574-4.521,4.343,4.343,0,0,0-4.464-4.567m1.721,5.788a1.774,1.774,0,0,1-1.866,1.536,2.01,2.01,0,0,1-1.8-1.893,8.592,8.592,0,0,1-.058-.881,3.6,3.6,0,0,1,.39-1.792,1.663,1.663,0,0,1,1.549-1,1.619,1.619,0,0,1,1.559.982,4.253,4.253,0,0,1,.226,3.05" transform="translate(-28.376 -4.113)" fill="#fff"/>
          <path id="Path_4264-2" data-name="Path 4264" d="M32.538,9.714a1.449,1.449,0,0,0-2.181-.1,18.115,18.115,0,0,0-1.88,1.735c-.628.7-1.081.749-1.792.042-2.351-2.336-4.779-4.6-7.165-6.9a1.848,1.848,0,0,0-1.74-.7c-1.918.442-3.834.891-5.738,1.385a1.325,1.325,0,0,0-1.05,1.639,1.411,1.411,0,0,0,1.755,1.157c.839-.152,1.663-.379,2.494-.571,2.428-.563,2.412-.549,4.11,1.328.357.395.305.589-.029.941-1.741,1.832-3.45,3.694-5.179,5.538-1.232,1.314-1.067,2.356.539,3.183s3.205,1.664,4.833,2.441c.605.289.754.516.349,1.131-.829,1.257-1.57,2.572-2.348,3.863-.036.092-.073.183-.108.275-.412,1.063-.327,1.744.265,2.133.645.423,1.314.227,2.126-.622a1.911,1.911,0,0,0,.122-.154l.97-1.577c.147-.185.2-.434.385-.59l1.98-3.186c.711-1.781.664-2.014-.588-2.916l-.648-.4a2.777,2.777,0,0,1-1.13-.565c-.355-.156-.708-.317-1.067-.467-.754-.316-.763-.709-.211-1.277,1.121-1.153,2.214-2.334,3.294-3.526.36-.4.612-.32.971,0,.834.741,1.7,1.453,2.564,2.152a1.5,1.5,0,0,0,2.345-.043q1.794-1.612,3.537-3.282c.754-.724.8-1.4.214-2.065" transform="translate(-2.932 -1.003)" fill="#fff"/>
          <path id="Path_4265-2" data-name="Path 4265" d="M31.209,7.665a3.857,3.857,0,0,0,3.783-3.881A3.806,3.806,0,0,0,31.136,0a3.87,3.87,0,0,0-3.862,3.807,3.928,3.928,0,0,0,3.935,3.858m-1.22-5.445c-.108-.257.029-.448.232-.335.579.322.659-.281.9-.486.41.171.062.533.289.708.16.01.2-.119.253-.231.087-.185.415-.3.385-.2-.251.833,1.579,1.22.464,2.2-.031.028.149.256.183.4.15.656-.1,1.153-.765,1.224a1.453,1.453,0,0,0-1.2.576c-.063-.211-.125-.423-.188-.633-.271.049-.127.493-.436.434s-.121-.311-.14-.479c-.048-.435-.58-.24-.711-.561a2.065,2.065,0,0,0,.73-2.622" transform="translate(-7.296 0)" fill="#fff"/>
          <path id="Path_4266-2" data-name="Path 4266" d="M32.429,6.388c.343.017.677-.054.673-.407,0-.423-.388-.538-.752-.595-.452-.07-.44.333-.48.566-.075.439.337.357.559.435" transform="translate(-8.523 -1.439)" fill="#fff"/>
          <path id="Path_4267-2" data-name="Path 4267" d="M32.782,4.537c.291.018.518-.061.56-.385-.028-.4-.339-.484-.615-.54-.32-.065-.341.234-.39.448-.081.362.147.459.445.478" transform="translate(-8.646 -0.963)" fill="#fff"/>
        </g>
      </g>
    </g>
  </g>
</svg>
