<svg xmlns="http://www.w3.org/2000/svg" width="344" height="48" viewBox="0 0 344 48">
  <g id="partners_invest_cuffs" transform="translate(-176 -1281)">
    <path id="Path_7727" data-name="Path 7727" d="M0,0H172V48H0Z" transform="translate(176 1281)" fill="#151515" opacity="0"/>
    <rect id="Rectangle_1057" data-name="Rectangle 1057" width="172" height="48" transform="translate(348 1281)" fill="#151515" opacity="0"/>
    <g id="Group_2139" data-name="Group 2139" transform="translate(-813.018 261.509)">
      <path id="Path_7768" data-name="Path 7768" d="M280.377,21.129l2.035,4.738,2.153-4.738a2.736,2.736,0,0,1,2.142,0c-1.109,2.575-2.245,5.139-3.315,7.729a5.08,5.08,0,0,1-2.662,2.714h-1.266c-.2-.516-.815-.265-1.176-.621a.694.694,0,0,1-.025-1.048c.206-.256.093-.847.932-.656,1.906.434,2.257-.018,1.531-1.774-.882-2.136-1.868-4.232-2.808-6.345a3.463,3.463,0,0,1,2.458,0" transform="translate(806.137 1020.821)" fill="#006ab7"/>
      <path id="Path_7769" data-name="Path 7769" d="M4.162,44.727l-.542.939A3.573,3.573,0,0,1,.1,45.652v-.308c.346-.079.289-.387.369-.617a3.618,3.618,0,0,1,3.693,0" transform="translate(995.935 1004.891)" fill="#00a5a1"/>
      <path id="Path_7770" data-name="Path 7770" d="M3.3,49.939c-.23.612-.931.75-1.3,1.224H.732a.528.528,0,0,0-.315-.157A.5.5,0,0,1,.1,50.855V49.93a3.777,3.777,0,0,1,3.2.009" transform="translate(995.936 1001.23)" fill="#00ab9e"/>
      <path id="Path_7771" data-name="Path 7771" d="M24.648,52.639a1.723,1.723,0,0,0-.031.27h-7.6a.99.99,0,0,0-.028-.275,1.565,1.565,0,0,1,1.262-.477q2.567-.042,5.135,0a1.549,1.549,0,0,1,1.259.482" transform="translate(984.395 999.484)" fill="#8ccfc7"/>
      <path id="Path_7772" data-name="Path 7772" d="M3.3,49.365.1,49.356V48.74l3.52.014c-.046.235-.021.506-.323.612" transform="translate(995.936 1001.803)" fill="#00a8a0"/>
      <path id="Path_7773" data-name="Path 7773" d="M493.134,43.586a.6.6,0,0,1,.261.014v.617c-.951-.119-1.953.272-2.862-.269.779-.721,1.707-.424,2.6-.361" transform="translate(660.885 1005.402)" fill="#b1cae9"/>
      <path id="Path_7774" data-name="Path 7774" d="M.062,53.6a.719.719,0,0,1,.31.042q.114.086.079.176c-.023.06-.048.091-.072.091Q-.03,54,.062,53.6" transform="translate(995.973 998.486)" fill="#fff"/>
      <path id="Path_7775" data-name="Path 7775" d="M1.083,53.993c0-.089,0-.178-.007-.267.209-.027.295.087.323.267Z" transform="translate(995.268 998.4)" fill="#dff1ed"/>
      <path id="Subtraction_19" data-name="Subtraction 19" d="M7.438,10.522A2.87,2.87,0,0,1,6.351,10.3a.625.625,0,0,0-.484-.281,1.157,1.157,0,0,0-.519.185,1.161,1.161,0,0,1-.519.185.492.492,0,0,1-.056,0,3.776,3.776,0,0,1-1.95,0A3.417,3.417,0,0,1,.707,9.077,4.366,4.366,0,0,1,0,6.458,3.7,3.7,0,0,1,.7,4.093a3.482,3.482,0,0,1,2.11-1.171,3.428,3.428,0,0,1,1.975,0l.452.141.452.141c.538-.225.512-.636.487-1.032a2.275,2.275,0,0,1,0-.435,3.136,3.136,0,0,0,0-.58A1.722,1.722,0,0,1,6.347.1c.113-.01.228-.023.34-.036A7.5,7.5,0,0,1,7.507,0,2.34,2.34,0,0,1,8.5.192Q8.51,5.247,8.524,10.3A2.865,2.865,0,0,1,7.438,10.522ZM4.032,4.793c-1.4,0-1.688,1.069-1.785,1.873a1.85,1.85,0,0,0,.546,1.349,2.046,2.046,0,0,0,1.389.768.891.891,0,0,0,.124-.008A2.014,2.014,0,0,0,6.17,6.553c-.035-.669-.27-1.791-1.456-1.791a2.272,2.272,0,0,0-.423.043C4.2,4.8,4.115,4.793,4.032,4.793Z" transform="translate(1072.309 1038.965)" fill="#006ab7" stroke="rgba(0,0,0,0)" stroke-miterlimit="10" stroke-width="1"/>
      <path id="Path_7777" data-name="Path 7777" d="M340.218,21.643c.535-.042.914-.269.909-.84,0-.5-.377-.682-.808-.8-.689-.183-1.37-.4-2.064-.56-1.994-.468-2.853-1.392-2.809-3.057.04-1.528,1-2.529,2.924-2.762a7.525,7.525,0,0,1,3.705.283c.645.254,1.156.409.774,1.4-.357.927-.667.765-1.333.47a4.351,4.351,0,0,0-2.594-.308c-.491.095-1.044.34-1.087.922-.038.507.4.755.856.906a24.875,24.875,0,0,0,2.619.842c1.446.313,2.387,1.03,2.351,2.549a2.854,2.854,0,0,1-2.426,2.769c-.245.068-.481.163-.721.245a4.828,4.828,0,0,0-2.224,0c-.678-.175-1.371-.309-2.03-.536-.63-.218-1.234-.465-.807-1.378.4-.855.908-.99,1.646-.477a2.194,2.194,0,0,0,1.175.321,3.382,3.382,0,0,0,1.946.005" transform="translate(766.931 1025.86)" fill="#006ab7"/>
      <path id="Path_7778" data-name="Path 7778" d="M480.924,22.211c-.784.686-1.75.129-2.6.361-.642-.772-1.317-1.521-1.916-2.324-.533-.714-.9-.482-1.27.107-.365.685.133,1.484-.3,2.16l.024.026a3.158,3.158,0,0,1-2.2-.052q.014-5.054.028-10.108a3.171,3.171,0,0,1,2.16-.013l.029-.019c.4,1.732-.158,3.515.3,5.243L478,15.1a5.245,5.245,0,0,1,2.555.036c-.782.812-1.543,1.644-2.353,2.428-.436.421-.59.7-.1,1.244.995,1.088,1.887,2.265,2.821,3.4" transform="translate(673.095 1026.777)" fill="#006ab7"/>
      <path id="Subtraction_18" data-name="Subtraction 18" d="M4.111,7.737a3.646,3.646,0,0,1-.969-.132A3.571,3.571,0,0,1,0,3.785,3.437,3.437,0,0,1,3.128.146a4.571,4.571,0,0,1,2.29,0A4.484,4.484,0,0,1,7.532,1.208a3.356,3.356,0,0,1,.994,2.063A3.69,3.69,0,0,1,6.564,7.237,2.818,2.818,0,0,1,5.5,7.544c-.133.019-.271.038-.407.066A3.963,3.963,0,0,1,4.111,7.737Zm.675-5.761a1.994,1.994,0,0,0-.4.045A1.95,1.95,0,0,0,2.226,3.69a2.413,2.413,0,0,0,.739,1.644,1.941,1.941,0,0,0,1.307.685h.01a2.281,2.281,0,0,0,1.569-.935,1.568,1.568,0,0,0,.4-1.257C6.067,3,5.832,1.976,4.786,1.976Z" transform="translate(1122.315 1041.742)" fill="#006ab7" stroke="rgba(0,0,0,0)" stroke-miterlimit="10" stroke-width="1"/>
      <path id="Subtraction_20" data-name="Subtraction 20" d="M3.489,7.837h0a5.525,5.525,0,0,1-3.07-2.18,3.833,3.833,0,0,1-.1-3.3A3.161,3.161,0,0,1,3.153.14a3.744,3.744,0,0,1,1-.14,3.436,3.436,0,0,1,.985.145C6.822.207,7.477,1.412,8.109,2.578c.066.122.132.243.2.363l.021.093a1.632,1.632,0,0,1-.112,1.432H2.2c.72.889,1.383,1.626,2.229,1.626A2.271,2.271,0,0,0,5.723,5.6a1,1,0,0,1,.568-.213c.419,0,.7.384.951.722.041.056.081.109.119.16a.47.47,0,0,1,.129.391c-.047.2-.3.323-.519.43a2.16,2.16,0,0,0-.221.117,2.721,2.721,0,0,1-.9.3c-.137.029-.278.06-.412.1a1.62,1.62,0,0,1-.662.117c-.1,0-.2,0-.3-.009h0c-.1,0-.2-.008-.3-.008a1.585,1.585,0,0,0-.686.129ZM4.141,1.6c-.546,0-1.1.393-1.855,1.314a7.827,7.827,0,0,0,1.862.229A7.835,7.835,0,0,0,6.01,2.909C5.246,1.988,4.687,1.6,4.141,1.6Z" transform="translate(1048.223 1041.742)" fill="#006ab7" stroke="rgba(0,0,0,0)" stroke-miterlimit="10" stroke-width="1"/>
      <path id="Subtraction_21" data-name="Subtraction 21" d="M4.3,7.738a5.3,5.3,0,0,1-1.134-.125,4.456,4.456,0,0,1-2.212-1.1A2.893,2.893,0,0,1,.027,4.593,4.752,4.752,0,0,1,.464,1.678,4.23,4.23,0,0,1,2.842.148,4.5,4.5,0,0,1,3.981,0,4.737,4.737,0,0,1,5.129.145a3.688,3.688,0,0,1,2.98,3.047c.114.5.1.829-.06,1.024s-.441.271-.967.271H7.06c-.556,0-1.157,0-1.889,0H2.462c.333,1.029.911,1.551,1.719,1.551a2.634,2.634,0,0,0,1.294-.372,1.784,1.784,0,0,1,.493-.216,1.206,1.206,0,0,1,.246-.027c.641,0,.985.587,1.213.976a.3.3,0,0,1,.031.247c-.074.239-.424.445-.7.576a4.9,4.9,0,0,1-.917.286c-.133.032-.271.066-.4.1A5.1,5.1,0,0,1,4.3,7.738ZM3.908,1.66c-.6,0-1.116.4-1.629,1.249.257.026.521.072.775.117a6.989,6.989,0,0,0,1.182.139,2.216,2.216,0,0,0,1.531-.548A3.021,3.021,0,0,0,3.908,1.66Z" transform="translate(1018.479 1041.742)" fill="#006ab7" stroke="rgba(0,0,0,0)" stroke-miterlimit="10" stroke-width="1"/>
      <path id="Path_7782" data-name="Path 7782" d="M208.942,21.068a2.488,2.488,0,0,1,2.2,2.454,27.678,27.678,0,0,1,.075,4.912,3.034,3.034,0,0,1-1.987.128c-.442-1.45.076-2.959-.28-4.415-.222-1.2-1.131-1.314-2.106-1.184-1.084.144-1.117,1.009-1.168,1.826-.331,1.242.164,2.54-.273,3.776a3.189,3.189,0,0,1-1.978-.119c-.105-2.426-.078-4.853-.014-7.279a2.116,2.116,0,0,1,1.971-.036c.558.725,1.049-.157,1.581-.063a3.434,3.434,0,0,1,1.974,0" transform="translate(857.075 1020.82)" fill="#006ab7"/>
      <path id="Path_7783" data-name="Path 7783" d="M441.43,21.106a1.722,1.722,0,0,1,1.306.377c.457.381,1.463.671.987,1.431a1.313,1.313,0,0,1-1.993.339,2.115,2.115,0,0,0-2.711.143,2.027,2.027,0,0,0-.128,2.67c.6.825,1.411,1.382,2.453.5.079-.067.15-.143.229-.209a1.433,1.433,0,0,1,2.073.279c.716.736-.336,1-.674,1.369a2.029,2.029,0,0,1-1.555.561c-.625.277-1.327-.066-1.95.227-1.506-.644-2.8-1.4-3.176-3.2a3.5,3.5,0,0,1,3.164-4.489,3.435,3.435,0,0,1,1.975,0" transform="translate(698.013 1020.781)" fill="#006ab7"/>
      <path id="Path_7784" data-name="Path 7784" d="M104.8,23.833q-.029-3.812-.058-7.624c-1.021-.531-2.19.131-3.215-.375-.035-.551-.25-1.119.174-1.623a84.316,84.316,0,0,1,8.471.1h0a1.809,1.809,0,0,1-.017,1.547l.02.028a18.555,18.555,0,0,1-2.8.169c-.513,1.427-.1,2.9-.223,4.344-.1,1.152.194,2.323-.176,3.462l.024.026a3.156,3.156,0,0,1-2.2-.052" transform="translate(926.699 1025.433)" fill="#006ab7"/>
      <path id="Path_7785" data-name="Path 7785" d="M374.812,17.553l1.526.084a1.652,1.652,0,0,1,.031,1.506h0c-.508.422-1.352-.266-1.755.5a16.747,16.747,0,0,0,.118,3.208.987.987,0,0,0,1.116.584c.682-.132.945.345,1.058.785.147.576-.36.728-.841.8a3.7,3.7,0,0,1-1.948,0,2.023,2.023,0,0,1-1.817-1.574,10.43,10.43,0,0,0-.1-3.992l-.87-.054a1.858,1.858,0,0,1,0-1.778l.866-.056c.522-.513-.077-1.255.382-1.782l1.843-.012c.5.516-.125,1.265.391,1.777" transform="translate(742.476 1024.323)" fill="#006ab7"/>
      <path id="Path_7786" data-name="Path 7786" d="M144.7,22.9c-.826.155-1.748.17-1.923,1.264-.4,1.419.162,2.9-.305,4.316l.025.028a2.606,2.606,0,0,1-2-.057c-.1-2.426-.079-4.853-.012-7.28a2.156,2.156,0,0,1,1.974-.036l2.545.014c.24.641.436,1.274-.306,1.752" transform="translate(900.068 1020.818)" fill="#006ab7"/>
      <path id="Path_7787" data-name="Path 7787" d="M12.152,7.864c-.173-.4.171-.629.316-.924a3,3,0,0,1,1.8-.432c3.506,0,7.013-.011,10.519.008a1.964,1.964,0,0,1,1.606.44l-.961.924a11.2,11.2,0,0,1-4.164.447c-2.4-.007-4.8,0-7.2-.006a2.46,2.46,0,0,1-1.914-.457" transform="translate(987.735 1030.657)" fill="#0074b7"/>
      <path id="Path_7788" data-name="Path 7788" d="M29.683,1.236c.691.155.706.636.6,1.176a2.6,2.6,0,0,1-1.324.418c-3.552.027-7.1.04-10.657-.016-.517-.008-1.227.094-1.287-.75.309-.7,1.089-.537,1.617-.835,3.683.18,7.367.173,11.05.005" transform="translate(984.379 1034.26)" fill="#006eba"/>
      <path id="Path_7789" data-name="Path 7789" d="M11.571,10.794l13.275.016a3.531,3.531,0,0,1-2.537.922c-3.328.787-6.708.357-10.067.409a1.329,1.329,0,0,1-.989-.422l.317-.925" transform="translate(988.315 1027.727)" fill="#0079b6"/>
      <path id="Path_7790" data-name="Path 7790" d="M10.572,13.714l11.056.013a9.8,9.8,0,0,1-2.527.926c-2.641.8-5.347.363-8.028.382a1.141,1.141,0,0,1-.816-.4l.316-.925" transform="translate(988.997 1025.732)" fill="#007cb4"/>
      <path id="Path_7791" data-name="Path 7791" d="M27.172,5.816,13.252,5.8a1.681,1.681,0,0,1,.876-.964,6.5,6.5,0,0,0,2.5.195c3.618.112,7.242-.206,10.856.166-.062.225,0,.511-.307.619" transform="translate(986.95 1031.797)" fill="#0072b8"/>
      <path id="Path_7792" data-name="Path 7792" d="M23.992,50.675l-7.655,0c-.6-.457-.163-.85.08-1.255a67.5,67.5,0,0,1,7.464-.1,1.227,1.227,0,0,1,.976.394c-.106.477-.513.7-.866.963" transform="translate(985.05 1001.448)" fill="#00ab9e"/>
      <path id="Path_7793" data-name="Path 7793" d="M27.011,44.831c.152.395-.184.627-.324.924-2.248.673-4.551.154-6.824.293-.592.036-1.3.166-1.615-.592.012-.348.276-.494.541-.64a2.327,2.327,0,0,1,1.462-.442c1.771,0,3.542-.007,5.313,0a2,2,0,0,1,1.448.453" transform="translate(983.538 1004.787)" fill="#00a5a1"/>
      <path id="Path_7794" data-name="Path 7794" d="M9.573,16.632l8.845.015-1.583.925a13.6,13.6,0,0,1-7.579-.015l.317-.925" transform="translate(989.68 1023.739)" fill="#0080b2"/>
      <path id="Path_7795" data-name="Path 7795" d="M28.176,43.3l-8.223-.014a1.336,1.336,0,0,1,.989-1.154c1.8.209,3.606.028,5.409.1.5.02,1.034-.151,1.506.161.159.285.477.516.32.906" transform="translate(982.372 1006.316)" fill="#00a1a3"/>
      <path id="Path_7796" data-name="Path 7796" d="M8.573,19.553l7.579.015-1.266.925a10.526,10.526,0,0,1-6.63-.015l.317-.925" transform="translate(990.363 1021.743)" fill="#0084b1"/>
      <path id="Path_7797" data-name="Path 7797" d="M30.256,28.143a2.991,2.991,0,0,1,1.185-1.272c1.822,0,3.681-.531,5.44.36l-.407.912a9.145,9.145,0,0,1-6.218,0" transform="translate(975.334 1016.851)" fill="#008fac"/>
      <path id="Path_7798" data-name="Path 7798" d="M8.041,22.47l6.63.015-.95.925a7.967,7.967,0,0,1-5.78-.028q.05-.456.1-.911" transform="translate(990.579 1019.75)" fill="#0087b0"/>
      <path id="Path_7799" data-name="Path 7799" d="M30.139,31.226h6.218a1.265,1.265,0,0,1-1.253.926c-1.407-.008-2.815-.029-4.221.008-.757.02-.894-.323-.743-.934" transform="translate(975.451 1013.768)" fill="#0092aa"/>
      <path id="Path_7800" data-name="Path 7800" d="M17.564,47.8c1.679.624,3.424.184,5.135.287,1.1.066,2.2.012,3.3.012l-.317.616q-3.384,0-6.768,0a2.9,2.9,0,0,1-1.672-.3l.317-.619" transform="translate(984.221 1002.448)" fill="#00a8a0"/>
      <path id="Path_7801" data-name="Path 7801" d="M39.436,25.277c-1.805-.236-3.673.428-5.44-.36L34.95,24c1.577.034,3.2-.526,4.711.34.031.336.212.707-.226.937" transform="translate(972.779 1018.805)" fill="#008bae"/>
      <path id="Path_7802" data-name="Path 7802" d="M11.762,27.015a1.644,1.644,0,0,1-.861.939c-1.622.547-3.238.993-4.732-.313-.194-.483.368-.778.323-1.225a24.2,24.2,0,0,0,3.533.169c.606.017,1.251-.069,1.737.43" transform="translate(991.817 1017.054)" fill="#008fac"/>
      <path id="Path_7803" data-name="Path 7803" d="M12.516,26.284c-1.258,0-2.518-.027-3.774.013a1.569,1.569,0,0,1-1.5-.611c-.049-.183.039-.286.211-.339l5.78.028-.721.91" transform="translate(991.062 1017.785)" fill="#008bae"/>
      <path id="Path_7804" data-name="Path 7804" d="M5.479,30.284c1.541.619,3.159.144,4.732.313a.977.977,0,0,1-.634.924c-1.52.554-3.029.946-4.414-.312-.163-.4.154-.635.316-.925" transform="translate(992.508 1014.412)" fill="#0092aa"/>
      <path id="Path_7805" data-name="Path 7805" d="M29.369,4.533c-3.916,0-7.832,0-11.747-.021-.547,0-1.167.2-1.6-.339l.317-.308c.44.544,1.064.336,1.613.339,3.884.016,7.769.008,11.654.008.05.195-.067.275-.233.321" transform="translate(985.061 1032.461)" fill="#0070ba"/>
      <path id="Path_7806" data-name="Path 7806" d="M4.481,33.2c1.433.623,2.947.146,4.414.312l-.4.912c-1.489.546-2.97.972-4.327-.3-.162-.4.154-.635.317-.925" transform="translate(993.189 1012.418)" fill="#0096a9"/>
      <path id="Path_7807" data-name="Path 7807" d="M41.719,23.027c-1.564-.2-3.19.415-4.712-.341l.944-.619a11.524,11.524,0,0,1,3.526,0c.425.239.287.611.241.961" transform="translate(970.722 1020.118)" fill="#0087af"/>
      <path id="Path_7808" data-name="Path 7808" d="M3.594,36.122c1.405.608,2.887.161,4.327.3l-.634.925c-1.387.574-2.755.907-4-.3l.31-.926" transform="translate(993.76 1010.424)" fill="#009aa7"/>
      <path id="Path_7809" data-name="Path 7809" d="M2.5,39.046c1.3.6,2.671.166,4,.3l-.544.938a3.792,3.792,0,0,1-3.782-.013c-.19-.482.371-.776.323-1.222" transform="translate(994.543 1008.426)" fill="#009da5"/>
      <path id="Path_7810" data-name="Path 7810" d="M1.485,42.9l3.782.013-.406.911H1.168c-.164-.4.167-.63.317-.924" transform="translate(995.236 1005.791)" fill="#00a1a3"/>
      <path id="Path_7811" data-name="Path 7811" d="M33.171,1.236c-2.111.571-4.264.19-6.394.221-1.546.022-3.131.324-4.656-.226l11.05.005" transform="translate(980.891 1034.26)" fill="#006ab7"/>
      <path id="Path_7812" data-name="Path 7812" d="M110.371,13.968,101.862,14q-.175-.1-.116-.2c.039-.067.077-.1.117-.1,2.459-.008,4.917-.024,7.375-.016.389,0,.854-.167,1.133.288" transform="translate(926.504 1025.775)" fill="#2f82c6"/>
      <path id="Path_7813" data-name="Path 7813" d="M118.862,27.646c.007-2.185,0-4.37.033-6.554.008-.469-.253-1.029.3-1.4q.165.092.115.192t-.1.1c0,2.088.009,4.176-.024,6.264-.007.471.247,1.034-.324,1.394" transform="translate(914.815 1021.646)" fill="#6da1d7"/>
      <path id="Path_7814" data-name="Path 7814" d="M203.165,20.962q.012,3.67.023,7.339-.164.209-.33,0c-.007-2.182-.022-4.363-.013-6.545,0-.377-.171-.83.309-1.09q.165.092.115.192c-.034.068-.068.1-.1.1" transform="translate(857.445 1020.981)" fill="#6da1d7"/>
      <path id="Path_7815" data-name="Path 7815" d="M140.346,21.36q0,3.66,0,7.32c-.1.153-.208.162-.312,0q.009-3.664.017-7.327.154-.207.3.006" transform="translate(900.339 1020.582)" fill="#2f82c6"/>
      <path id="Path_7816" data-name="Path 7816" d="M29.989,42.254c-2.3-.18-4.628.278-6.915-.261,2.044-.021,4.088-.047,6.133-.06.3,0,.648-.075.783.321" transform="translate(980.24 1006.458)" fill="#4bb0b7"/>
      <path id="Path_7817" data-name="Path 7817" d="M479.728,17.945c-.712-.48-.247-1.175-.29-1.754-.086-1.157-.013-2.326-.006-3.49.641,1.719.129,3.5.3,5.244" transform="translate(668.541 1026.424)" fill="#6da1d7"/>
      <path id="Path_7818" data-name="Path 7818" d="M227.788,34.088q.024-2.46.048-4.921c.6,1.614.167,3.281.265,4.921q-.156.236-.312,0" transform="translate(840.385 1015.175)" fill="#2f82c6"/>
      <path id="Path_7819" data-name="Path 7819" d="M220.959,31.139c.6,1.405.073,2.885.3,4.316-.109.137-.219.144-.33,0q.014-2.159.028-4.318" transform="translate(845.07 1013.828)" fill="#6da1d7"/>
      <path id="Path_7820" data-name="Path 7820" d="M146.857,35.486c.181-1.433-.293-2.91.305-4.316-.118,1.437.4,2.918-.305,4.316" transform="translate(895.682 1013.807)" fill="#6da1d6"/>
      <path id="Path_7821" data-name="Path 7821" d="M374.565,27.4a5.447,5.447,0,0,1,.1,3.992q-.05-2-.1-3.992" transform="translate(740.112 1016.385)" fill="#3083c6"/>
      <path id="Path_7822" data-name="Path 7822" d="M259.487,12.174c-.017.756-.039,1.512-.05,2.268-.006.423,0,.845-.64.741.8-.991-.194-2.332.683-3.307q.124.1.086.2c-.025.067-.051.1-.078.1" transform="translate(819.201 1026.988)" fill="#b0cae9"/>
      <path id="Path_7823" data-name="Path 7823" d="M209.792,36.819c.173-1.212-.27-2.469.279-3.654q.017,1.827.034,3.654-.156.236-.312,0" transform="translate(852.685 1012.444)" fill="#2f82c6"/>
      <path id="Path_7824" data-name="Path 7824" d="M381.886,30.585c-.586-1.094-.149-2.261-.252-3.389.111-.136.221-.142.329,0q-.039,1.693-.077,3.387" transform="translate(735.324 1016.593)" fill="#6da1d7"/>
      <path id="Path_7825" data-name="Path 7825" d="M43.514,21.644l-3.526,0a4.853,4.853,0,0,1,3.526,0" transform="translate(968.685 1020.541)" fill="#79b4d0"/>
      <path id="Path_7826" data-name="Path 7826" d="M101.828,19.44c1.02.228,2.144-.348,3.1.379l-3.1-.058c-.1-.072-.137-.144-.1-.215s.069-.106.1-.106" transform="translate(926.518 1021.822)" fill="#6da1d7"/>
      <path id="Path_7827" data-name="Path 7827" d="M119.983,19.939q-.009-.147-.011-.294l2.862-.023c-.89.619-1.913.109-2.851.317" transform="translate(914.042 1021.696)" fill="#6da1d7"/>
      <path id="Path_7828" data-name="Path 7828" d="M492.061,20.761l-2.556-.036a4.048,4.048,0,0,1,2.6-.182c.018,0,.049.073.041.1a.442.442,0,0,1-.089.117" transform="translate(661.588 1021.152)" fill="#6fa2d7"/>
      <path id="Path_7829" data-name="Path 7829" d="M280.377,20.754h-2.458a2.093,2.093,0,0,1,2.458,0" transform="translate(806.137 1021.195)" fill="#6da1d7"/>
      <path id="Path_7830" data-name="Path 7830" d="M220.931,44.72l.33,0,1.843-.02a.632.632,0,0,0,.312,0,2.14,2.14,0,0,1-2.485.022" transform="translate(845.07 1004.565)" fill="#b1caea"/>
      <path id="Path_7831" data-name="Path 7831" d="M205.121,44.7a.633.633,0,0,0,.313,0,2.141,2.141,0,0,1-2.486.022l.33,0,1.843-.02" transform="translate(857.355 1004.565)" fill="#b1caea"/>
      <path id="Path_7832" data-name="Path 7832" d="M301.038,20.72H298.9a1.591,1.591,0,0,1,2.142,0" transform="translate(791.807 1021.229)" fill="#6da1d7"/>
      <path id="Path_7833" data-name="Path 7833" d="M410.834,20.69h-2.29a2.107,2.107,0,0,1,2.29,0" transform="translate(716.898 1021.197)" fill="#2f82c6"/>
      <path id="Path_7834" data-name="Path 7834" d="M82.195,20.693l-2.287,0a2.106,2.106,0,0,1,2.287,0" transform="translate(941.413 1021.194)" fill="#3283c6"/>
      <path id="Path_7835" data-name="Path 7835" d="M472.661,44.708l2.2.052a1.749,1.749,0,0,1-2.2-.052" transform="translate(673.095 1004.558)" fill="#afc9e9"/>
      <path id="Path_7836" data-name="Path 7836" d="M140.382,20.718l-.149-.015-.15.009a1.617,1.617,0,0,1,2.141.01l-1.842,0" transform="translate(900.302 1021.225)" fill="#6da1d7"/>
      <path id="Path_7837" data-name="Path 7837" d="M344.714,45.008a2.188,2.188,0,0,1,2.224,0h-2.224" transform="translate(760.505 1004.561)" fill="#2f82c6"/>
      <path id="Path_7838" data-name="Path 7838" d="M260.887,44.708h2.173a1.61,1.61,0,0,1-2.173,0" transform="translate(817.773 1004.558)" fill="#afc9e9"/>
      <path id="Path_7839" data-name="Path 7839" d="M101.185,15.584c0,.107,0,.214,0,.321a1.527,1.527,0,0,1,.023-2.113.583.583,0,0,0,0,.305l-.02,1.487" transform="translate(927.161 1025.679)" fill="#b2cbea"/>
      <path id="Path_7840" data-name="Path 7840" d="M474.909,11.936l-2.16.013a1.692,1.692,0,0,1,2.16-.013" transform="translate(673.035 1027.208)" fill="#2f82c6"/>
      <path id="Path_7841" data-name="Path 7841" d="M479.513,40.136c.161-.712-.266-1.5.3-2.16-.087.722.359,1.514-.3,2.16" transform="translate(668.417 1009.157)" fill="#6da1d7"/>
      <path id="Path_7842" data-name="Path 7842" d="M153.908,23.4a2.443,2.443,0,0,0,.306-1.752c.452.676.79,1.333-.306,1.752" transform="translate(890.858 1020.31)" fill="#2f82c6"/>
      <path id="Path_7843" data-name="Path 7843" d="M260.928,12.036a.624.624,0,0,1-.008-.3c.71.085,1.5-.346,2.125.294l-2.117,0" transform="translate(817.76 1027.126)" fill="#2f82c6"/>
      <path id="Path_7844" data-name="Path 7844" d="M140.03,44.7a.632.632,0,0,0,.312,0l1.882.057a1.738,1.738,0,0,1-2.194-.056" transform="translate(900.339 1004.565)" fill="#b1caea"/>
      <path id="Path_7845" data-name="Path 7845" d="M80.931,44.983l2.267,0a2.215,2.215,0,0,1-2.267,0" transform="translate(940.714 1004.372)" fill="#70a3d7"/>
      <path id="Path_7846" data-name="Path 7846" d="M112.046,44.708l2.2.052a1.749,1.749,0,0,1-2.2-.052" transform="translate(919.457 1004.558)" fill="#afc9e9"/>
      <path id="Path_7847" data-name="Path 7847" d="M203.893,20.8q-.009-.147-.011-.294c.629.052,1.335-.352,1.862.3l-1.851-.007" transform="translate(856.717 1021.146)" fill="#6da1d7"/>
      <path id="Path_7848" data-name="Path 7848" d="M175.83,45.068c.6-.5,1.295-.2,1.95-.227-.6.5-1.295.2-1.95.227" transform="translate(875.882 1004.51)" fill="#6da1d7"/>
      <path id="Path_7849" data-name="Path 7849" d="M346.61,39.133a1.676,1.676,0,0,1-1.946-.005l1.946.005" transform="translate(760.539 1008.37)" fill="#6b9fd6"/>
      <path id="Path_7850" data-name="Path 7850" d="M176.751,20.7l-1.982-.006a1.652,1.652,0,0,1,1.982.006" transform="translate(876.607 1021.186)" fill="#2f82c6"/>
      <path id="Path_7851" data-name="Path 7851" d="M249.752,44.976h1.95a1.684,1.684,0,0,1-1.95,0" transform="translate(825.38 1004.375)" fill="#6da1d7"/>
      <path id="Path_7852" data-name="Path 7852" d="M370.948,21.613v1.778a1.18,1.18,0,0,1,0-1.778" transform="translate(742.858 1020.336)" fill="#6da1d7"/>
      <path id="Path_7853" data-name="Path 7853" d="M380.619,44.962l1.948,0a1.668,1.668,0,0,1-1.948,0" transform="translate(735.976 1004.384)" fill="#6da1d7"/>
      <path id="Path_7854" data-name="Path 7854" d="M408.592,44.965l1.947.005a1.677,1.677,0,0,1-1.947-.005" transform="translate(716.865 1004.382)" fill="#70a3d7"/>
      <path id="Path_7855" data-name="Path 7855" d="M446.541,45.068c.6-.5,1.295-.2,1.95-.227-.6.5-1.295.2-1.95.227" transform="translate(690.94 1004.51)" fill="#6da1d7"/>
      <path id="Path_7856" data-name="Path 7856" d="M216.724,20.7H214.75a1.627,1.627,0,0,1,1.974,0" transform="translate(849.293 1021.188)" fill="#2f82c6"/>
      <path id="Path_7857" data-name="Path 7857" d="M448.477,20.7H446.5a1.627,1.627,0,0,1,1.974,0" transform="translate(690.966 1021.188)" fill="#2f82c6"/>
      <path id="Path_7858" data-name="Path 7858" d="M374.934,15.813c-.161.587.3,1.3-.382,1.782.223-.574-.288-1.3.382-1.782" transform="translate(740.121 1024.298)" fill="#2f82c6"/>
      <path id="Path_7859" data-name="Path 7859" d="M381.965,17.553c-.679-.478-.2-1.2-.391-1.777.679.478.2,1.2.391,1.777" transform="translate(735.323 1024.323)" fill="#6da1d7"/>
      <path id="Path_7860" data-name="Path 7860" d="M382.094,26.648l-.329,0c.536-.629,1.259-.217,1.889-.322-.42.562-1.051.165-1.559.325" transform="translate(735.193 1017.143)" fill="#2f82c6"/>
      <path id="Path_7861" data-name="Path 7861" d="M251.687,20.7h-1.974a1.627,1.627,0,0,1,1.974,0" transform="translate(825.407 1021.188)" fill="#2f82c6"/>
      <path id="Path_7862" data-name="Path 7862" d="M387.657,23.156q-.015-.753-.031-1.506c.559.491.457,1,.031,1.506" transform="translate(731.189 1020.311)" fill="#2f82c6"/>
      <path id="Path_7863" data-name="Path 7863" d="M128.944,16.2q.009-.773.017-1.547a1.011,1.011,0,0,1-.017,1.547" transform="translate(907.913 1025.092)" fill="#2f82c6"/>
      <path id="Path_7864" data-name="Path 7864" d="M190.755,31.769q.045-.763.091-1.526c.36.53.482,1.047-.091,1.526" transform="translate(865.685 1014.44)" fill="#b3cbea"/>
      <path id="Path_7868" data-name="Path 7868" d="M172.031,30.142h3.725a4.376,4.376,0,0,1-3.725,0" transform="translate(878.477 1014.509)" fill="#6da1d7"/>
      <path id="Path_7870" data-name="Path 7870" d="M78.132,29.51c1.163-.094,2.376.373,3.488-.293.217.212.289.564-.042.562-1.151-.008-2.351.425-3.446-.269" transform="translate(942.626 1015.141)" fill="#6da1d7"/>
    </g>
    <g id="Group_2140" data-name="Group 2140" transform="translate(-641.018 261.509)">
      <path id="Path_7768-2" data-name="Path 7768" d="M280.377,21.129l2.035,4.738,2.153-4.738a2.736,2.736,0,0,1,2.142,0c-1.109,2.575-2.245,5.139-3.315,7.729a5.08,5.08,0,0,1-2.662,2.714h-1.266c-.2-.516-.815-.265-1.176-.621a.694.694,0,0,1-.025-1.048c.206-.256.093-.847.932-.656,1.906.434,2.257-.018,1.531-1.774-.882-2.136-1.868-4.232-2.808-6.345a3.463,3.463,0,0,1,2.458,0" transform="translate(806.137 1020.821)" fill="#fff"/>
      <path id="Path_7769-2" data-name="Path 7769" d="M4.162,44.727l-.542.939A3.573,3.573,0,0,1,.1,45.652v-.308c.346-.079.289-.387.369-.617a3.618,3.618,0,0,1,3.693,0" transform="translate(995.935 1004.891)" fill="#fff"/>
      <path id="Path_7770-2" data-name="Path 7770" d="M3.3,49.939c-.23.612-.931.75-1.3,1.224H.732a.528.528,0,0,0-.315-.157A.5.5,0,0,1,.1,50.855V49.93a3.777,3.777,0,0,1,3.2.009" transform="translate(995.936 1001.23)" fill="#fff"/>
      <path id="Path_7771-2" data-name="Path 7771" d="M24.648,52.639a1.723,1.723,0,0,0-.031.27h-7.6a.99.99,0,0,0-.028-.275,1.565,1.565,0,0,1,1.262-.477q2.567-.042,5.135,0a1.549,1.549,0,0,1,1.259.482" transform="translate(984.395 999.484)" fill="#fff"/>
      <path id="Path_7772-2" data-name="Path 7772" d="M3.3,49.365.1,49.356V48.74l3.52.014c-.046.235-.021.506-.323.612" transform="translate(995.936 1001.803)" fill="#fff"/>
      <path id="Path_7773-2" data-name="Path 7773" d="M493.134,43.586a.6.6,0,0,1,.261.014v.617c-.951-.119-1.953.272-2.862-.269.779-.721,1.707-.424,2.6-.361" transform="translate(660.885 1005.402)" fill="#fff"/>
      <path id="Path_7774-2" data-name="Path 7774" d="M.062,53.6a.719.719,0,0,1,.31.042q.114.086.079.176c-.023.06-.048.091-.072.091Q-.03,54,.062,53.6" transform="translate(995.973 998.486)" fill="#fff"/>
      <path id="Path_7775-2" data-name="Path 7775" d="M1.083,53.993c0-.089,0-.178-.007-.267.209-.027.295.087.323.267Z" transform="translate(995.268 998.4)" fill="#fff"/>
      <path id="Subtraction_19-2" data-name="Subtraction 19" d="M7.438,10.522A2.87,2.87,0,0,1,6.351,10.3a.625.625,0,0,0-.484-.281,1.157,1.157,0,0,0-.519.185,1.161,1.161,0,0,1-.519.185.492.492,0,0,1-.056,0,3.776,3.776,0,0,1-1.95,0A3.417,3.417,0,0,1,.707,9.077,4.366,4.366,0,0,1,0,6.458,3.7,3.7,0,0,1,.7,4.093a3.482,3.482,0,0,1,2.11-1.171,3.428,3.428,0,0,1,1.975,0l.452.141.452.141c.538-.225.512-.636.487-1.032a2.275,2.275,0,0,1,0-.435,3.136,3.136,0,0,0,0-.58A1.722,1.722,0,0,1,6.347.1c.113-.01.228-.023.34-.036A7.5,7.5,0,0,1,7.507,0,2.34,2.34,0,0,1,8.5.192Q8.51,5.247,8.524,10.3A2.865,2.865,0,0,1,7.438,10.522ZM4.032,4.793c-1.4,0-1.688,1.069-1.785,1.873a1.85,1.85,0,0,0,.546,1.349,2.046,2.046,0,0,0,1.389.768.891.891,0,0,0,.124-.008A2.014,2.014,0,0,0,6.17,6.553c-.035-.669-.27-1.791-1.456-1.791a2.272,2.272,0,0,0-.423.043C4.2,4.8,4.115,4.793,4.032,4.793Z" transform="translate(1072.309 1038.965)" fill="#fff" stroke="rgba(0,0,0,0)" stroke-miterlimit="10" stroke-width="1"/>
      <path id="Path_7777-2" data-name="Path 7777" d="M340.218,21.643c.535-.042.914-.269.909-.84,0-.5-.377-.682-.808-.8-.689-.183-1.37-.4-2.064-.56-1.994-.468-2.853-1.392-2.809-3.057.04-1.528,1-2.529,2.924-2.762a7.525,7.525,0,0,1,3.705.283c.645.254,1.156.409.774,1.4-.357.927-.667.765-1.333.47a4.351,4.351,0,0,0-2.594-.308c-.491.095-1.044.34-1.087.922-.038.507.4.755.856.906a24.875,24.875,0,0,0,2.619.842c1.446.313,2.387,1.03,2.351,2.549a2.854,2.854,0,0,1-2.426,2.769c-.245.068-.481.163-.721.245a4.828,4.828,0,0,0-2.224,0c-.678-.175-1.371-.309-2.03-.536-.63-.218-1.234-.465-.807-1.378.4-.855.908-.99,1.646-.477a2.194,2.194,0,0,0,1.175.321,3.382,3.382,0,0,0,1.946.005" transform="translate(766.931 1025.86)" fill="#fff"/>
      <path id="Path_7778-2" data-name="Path 7778" d="M480.924,22.211c-.784.686-1.75.129-2.6.361-.642-.772-1.317-1.521-1.916-2.324-.533-.714-.9-.482-1.27.107-.365.685.133,1.484-.3,2.16l.024.026a3.158,3.158,0,0,1-2.2-.052q.014-5.054.028-10.108a3.171,3.171,0,0,1,2.16-.013l.029-.019c.4,1.732-.158,3.515.3,5.243L478,15.1a5.245,5.245,0,0,1,2.555.036c-.782.812-1.543,1.644-2.353,2.428-.436.421-.59.7-.1,1.244.995,1.088,1.887,2.265,2.821,3.4" transform="translate(673.095 1026.777)" fill="#fff"/>
      <path id="Subtraction_18-2" data-name="Subtraction 18" d="M4.111,7.737a3.646,3.646,0,0,1-.969-.132A3.571,3.571,0,0,1,0,3.785,3.437,3.437,0,0,1,3.128.146a4.571,4.571,0,0,1,2.29,0A4.484,4.484,0,0,1,7.532,1.208a3.356,3.356,0,0,1,.994,2.063A3.69,3.69,0,0,1,6.564,7.237,2.818,2.818,0,0,1,5.5,7.544c-.133.019-.271.038-.407.066A3.963,3.963,0,0,1,4.111,7.737Zm.675-5.761a1.994,1.994,0,0,0-.4.045A1.95,1.95,0,0,0,2.226,3.69a2.413,2.413,0,0,0,.739,1.644,1.941,1.941,0,0,0,1.307.685h.01a2.281,2.281,0,0,0,1.569-.935,1.568,1.568,0,0,0,.4-1.257C6.067,3,5.832,1.976,4.786,1.976Z" transform="translate(1122.315 1041.742)" fill="#fff" stroke="rgba(0,0,0,0)" stroke-miterlimit="10" stroke-width="1"/>
      <path id="Subtraction_20-2" data-name="Subtraction 20" d="M3.489,7.837h0a5.525,5.525,0,0,1-3.07-2.18,3.833,3.833,0,0,1-.1-3.3A3.161,3.161,0,0,1,3.153.14a3.744,3.744,0,0,1,1-.14,3.436,3.436,0,0,1,.985.145C6.822.207,7.477,1.412,8.109,2.578c.066.122.132.243.2.363l.021.093a1.632,1.632,0,0,1-.112,1.432H2.2c.72.889,1.383,1.626,2.229,1.626A2.271,2.271,0,0,0,5.723,5.6a1,1,0,0,1,.568-.213c.419,0,.7.384.951.722.041.056.081.109.119.16a.47.47,0,0,1,.129.391c-.047.2-.3.323-.519.43a2.16,2.16,0,0,0-.221.117,2.721,2.721,0,0,1-.9.3c-.137.029-.278.06-.412.1a1.62,1.62,0,0,1-.662.117c-.1,0-.2,0-.3-.009h0c-.1,0-.2-.008-.3-.008a1.585,1.585,0,0,0-.686.129ZM4.141,1.6c-.546,0-1.1.393-1.855,1.314a7.827,7.827,0,0,0,1.862.229A7.835,7.835,0,0,0,6.01,2.909C5.246,1.988,4.687,1.6,4.141,1.6Z" transform="translate(1048.223 1041.742)" fill="#fff" stroke="rgba(0,0,0,0)" stroke-miterlimit="10" stroke-width="1"/>
      <path id="Subtraction_21-2" data-name="Subtraction 21" d="M4.3,7.738a5.3,5.3,0,0,1-1.134-.125,4.456,4.456,0,0,1-2.212-1.1A2.893,2.893,0,0,1,.027,4.593,4.752,4.752,0,0,1,.464,1.678,4.23,4.23,0,0,1,2.842.148,4.5,4.5,0,0,1,3.981,0,4.737,4.737,0,0,1,5.129.145a3.688,3.688,0,0,1,2.98,3.047c.114.5.1.829-.06,1.024s-.441.271-.967.271H7.06c-.556,0-1.157,0-1.889,0H2.462c.333,1.029.911,1.551,1.719,1.551a2.634,2.634,0,0,0,1.294-.372,1.784,1.784,0,0,1,.493-.216,1.206,1.206,0,0,1,.246-.027c.641,0,.985.587,1.213.976a.3.3,0,0,1,.031.247c-.074.239-.424.445-.7.576a4.9,4.9,0,0,1-.917.286c-.133.032-.271.066-.4.1A5.1,5.1,0,0,1,4.3,7.738ZM3.908,1.66c-.6,0-1.116.4-1.629,1.249.257.026.521.072.775.117a6.989,6.989,0,0,0,1.182.139,2.216,2.216,0,0,0,1.531-.548A3.021,3.021,0,0,0,3.908,1.66Z" transform="translate(1018.479 1041.742)" fill="#fff" stroke="rgba(0,0,0,0)" stroke-miterlimit="10" stroke-width="1"/>
      <path id="Path_7782-2" data-name="Path 7782" d="M208.942,21.068a2.488,2.488,0,0,1,2.2,2.454,27.678,27.678,0,0,1,.075,4.912,3.034,3.034,0,0,1-1.987.128c-.442-1.45.076-2.959-.28-4.415-.222-1.2-1.131-1.314-2.106-1.184-1.084.144-1.117,1.009-1.168,1.826-.331,1.242.164,2.54-.273,3.776a3.189,3.189,0,0,1-1.978-.119c-.105-2.426-.078-4.853-.014-7.279a2.116,2.116,0,0,1,1.971-.036c.558.725,1.049-.157,1.581-.063a3.434,3.434,0,0,1,1.974,0" transform="translate(857.075 1020.82)" fill="#fff"/>
      <path id="Path_7783-2" data-name="Path 7783" d="M441.43,21.106a1.722,1.722,0,0,1,1.306.377c.457.381,1.463.671.987,1.431a1.313,1.313,0,0,1-1.993.339,2.115,2.115,0,0,0-2.711.143,2.027,2.027,0,0,0-.128,2.67c.6.825,1.411,1.382,2.453.5.079-.067.15-.143.229-.209a1.433,1.433,0,0,1,2.073.279c.716.736-.336,1-.674,1.369a2.029,2.029,0,0,1-1.555.561c-.625.277-1.327-.066-1.95.227-1.506-.644-2.8-1.4-3.176-3.2a3.5,3.5,0,0,1,3.164-4.489,3.435,3.435,0,0,1,1.975,0" transform="translate(698.013 1020.781)" fill="#fff"/>
      <path id="Path_7784-2" data-name="Path 7784" d="M104.8,23.833q-.029-3.812-.058-7.624c-1.021-.531-2.19.131-3.215-.375-.035-.551-.25-1.119.174-1.623a84.316,84.316,0,0,1,8.471.1h0a1.809,1.809,0,0,1-.017,1.547l.02.028a18.555,18.555,0,0,1-2.8.169c-.513,1.427-.1,2.9-.223,4.344-.1,1.152.194,2.323-.176,3.462l.024.026a3.156,3.156,0,0,1-2.2-.052" transform="translate(926.699 1025.433)" fill="#fff"/>
      <path id="Path_7785-2" data-name="Path 7785" d="M374.812,17.553l1.526.084a1.652,1.652,0,0,1,.031,1.506h0c-.508.422-1.352-.266-1.755.5a16.747,16.747,0,0,0,.118,3.208.987.987,0,0,0,1.116.584c.682-.132.945.345,1.058.785.147.576-.36.728-.841.8a3.7,3.7,0,0,1-1.948,0,2.023,2.023,0,0,1-1.817-1.574,10.43,10.43,0,0,0-.1-3.992l-.87-.054a1.858,1.858,0,0,1,0-1.778l.866-.056c.522-.513-.077-1.255.382-1.782l1.843-.012c.5.516-.125,1.265.391,1.777" transform="translate(742.476 1024.323)" fill="#fff"/>
      <path id="Path_7786-2" data-name="Path 7786" d="M144.7,22.9c-.826.155-1.748.17-1.923,1.264-.4,1.419.162,2.9-.305,4.316l.025.028a2.606,2.606,0,0,1-2-.057c-.1-2.426-.079-4.853-.012-7.28a2.156,2.156,0,0,1,1.974-.036l2.545.014c.24.641.436,1.274-.306,1.752" transform="translate(900.068 1020.818)" fill="#fff"/>
      <path id="Path_7787-2" data-name="Path 7787" d="M12.152,7.864c-.173-.4.171-.629.316-.924a3,3,0,0,1,1.8-.432c3.506,0,7.013-.011,10.519.008a1.964,1.964,0,0,1,1.606.44l-.961.924a11.2,11.2,0,0,1-4.164.447c-2.4-.007-4.8,0-7.2-.006a2.46,2.46,0,0,1-1.914-.457" transform="translate(987.735 1030.657)" fill="#fff"/>
      <path id="Path_7788-2" data-name="Path 7788" d="M29.683,1.236c.691.155.706.636.6,1.176a2.6,2.6,0,0,1-1.324.418c-3.552.027-7.1.04-10.657-.016-.517-.008-1.227.094-1.287-.75.309-.7,1.089-.537,1.617-.835,3.683.18,7.367.173,11.05.005" transform="translate(984.379 1034.26)" fill="#fff"/>
      <path id="Path_7789-2" data-name="Path 7789" d="M11.571,10.794l13.275.016a3.531,3.531,0,0,1-2.537.922c-3.328.787-6.708.357-10.067.409a1.329,1.329,0,0,1-.989-.422l.317-.925" transform="translate(988.315 1027.727)" fill="#fff"/>
      <path id="Path_7790-2" data-name="Path 7790" d="M10.572,13.714l11.056.013a9.8,9.8,0,0,1-2.527.926c-2.641.8-5.347.363-8.028.382a1.141,1.141,0,0,1-.816-.4l.316-.925" transform="translate(988.997 1025.732)" fill="#fff"/>
      <path id="Path_7791-2" data-name="Path 7791" d="M27.172,5.816,13.252,5.8a1.681,1.681,0,0,1,.876-.964,6.5,6.5,0,0,0,2.5.195c3.618.112,7.242-.206,10.856.166-.062.225,0,.511-.307.619" transform="translate(986.95 1031.797)" fill="#fff"/>
      <path id="Path_7792-2" data-name="Path 7792" d="M23.992,50.675l-7.655,0c-.6-.457-.163-.85.08-1.255a67.5,67.5,0,0,1,7.464-.1,1.227,1.227,0,0,1,.976.394c-.106.477-.513.7-.866.963" transform="translate(985.05 1001.448)" fill="#fff"/>
      <path id="Path_7793-2" data-name="Path 7793" d="M27.011,44.831c.152.395-.184.627-.324.924-2.248.673-4.551.154-6.824.293-.592.036-1.3.166-1.615-.592.012-.348.276-.494.541-.64a2.327,2.327,0,0,1,1.462-.442c1.771,0,3.542-.007,5.313,0a2,2,0,0,1,1.448.453" transform="translate(983.538 1004.787)" fill="#fff"/>
      <path id="Path_7794-2" data-name="Path 7794" d="M9.573,16.632l8.845.015-1.583.925a13.6,13.6,0,0,1-7.579-.015l.317-.925" transform="translate(989.68 1023.739)" fill="#fff"/>
      <path id="Path_7795-2" data-name="Path 7795" d="M28.176,43.3l-8.223-.014a1.336,1.336,0,0,1,.989-1.154c1.8.209,3.606.028,5.409.1.5.02,1.034-.151,1.506.161.159.285.477.516.32.906" transform="translate(982.372 1006.316)" fill="#fff"/>
      <path id="Path_7796-2" data-name="Path 7796" d="M8.573,19.553l7.579.015-1.266.925a10.526,10.526,0,0,1-6.63-.015l.317-.925" transform="translate(990.363 1021.743)" fill="#fff"/>
      <path id="Path_7797-2" data-name="Path 7797" d="M30.256,28.143a2.991,2.991,0,0,1,1.185-1.272c1.822,0,3.681-.531,5.44.36l-.407.912a9.145,9.145,0,0,1-6.218,0" transform="translate(975.334 1016.851)" fill="#fff"/>
      <path id="Path_7798-2" data-name="Path 7798" d="M8.041,22.47l6.63.015-.95.925a7.967,7.967,0,0,1-5.78-.028q.05-.456.1-.911" transform="translate(990.579 1019.75)" fill="#fff"/>
      <path id="Path_7799-2" data-name="Path 7799" d="M30.139,31.226h6.218a1.265,1.265,0,0,1-1.253.926c-1.407-.008-2.815-.029-4.221.008-.757.02-.894-.323-.743-.934" transform="translate(975.451 1013.768)" fill="#fff"/>
      <path id="Path_7800-2" data-name="Path 7800" d="M17.564,47.8c1.679.624,3.424.184,5.135.287,1.1.066,2.2.012,3.3.012l-.317.616q-3.384,0-6.768,0a2.9,2.9,0,0,1-1.672-.3l.317-.619" transform="translate(984.221 1002.448)" fill="#fff"/>
      <path id="Path_7801-2" data-name="Path 7801" d="M39.436,25.277c-1.805-.236-3.673.428-5.44-.36L34.95,24c1.577.034,3.2-.526,4.711.34.031.336.212.707-.226.937" transform="translate(972.779 1018.805)" fill="#fff"/>
      <path id="Path_7802-2" data-name="Path 7802" d="M11.762,27.015a1.644,1.644,0,0,1-.861.939c-1.622.547-3.238.993-4.732-.313-.194-.483.368-.778.323-1.225a24.2,24.2,0,0,0,3.533.169c.606.017,1.251-.069,1.737.43" transform="translate(991.817 1017.054)" fill="#fff"/>
      <path id="Path_7803-2" data-name="Path 7803" d="M12.516,26.284c-1.258,0-2.518-.027-3.774.013a1.569,1.569,0,0,1-1.5-.611c-.049-.183.039-.286.211-.339l5.78.028-.721.91" transform="translate(991.062 1017.785)" fill="#fff"/>
      <path id="Path_7804-2" data-name="Path 7804" d="M5.479,30.284c1.541.619,3.159.144,4.732.313a.977.977,0,0,1-.634.924c-1.52.554-3.029.946-4.414-.312-.163-.4.154-.635.316-.925" transform="translate(992.508 1014.412)" fill="#fff"/>
      <path id="Path_7805-2" data-name="Path 7805" d="M29.369,4.533c-3.916,0-7.832,0-11.747-.021-.547,0-1.167.2-1.6-.339l.317-.308c.44.544,1.064.336,1.613.339,3.884.016,7.769.008,11.654.008.05.195-.067.275-.233.321" transform="translate(985.061 1032.461)" fill="#fff"/>
      <path id="Path_7806-2" data-name="Path 7806" d="M4.481,33.2c1.433.623,2.947.146,4.414.312l-.4.912c-1.489.546-2.97.972-4.327-.3-.162-.4.154-.635.317-.925" transform="translate(993.189 1012.418)" fill="#fff"/>
      <path id="Path_7807-2" data-name="Path 7807" d="M41.719,23.027c-1.564-.2-3.19.415-4.712-.341l.944-.619a11.524,11.524,0,0,1,3.526,0c.425.239.287.611.241.961" transform="translate(970.722 1020.118)" fill="#fff"/>
      <path id="Path_7808-2" data-name="Path 7808" d="M3.594,36.122c1.405.608,2.887.161,4.327.3l-.634.925c-1.387.574-2.755.907-4-.3l.31-.926" transform="translate(993.76 1010.424)" fill="#fff"/>
      <path id="Path_7809-2" data-name="Path 7809" d="M2.5,39.046c1.3.6,2.671.166,4,.3l-.544.938a3.792,3.792,0,0,1-3.782-.013c-.19-.482.371-.776.323-1.222" transform="translate(994.543 1008.426)" fill="#fff"/>
      <path id="Path_7810-2" data-name="Path 7810" d="M1.485,42.9l3.782.013-.406.911H1.168c-.164-.4.167-.63.317-.924" transform="translate(995.236 1005.791)" fill="#fff"/>
      <path id="Path_7811-2" data-name="Path 7811" d="M33.171,1.236c-2.111.571-4.264.19-6.394.221-1.546.022-3.131.324-4.656-.226l11.05.005" transform="translate(980.891 1034.26)" fill="#fff"/>
      <path id="Path_7812-2" data-name="Path 7812" d="M110.371,13.968,101.862,14q-.175-.1-.116-.2c.039-.067.077-.1.117-.1,2.459-.008,4.917-.024,7.375-.016.389,0,.854-.167,1.133.288" transform="translate(926.504 1025.775)" fill="#fff"/>
      <path id="Path_7813-2" data-name="Path 7813" d="M118.862,27.646c.007-2.185,0-4.37.033-6.554.008-.469-.253-1.029.3-1.4q.165.092.115.192t-.1.1c0,2.088.009,4.176-.024,6.264-.007.471.247,1.034-.324,1.394" transform="translate(914.815 1021.646)" fill="#fff"/>
      <path id="Path_7814-2" data-name="Path 7814" d="M203.165,20.962q.012,3.67.023,7.339-.164.209-.33,0c-.007-2.182-.022-4.363-.013-6.545,0-.377-.171-.83.309-1.09q.165.092.115.192c-.034.068-.068.1-.1.1" transform="translate(857.445 1020.981)" fill="#fff"/>
      <path id="Path_7815-2" data-name="Path 7815" d="M140.346,21.36q0,3.66,0,7.32c-.1.153-.208.162-.312,0q.009-3.664.017-7.327.154-.207.3.006" transform="translate(900.339 1020.582)" fill="#fff"/>
      <path id="Path_7816-2" data-name="Path 7816" d="M29.989,42.254c-2.3-.18-4.628.278-6.915-.261,2.044-.021,4.088-.047,6.133-.06.3,0,.648-.075.783.321" transform="translate(980.24 1006.458)" fill="#fff"/>
      <path id="Path_7817-2" data-name="Path 7817" d="M479.728,17.945c-.712-.48-.247-1.175-.29-1.754-.086-1.157-.013-2.326-.006-3.49.641,1.719.129,3.5.3,5.244" transform="translate(668.541 1026.424)" fill="#fff"/>
      <path id="Path_7818-2" data-name="Path 7818" d="M227.788,34.088q.024-2.46.048-4.921c.6,1.614.167,3.281.265,4.921q-.156.236-.312,0" transform="translate(840.385 1015.175)" fill="#fff"/>
      <path id="Path_7819-2" data-name="Path 7819" d="M220.959,31.139c.6,1.405.073,2.885.3,4.316-.109.137-.219.144-.33,0q.014-2.159.028-4.318" transform="translate(845.07 1013.828)" fill="#fff"/>
      <path id="Path_7820-2" data-name="Path 7820" d="M146.857,35.486c.181-1.433-.293-2.91.305-4.316-.118,1.437.4,2.918-.305,4.316" transform="translate(895.682 1013.807)" fill="#fff"/>
      <path id="Path_7821-2" data-name="Path 7821" d="M374.565,27.4a5.447,5.447,0,0,1,.1,3.992q-.05-2-.1-3.992" transform="translate(740.112 1016.385)" fill="#fff"/>
      <path id="Path_7822-2" data-name="Path 7822" d="M259.487,12.174c-.017.756-.039,1.512-.05,2.268-.006.423,0,.845-.64.741.8-.991-.194-2.332.683-3.307q.124.1.086.2c-.025.067-.051.1-.078.1" transform="translate(819.201 1026.988)" fill="#fff"/>
      <path id="Path_7823-2" data-name="Path 7823" d="M209.792,36.819c.173-1.212-.27-2.469.279-3.654q.017,1.827.034,3.654-.156.236-.312,0" transform="translate(852.685 1012.444)" fill="#fff"/>
      <path id="Path_7824-2" data-name="Path 7824" d="M381.886,30.585c-.586-1.094-.149-2.261-.252-3.389.111-.136.221-.142.329,0q-.039,1.693-.077,3.387" transform="translate(735.324 1016.593)" fill="#fff"/>
      <path id="Path_7825-2" data-name="Path 7825" d="M43.514,21.644l-3.526,0a4.853,4.853,0,0,1,3.526,0" transform="translate(968.685 1020.541)" fill="#fff"/>
      <path id="Path_7826-2" data-name="Path 7826" d="M101.828,19.44c1.02.228,2.144-.348,3.1.379l-3.1-.058c-.1-.072-.137-.144-.1-.215s.069-.106.1-.106" transform="translate(926.518 1021.822)" fill="#fff"/>
      <path id="Path_7827-2" data-name="Path 7827" d="M119.983,19.939q-.009-.147-.011-.294l2.862-.023c-.89.619-1.913.109-2.851.317" transform="translate(914.042 1021.696)" fill="#fff"/>
      <path id="Path_7828-2" data-name="Path 7828" d="M492.061,20.761l-2.556-.036a4.048,4.048,0,0,1,2.6-.182c.018,0,.049.073.041.1a.442.442,0,0,1-.089.117" transform="translate(661.588 1021.152)" fill="#fff"/>
      <path id="Path_7829-2" data-name="Path 7829" d="M280.377,20.754h-2.458a2.093,2.093,0,0,1,2.458,0" transform="translate(806.137 1021.195)" fill="#fff"/>
      <path id="Path_7830-2" data-name="Path 7830" d="M220.931,44.72l.33,0,1.843-.02a.632.632,0,0,0,.312,0,2.14,2.14,0,0,1-2.485.022" transform="translate(845.07 1004.565)" fill="#fff"/>
      <path id="Path_7831-2" data-name="Path 7831" d="M205.121,44.7a.633.633,0,0,0,.313,0,2.141,2.141,0,0,1-2.486.022l.33,0,1.843-.02" transform="translate(857.355 1004.565)" fill="#fff"/>
      <path id="Path_7832-2" data-name="Path 7832" d="M301.038,20.72H298.9a1.591,1.591,0,0,1,2.142,0" transform="translate(791.807 1021.229)" fill="#fff"/>
      <path id="Path_7833-2" data-name="Path 7833" d="M410.834,20.69h-2.29a2.107,2.107,0,0,1,2.29,0" transform="translate(716.898 1021.197)" fill="#fff"/>
      <path id="Path_7834-2" data-name="Path 7834" d="M82.195,20.693l-2.287,0a2.106,2.106,0,0,1,2.287,0" transform="translate(941.413 1021.194)" fill="#fff"/>
      <path id="Path_7835-2" data-name="Path 7835" d="M472.661,44.708l2.2.052a1.749,1.749,0,0,1-2.2-.052" transform="translate(673.095 1004.558)" fill="#fff"/>
      <path id="Path_7836-2" data-name="Path 7836" d="M140.382,20.718l-.149-.015-.15.009a1.617,1.617,0,0,1,2.141.01l-1.842,0" transform="translate(900.302 1021.225)" fill="#fff"/>
      <path id="Path_7837-2" data-name="Path 7837" d="M344.714,45.008a2.188,2.188,0,0,1,2.224,0h-2.224" transform="translate(760.505 1004.561)" fill="#fff"/>
      <path id="Path_7838-2" data-name="Path 7838" d="M260.887,44.708h2.173a1.61,1.61,0,0,1-2.173,0" transform="translate(817.773 1004.558)" fill="#fff"/>
      <path id="Path_7839-2" data-name="Path 7839" d="M101.185,15.584c0,.107,0,.214,0,.321a1.527,1.527,0,0,1,.023-2.113.583.583,0,0,0,0,.305l-.02,1.487" transform="translate(927.161 1025.679)" fill="#fff"/>
      <path id="Path_7840-2" data-name="Path 7840" d="M474.909,11.936l-2.16.013a1.692,1.692,0,0,1,2.16-.013" transform="translate(673.035 1027.208)" fill="#fff"/>
      <path id="Path_7841-2" data-name="Path 7841" d="M479.513,40.136c.161-.712-.266-1.5.3-2.16-.087.722.359,1.514-.3,2.16" transform="translate(668.417 1009.157)" fill="#fff"/>
      <path id="Path_7842-2" data-name="Path 7842" d="M153.908,23.4a2.443,2.443,0,0,0,.306-1.752c.452.676.79,1.333-.306,1.752" transform="translate(890.858 1020.31)" fill="#fff"/>
      <path id="Path_7843-2" data-name="Path 7843" d="M260.928,12.036a.624.624,0,0,1-.008-.3c.71.085,1.5-.346,2.125.294l-2.117,0" transform="translate(817.76 1027.126)" fill="#fff"/>
      <path id="Path_7844-2" data-name="Path 7844" d="M140.03,44.7a.632.632,0,0,0,.312,0l1.882.057a1.738,1.738,0,0,1-2.194-.056" transform="translate(900.339 1004.565)" fill="#fff"/>
      <path id="Path_7845-2" data-name="Path 7845" d="M80.931,44.983l2.267,0a2.215,2.215,0,0,1-2.267,0" transform="translate(940.714 1004.372)" fill="#fff"/>
      <path id="Path_7846-2" data-name="Path 7846" d="M112.046,44.708l2.2.052a1.749,1.749,0,0,1-2.2-.052" transform="translate(919.457 1004.558)" fill="#fff"/>
      <path id="Path_7847-2" data-name="Path 7847" d="M203.893,20.8q-.009-.147-.011-.294c.629.052,1.335-.352,1.862.3l-1.851-.007" transform="translate(856.717 1021.146)" fill="#fff"/>
      <path id="Path_7848-2" data-name="Path 7848" d="M175.83,45.068c.6-.5,1.295-.2,1.95-.227-.6.5-1.295.2-1.95.227" transform="translate(875.882 1004.51)" fill="#fff"/>
      <path id="Path_7849-2" data-name="Path 7849" d="M346.61,39.133a1.676,1.676,0,0,1-1.946-.005l1.946.005" transform="translate(760.539 1008.37)" fill="#fff"/>
      <path id="Path_7850-2" data-name="Path 7850" d="M176.751,20.7l-1.982-.006a1.652,1.652,0,0,1,1.982.006" transform="translate(876.607 1021.186)" fill="#fff"/>
      <path id="Path_7851-2" data-name="Path 7851" d="M249.752,44.976h1.95a1.684,1.684,0,0,1-1.95,0" transform="translate(825.38 1004.375)" fill="#fff"/>
      <path id="Path_7852-2" data-name="Path 7852" d="M370.948,21.613v1.778a1.18,1.18,0,0,1,0-1.778" transform="translate(742.858 1020.336)" fill="#fff"/>
      <path id="Path_7853-2" data-name="Path 7853" d="M380.619,44.962l1.948,0a1.668,1.668,0,0,1-1.948,0" transform="translate(735.976 1004.384)" fill="#fff"/>
      <path id="Path_7854-2" data-name="Path 7854" d="M408.592,44.965l1.947.005a1.677,1.677,0,0,1-1.947-.005" transform="translate(716.865 1004.382)" fill="#fff"/>
      <path id="Path_7855-2" data-name="Path 7855" d="M446.541,45.068c.6-.5,1.295-.2,1.95-.227-.6.5-1.295.2-1.95.227" transform="translate(690.94 1004.51)" fill="#fff"/>
      <path id="Path_7856-2" data-name="Path 7856" d="M216.724,20.7H214.75a1.627,1.627,0,0,1,1.974,0" transform="translate(849.293 1021.188)" fill="#fff"/>
      <path id="Path_7857-2" data-name="Path 7857" d="M448.477,20.7H446.5a1.627,1.627,0,0,1,1.974,0" transform="translate(690.966 1021.188)" fill="#fff"/>
      <path id="Path_7858-2" data-name="Path 7858" d="M374.934,15.813c-.161.587.3,1.3-.382,1.782.223-.574-.288-1.3.382-1.782" transform="translate(740.121 1024.298)" fill="#fff"/>
      <path id="Path_7859-2" data-name="Path 7859" d="M381.965,17.553c-.679-.478-.2-1.2-.391-1.777.679.478.2,1.2.391,1.777" transform="translate(735.323 1024.323)" fill="#fff"/>
      <path id="Path_7860-2" data-name="Path 7860" d="M382.094,26.648l-.329,0c.536-.629,1.259-.217,1.889-.322-.42.562-1.051.165-1.559.325" transform="translate(735.193 1017.143)" fill="#fff"/>
      <path id="Path_7861-2" data-name="Path 7861" d="M251.687,20.7h-1.974a1.627,1.627,0,0,1,1.974,0" transform="translate(825.407 1021.188)" fill="#fff"/>
      <path id="Path_7862-2" data-name="Path 7862" d="M387.657,23.156q-.015-.753-.031-1.506c.559.491.457,1,.031,1.506" transform="translate(731.189 1020.311)" fill="#fff"/>
      <path id="Path_7863-2" data-name="Path 7863" d="M128.944,16.2q.009-.773.017-1.547a1.011,1.011,0,0,1-.017,1.547" transform="translate(907.913 1025.092)" fill="#fff"/>
      <path id="Path_7864-2" data-name="Path 7864" d="M190.755,31.769q.045-.763.091-1.526c.36.53.482,1.047-.091,1.526" transform="translate(865.685 1014.44)" fill="#fff"/>
      <path id="Path_7868-2" data-name="Path 7868" d="M172.031,30.142h3.725a4.376,4.376,0,0,1-3.725,0" transform="translate(878.477 1014.509)" fill="#fff"/>
      <path id="Path_7870-2" data-name="Path 7870" d="M78.132,29.51c1.163-.094,2.376.373,3.488-.293.217.212.289.564-.042.562-1.151-.008-2.351.425-3.446-.269" transform="translate(942.626 1015.141)" fill="#fff"/>
    </g>
  </g>
</svg>
