<svg xmlns="http://www.w3.org/2000/svg" viewBox="0 0 344 48"><defs><style>.cls-1{fill:#161616;}.cls-2{fill:#ed7b8c;}.cls-3{fill:#9aa2a0;}.cls-4{fill:#969f9c;}.cls-5{fill:#ec8392;}.cls-6{fill:#939b98;}.cls-7{fill:#9ba5a2;}.cls-8{fill:#8c9391;}.cls-9{fill:#8e9392;}.cls-10{fill:#969e9c;}.cls-11{fill:#8f9794;}.cls-12{fill:#9ea8a5;}.cls-13{fill:#8f9694;}.cls-14{fill:#a5b0ad;}.cls-15{fill:#e6f4ee;}.cls-16{fill:#e7f4ef;}.cls-17{fill:#e6f4f0;}.cls-18{fill:none;}</style></defs><g id="Layer_2" data-name="Layer 2"><g id="Layer_1-2" data-name="Layer 1"><rect id="Rectangle_1125" data-name="Rectangle 1125" class="cls-1" x="172" width="172" height="48"/><path class="cls-2" d="M126.84,13.47c.79,0,1.85.35,2.46-.79-1.17-.39-2.25.11-3.43-.07a20.64,20.64,0,0,1,2.7-4.67c.27-.35.87-.79.35-1.33a1.51,1.51,0,0,0-1.47-.34,2.11,2.11,0,0,0-1.39,1,32.67,32.67,0,0,0-2.31,4.05c-.52,1.22-1.19,1.77-2.48,1.48-1.31.24-2.73-.17-4.15.75a8.92,8.92,0,0,0,4.43.13c.42-.07,1.15-.34.86.69-1.22,4.47-3.82,8.13-6.82,11.54a1.23,1.23,0,0,1-1.27.53,26.79,26.79,0,0,1,1.75-4.68c.82-1.88.75-2.05-1.23-2.3-1-.13-1.6-.42-.89-1.52.22-.34.57-.69.14-1.05a1.09,1.09,0,0,0-1.3,0,2.09,2.09,0,0,0-1,1.56c-.65,3.21-3.06,5.15-5.34,7.15-.36.32-1,.47-1.23-.32a4.11,4.11,0,0,1,1.54-4,7.42,7.42,0,0,0,3-2.77c.91-1.6.09-2.92-1.74-2.9a3.56,3.56,0,0,0-3.18,2.36,5.87,5.87,0,0,1-4.12,3.16,13.07,13.07,0,0,0,1.1-3.22c.08-1.25-.1-2.55-1.31-3.15s-1.81.64-2.53,1.34a4.43,4.43,0,0,0-.5.7l-4.64,6.87a46.47,46.47,0,0,1,1.67-5.68,3.76,3.76,0,0,0,.29-1.51,1.23,1.23,0,0,0-1.09-1.35c-.7-.05-.9.52-1,1.16-.81,4.09-3.51,6.91-6.49,9.52-.73.63-1.08.27-1.35-.52a1.73,1.73,0,0,1,.33-1.62,13.65,13.65,0,0,1,4-4.67,2.58,2.58,0,0,0-2.39,1c-.66.66-1,1.69-2,2.21a6.93,6.93,0,0,1,.1-2.89c.17-.56.28-1.23-.45-1.48a1.35,1.35,0,0,0-1.5.62c-.86,1.09-1.69,2.2-2.57,3.28-1.1,1.34-2,2.84-3.57,3.75-.37.22-.72.42-1.13.22s-.43-.69-.35-1.07c.31-1.46.15-3.13,2.17-3.71a5.11,5.11,0,0,0,2-1.65c.8-.88,1.52-1.88.53-3.07-.78-.93-2.5-.81-3.61.17a9.45,9.45,0,0,0-2,2.65,1.32,1.32,0,0,1-1.62.69c-.63-.24-.2-.88-.11-1.35s.11-.69.16-1A2.69,2.69,0,0,0,71,14c-1.51-.51-2.13.81-2.82,1.78-.32.46-.42,1-1,1.28a5.85,5.85,0,0,0-2.58,2.49,14.26,14.26,0,0,1-4.17,3.73,7.73,7.73,0,0,1,2-5.33,1.42,1.42,0,0,0,0-2.17c-.77-.61-1.42,0-1.92.57-1.15,1.42-2.27,2.86-3.48,4.37-.29-1.63.48-2.82,1.2-4,.33-.56.91-1.05,0-1.53s-1.29,0-1.56.79a38.43,38.43,0,0,0-1.35,3.76c-.47,1.86-2,2.45-3.56,3.77.31-2.25.66-3.95,2-5.31a1.5,1.5,0,0,0,0-2.43c-.86-.65-1.53.08-2,.72-1.14,1.45-2.23,2.93-3.48,4.58a7.88,7.88,0,0,1,1.3-4.24c.26-.41.91-.67.48-1.31a1.07,1.07,0,0,0-1-.51c-.65.05-.81.58-1,1.06a36.06,36.06,0,0,0-1.59,4.77c-.27,1.3-1.64,2.46-2.52,2.2-1.19-.36.06-1.63.18-2.51a2.78,2.78,0,0,1,.49-1.1c.34-.55.91-1.09,0-1.55a1.29,1.29,0,0,0-1.92.54,8.83,8.83,0,0,0-.91,3.67c-.09,1.5,2.07,3,3.09,2.28s1.52-2,3.1-1.5c.37.11.59-.63.83-1a8.21,8.21,0,0,1,2.17-2.7c-.22.91-.44,1.57-.54,2.25-.2,1.26-.17,2.45,1.24,3.09s1.88-.43,2.61-1.14c.33-.31.5-1,1.22-.52s1.26,0,1.65-.65a15.4,15.4,0,0,1,1.12-1.76c.37-.51.81-1,1.46-1.7-1.12,3.14-1,4.86.26,5.62,1.86,1.12,2.4-.85,3.48-1.63l.41.84c1.15,2.3,2.92,2.76,4.92,1.16a11,11,0,0,0,2.65-3c.53-.91,1.45-1.64,2.2-1.09.47.34.45,1.81.2,2.63-.39,1.23-.56,1.66,0,2.5,1.29,1.77,3,1.7,4.6-.27,1.27-1.51,2.48-3.08,3.82-4.76,1.06,3.92,1.06,3.93-1.24,6.33-.21.22-.46.4-.24.69a.54.54,0,0,0,.77.14,3.22,3.22,0,0,0,.82-.62c.58-.76,1.11-1.05,2-.27.62.57,1.33.36,2.06-.08a15,15,0,0,0,4-4c-.67,3.49-2,6.3-2.32,9.35a3.92,3.92,0,0,0,.26,2.53c.23.41.51.86,1,.81s.59-.6.67-1.07A43.25,43.25,0,0,1,91.08,29c1.41-4.25,4.31-7.63,6.89-11.18a2.48,2.48,0,0,1,1.9-1.11,2.25,2.25,0,0,1,.14.52,2,2,0,0,1-.1.68,14.69,14.69,0,0,1-5,6.92c-.82.59-.65.9-.31,1.46.71,1.19,1.49.84,2.19,0a16.8,16.8,0,0,1,7.1-5.37c-.86,1.16-.28,2.15-.53,3-.45,1.54.25,2.27,1.42,2.92s2.15,0,2.9-.85a53.5,53.5,0,0,0,3.51-4.3c.8-1.09,1.59-1.74,3-.93-.51,1.16-1,2.32-1.52,3.49s-.78,2.73.55,3.62,2.15-.43,2.95-1.12a38.33,38.33,0,0,0,3.1-3.46c-.21,1.42-.32,2.51-.55,3.58A2.31,2.31,0,0,0,120,29.7c1.23.58,1.81-.52,2.38-1.25,1.53-2,3-4,4.45-6,.59-.84,1.48-1.53,1.46-2.7-.61-.15-.76.47-1.15.71a9.08,9.08,0,0,0-2.46,2.63A20.77,20.77,0,0,1,121.2,27a33.1,33.1,0,0,1,1.24-4.68c.21-.69.69-1.37.28-2.16.67-1.71,1.41-3.4,2-5.15A1.87,1.87,0,0,1,126.84,13.47ZM106.32,17.8c.49-1.31,2-2.18,2.67-1.77s.39,1.95-.21,3c-.41.72-1.32,1.67-2,1.42a.73.73,0,0,1-.31-.25l.06,0a1.58,1.58,0,0,1,0-.25,2.3,2.3,0,0,0,0,.26A2.85,2.85,0,0,1,106.32,17.8Zm-29.41-.15c.74-.95,2-1.74,2.42-1.43s-.18,2-1.21,3.11a3.62,3.62,0,0,1-1.77,1.14h0a.35.35,0,0,1-.18,0C75.73,20.12,76.13,18.65,76.91,17.65Zm-7,4.51c-1.1,2.23-2.77,3.22-3.68,2.83-.67-.28-.88-1.29-.94-1.79a24.14,24.14,0,0,0,1.65-3.49c.1-.28.2-.55.29-.82.17.15.42.39.72.71.55.58.7.84,1.07,1a1.63,1.63,0,0,0,1,.05C69.94,21.14,69.91,21.65,69.87,22.16Zm1-2.28L69.62,20a1.13,1.13,0,0,1-.86-.56,1,1,0,0,1-.12-.62,3.08,3.08,0,0,1,.65-3.1A2.94,2.94,0,0,1,71,15c0,.57,0,1.16,0,1.78A30.36,30.36,0,0,1,70.91,19.88Z"/><path class="cls-2" d="M35.32,14.29a6.4,6.4,0,0,0,1-2.19c.29-.95.62-1.81-1-1.78a.86.86,0,0,1-.9-.88c0-.65.54-.83,1.12-.8,1.09,0,2,0,2.49-1.33.28-.8,1-.39,1.35.13.53.9,1.22.75,2.07.64,1.88-.25,3.78-.36,6-.56C45.38,9.4,43.05,9.76,40.73,10a2,2,0,0,0-2,1.71,31.56,31.56,0,0,1-1.28,3.77c-.44,1.09-.53,1.72,1,1.55,1.13-.12,2.29,0,3.86,0a14.87,14.87,0,0,1-4.56,1.39,2.12,2.12,0,0,0-1.82,1.75c-.62,2.34-1.45,4.63-2.25,6.92-.25.72-.47,1.76-1.61,1.32a1.69,1.69,0,0,1-1.14-2.47c.66-1.61,1.22-3.25,1.9-4.85.4-.95.77-1.79-.52-2.35-.1,0,0-.42-.08-.64C34.76,18,34.62,15.82,35.32,14.29Z"/><path class="cls-3" d="M61.42,38c0,1.09,0,2,0,2.93,0,.27.4.7-.21.78s-.47-.31-.47-.68c0-1.3,0-2.6,0-4.13,1.36.76,2.58,1.47,3.91.16.38-.38.58.22.58.67,0,1.15,0,2.31.05,3.45,0,.37,0,.55-.37.57s-.49-.23-.46-.66c.07-1,0-2,0-3.4A2.22,2.22,0,0,1,61.42,38Z"/><path class="cls-3" d="M80.58,36.8c1.41.9,2.6,1.62,3.84.26.26-.28.66-.07.67.41,0,1.26,0,2.53.08,3.79,0,.44-.21.47-.5.47s-.38-.24-.37-.59c0-1,0-2,0-3.29a2.24,2.24,0,0,1-3,0c0,1.23,0,2.19,0,3.15,0,.32.26.71-.34.69-.4,0-.37-.31-.37-.61C80.59,39.77,80.58,38.45,80.58,36.8Z"/><path class="cls-4" d="M106.79,39.79c.69-.71.89-1.78-.5-2.27a1.41,1.41,0,0,0-1.78-.53c-.7.3-.24,1-.29,1.55-.08.85,0,1.72-.07,2.58,0,.21-.2.47.14.55a1.09,1.09,0,0,0,.62-.05c.28-1.75.74-.39,1.17-.09s.83.39,1.17-.24C106.17,41.07,105.84,40.77,106.79,39.79Zm-1,.12c-.69.23-.85-.22-.91-.83-.12-1.12.14-1.78,1.42-1.55a.41.41,0,0,0,0,.09l.06-.07c0,.1,0,.2.09.3C106.76,38.71,106.9,39.54,105.77,39.91Z"/><path class="cls-5" d="M44.34,16.59c-.72-.18-.88-.65-.56-1.16a4.59,4.59,0,0,0,1-2.86c0-.63.54-.88,1.11-.68s1.14.69.86,1.29a24.51,24.51,0,0,1-1.86,3A2.15,2.15,0,0,1,44.34,16.59Z"/><path class="cls-6" d="M42.92,37.87c1.3.76,1,1.89.43,2.82a2.64,2.64,0,0,1-2.94,1c-.68-.12-.24-.69-.19-1,.21-1.26-.69-2.78.41-3.71a1.73,1.73,0,0,1,2.31.88c-1.29-.4-1.76-.24-1.94,0s0,.68-.09,1.8c-.08.74-.24,1-.09,1.16s.63.34,2-.09"/><path class="cls-7" d="M112.43,37a9.78,9.78,0,0,1,0,3.37,1.67,1.67,0,0,1-3.31-.06,12.38,12.38,0,0,1,.16-3.32c.74.83.37,1.79.45,2.69s0,1.62,1.1,1.6,1-.91,1-1.66,0-1.76,0-2.63Z"/><path class="cls-8" d="M76.87,36.89A2.08,2.08,0,0,0,75,39.32c0,1.24.39,2.36,1.88,2.41a1.83,1.83,0,0,0,2-1.9C78.85,38,78,36.78,76.87,36.89Zm0,4.4c-1.1,0-1.34-1-1.39-1.84s.17-2,1.34-2.05,1.29,1.06,1.56,1.9C78.19,40.23,78.07,41.29,76.88,41.29Z"/><path class="cls-9" d="M87.93,37.87c.17.64.92-.3,1.11.53-1.68.19-1.47,1.55-1.08,2.45.47,1.09,1.42.3,2.41-.25-.59,1.59-1.71,1.1-2.54,1.11-1.13,0-.51-.93-.59-1.44a12.16,12.16,0,0,1,0-1.91c0-1.72.08-1.78,1.9-1.1C88.89,37.8,88.05,37.14,87.93,37.87Z"/><path class="cls-10" d="M56.5,38.25c.22-.43-.7-1.06.13-1.29.65-.18.8.47.95,1,.3,1,.67,2,1,3,.07.24.59.57,0,.79-.27.1-.43-.1-.63-.37-.7-1-1.2-.9-1.89.14a.46.46,0,0,1-.54.23c-.34,0-.26-.26-.15-.49.48-1,.47-2.11,1.2-3a7.22,7.22,0,0,0,.06.88,8.24,8.24,0,0,0,.16.9l.69-.08a3.46,3.46,0,0,0,0-.83C57.31,38.85,57.11,38.54,56.5,38.25Z"/><path class="cls-11" d="M92.09,40.14c.72.12.14.91.68,1.1a.91.91,0,0,0,1.11-.2.83.83,0,0,0-.1-1.24c-.42-.39-.94-.69-1.32-1.11a.94.94,0,0,1,.06-1.51c.69-.54,1.22-.39,1.59.38-.49.65-.93-.76-1.27.06s.45,1,.87,1.28c.73.57,1.35,1.17.8,2.18a1.39,1.39,0,0,1-1.82.58C92,41.42,91.47,41,92.09,40.14Z"/><path class="cls-12" d="M99.14,37.22c1.12-.52,2.17-.35,3.83-.28-2.64.87-1.79,2.6-1.85,4,0,.42.18.82-.47.76s-.32-.44-.31-.76c0-.69,0-1.38,0-2.06A1.32,1.32,0,0,0,99.14,37.22Z"/><path class="cls-13" d="M72.88,37.69c-.82-.32-1.57-.49-2,.47A2.37,2.37,0,0,0,71.33,41c.88.84,1.41-.17,2.25-.58A1.42,1.42,0,0,1,72,41.76a1.81,1.81,0,0,1-1.83-1.54,2.63,2.63,0,0,1,.86-3C71.65,36.79,72.37,36.56,72.88,37.69Z"/><path class="cls-10" d="M45.65,37.59c-.19-.17-.29-.5-.09-.57a2.44,2.44,0,0,1,2.52.62,1.42,1.42,0,0,1,.05,2.15c-.79.81-1,1.35.57,1.53-1.41,1.11-1.62-1-2.61-.62a.64.64,0,0,1-.15-.68,1,1,0,0,1,.54-.4c.41-.18,1-.29,1-.85s-.63-.73-1.08-.94C46.13,37.72,46,37.42,45.65,37.59Z"/><path class="cls-12" d="M116.29,37.88c.33,1.14-1.24.34-1.21,1.2,0,.68-.3,1.53.16,2,.68.69,1.51.09,2.52-.53-.87,1.72-2.08,1.05-3,1.1-.47,0-.09-.42-.09-.65,0-1.15,0-2.29,0-3.44-.13-.43.14-.5.4-.35A7.41,7.41,0,0,1,116.29,37.88Z"/><path class="cls-10" d="M51,37.57c-.16,1.15,1,.11,1.19.79-1.72.22-1.49,1.62-1.11,2.54s1.41.27,2.42-.09c-.72,1.35-1.81.9-2.62.85-1,0-.2-.86-.28-1.3a17,17,0,0,1-.08-2.77c0-.23,0-.45.3-.41S51,37.41,51,37.57Z"/><path class="cls-12" d="M116.29,37.88c-.58.25-1.22.64-1.41-.43a.25.25,0,0,0-.15,0s-.08.07-.12.11c-.5-.79.15-.68.57-.71.7-.05,1.4,0,1.69.8Z"/><path class="cls-14" d="M51,37.57c-.17-.32-.33-.25-.48,0,.28-1,1-1.05,2.13,0Z"/><path class="cls-15" d="M76.35,20.47l0,0v0Z"/><path class="cls-16" d="M106.55,20.12l-.06,0,0,0v-.06a2.3,2.3,0,0,1,0-.26A1.58,1.58,0,0,0,106.55,20.12Z"/><path class="cls-17" d="M106.29,37.53v0l-.06.07a.41.41,0,0,1,0-.09Z"/><path class="cls-17" d="M106.3,37.54h0Z"/><path class="cls-10" d="M46.08,37.55a22.76,22.76,0,0,1,0,2.38,2.48,2.48,0,0,0,0,.77c.08.39.26.65.13.83a.46.46,0,0,1-.22.13.52.52,0,0,1-.44,0c-.14-.14,0-.51.1-.72.44-1.22-.35-2.65,0-3.3,0-.05.11-.21.23-.21s.15.1.2.17"/><path class="cls-2" d="M293.44,11.45c.78,0,1.84.35,2.46-.79-1.18-.39-2.26.11-3.44-.07a20.89,20.89,0,0,1,2.71-4.67c.27-.35.86-.79.34-1.33a1.46,1.46,0,0,0-1.46-.33,2.09,2.09,0,0,0-1.4.94,34,34,0,0,0-2.31,4.05c-.52,1.23-1.18,1.77-2.48,1.49-1.31.23-2.73-.17-4.15.74a8.81,8.81,0,0,0,4.43.13c.42-.07,1.15-.34.87.69-1.23,4.47-3.83,8.13-6.83,11.54a1.21,1.21,0,0,1-1.27.53,27.94,27.94,0,0,1,1.75-4.68c.82-1.87.75-2.05-1.22-2.29-1-.13-1.61-.43-.9-1.53.22-.33.57-.69.15-1a1.13,1.13,0,0,0-1.31,0,2.12,2.12,0,0,0-1,1.56c-.65,3.21-3,5.15-5.34,7.15-.36.32-1,.47-1.23-.31a4.08,4.08,0,0,1,1.55-4,7.46,7.46,0,0,0,3-2.77c.92-1.61.1-2.93-1.74-2.91a3.56,3.56,0,0,0-3.18,2.37A5.85,5.85,0,0,1,267.39,19a13.31,13.31,0,0,0,1.09-3.22c.08-1.26-.1-2.56-1.31-3.16s-1.81.64-2.53,1.34a4.43,4.43,0,0,0-.5.7l-4.64,6.88a45.48,45.48,0,0,1,1.68-5.68,4,4,0,0,0,.29-1.52c0-.73-.39-1.29-1.1-1.34s-.9.51-1,1.15c-.81,4.09-3.51,6.91-6.49,9.52-.73.64-1.08.27-1.35-.51a1.78,1.78,0,0,1,.33-1.63,13.57,13.57,0,0,1,4-4.67,2.58,2.58,0,0,0-2.4,1c-.66.66-1,1.69-2,2.21a6.87,6.87,0,0,1,.11-2.88c.16-.57.27-1.24-.46-1.49a1.37,1.37,0,0,0-1.5.62c-.86,1.09-1.69,2.21-2.57,3.28-1.09,1.34-2,2.85-3.57,3.76-.36.21-.71.42-1.13.21s-.43-.69-.35-1.07c.31-1.46.16-3.13,2.17-3.7a5.13,5.13,0,0,0,2-1.66c.8-.88,1.52-1.88.53-3.07-.78-.92-2.5-.81-3.61.18a9.23,9.23,0,0,0-1.95,2.64,1.34,1.34,0,0,1-1.63.69c-.63-.24-.2-.88-.11-1.35s.11-.69.16-1a2.7,2.7,0,0,0-1.9-3.28c-1.51-.51-2.14.82-2.82,1.78-.33.46-.43,1-1.06,1.29a5.78,5.78,0,0,0-2.58,2.48A14.14,14.14,0,0,1,227,21.25a7.77,7.77,0,0,1,2-5.33,1.42,1.42,0,0,0,0-2.17c-.77-.61-1.42,0-1.92.57-1.15,1.42-2.27,2.86-3.47,4.38-.3-1.64.48-2.83,1.19-4,.34-.56.92-1,0-1.53s-1.29,0-1.56.8a37.34,37.34,0,0,0-1.35,3.75c-.46,1.86-2,2.46-3.55,3.77.31-2.25.65-3.95,2-5.31a1.49,1.49,0,0,0,0-2.42c-.86-.66-1.52.07-2,.72-1.14,1.44-2.23,2.93-3.48,4.57a7.93,7.93,0,0,1,1.3-4.24c.26-.41.91-.67.48-1.31a1.08,1.08,0,0,0-1-.51c-.66,0-.82.58-1,1.07A35.92,35.92,0,0,0,213,18.81c-.27,1.31-1.63,2.47-2.51,2.2-1.2-.36.06-1.63.17-2.51a2.85,2.85,0,0,1,.49-1.1c.34-.54.91-1.09,0-1.54a1.29,1.29,0,0,0-1.93.53,9,9,0,0,0-.91,3.68c-.09,1.49,2.07,3,3.1,2.28s1.52-2,3.09-1.51c.37.12.59-.63.83-1a8.21,8.21,0,0,1,2.17-2.69c-.22.9-.43,1.56-.54,2.24-.2,1.26-.16,2.45,1.25,3.09s1.87-.42,2.61-1.13c.33-.32.5-1,1.22-.53s1.26,0,1.64-.65a16.32,16.32,0,0,1,1.12-1.76c.37-.5.82-1,1.46-1.7-1.11,3.15-1,4.87.26,5.63,1.86,1.12,2.4-.85,3.48-1.64.16.32.28.59.41.84,1.15,2.3,2.92,2.76,4.92,1.16a10.87,10.87,0,0,0,2.65-3c.54-.91,1.45-1.63,2.2-1.09.48.34.45,1.81.2,2.63-.38,1.23-.56,1.66.05,2.5,1.29,1.77,2.95,1.7,4.61-.27,1.27-1.51,2.47-3.08,3.82-4.76,1,3.92,1,3.93-1.25,6.33-.21.23-.46.4-.24.7a.53.53,0,0,0,.77.13,3.46,3.46,0,0,0,.83-.62c.57-.76,1.1-1.05,1.94-.27.63.57,1.33.36,2.07-.08a15.13,15.13,0,0,0,4-4c-.67,3.49-2,6.3-2.32,9.35a4,4,0,0,0,.26,2.54c.23.4.52.85,1,.8s.58-.6.66-1.06a45.15,45.15,0,0,1,1.14-5.6c1.41-4.25,4.31-7.63,6.9-11.18a2.41,2.41,0,0,1,1.89-1.1,2.18,2.18,0,0,1,.14.51,1.93,1.93,0,0,1-.1.68,14.76,14.76,0,0,1-5,6.93c-.82.58-.65.89-.31,1.45.72,1.19,1.49.84,2.19,0a16.76,16.76,0,0,1,7.1-5.36c-.85,1.16-.28,2.14-.52,3-.46,1.54.25,2.28,1.41,2.92s2.15,0,2.9-.85c1.23-1.38,2.43-2.8,3.52-4.29.79-1.1,1.58-1.75,3-.94-.51,1.16-1,2.32-1.52,3.5s-.78,2.72.55,3.62,2.16-.44,3-1.13a37,37,0,0,0,3.1-3.46c-.21,1.42-.32,2.51-.55,3.58a2.33,2.33,0,0,0,1.35,2.88c1.22.57,1.8-.53,2.37-1.26,1.54-1.95,3-4,4.46-6,.58-.83,1.48-1.53,1.46-2.69-.62-.15-.77.46-1.15.7a9.24,9.24,0,0,0-2.47,2.63,20.78,20.78,0,0,1-3.5,3.87A32.89,32.89,0,0,1,289,20.26c.22-.69.69-1.37.29-2.15.67-1.72,1.4-3.41,2-5.16A1.87,1.87,0,0,1,293.44,11.45Zm-20.52,4.33c.48-1.3,2-2.18,2.66-1.77s.39,2-.2,3c-.42.71-1.33,1.66-2,1.41a.68.68,0,0,1-.31-.25l.05,0c0-.07,0-.16-.05-.25l0,.26A2.81,2.81,0,0,1,272.92,15.78Zm-29.42-.14c.75-1,2-1.75,2.42-1.43s-.18,2-1.21,3.1a3.72,3.72,0,0,1-1.77,1.15h0a.48.48,0,0,1-.18-.06C242.32,18.11,242.72,16.64,243.5,15.64Zm-7,4.5c-1.11,2.23-2.78,3.23-3.69,2.84-.66-.29-.87-1.3-.94-1.8a24.14,24.14,0,0,0,1.65-3.49c.1-.27.2-.55.29-.82.17.15.42.39.72.71.55.58.7.84,1.07,1a1.59,1.59,0,0,0,1,.05Zm1-2.28-1.29.16a1.21,1.21,0,0,1-.86-.56,1.09,1.09,0,0,1-.12-.62,3.07,3.07,0,0,1,.65-3.1,2.91,2.91,0,0,1,1.75-.8c0,.57.05,1.16.05,1.78C237.67,15.85,237.6,16.9,237.5,17.86Z"/><path class="cls-2" d="M201.91,12.27a6.23,6.23,0,0,0,1-2.19c.28-.95.61-1.81-1-1.77a.85.85,0,0,1-.9-.89c0-.65.53-.82,1.11-.8,1.09,0,2,0,2.49-1.33.29-.79,1-.39,1.35.13.53.91,1.22.76,2.07.64,1.88-.25,3.78-.36,6-.56C212,7.38,209.65,7.75,207.33,8a2,2,0,0,0-2,1.71A31,31,0,0,1,204,13.46c-.44,1.09-.52,1.73,1,1.55,1.14-.12,2.3,0,3.86,0a14.87,14.87,0,0,1-4.56,1.39,2.14,2.14,0,0,0-1.82,1.75c-.62,2.34-1.45,4.63-2.25,6.92-.25.72-.47,1.76-1.61,1.33a1.71,1.71,0,0,1-1.14-2.48c.66-1.61,1.22-3.25,1.9-4.85.4-.95.77-1.79-.52-2.35-.1,0,0-.42-.08-.64C201.35,16,201.22,13.8,201.91,12.27Z"/><path class="cls-3" d="M228,36c0,1.08,0,2,0,2.92,0,.27.4.7-.21.78s-.47-.31-.47-.67c0-1.31,0-2.61,0-4.14,1.36.76,2.58,1.47,3.91.17.38-.38.58.21.58.66,0,1.16,0,2.31,0,3.46,0,.36,0,.55-.36.56s-.49-.22-.46-.66c.06-1,0-2,0-3.4A2.22,2.22,0,0,1,228,36Z"/><path class="cls-3" d="M247.18,34.78c1.4.9,2.59,1.62,3.83.26.26-.28.66-.07.67.41,0,1.26,0,2.53.08,3.79,0,.45-.21.48-.5.47s-.38-.24-.37-.58c.05-1,0-2.06,0-3.3a2.22,2.22,0,0,1-3,0c0,1.23,0,2.19,0,3.15,0,.32.26.71-.33.69-.41,0-.38-.31-.38-.61C247.18,37.75,247.18,36.43,247.18,34.78Z"/><path class="cls-4" d="M273.38,37.77c.69-.71.89-1.78-.49-2.26A1.42,1.42,0,0,0,271.1,35c-.7.3-.24,1-.29,1.55-.08.85,0,1.72-.07,2.58,0,.22-.2.47.14.55s.62,0,.62,0c.28-1.75.74-.39,1.17-.09s.83.39,1.17-.24C272.77,39.05,272.43,38.75,273.38,37.77Zm-1,.12c-.69.23-.85-.22-.91-.83-.12-1.11.15-1.78,1.42-1.54a.22.22,0,0,0-.05.08l.06-.07a2.63,2.63,0,0,0,.09.3C273.35,36.69,273.5,37.52,272.36,37.89Z"/><path class="cls-5" d="M210.93,14.57c-.72-.17-.88-.64-.55-1.16a4.58,4.58,0,0,0,1-2.86c0-.63.54-.87,1.12-.68s1.13.69.85,1.29a25.42,25.42,0,0,1-1.86,3A2.17,2.17,0,0,1,210.93,14.57Z"/><path class="cls-6" d="M209.52,35.85c1.3.76,1,1.89.42,2.83a2.64,2.64,0,0,1-2.93,1c-.69-.11-.25-.69-.2-1,.22-1.26-.69-2.78.42-3.71a1.72,1.72,0,0,1,2.3.88c-1.29-.4-1.76-.24-1.94,0s0,.67-.09,1.79c-.08.74-.24,1-.09,1.16s.64.34,2-.09"/><path class="cls-7" d="M279,35a9.78,9.78,0,0,1,0,3.37,1.51,1.51,0,0,1-1.68,1.41,1.52,1.52,0,0,1-1.63-1.46A12.87,12.87,0,0,1,275.9,35c.74.83.37,1.8.46,2.69s0,1.62,1.09,1.6,1-.91,1-1.66,0-1.75,0-2.63Z"/><path class="cls-8" d="M243.47,34.88a2.08,2.08,0,0,0-1.92,2.42c0,1.24.39,2.36,1.88,2.41a1.82,1.82,0,0,0,2-1.9C245.44,35.93,244.61,34.76,243.47,34.88Zm0,4.4c-1.11,0-1.34-1-1.4-1.85s.18-2,1.34-2,1.29,1.06,1.56,1.91C244.78,38.22,244.66,39.27,243.48,39.28Z"/><path class="cls-9" d="M254.52,35.85c.18.64.92-.3,1.11.53-1.68.19-1.47,1.56-1.08,2.46.47,1.08,1.42.3,2.41-.26-.59,1.59-1.71,1.1-2.54,1.11-1.13,0-.51-.93-.59-1.44a13.5,13.5,0,0,1,0-1.91c0-1.72.08-1.77,1.91-1.09C255.48,35.78,254.64,35.12,254.52,35.85Z"/><path class="cls-10" d="M223.09,36.23c.22-.42-.7-1,.14-1.29.64-.18.79.47.94,1,.3,1,.67,2,1,3,.07.24.59.58,0,.79-.27.1-.43-.09-.63-.37-.69-.95-1.19-.9-1.89.14a.47.47,0,0,1-.53.24c-.34-.06-.27-.27-.16-.5.48-1,.48-2.11,1.2-3a7.51,7.51,0,0,0,.06.89,8.48,8.48,0,0,0,.16.89l.69-.07a3.54,3.54,0,0,0-.05-.84C223.91,36.83,223.7,36.52,223.09,36.23Z"/><path class="cls-11" d="M258.68,38.12c.72.12.14.92.69,1.1a.91.91,0,0,0,1.1-.19.84.84,0,0,0-.09-1.24c-.42-.4-.94-.69-1.33-1.12a.93.93,0,0,1,.07-1.51c.68-.53,1.22-.38,1.59.38-.5.65-.94-.75-1.28.06s.45.95.87,1.29c.73.57,1.35,1.17.8,2.17a1.39,1.39,0,0,1-1.82.58C258.59,39.4,258.06,39,258.68,38.12Z"/><path class="cls-12" d="M265.73,35.21c1.12-.53,2.17-.36,3.83-.29-2.63.87-1.78,2.61-1.84,4,0,.42.17.82-.48.76s-.32-.44-.3-.76c0-.68,0-1.38.05-2.06A1.32,1.32,0,0,0,265.73,35.21Z"/><path class="cls-13" d="M239.47,35.68c-.82-.33-1.57-.5-2,.46a2.35,2.35,0,0,0,.44,2.86c.88.84,1.41-.17,2.25-.58a1.41,1.41,0,0,1-1.58,1.32,1.82,1.82,0,0,1-1.84-1.54,2.63,2.63,0,0,1,.86-3C238.25,34.77,239,34.54,239.47,35.68Z"/><path class="cls-10" d="M212.24,35.57c-.19-.17-.29-.5-.09-.57a2.44,2.44,0,0,1,2.52.62,1.42,1.42,0,0,1,.05,2.15c-.79.81-1,1.35.58,1.53-1.42,1.11-1.63-1-2.62-.62a.64.64,0,0,1-.15-.67,1,1,0,0,1,.54-.41c.42-.18,1-.28,1-.85s-.64-.73-1.09-.94C212.73,35.7,212.56,35.41,212.24,35.57Z"/><path class="cls-12" d="M282.89,35.86c.32,1.14-1.25.34-1.22,1.2,0,.68-.3,1.53.16,2,.68.69,1.52.09,2.52-.52-.87,1.71-2.08,1.05-3,1.09-.47,0-.09-.42-.09-.65,0-1.14,0-2.29,0-3.44-.13-.42.14-.5.4-.35A8.76,8.76,0,0,1,282.89,35.86Z"/><path class="cls-10" d="M217.57,35.55c-.15,1.15,1,.11,1.19.8-1.72.22-1.49,1.61-1.11,2.53s1.41.27,2.42-.09c-.71,1.35-1.81.9-2.62.86-1-.06-.2-.87-.28-1.31a17,17,0,0,1-.08-2.77c0-.23,0-.45.31-.4S217.57,35.39,217.57,35.55Z"/><path class="cls-12" d="M282.89,35.86c-.59.25-1.23.64-1.42-.42,0,0-.1,0-.15,0s-.08.07-.12.11c-.5-.78.15-.68.57-.71.7,0,1.4,0,1.69.8Z"/><path class="cls-14" d="M217.57,35.55c-.17-.32-.33-.24-.48,0,.28-1,1-1,2.13,0Z"/><path class="cls-15" d="M242.94,18.46l0,0v0Z"/><path class="cls-16" d="M273.14,18.1l-.05,0,0,0v-.06l0-.26C273.11,17.94,273.12,18,273.14,18.1Z"/><path class="cls-17" d="M272.88,35.52h0l-.06.07a.22.22,0,0,1,.05-.08Z"/><path class="cls-17" d="M272.89,35.52h0v0Z"/><path class="cls-10" d="M212.67,35.54a22.8,22.8,0,0,1,0,2.38,2.76,2.76,0,0,0,0,.76c.08.39.26.65.13.83a.36.36,0,0,1-.22.13.52.52,0,0,1-.44,0c-.14-.15,0-.52.1-.73.44-1.22-.34-2.65,0-3.3,0,0,.12-.21.23-.21s.16.1.2.18"/><rect class="cls-18" width="344" height="48"/><line class="cls-18" x1="172" x2="172" y2="48"/></g></g></svg>