<svg xmlns="http://www.w3.org/2000/svg" width="344" height="48" viewBox="0 0 344 48">
  <g id="partners_invest_cuffs" transform="translate(-176 -1281)">
    <path id="Path_7727" data-name="Path 7727" d="M0,0H172V48H0Z" transform="translate(176 1281)" fill="#151515" opacity="0"/>
    <rect id="Rectangle_1057" data-name="Rectangle 1057" width="172" height="48" transform="translate(348 1281)" fill="#151515" opacity="0"/>
    <g id="GAG_Logo-01" data-name="GAG Logo-01" transform="translate(-30.735 922.438)">
      <path id="Path_8042" data-name="Path 8042" d="M227.922,676.671h3.569v5.146c0,2.594-1.3,4.078-3.8,4.078s-3.79-1.5-3.79-4.091v-8.435c0-2.6,1.3-4.078,3.8-4.078s3.8,1.481,3.8,4.078v1.577h-2.41v-1.737c0-1.159-.509-1.6-1.332-1.6s-1.332.44-1.332,1.6v8.76c0,1.159.511,1.574,1.332,1.574s1.332-.416,1.332-1.574v-2.994h-1.169Z" transform="translate(-5.165 -294.728)" fill="#39b6ff"/>
      <path id="Path_8043" data-name="Path 8043" d="M262.552,676.832h3.5v2.317h-3.5V683.9h4.4v2.317H260V670h6.952v2.317h-4.4Z" transform="translate(-31.649 -295.248)" fill="#39b6ff"/>
      <path id="Path_8044" data-name="Path 8044" d="M295.979,676.832h3.5v2.317h-3.5V683.9h4.4v2.317H293.43V670h6.952v2.317h-4.4Z" transform="translate(-56.175 -295.248)" fill="#39b6ff"/>
      <path id="Path_8045" data-name="Path 8045" d="M330.128,679.751l-.8,1.484v4.984H326.78V670h2.549v7.021h.045L332.68,670h2.549l-3.548,7.232,3.548,8.992h-2.621Z" transform="translate(-80.642 -295.248)" fill="#39b6ff"/>
      <path id="Path_8046" data-name="Path 8046" d="M366.182,669.29c2.48,0,3.753,1.481,3.753,4.078v.509h-2.4v-.669c0-1.159-.463-1.6-1.273-1.6s-1.276.44-1.276,1.6.511,2.062,2.179,3.521c2.131,1.865,2.8,3.223,2.8,5.077,0,2.594-1.3,4.078-3.8,4.078s-3.8-1.484-3.8-4.078v-1h2.41v1.159c0,1.159.509,1.574,1.332,1.574s1.332-.416,1.332-1.574-.511-2.064-2.179-3.524c-2.131-1.865-2.8-3.22-2.8-5.061C362.426,670.771,363.7,669.29,366.182,669.29Z" transform="translate(-106.753 -294.728)" fill="#39b6ff"/>
      <path id="Path_8047" data-name="Path 8047" d="M404.13,686.218h-2.57l-.442-2.93h-3.127l-.442,2.93H395.21L397.818,670h3.729Zm-5.817-5.146h2.458l-1.207-8.2h-.045Z" transform="translate(-130.846 -295.248)" fill="#e3e3e3"/>
      <path id="Path_8048" data-name="Path 8048" d="M439.86,686.218a5.015,5.015,0,0,1-.232-1.995v-2.549c0-1.5-.509-2.062-1.667-2.062h-.882v6.606H434.53V670h3.854c2.642,0,3.777,1.228,3.777,3.729V675c0,1.667-.533,2.733-1.667,3.266v.048c1.276.533,1.691,1.737,1.691,3.428v2.5a4.746,4.746,0,0,0,.28,1.971Zm-2.781-13.906V677.3h1c.951,0,1.529-.418,1.529-1.715v-1.6c0-1.159-.394-1.67-1.3-1.67Z" transform="translate(-159.693 -295.248)" fill="#e3e3e3"/>
      <path id="Path_8049" data-name="Path 8049" d="M470.11,673.368c0-2.6,1.369-4.078,3.87-4.078s3.87,1.481,3.87,4.078V681.8c0,2.594-1.366,4.078-3.87,4.078s-3.87-1.484-3.87-4.078Zm2.549,8.6c0,1.159.511,1.6,1.332,1.6s1.332-.44,1.332-1.6v-8.758c0-1.159-.509-1.6-1.332-1.6s-1.332.44-1.332,1.6Z" transform="translate(-185.796 -294.728)" fill="#e3e3e3"/>
      <path id="Path_8050" data-name="Path 8050" d="M508.908,670v12.519c0,1.161.511,1.577,1.332,1.577s1.332-.415,1.332-1.577V670h2.41v12.353c0,2.594-1.3,4.078-3.8,4.078s-3.8-1.484-3.8-4.078V670Z" transform="translate(-212.405 -295.248)" fill="#e3e3e3"/>
      <path id="Path_8051" data-name="Path 8051" d="M545.011,674.467h-.048v11.752H542.67V670h3.2l2.57,9.711h.048V670h2.264v16.224h-2.61Z" transform="translate(-239.029 -295.248)" fill="#e3e3e3"/>
      <path id="Path_8052" data-name="Path 8052" d="M581.3,670h4.03c2.552,0,3.8,1.414,3.8,4v8.2c0,2.6-1.249,4.011-3.8,4.011H581.3Zm2.549,2.317v11.589h1.436c.8,0,1.3-.418,1.3-1.577v-8.441c0-1.159-.485-1.577-1.3-1.577Z" transform="translate(-267.37 -295.248)" fill="#e3e3e3"/>
      <path id="Path_8053" data-name="Path 8053" d="M621.433,676.671H625v5.146c0,2.594-1.3,4.078-3.8,4.078s-3.8-1.5-3.8-4.091v-8.435c0-2.6,1.3-4.078,3.8-4.078s3.8,1.481,3.8,4.078v1.577h-2.411v-1.737c0-1.159-.509-1.6-1.332-1.6s-1.332.44-1.332,1.6v8.76c0,1.159.511,1.574,1.332,1.574s1.332-.416,1.332-1.574v-2.994h-1.159Z" transform="translate(-293.855 -294.728)" fill="#fe5757"/>
      <path id="Path_8054" data-name="Path 8054" d="M653.51,670h2.549v13.906h4.192v2.317H653.51Z" transform="translate(-320.346 -295.248)" fill="#fe5757"/>
      <path id="Path_8055" data-name="Path 8055" d="M683.61,673.368c0-2.6,1.366-4.078,3.87-4.078s3.87,1.481,3.87,4.078V681.8c0,2.594-1.369,4.078-3.87,4.078s-3.87-1.484-3.87-4.078Zm2.549,8.6c0,1.159.509,1.6,1.332,1.6s1.332-.44,1.332-1.6v-8.758c0-1.159-.511-1.6-1.332-1.6s-1.332.44-1.332,1.6Z" transform="translate(-342.429 -294.728)" fill="#fe5757"/>
      <path id="Path_8056" data-name="Path 8056" d="M727.892,673.729v.581c0,1.667-.511,2.709-1.646,3.244v.045c1.366.533,1.9,1.737,1.9,3.463v1.332c0,2.5-1.332,3.849-3.87,3.849h-4V670h3.849C726.755,670,727.892,671.223,727.892,673.729Zm-5.077-1.414V676.6h1c.951,0,1.532-.418,1.532-1.715V674c0-1.159-.394-1.67-1.3-1.67Zm0,6.606V683.9h1.46c.858,0,1.332-.394,1.332-1.6v-1.414c0-1.5-.485-1.968-1.643-1.968Z" transform="translate(-369.332 -295.248)" fill="#fe5757"/>
      <path id="Path_8057" data-name="Path 8057" d="M759.536,676.832h3.5v2.317h-3.5V683.9h4.4v2.317H757V670h6.952v2.317h-4.416Z" transform="translate(-396.272 -295.248)" fill="#fe5757"/>
    </g>
    <g id="GAG_Logo-01-2" data-name="GAG Logo-01" transform="translate(141.265 922.438)">
      <path id="Path_8042-2" data-name="Path 8042" d="M227.922,676.671h3.569v5.146c0,2.594-1.3,4.078-3.8,4.078s-3.79-1.5-3.79-4.091v-8.435c0-2.6,1.3-4.078,3.8-4.078s3.8,1.481,3.8,4.078v1.577h-2.41v-1.737c0-1.159-.509-1.6-1.332-1.6s-1.332.44-1.332,1.6v8.76c0,1.159.511,1.574,1.332,1.574s1.332-.416,1.332-1.574v-2.994h-1.169Z" transform="translate(-5.165 -294.728)" fill="#39b6ff"/>
      <path id="Path_8043-2" data-name="Path 8043" d="M262.552,676.832h3.5v2.317h-3.5V683.9h4.4v2.317H260V670h6.952v2.317h-4.4Z" transform="translate(-31.649 -295.248)" fill="#39b6ff"/>
      <path id="Path_8044-2" data-name="Path 8044" d="M295.979,676.832h3.5v2.317h-3.5V683.9h4.4v2.317H293.43V670h6.952v2.317h-4.4Z" transform="translate(-56.175 -295.248)" fill="#39b6ff"/>
      <path id="Path_8045-2" data-name="Path 8045" d="M330.128,679.751l-.8,1.484v4.984H326.78V670h2.549v7.021h.045L332.68,670h2.549l-3.548,7.232,3.548,8.992h-2.621Z" transform="translate(-80.642 -295.248)" fill="#39b6ff"/>
      <path id="Path_8046-2" data-name="Path 8046" d="M366.182,669.29c2.48,0,3.753,1.481,3.753,4.078v.509h-2.4v-.669c0-1.159-.463-1.6-1.273-1.6s-1.276.44-1.276,1.6.511,2.062,2.179,3.521c2.131,1.865,2.8,3.223,2.8,5.077,0,2.594-1.3,4.078-3.8,4.078s-3.8-1.484-3.8-4.078v-1h2.41v1.159c0,1.159.509,1.574,1.332,1.574s1.332-.416,1.332-1.574-.511-2.064-2.179-3.524c-2.131-1.865-2.8-3.22-2.8-5.061C362.426,670.771,363.7,669.29,366.182,669.29Z" transform="translate(-106.753 -294.728)" fill="#39b6ff"/>
      <path id="Path_8047-2" data-name="Path 8047" d="M404.13,686.218h-2.57l-.442-2.93h-3.127l-.442,2.93H395.21L397.818,670h3.729Zm-5.817-5.146h2.458l-1.207-8.2h-.045Z" transform="translate(-130.846 -295.248)" fill="#fff"/>
      <path id="Path_8048-2" data-name="Path 8048" d="M439.86,686.218a5.015,5.015,0,0,1-.232-1.995v-2.549c0-1.5-.509-2.062-1.667-2.062h-.882v6.606H434.53V670h3.854c2.642,0,3.777,1.228,3.777,3.729V675c0,1.667-.533,2.733-1.667,3.266v.048c1.276.533,1.691,1.737,1.691,3.428v2.5a4.746,4.746,0,0,0,.28,1.971Zm-2.781-13.906V677.3h1c.951,0,1.529-.418,1.529-1.715v-1.6c0-1.159-.394-1.67-1.3-1.67Z" transform="translate(-159.693 -295.248)" fill="#fff"/>
      <path id="Path_8049-2" data-name="Path 8049" d="M470.11,673.368c0-2.6,1.369-4.078,3.87-4.078s3.87,1.481,3.87,4.078V681.8c0,2.594-1.366,4.078-3.87,4.078s-3.87-1.484-3.87-4.078Zm2.549,8.6c0,1.159.511,1.6,1.332,1.6s1.332-.44,1.332-1.6v-8.758c0-1.159-.509-1.6-1.332-1.6s-1.332.44-1.332,1.6Z" transform="translate(-185.796 -294.728)" fill="#fff"/>
      <path id="Path_8050-2" data-name="Path 8050" d="M508.908,670v12.519c0,1.161.511,1.577,1.332,1.577s1.332-.415,1.332-1.577V670h2.41v12.353c0,2.594-1.3,4.078-3.8,4.078s-3.8-1.484-3.8-4.078V670Z" transform="translate(-212.405 -295.248)" fill="#fff"/>
      <path id="Path_8051-2" data-name="Path 8051" d="M545.011,674.467h-.048v11.752H542.67V670h3.2l2.57,9.711h.048V670h2.264v16.224h-2.61Z" transform="translate(-239.029 -295.248)" fill="#fff"/>
      <path id="Path_8052-2" data-name="Path 8052" d="M581.3,670h4.03c2.552,0,3.8,1.414,3.8,4v8.2c0,2.6-1.249,4.011-3.8,4.011H581.3Zm2.549,2.317v11.589h1.436c.8,0,1.3-.418,1.3-1.577v-8.441c0-1.159-.485-1.577-1.3-1.577Z" transform="translate(-267.37 -295.248)" fill="#fff"/>
      <path id="Path_8053-2" data-name="Path 8053" d="M621.433,676.671H625v5.146c0,2.594-1.3,4.078-3.8,4.078s-3.8-1.5-3.8-4.091v-8.435c0-2.6,1.3-4.078,3.8-4.078s3.8,1.481,3.8,4.078v1.577h-2.411v-1.737c0-1.159-.509-1.6-1.332-1.6s-1.332.44-1.332,1.6v8.76c0,1.159.511,1.574,1.332,1.574s1.332-.416,1.332-1.574v-2.994h-1.159Z" transform="translate(-293.855 -294.728)" fill="#fe5757"/>
      <path id="Path_8054-2" data-name="Path 8054" d="M653.51,670h2.549v13.906h4.192v2.317H653.51Z" transform="translate(-320.346 -295.248)" fill="#fe5757"/>
      <path id="Path_8055-2" data-name="Path 8055" d="M683.61,673.368c0-2.6,1.366-4.078,3.87-4.078s3.87,1.481,3.87,4.078V681.8c0,2.594-1.369,4.078-3.87,4.078s-3.87-1.484-3.87-4.078Zm2.549,8.6c0,1.159.509,1.6,1.332,1.6s1.332-.44,1.332-1.6v-8.758c0-1.159-.511-1.6-1.332-1.6s-1.332.44-1.332,1.6Z" transform="translate(-342.429 -294.728)" fill="#fe5757"/>
      <path id="Path_8056-2" data-name="Path 8056" d="M727.892,673.729v.581c0,1.667-.511,2.709-1.646,3.244v.045c1.366.533,1.9,1.737,1.9,3.463v1.332c0,2.5-1.332,3.849-3.87,3.849h-4V670h3.849C726.755,670,727.892,671.223,727.892,673.729Zm-5.077-1.414V676.6h1c.951,0,1.532-.418,1.532-1.715V674c0-1.159-.394-1.67-1.3-1.67Zm0,6.606V683.9h1.46c.858,0,1.332-.394,1.332-1.6v-1.414c0-1.5-.485-1.968-1.643-1.968Z" transform="translate(-369.332 -295.248)" fill="#fe5757"/>
      <path id="Path_8057-2" data-name="Path 8057" d="M759.536,676.832h3.5v2.317h-3.5V683.9h4.4v2.317H757V670h6.952v2.317h-4.416Z" transform="translate(-396.272 -295.248)" fill="#fe5757"/>
    </g>
  </g>
</svg>
