<svg xmlns="http://www.w3.org/2000/svg" width="195.752" height="55.936" viewBox="0 0 195.752 55.936">
  <g id="Group_1620" data-name="Group 1620" transform="translate(-213 -790)">
    <g id="Group_1609" data-name="Group 1609" transform="translate(213 790.5)">
      <g id="Group_1083" data-name="Group 1083" transform="translate(0 -0.5)">
        <rect id="Rectangle_144" data-name="Rectangle 144" width="55.936" height="55.936" rx="11" fill="#fff"/>
        <g id="Group_1082" data-name="Group 1082" transform="translate(7.459 7.506)">
          <g id="Group_1080" data-name="Group 1080" transform="translate(0 0)">
            <g id="Copy">
              <g id="Coins_Logo" data-name="Coins Logo">
                <g id="Group_455" data-name="Group 455">
                  <circle id="Shape_1" data-name="Shape 1" cx="21" cy="21" r="21" fill="#ffb30d"/>
                  <path id="Rounded_Rectangle_1" data-name="Rounded Rectangle 1" d="M3657.326,346.749a10.773,10.773,0,0,1-3.414,7.881l3.84,3.839a16.23,16.23,0,0,0,.013-23.425l-3.838,3.838A10.773,10.773,0,0,1,3657.326,346.749Z" transform="translate(-3625.014 -325.829)" fill="#ffd272"/>
                  <path id="Rounded_Rectangle_1_copy" data-name="Rounded Rectangle 1 copy" d="M3294.233,285.724a10.8,10.8,0,1,1,.015-15.748l3.838-3.838a16.23,16.23,0,1,0-.014,23.425Z" transform="translate(-3265.335 -256.923)" fill="#fff"/>
                </g>
              </g>
            </g>
          </g>
        </g>
      </g>
    </g>
    <path id="_-e-COINS" data-name="-e-COINS" d="M92.53,19.7l3.211-3.743q3.9,3.25,7.216,3.251a3.933,3.933,0,0,0,2.331-.608,1.92,1.92,0,0,0,.846-1.642,1.889,1.889,0,0,0-.9-1.642,12.116,12.116,0,0,0-3.556-1.232,15.879,15.879,0,0,1-6.163-2.479,5.708,5.708,0,0,1-1.951-4.793,5.834,5.834,0,0,1,2.469-5.04A10.289,10.289,0,0,1,102.2,0a15.523,15.523,0,0,1,4.833.788,13.163,13.163,0,0,1,4.213,2.233l-2.728,3.743A10.97,10.97,0,0,0,102.025,4.5a3.358,3.358,0,0,0-2.123.608,1.939,1.939,0,0,0-.777,1.608,1.8,1.8,0,0,0,.949,1.593,17.99,17.99,0,0,0,4.385,1.4,12.627,12.627,0,0,1,5.334,2.413,5.809,5.809,0,0,1,1.9,4.694,6.081,6.081,0,0,1-2.434,5.007,10.045,10.045,0,0,1-6.405,1.92A15.228,15.228,0,0,1,92.53,19.7Zm-88.922.69A11.041,11.041,0,0,1,0,11.935a11.147,11.147,0,0,1,3.678-8.52A12.729,12.729,0,0,1,12.671,0a13.038,13.038,0,0,1,9.944,4.3L19.266,7.913a7.994,7.994,0,0,0-6.353-3.021,7.622,7.622,0,0,0-5.2,1.888A6.42,6.42,0,0,0,5.56,11.87,6.758,6.758,0,0,0,7.6,17.007a6.9,6.9,0,0,0,4.937,1.937,8.1,8.1,0,0,0,6.491-2.988l3.453,3.381a12.836,12.836,0,0,1-9.685,4.4A12.969,12.969,0,0,1,3.608,20.389Zm24.876-.082a11.065,11.065,0,0,1-3.659-8.455A11.065,11.065,0,0,1,28.484,3.4,12.746,12.746,0,0,1,37.5,0a12.747,12.747,0,0,1,9.011,3.4,11.065,11.065,0,0,1,3.66,8.454,11.066,11.066,0,0,1-3.66,8.455A12.752,12.752,0,0,1,37.5,23.7,12.751,12.751,0,0,1,28.484,20.307ZM32.421,6.633a7.3,7.3,0,0,0-2.072,5.237,7.244,7.244,0,0,0,2.072,5.22,7.105,7.105,0,0,0,10.185,0,7.245,7.245,0,0,0,2.072-5.22,7.3,7.3,0,0,0-2.072-5.237,7.067,7.067,0,0,0-10.185,0ZM82.933,23.475,71.435,9.095V23.475H66.048V.526h5.041L82.933,15.3V.526h5.386v22.95Zm-28.206,0V.524h5.387v22.95Z" transform="translate(286.354 796)"/>
    <g id="Group_1618" data-name="Group 1618" transform="translate(286.56 819.753)">
      <path id="Path_1207" data-name="Path 1207" d="M7.2-3.6a4.577,4.577,0,0,1-.27,1.654A3.152,3.152,0,0,1,6.176-.783,3.026,3.026,0,0,1,5.038-.1,4.43,4.43,0,0,1,3.609.123,8.3,8.3,0,0,1,2.2.01,9.156,9.156,0,0,1,.95-.294V-9.659H2.618v2.27L2.55-6.022A3.064,3.064,0,0,1,3.428-6.8,2.349,2.349,0,0,1,4.635-7.1a2.358,2.358,0,0,1,1.094.246,2.232,2.232,0,0,1,.8.7,3.349,3.349,0,0,1,.5,1.1A5.686,5.686,0,0,1,7.2-3.6Zm-1.75.068A4.988,4.988,0,0,0,5.366-4.5a2.141,2.141,0,0,0-.236-.663.985.985,0,0,0-.376-.379,1.057,1.057,0,0,0-.509-.12,1.211,1.211,0,0,0-.81.342,5.906,5.906,0,0,0-.817.93V-1.36a2.578,2.578,0,0,0,.489.123,3.632,3.632,0,0,0,.591.048,1.576,1.576,0,0,0,.721-.164,1.593,1.593,0,0,0,.554-.465,2.182,2.182,0,0,0,.352-.735A3.571,3.571,0,0,0,5.448-3.527ZM12.824-.759A12.433,12.433,0,0,1,12.069.824,5.122,5.122,0,0,1,11.2,1.958a3.207,3.207,0,0,1-1.049.684,3.489,3.489,0,0,1-1.3.229q-.171,0-.373-.017T8.073,2.8V1.388l.188.031q.106.017.222.027t.236.017q.12.007.222.007a1.3,1.3,0,0,0,.533-.109,1.638,1.638,0,0,0,.455-.3,2.355,2.355,0,0,0,.379-.465,3.686,3.686,0,0,0,.3-.591L7.854-6.945H9.714l1.442,3.938.431,1.271.424-1.217,1.456-3.992h1.791Zm32.231.492a5.217,5.217,0,0,1-1.019.294,6.144,6.144,0,0,1-1.1.1A4.548,4.548,0,0,1,41.453-.1a2.953,2.953,0,0,1-1.114-.67,2.916,2.916,0,0,1-.7-1.1A4.363,4.363,0,0,1,39.4-3.391,4.138,4.138,0,0,1,39.659-4.9,3.3,3.3,0,0,1,40.4-6.057a3.27,3.27,0,0,1,1.152-.738,4.139,4.139,0,0,1,1.5-.26,7.58,7.58,0,0,1,1.138.072,6.4,6.4,0,0,1,.831.181v1.62A4.183,4.183,0,0,0,44.1-5.51a4.122,4.122,0,0,0-.94-.116,2.109,2.109,0,0,0-.834.157,1.747,1.747,0,0,0-.622.438,1.894,1.894,0,0,0-.386.68,2.764,2.764,0,0,0-.133.878,2.618,2.618,0,0,0,.144.9,1.9,1.9,0,0,0,.407.673,1.757,1.757,0,0,0,.632.424,2.2,2.2,0,0,0,.82.147,3.675,3.675,0,0,0,.461-.031,4.529,4.529,0,0,0,.485-.089q.243-.058.479-.133a4.7,4.7,0,0,0,.441-.164Zm8.333-3.261a4.616,4.616,0,0,1-.232,1.5,3.32,3.32,0,0,1-.67,1.166,2.968,2.968,0,0,1-1.073.752,3.718,3.718,0,0,1-1.449.267,3.953,3.953,0,0,1-1.381-.226,2.682,2.682,0,0,1-1.032-.673A2.981,2.981,0,0,1,46.9-1.863a4.942,4.942,0,0,1-.226-1.569,4.547,4.547,0,0,1,.236-1.5,3.267,3.267,0,0,1,.677-1.155,3,3,0,0,1,1.077-.742A3.723,3.723,0,0,1,50.1-7.1a3.921,3.921,0,0,1,1.388.229,2.7,2.7,0,0,1,1.032.68,2.983,2.983,0,0,1,.646,1.118A4.874,4.874,0,0,1,53.389-3.527Zm-1.736.041a2.693,2.693,0,0,0-.407-1.624,1.4,1.4,0,0,0-1.2-.543,1.513,1.513,0,0,0-.745.171,1.443,1.443,0,0,0-.506.468,2.1,2.1,0,0,0-.291.694,3.732,3.732,0,0,0-.092.848,2.594,2.594,0,0,0,.438,1.637,1.446,1.446,0,0,0,1.2.55,1.493,1.493,0,0,0,.725-.167,1.356,1.356,0,0,0,.5-.465,2.239,2.239,0,0,0,.287-.7A3.754,3.754,0,0,0,51.652-3.486Zm7.267-5.359a1.1,1.1,0,0,1-.082.424,1.051,1.051,0,0,1-.229.345,1.1,1.1,0,0,1-.345.232,1.076,1.076,0,0,1-.431.085,1.1,1.1,0,0,1-.434-.085,1.087,1.087,0,0,1-.349-.232,1.051,1.051,0,0,1-.229-.345,1.1,1.1,0,0,1-.082-.424,1.1,1.1,0,0,1,.082-.424,1.09,1.09,0,0,1,.229-.349,1.06,1.06,0,0,1,.349-.236,1.1,1.1,0,0,1,.434-.085,1.076,1.076,0,0,1,.431.085,1.069,1.069,0,0,1,.345.236,1.09,1.09,0,0,1,.229.349A1.1,1.1,0,0,1,58.919-8.846Zm-1.846,3.2H55.111v-1.3h3.671V-1.3h2V0H54.872V-1.3h2.2ZM66.671,0V-4.525q0-1.142-.848-1.142a1.211,1.211,0,0,0-.81.342,5.906,5.906,0,0,0-.817.93V0H62.528V-6.945h1.442l.041,1.025a4.8,4.8,0,0,1,.441-.485,2.589,2.589,0,0,1,.5-.373,2.36,2.36,0,0,1,.574-.236,2.681,2.681,0,0,1,.69-.082,2.294,2.294,0,0,1,.93.174,1.793,1.793,0,0,1,.663.492,2.113,2.113,0,0,1,.4.766,3.5,3.5,0,0,1,.133,1V0Zm9.8-3.6a4.576,4.576,0,0,1-.27,1.654,3.152,3.152,0,0,1-.752,1.159A3.026,3.026,0,0,1,74.313-.1a4.43,4.43,0,0,1-1.429.222,3.978,3.978,0,0,1-.52-.034A3.966,3.966,0,0,1,71.894,0V2.714H70.226V-6.945h1.442l.041,1.025a4.8,4.8,0,0,1,.441-.485,2.589,2.589,0,0,1,.5-.373,2.36,2.36,0,0,1,.574-.236,2.681,2.681,0,0,1,.69-.082A2.358,2.358,0,0,1,75-6.85a2.232,2.232,0,0,1,.8.7,3.349,3.349,0,0,1,.5,1.1A5.686,5.686,0,0,1,76.474-3.6Zm-1.75.068a4.988,4.988,0,0,0-.082-.978,2.141,2.141,0,0,0-.236-.663.985.985,0,0,0-.376-.379,1.057,1.057,0,0,0-.509-.12,1.211,1.211,0,0,0-.81.342,5.906,5.906,0,0,0-.817.93V-1.36a2.578,2.578,0,0,0,.489.123,3.632,3.632,0,0,0,.591.048,1.576,1.576,0,0,0,.721-.164,1.593,1.593,0,0,0,.554-.465,2.182,2.182,0,0,0,.352-.735A3.571,3.571,0,0,0,74.724-3.527ZM82.277,0l-.041-.909a4.734,4.734,0,0,1-.458.427,2.846,2.846,0,0,1-.526.338,2.82,2.82,0,0,1-.625.222,3.278,3.278,0,0,1-.742.079A2.569,2.569,0,0,1,78.948,0a1.888,1.888,0,0,1-.677-.437,1.825,1.825,0,0,1-.414-.677,2.61,2.61,0,0,1-.14-.875,2,2,0,0,1,.208-.909,1.937,1.937,0,0,1,.636-.718,3.338,3.338,0,0,1,1.066-.472,5.848,5.848,0,0,1,1.5-.171h.909v-.417a1.455,1.455,0,0,0-.075-.482.868.868,0,0,0-.243-.366,1.142,1.142,0,0,0-.434-.232,2.259,2.259,0,0,0-.656-.082,5.3,5.3,0,0,0-1.213.14,6.311,6.311,0,0,0-1.159.393V-6.638a6.642,6.642,0,0,1,1.152-.328,6.94,6.94,0,0,1,1.357-.13,5.223,5.223,0,0,1,1.326.147,2.386,2.386,0,0,1,.913.441,1.751,1.751,0,0,1,.53.735,2.838,2.838,0,0,1,.171,1.029V0Zm-.239-3.069H81.02a2.7,2.7,0,0,0-.718.082,1.374,1.374,0,0,0-.479.226.884.884,0,0,0-.27.332.955.955,0,0,0-.085.4.784.784,0,0,0,.273.646,1.148,1.148,0,0,0,.745.222,1.3,1.3,0,0,0,.725-.253,5.229,5.229,0,0,0,.827-.725Zm9.83-.526a4.576,4.576,0,0,1-.27,1.654,3.152,3.152,0,0,1-.752,1.159A3.026,3.026,0,0,1,89.708-.1a4.43,4.43,0,0,1-1.429.222,3.978,3.978,0,0,1-.52-.034A3.966,3.966,0,0,1,87.288,0V2.714H85.62V-6.945h1.442L87.1-5.92a4.8,4.8,0,0,1,.441-.485,2.589,2.589,0,0,1,.5-.373,2.36,2.36,0,0,1,.574-.236A2.681,2.681,0,0,1,89.3-7.1,2.358,2.358,0,0,1,90.4-6.85a2.232,2.232,0,0,1,.8.7,3.349,3.349,0,0,1,.5,1.1A5.686,5.686,0,0,1,91.868-3.6Zm-1.75.068a4.988,4.988,0,0,0-.082-.978,2.141,2.141,0,0,0-.236-.663.985.985,0,0,0-.376-.379,1.057,1.057,0,0,0-.509-.12,1.211,1.211,0,0,0-.81.342,5.906,5.906,0,0,0-.817.93V-1.36a2.578,2.578,0,0,0,.489.123,3.632,3.632,0,0,0,.591.048,1.576,1.576,0,0,0,.721-.164,1.593,1.593,0,0,0,.554-.465A2.182,2.182,0,0,0,90-2.553,3.571,3.571,0,0,0,90.118-3.527Zm7.67-.718a3.075,3.075,0,0,0-.038-.663,1.278,1.278,0,0,0-.164-.451.7.7,0,0,0-.277-.26.83.83,0,0,0-.376-.082,1.257,1.257,0,0,0-.762.3,4.383,4.383,0,0,0-.865,1V0H93.6V-6.945h1.511l.062,1.012a2.751,2.751,0,0,1,.386-.479,2.42,2.42,0,0,1,.479-.366,2.259,2.259,0,0,1,.584-.236,2.843,2.843,0,0,1,.7-.082,2.273,2.273,0,0,1,.933.181,1.765,1.765,0,0,1,.684.537,2.358,2.358,0,0,1,.41.892,4.614,4.614,0,0,1,.113,1.241Zm7.314-4.6a1.1,1.1,0,0,1-.082.424,1.051,1.051,0,0,1-.229.345,1.1,1.1,0,0,1-.345.232,1.076,1.076,0,0,1-.431.085,1.1,1.1,0,0,1-.434-.085,1.087,1.087,0,0,1-.349-.232A1.051,1.051,0,0,1,103-8.422a1.1,1.1,0,0,1-.082-.424A1.1,1.1,0,0,1,103-9.27a1.09,1.09,0,0,1,.229-.349,1.06,1.06,0,0,1,.349-.236,1.1,1.1,0,0,1,.434-.085,1.076,1.076,0,0,1,.431.085,1.069,1.069,0,0,1,.345.236,1.09,1.09,0,0,1,.229.349A1.1,1.1,0,0,1,105.1-8.846Zm-1.846,3.2h-1.962v-1.3h3.671V-1.3h2V0h-5.913V-1.3h2.2ZM113.012,0l-2.563-3.473V0H108.78V-9.659h1.668v5.653l2.427-2.939h2.085L112.144-3.78,115.192,0Zm7.752,0-.041-.909a4.734,4.734,0,0,1-.458.427,2.846,2.846,0,0,1-.526.338,2.82,2.82,0,0,1-.625.222,3.278,3.278,0,0,1-.742.079A2.569,2.569,0,0,1,117.435,0a1.888,1.888,0,0,1-.677-.437,1.825,1.825,0,0,1-.414-.677,2.61,2.61,0,0,1-.14-.875,2,2,0,0,1,.208-.909,1.937,1.937,0,0,1,.636-.718,3.338,3.338,0,0,1,1.066-.472,5.848,5.848,0,0,1,1.5-.171h.909v-.417a1.455,1.455,0,0,0-.075-.482.868.868,0,0,0-.243-.366,1.142,1.142,0,0,0-.434-.232,2.259,2.259,0,0,0-.656-.082,5.3,5.3,0,0,0-1.213.14,6.311,6.311,0,0,0-1.159.393V-6.638a6.642,6.642,0,0,1,1.152-.328,6.94,6.94,0,0,1,1.357-.13,5.223,5.223,0,0,1,1.326.147,2.386,2.386,0,0,1,.913.441,1.751,1.751,0,0,1,.53.735,2.838,2.838,0,0,1,.171,1.029V0Zm-.239-3.069h-1.019a2.7,2.7,0,0,0-.718.082,1.374,1.374,0,0,0-.479.226.884.884,0,0,0-.27.332.955.955,0,0,0-.085.4.784.784,0,0,0,.273.646,1.148,1.148,0,0,0,.745.222,1.3,1.3,0,0,0,.725-.253,5.229,5.229,0,0,0,.827-.725Z" transform="translate(0 17.939)"/>
      <g id="Group_1619" data-name="Group 1619" transform="translate(-5)">
        <path id="Shape_6_copy_22" data-name="Shape 6 copy 22" d="M322.341,1362.664a5.218,5.218,0,0,1,.045,1.9c-.22,3.52-2.367,5.767-5.323,7.191a7.615,7.615,0,0,1-7.763-.691,2.191,2.191,0,0,1-.582-.444.713.713,0,0,1-.264-.44c-.55-1.318.5-1.4,1.145-1.136,1.757.712,2.982-.153,4.248-1.083l.307-.41h0c.689-1.886,1.4-3.765,2.057-5.662a1.546,1.546,0,0,1,1.431-1.162l.09,0c1.788-.827,2.869-.334,4.043.974A2.354,2.354,0,0,1,322.341,1362.664Z" transform="translate(-279.871 -1352.757)" fill="#c32f2a"/>
        <path id="Shape_7_copy_22" data-name="Shape 7 copy 22" d="M385.284,1340.466a.305.305,0,0,1,.031-.52,8.29,8.29,0,0,0,2.045-.75c.561-.385,1.206-.722,1.262-1.612.027-.436-.992-1.329-1.229-.449-.147.545-.366.549-.612.287a.494.494,0,0,1,.03-.664,1.792,1.792,0,0,1,1.376-.541c.562.035,1.234.583,1.083,1.846a9.764,9.764,0,0,0-.158,1.467,3.833,3.833,0,0,0,.5,2.069.214.214,0,0,1-.281.215c-.168-.214-.172-.52-.668-.7a2.377,2.377,0,0,0-1.46.2c-.232-.742-.464-.965-1.214-.843A2.2,2.2,0,0,1,385.284,1340.466Z" transform="translate(-347.696 -1331.481)" fill="#91b949"/>
      </g>
    </g>
  </g>
</svg>
