<svg xmlns="http://www.w3.org/2000/svg" width="344" height="48" viewBox="0 0 344 48">
  <g id="partners_cryptoslate" transform="translate(-176 -1281)">
    <rect id="Rectangle_1053" data-name="Rectangle 1053" width="172" height="48" transform="translate(176 1281)" fill="#151515" opacity="0"/>
    <rect id="Rectangle_1057" data-name="Rectangle 1057" width="172" height="48" transform="translate(348 1281)" fill="#151515" opacity="0"/>
    <g id="Layer_1" transform="translate(188.772 1208.512)" style="isolation: isolate">
      <g id="_2917458856768" data-name=" 2917458856768" transform="translate(7.228 82.488)">
        <path id="Path_331" data-name="Path 331" d="M145.922,115.431H144.17V111.75c1.255,0,4.026-.32,4.026,1.752C148.2,114.782,147.2,115.431,145.922,115.431Zm-3.85,5.947h2.1v-4.372h2.106a13.781,13.781,0,0,0,1.045,2.1,12.642,12.642,0,0,1,1.053,2.274h2.274a20.709,20.709,0,0,0-1.221-2.451,12.6,12.6,0,0,1-1.23-2.452c2.738-.632,3.024-6.292-1.575-6.292h-4.548Z" transform="translate(-102.001 -101.953)" fill="#1b1b1b" fill-rule="evenodd"/>
        <path id="Path_332" data-name="Path 332" d="M272.551,116.056c0-1.752-.042-4.894,2.62-4.894,2.7,0,2.628,3.117,2.628,4.894C277.8,120.781,272.551,120.706,272.551,116.056Zm-2.1-1.044a6.779,6.779,0,0,0,1.07,4.346c1.668,2.578,8.373,3.428,8.373-4.346,0-2.6-1.5-5.425-4.2-5.425-1.567,0-3.058.11-4.1,1.668a6.421,6.421,0,0,0-1.147,3.758Z" transform="translate(-192.231 -101.534)" fill="#1b1b1b" fill-rule="evenodd"/>
        <path id="Path_333" data-name="Path 333" d="M54.34,89.488h7v-7h-7Z" transform="translate(-40.34 -82.488)" fill="#e2e2e2" fill-rule="evenodd"/>
        <path id="Path_334" data-name="Path 334" d="M7.228,89.488h7v-7h-7Z" transform="translate(-7.228 -82.488)" fill="#9c9c9c" fill-rule="evenodd"/>
        <path id="Path_335" data-name="Path 335" d="M7.228,136.6h7v-7h-7Z" transform="translate(-7.228 -115.6)" fill="#c3c3c3" fill-rule="evenodd"/>
        <path id="Path_336" data-name="Path 336" d="M30.784,89.488h7v-7h-7Z" transform="translate(-23.784 -82.488)" fill="#c2c2c2" fill-rule="evenodd"/>
        <path id="Path_337" data-name="Path 337" d="M7.228,113.044h7v-7h-7Z" transform="translate(-7.228 -99.044)" fill="#e2e2e2" fill-rule="evenodd"/>
        <path id="Path_338" data-name="Path 338" d="M7.228,160.156h7v-7h-7Z" transform="translate(-7.228 -132.156)" fill="#e2e2e2" fill-rule="evenodd"/>
        <path id="Path_339" data-name="Path 339" d="M54.34,160.156h7v-7h-7Z" transform="translate(-40.34 -132.156)" fill="#9c9c9c" fill-rule="evenodd"/>
        <path id="Path_340" data-name="Path 340" d="M30.784,160.156h7v-7h-7Z" transform="translate(-23.784 -132.156)" fill="#c3c3c3" fill-rule="evenodd"/>
        <path id="Path_341" data-name="Path 341" d="M210.275,115.466h-1.921v-3.849c1.173,0,4.372-.362,4.372,1.752C212.726,114.936,211.842,115.466,210.275,115.466Zm-4.026,5.779h2.106v-4.2c2.157,0,6.47.523,6.47-3.5,0-4.279-5.492-3.5-8.575-3.5Z" transform="translate(-147.107 -101.82)" fill="#1b1b1b" fill-rule="evenodd"/>
        <path id="Path_342" data-name="Path 342" d="M106.753,115.052c0,2.957,1.154,5.956,4.026,5.956,3.167,0,4.338-.7,5.07-3.85h-2.1c-.269,3.216-4.9,3.251-4.9-1.053,0-1.736-.194-5.07,2.628-5.07,1.744,0,2.039,1.263,2.274,2.274h2.1c-.236-.488-.168-.918-.413-1.508C113.989,108.313,106.753,108.027,106.753,115.052Z" transform="translate(-77.178 -101.405)" fill="#1b1b1b" fill-rule="evenodd"/>
        <path id="Path_343" data-name="Path 343" d="M174.007,117.532v3.85h2.106c0-3.141-.378-3.639.842-5.636l3.007-5.56h-2.274l-2.518,5.037a8.009,8.009,0,0,1-1.306-2.443,26.451,26.451,0,0,0-1.255-2.594h-2.274C170.882,111.221,174.007,116.8,174.007,117.532Z" transform="translate(-121.865 -101.955)" fill="#1b1b1b" fill-rule="evenodd"/>
        <path id="Path_344" data-name="Path 344" d="M238.054,111.749h3.327v9.628h2.1v-9.628h3.5v-1.567h-8.921Z" transform="translate(-169.46 -101.952)" fill="#1b1b1b" fill-rule="evenodd"/>
        <path id="Path_345" data-name="Path 345" d="M307.286,111.966c0,1.98.43,2.788,3.216,3.6,1.466.43,3.428.767,3.428,2.527,0,2.831-5.947,2.957-5.947-.354h-1.053c0,4.473,8.053,4.389,8.053.354,0-4.1-6.647-2.257-6.647-5.779,0-1.76,2.914-2.561,4.633-1.305.832.605.573,1.011.96,1.828h1.053C314.581,108,307.286,109.026,307.286,111.966Z" transform="translate(-217.87 -101.461)" fill="#363636" fill-rule="evenodd"/>
        <path id="Path_346" data-name="Path 346" d="M369.793,111.746h.345c.387,1.651,1.837,4.541,1.93,5.6h-4.2C368.2,115.916,369.725,112.572,369.793,111.746Zm-4.549,9.628h1.221a6.2,6.2,0,0,1,.523-1.752c.691-1.761-.354-1.4,5.079-1.4.775,0,.9,1.744,1.575,3.15H374.7l-4.2-11.195h-1.053c-.185.792-.741,2.03-1.028,2.813Z" transform="translate(-258.854 -101.95)" fill="#363636" fill-rule="evenodd"/>
        <path id="Path_347" data-name="Path 347" d="M430.611,121.378h6.823V120.5h-5.779V116.13H436.9v-.876h-5.248v-4.2h5.779v-.868h-6.823Z" transform="translate(-304.796 -101.953)" fill="#363636" fill-rule="evenodd"/>
        <path id="Path_348" data-name="Path 348" d="M395.263,111.051h3.85v10.327h1.053V111.051h3.85v-.868h-8.752Z" transform="translate(-279.953 -101.953)" fill="#363636" fill-rule="evenodd"/>
        <path id="Path_349" data-name="Path 349" d="M341.093,121.378h6.478V120.5h-5.425V110.183h-1.053Z" transform="translate(-241.88 -101.953)" fill="#363636" fill-rule="evenodd"/>
      </g>
    </g>
    <g id="Layer_1-2" data-name="Layer_1" transform="translate(360.772 1208.512)" style="isolation: isolate">
      <g id="_2917458856768-2" data-name=" 2917458856768" transform="translate(7.228 82.488)">
        <path id="Path_331-2" data-name="Path 331" d="M145.922,115.431H144.17V111.75c1.255,0,4.026-.32,4.026,1.752C148.2,114.782,147.2,115.431,145.922,115.431Zm-3.85,5.947h2.1v-4.372h2.106a13.781,13.781,0,0,0,1.045,2.1,12.642,12.642,0,0,1,1.053,2.274h2.274a20.709,20.709,0,0,0-1.221-2.451,12.6,12.6,0,0,1-1.23-2.452c2.738-.632,3.024-6.292-1.575-6.292h-4.548Z" transform="translate(-102.001 -101.953)" fill="#fff" fill-rule="evenodd"/>
        <path id="Path_332-2" data-name="Path 332" d="M272.551,116.056c0-1.752-.042-4.894,2.62-4.894,2.7,0,2.628,3.117,2.628,4.894C277.8,120.781,272.551,120.706,272.551,116.056Zm-2.1-1.044a6.779,6.779,0,0,0,1.07,4.346c1.668,2.578,8.373,3.428,8.373-4.346,0-2.6-1.5-5.425-4.2-5.425-1.567,0-3.058.11-4.1,1.668a6.421,6.421,0,0,0-1.147,3.758Z" transform="translate(-192.231 -101.534)" fill="#fff" fill-rule="evenodd"/>
        <path id="Path_333-2" data-name="Path 333" d="M54.34,89.488h7v-7h-7Z" transform="translate(-40.34 -82.488)" fill="#e2e2e2" fill-rule="evenodd"/>
        <path id="Path_334-2" data-name="Path 334" d="M7.228,89.488h7v-7h-7Z" transform="translate(-7.228 -82.488)" fill="#9c9c9c" fill-rule="evenodd"/>
        <path id="Path_335-2" data-name="Path 335" d="M7.228,136.6h7v-7h-7Z" transform="translate(-7.228 -115.6)" fill="#c3c3c3" fill-rule="evenodd"/>
        <path id="Path_336-2" data-name="Path 336" d="M30.784,89.488h7v-7h-7Z" transform="translate(-23.784 -82.488)" fill="#c2c2c2" fill-rule="evenodd"/>
        <path id="Path_337-2" data-name="Path 337" d="M7.228,113.044h7v-7h-7Z" transform="translate(-7.228 -99.044)" fill="#e2e2e2" fill-rule="evenodd"/>
        <path id="Path_338-2" data-name="Path 338" d="M7.228,160.156h7v-7h-7Z" transform="translate(-7.228 -132.156)" fill="#e2e2e2" fill-rule="evenodd"/>
        <path id="Path_339-2" data-name="Path 339" d="M54.34,160.156h7v-7h-7Z" transform="translate(-40.34 -132.156)" fill="#9c9c9c" fill-rule="evenodd"/>
        <path id="Path_340-2" data-name="Path 340" d="M30.784,160.156h7v-7h-7Z" transform="translate(-23.784 -132.156)" fill="#c3c3c3" fill-rule="evenodd"/>
        <path id="Path_341-2" data-name="Path 341" d="M210.275,115.466h-1.921v-3.849c1.173,0,4.372-.362,4.372,1.752C212.726,114.936,211.842,115.466,210.275,115.466Zm-4.026,5.779h2.106v-4.2c2.157,0,6.47.523,6.47-3.5,0-4.279-5.492-3.5-8.575-3.5Z" transform="translate(-147.107 -101.82)" fill="#fff" fill-rule="evenodd"/>
        <path id="Path_342-2" data-name="Path 342" d="M106.753,115.052c0,2.957,1.154,5.956,4.026,5.956,3.167,0,4.338-.7,5.07-3.85h-2.1c-.269,3.216-4.9,3.251-4.9-1.053,0-1.736-.194-5.07,2.628-5.07,1.744,0,2.039,1.263,2.274,2.274h2.1c-.236-.488-.168-.918-.413-1.508C113.989,108.313,106.753,108.027,106.753,115.052Z" transform="translate(-77.178 -101.405)" fill="#fff" fill-rule="evenodd"/>
        <path id="Path_343-2" data-name="Path 343" d="M174.007,117.532v3.85h2.106c0-3.141-.378-3.639.842-5.636l3.007-5.56h-2.274l-2.518,5.037a8.009,8.009,0,0,1-1.306-2.443,26.451,26.451,0,0,0-1.255-2.594h-2.274C170.882,111.221,174.007,116.8,174.007,117.532Z" transform="translate(-121.865 -101.955)" fill="#fff" fill-rule="evenodd"/>
        <path id="Path_344-2" data-name="Path 344" d="M238.054,111.749h3.327v9.628h2.1v-9.628h3.5v-1.567h-8.921Z" transform="translate(-169.46 -101.952)" fill="#fff" fill-rule="evenodd"/>
        <path id="Path_345-2" data-name="Path 345" d="M307.286,111.966c0,1.98.43,2.788,3.216,3.6,1.466.43,3.428.767,3.428,2.527,0,2.831-5.947,2.957-5.947-.354h-1.053c0,4.473,8.053,4.389,8.053.354,0-4.1-6.647-2.257-6.647-5.779,0-1.76,2.914-2.561,4.633-1.305.832.605.573,1.011.96,1.828h1.053C314.581,108,307.286,109.026,307.286,111.966Z" transform="translate(-217.87 -101.461)" fill="#fff" fill-rule="evenodd"/>
        <path id="Path_346-2" data-name="Path 346" d="M369.793,111.746h.345c.387,1.651,1.837,4.541,1.93,5.6h-4.2C368.2,115.916,369.725,112.572,369.793,111.746Zm-4.549,9.628h1.221a6.2,6.2,0,0,1,.523-1.752c.691-1.761-.354-1.4,5.079-1.4.775,0,.9,1.744,1.575,3.15H374.7l-4.2-11.195h-1.053c-.185.792-.741,2.03-1.028,2.813Z" transform="translate(-258.854 -101.95)" fill="#fff" fill-rule="evenodd"/>
        <path id="Path_347-2" data-name="Path 347" d="M430.611,121.378h6.823V120.5h-5.779V116.13H436.9v-.876h-5.248v-4.2h5.779v-.868h-6.823Z" transform="translate(-304.796 -101.953)" fill="#fff" fill-rule="evenodd"/>
        <path id="Path_348-2" data-name="Path 348" d="M395.263,111.051h3.85v10.327h1.053V111.051h3.85v-.868h-8.752Z" transform="translate(-279.953 -101.953)" fill="#fff" fill-rule="evenodd"/>
        <path id="Path_349-2" data-name="Path 349" d="M341.093,121.378h6.478V120.5h-5.425V110.183h-1.053Z" transform="translate(-241.88 -101.953)" fill="#fff" fill-rule="evenodd"/>
      </g>
    </g>
  </g>
</svg>
