<svg xmlns="http://www.w3.org/2000/svg" width="344" height="48" viewBox="0 0 344 48">
  <g id="partners_binance" transform="translate(-176 -1473)">
    <rect id="Rectangle_1049" data-name="Rectangle 1049" width="172" height="48" transform="translate(176 1473)" fill="#151515" opacity="0"/>
    <rect id="Rectangle_1058" data-name="Rectangle 1058" width="172" height="48" transform="translate(348 1473)" fill="none" opacity="0.4"/>
    <g id="Binance_logo" transform="translate(192.547 1483)">
      <path id="Path_2894" data-name="Path 2894" d="M27.028,11.766l5.438-5.437,5.441,5.44L41.07,8.6,32.466,0l-8.6,8.6Z" transform="translate(-19.012)" fill="#fdd535"/>
      <rect id="Rectangle_917" data-name="Rectangle 917" width="4.475" height="4.475" transform="translate(2.617 10.836) rotate(45)" fill="#fdd535"/>
      <path id="Path_2895" data-name="Path 2895" d="M27.012,73.4l5.438,5.437,5.44-5.44,3.166,3.162,0,0-8.6,8.6-8.6-8.6,0,0Z" transform="translate(-18.996 -57.164)" fill="#fdd535"/>
      <rect id="Rectangle_918" data-name="Rectangle 918" width="4.475" height="4.475" transform="translate(27.454 14.001) rotate(135)" fill="#fdd535"/>
      <path id="Path_2896" data-name="Path 2896" d="M54.656,51.991h0L51.446,48.78l-2.373,2.373h0l-.272.273-.562.562h0l0,0,0,0L51.446,55.2l3.211-3.211,0,0Z" transform="translate(-37.993 -37.992)" fill="#fdd535"/>
      <path id="Path_2897" data-name="Path 2897" d="M148.37,30.679h6.882a5.25,5.25,0,0,1,3.875,1.315,3.432,3.432,0,0,1,1.016,2.524v.042a3.644,3.644,0,0,1-.158,1.124,3.5,3.5,0,0,1-.422.88,3.353,3.353,0,0,1-.611.689,4.1,4.1,0,0,1-.748.509,5.007,5.007,0,0,1,2.027,1.326,3.394,3.394,0,0,1,.739,2.323v.042a3.854,3.854,0,0,1-.392,1.782,3.462,3.462,0,0,1-1.123,1.273,5.26,5.26,0,0,1-1.758.764,9.469,9.469,0,0,1-2.276.254H148.37Zm6.194,6a3.4,3.4,0,0,0,1.718-.371,1.282,1.282,0,0,0,.636-1.2V35.07a1.307,1.307,0,0,0-.552-1.135,2.725,2.725,0,0,0-1.591-.393h-3.224v3.139Zm.87,5.982a3.138,3.138,0,0,0,1.7-.392,1.344,1.344,0,0,0,.615-1.22v-.042a1.4,1.4,0,0,0-.573-1.177,3.086,3.086,0,0,0-1.846-.435h-3.776v3.267h3.882Z" transform="translate(-115.984 -23.894)" fill="#fdd535"/>
      <path id="Path_2898" data-name="Path 2898" d="M223.875,30.679h3.267V45.527h-3.267Z" transform="translate(-174.791 -23.894)" fill="#fdd535"/>
      <path id="Path_2899" data-name="Path 2899" d="M261.02,30.679h3.012l6.958,9.142V30.679h3.224V45.527h-2.779l-7.191-9.439v9.439H261.02Z" transform="translate(-203.721 -23.894)" fill="#fdd535"/>
      <path id="Path_2900" data-name="Path 2900" d="M342.985,30.2H346l6.364,14.954h-3.415l-1.358-3.33h-6.279l-1.357,3.33h-3.331Zm3.436,8.739-1.973-4.815-1.972,4.815Z" transform="translate(-262.603 -23.521)" fill="#fdd535"/>
      <path id="Path_2901" data-name="Path 2901" d="M423.738,30.679h3.012l6.957,9.142V30.679h3.224V45.527h-2.779l-7.191-9.439v9.439h-3.224Z" transform="translate(-330.454 -23.894)" fill="#fdd535"/>
      <path id="Path_2902" data-name="Path 2902" d="M509.738,44.885a7.691,7.691,0,0,1-3.033-.594A7.321,7.321,0,0,1,502.7,40.24a7.821,7.821,0,0,1-.573-2.991v-.042a7.74,7.74,0,0,1,.573-2.98,7.654,7.654,0,0,1,1.591-2.439,7.372,7.372,0,0,1,2.439-1.655,7.942,7.942,0,0,1,3.14-.6,9.845,9.845,0,0,1,1.9.17,7.949,7.949,0,0,1,1.559.467,6.792,6.792,0,0,1,1.294.721,8.8,8.8,0,0,1,1.1.933l-2.078,2.4a7.874,7.874,0,0,0-1.771-1.23,4.514,4.514,0,0,0-2.026-.445,4.112,4.112,0,0,0-3.1,1.357,4.659,4.659,0,0,0-.891,1.474,5.016,5.016,0,0,0-.318,1.792v.042a5.1,5.1,0,0,0,.318,1.8,4.716,4.716,0,0,0,.881,1.485,4.079,4.079,0,0,0,3.107,1.379A4.547,4.547,0,0,0,512,41.406a8.33,8.33,0,0,0,1.75-1.273l2.079,2.1a10.8,10.8,0,0,1-1.188,1.1,7.059,7.059,0,0,1-1.347.838,6.981,6.981,0,0,1-1.6.53A9.662,9.662,0,0,1,509.738,44.885Z" transform="translate(-391.504 -22.998)" fill="#fdd535"/>
      <path id="Path_2903" data-name="Path 2903" d="M581.467,30.679h11.179v2.906h-7.954V36.6h7V39.5h-7v3.118h8.061v2.906H581.467Z" transform="translate(-453.302 -23.894)" fill="#fdd535"/>
    </g>
    <g id="Binance_logo-2" data-name="Binance_logo" transform="translate(364.547 1483)">
      <path id="Path_2894-2" data-name="Path 2894" d="M27.028,11.766l5.438-5.437,5.441,5.44L41.07,8.6,32.466,0l-8.6,8.6Z" transform="translate(-19.012)" fill="#fff"/>
      <rect id="Rectangle_917-2" data-name="Rectangle 917" width="4.475" height="4.475" transform="translate(2.617 10.836) rotate(45)" fill="#fff"/>
      <path id="Path_2895-2" data-name="Path 2895" d="M27.012,73.4l5.438,5.437,5.44-5.44,3.166,3.162,0,0-8.6,8.6-8.6-8.6,0,0Z" transform="translate(-18.996 -57.164)" fill="#fff"/>
      <rect id="Rectangle_918-2" data-name="Rectangle 918" width="4.475" height="4.475" transform="translate(27.454 14.001) rotate(135)" fill="#fff"/>
      <path id="Path_2896-2" data-name="Path 2896" d="M54.656,51.991h0L51.446,48.78l-2.373,2.373h0l-.272.273-.562.562h0l0,0,0,0L51.446,55.2l3.211-3.211,0,0Z" transform="translate(-37.993 -37.992)" fill="#fff"/>
      <path id="Path_2897-2" data-name="Path 2897" d="M148.37,30.679h6.882a5.25,5.25,0,0,1,3.875,1.315,3.432,3.432,0,0,1,1.016,2.524v.042a3.644,3.644,0,0,1-.158,1.124,3.5,3.5,0,0,1-.422.88,3.353,3.353,0,0,1-.611.689,4.1,4.1,0,0,1-.748.509,5.007,5.007,0,0,1,2.027,1.326,3.394,3.394,0,0,1,.739,2.323v.042a3.854,3.854,0,0,1-.392,1.782,3.462,3.462,0,0,1-1.123,1.273,5.26,5.26,0,0,1-1.758.764,9.469,9.469,0,0,1-2.276.254H148.37Zm6.194,6a3.4,3.4,0,0,0,1.718-.371,1.282,1.282,0,0,0,.636-1.2V35.07a1.307,1.307,0,0,0-.552-1.135,2.725,2.725,0,0,0-1.591-.393h-3.224v3.139Zm.87,5.982a3.138,3.138,0,0,0,1.7-.392,1.344,1.344,0,0,0,.615-1.22v-.042a1.4,1.4,0,0,0-.573-1.177,3.086,3.086,0,0,0-1.846-.435h-3.776v3.267h3.882Z" transform="translate(-115.984 -23.894)" fill="#fff"/>
      <path id="Path_2898-2" data-name="Path 2898" d="M223.875,30.679h3.267V45.527h-3.267Z" transform="translate(-174.791 -23.894)" fill="#fff"/>
      <path id="Path_2899-2" data-name="Path 2899" d="M261.02,30.679h3.012l6.958,9.142V30.679h3.224V45.527h-2.779l-7.191-9.439v9.439H261.02Z" transform="translate(-203.721 -23.894)" fill="#fff"/>
      <path id="Path_2900-2" data-name="Path 2900" d="M342.985,30.2H346l6.364,14.954h-3.415l-1.358-3.33h-6.279l-1.357,3.33h-3.331Zm3.436,8.739-1.973-4.815-1.972,4.815Z" transform="translate(-262.603 -23.521)" fill="#fff"/>
      <path id="Path_2901-2" data-name="Path 2901" d="M423.738,30.679h3.012l6.957,9.142V30.679h3.224V45.527h-2.779l-7.191-9.439v9.439h-3.224Z" transform="translate(-330.454 -23.894)" fill="#fff"/>
      <path id="Path_2902-2" data-name="Path 2902" d="M509.738,44.885a7.691,7.691,0,0,1-3.033-.594A7.321,7.321,0,0,1,502.7,40.24a7.821,7.821,0,0,1-.573-2.991v-.042a7.74,7.74,0,0,1,.573-2.98,7.654,7.654,0,0,1,1.591-2.439,7.372,7.372,0,0,1,2.439-1.655,7.942,7.942,0,0,1,3.14-.6,9.845,9.845,0,0,1,1.9.17,7.949,7.949,0,0,1,1.559.467,6.792,6.792,0,0,1,1.294.721,8.8,8.8,0,0,1,1.1.933l-2.078,2.4a7.874,7.874,0,0,0-1.771-1.23,4.514,4.514,0,0,0-2.026-.445,4.112,4.112,0,0,0-3.1,1.357,4.659,4.659,0,0,0-.891,1.474,5.016,5.016,0,0,0-.318,1.792v.042a5.1,5.1,0,0,0,.318,1.8,4.716,4.716,0,0,0,.881,1.485,4.079,4.079,0,0,0,3.107,1.379A4.547,4.547,0,0,0,512,41.406a8.33,8.33,0,0,0,1.75-1.273l2.079,2.1a10.8,10.8,0,0,1-1.188,1.1,7.059,7.059,0,0,1-1.347.838,6.981,6.981,0,0,1-1.6.53A9.662,9.662,0,0,1,509.738,44.885Z" transform="translate(-391.504 -22.998)" fill="#fff"/>
      <path id="Path_2903-2" data-name="Path 2903" d="M581.467,30.679h11.179v2.906h-7.954V36.6h7V39.5h-7v3.118h8.061v2.906H581.467Z" transform="translate(-453.302 -23.894)" fill="#fff"/>
    </g>
  </g>
</svg>
