<svg xmlns="http://www.w3.org/2000/svg" xmlns:xlink="http://www.w3.org/1999/xlink" width="344" height="48" viewBox="0 0 344 48">
  <defs>
    <clipPath id="clip-path">
      <path id="Path_4036" data-name="Path 4036" d="M742.935,6.938a.891.891,0,0,0-.273.651v30.15a.934.934,0,0,0,.922.925h12.527a.935.935,0,0,0,.922-.925V33.662a.934.934,0,0,0-.922-.925h-6.759V12.591h6.759a.934.934,0,0,0,.922-.925V7.589a.934.934,0,0,0-.922-.925H743.575a.885.885,0,0,0-.64.274m26.925,0a.891.891,0,0,0-.273.651v4.077a.934.934,0,0,0,.922.925h6.759V32.737h-6.759a.934.934,0,0,0-.922.925v4.077a.935.935,0,0,0,.922.925h12.527a.934.934,0,0,0,.922-.925V7.589a.934.934,0,0,0-.922-.925H770.5a.884.884,0,0,0-.64.274" transform="translate(-742.662 -6.664)" fill="none"/>
    </clipPath>
    <clipPath id="clip-path-2">
      <path id="Path_4037" data-name="Path 4037" d="M1042.75,338.662H1033.3a.406.406,0,0,0-.4.4v2.243a.406.406,0,0,0,.4.4h2.727v4.308H1033.3a.406.406,0,0,0-.4.4v2.243a.406.406,0,0,0,.4.4h9.448a.407.407,0,0,0,.4-.4v-2.243a.407.407,0,0,0-.4-.4h-2.7v-4.308h2.7a.407.407,0,0,0,.4-.4v-2.243a.407.407,0,0,0-.4-.4h0m12.127,0H1052.1a.407.407,0,0,0-.4.4v4.368l-3.248-4.472a.7.7,0,0,0-.581-.3h-2.414a.407.407,0,0,0-.4.4v9.6a.407.407,0,0,0,.4.4h2.772a.407.407,0,0,0,.4-.4V344.62l3.249,4.13a.724.724,0,0,0,.6.312h2.4a.407.407,0,0,0,.4-.4v-9.6a.407.407,0,0,0-.4-.4h0" transform="translate(-1032.9 -338.662)" fill="none"/>
    </clipPath>
    <clipPath id="clip-path-3">
      <path id="Path_4038" data-name="Path 4038" d="M2144.658,289.053c-1.06,2.467-2.079,4.933-3.14,7.4l-3.1-7.4H2136.8l3.939,9.2c-.58,1.3-1.14,2.644-1.719,3.966h1.48l5.638-13.162Zm-11.978,2.368v-2.368h-1.48v9.314h1.48v-3.828c0-2.368,1.1-4.144,3.7-4.144v-1.658c-1.8.237-2.859.691-3.7,2.684m-11.358,2.289c0,3.434,2.6,5.012,5.2,5.012a8.257,8.257,0,0,0,2.679-.414v-1.441a7.42,7.42,0,0,1-2.679.533,3.68,3.68,0,0,1,0-7.361,7.5,7.5,0,0,1,2.679.533v-1.44a7.853,7.853,0,0,0-2.679-.434c-2.6,0-5.2,1.6-5.2,5.012m45.292,0a3.564,3.564,0,1,1,3.56,3.749,3.483,3.483,0,0,1-3.56-3.749m-1.479,0a5.039,5.039,0,1,0,5.039-5.012,4.794,4.794,0,0,0-5.039,5.012m-16.017,2.9h0v-5.071a3.818,3.818,0,0,1,2.859-1.441c1.379,0,3.119.77,3.119,3.493,0,3.059-2,3.868-3.24,3.868a4.514,4.514,0,0,1-2.739-.848m0-6.453v-1.1h-1.48v13.162h1.48v-4.262a5.044,5.044,0,0,0,2.939.77,4.827,4.827,0,0,0,4.559-5.131c0-3.355-2.22-4.894-4.219-4.894a4.569,4.569,0,0,0-3.28,1.46m11.517-3.493-3,3.434v.2h1.64v5.683c0,1.362.44,2.546,2.1,2.546a5.851,5.851,0,0,0,2.579-.592v-1.3a6.274,6.274,0,0,1-2.28.513c-.64,0-.9-.316-.9-1.362V290.3h3.14v-1.243h-3.14v-2.388Z" transform="translate(-2121.322 -286.665)" fill="none"/>
    </clipPath>
    <clipPath id="clip-path-4">
      <path id="Path_4039" data-name="Path 4039" d="M22.149,207.639a2.837,2.837,0,0,1,3.016,2.753H18.731a3.313,3.313,0,0,1,3.418-2.753m0,0h0m-5.027,3.838h0a4.782,4.782,0,0,0,5.108,5.1,8.875,8.875,0,0,0,3.68-.763V214.33a7.408,7.408,0,0,1-3.559.924,3.414,3.414,0,0,1-3.68-3.737h8.043c0-3.094-1.93-5.144-4.484-5.144a4.782,4.782,0,0,0-5.108,5.1m-8.968,3.255h0v-6.008a4,4,0,0,1,2.875-.964c1.327,0,3.217.964,3.217,3.757,0,3.134-2.292,3.717-3.76,3.717a6.319,6.319,0,0,1-2.333-.5M6.666,201.853v13.663a7.846,7.846,0,0,0,3.881,1.065,4.918,4.918,0,0,0,5.228-5.1c0-2.913-1.85-5.1-4.886-5.1a4.411,4.411,0,0,0-2.735.884V201.33Z" transform="translate(-6.666 -201.33)" fill="none"/>
    </clipPath>
    <clipPath id="clip-path-5">
      <path id="Path_4036-2" data-name="Path 4036" d="M742.935,6.938a.891.891,0,0,0-.273.651v30.15a.934.934,0,0,0,.922.925h12.527a.935.935,0,0,0,.922-.925V33.662a.934.934,0,0,0-.922-.925h-6.759V12.591h6.759a.934.934,0,0,0,.922-.925V7.589a.934.934,0,0,0-.922-.925H743.575a.885.885,0,0,0-.64.274m26.925,0a.891.891,0,0,0-.273.651v4.077a.934.934,0,0,0,.922.925h6.759V32.737h-6.759a.934.934,0,0,0-.922.925v4.077a.935.935,0,0,0,.922.925h12.527a.934.934,0,0,0,.922-.925V7.589a.934.934,0,0,0-.922-.925H770.5a.884.884,0,0,0-.64.274" transform="translate(-742.662 -6.664)" fill="#fff"/>
    </clipPath>
    <clipPath id="clip-path-6">
      <path id="Path_4037-2" data-name="Path 4037" d="M1042.75,338.662H1033.3a.406.406,0,0,0-.4.4v2.243a.406.406,0,0,0,.4.4h2.727v4.308H1033.3a.406.406,0,0,0-.4.4v2.243a.406.406,0,0,0,.4.4h9.448a.407.407,0,0,0,.4-.4v-2.243a.407.407,0,0,0-.4-.4h-2.7v-4.308h2.7a.407.407,0,0,0,.4-.4v-2.243a.407.407,0,0,0-.4-.4h0m12.127,0H1052.1a.407.407,0,0,0-.4.4v4.368l-3.248-4.472a.7.7,0,0,0-.581-.3h-2.414a.407.407,0,0,0-.4.4v9.6a.407.407,0,0,0,.4.4h2.772a.407.407,0,0,0,.4-.4V344.62l3.249,4.13a.724.724,0,0,0,.6.312h2.4a.407.407,0,0,0,.4-.4v-9.6a.407.407,0,0,0-.4-.4h0" transform="translate(-1032.9 -338.662)" fill="#fff"/>
    </clipPath>
    <clipPath id="clip-path-7">
      <path id="Path_4038-2" data-name="Path 4038" d="M2144.658,289.053c-1.06,2.467-2.079,4.933-3.14,7.4l-3.1-7.4H2136.8l3.939,9.2c-.58,1.3-1.14,2.644-1.719,3.966h1.48l5.638-13.162Zm-11.978,2.368v-2.368h-1.48v9.314h1.48v-3.828c0-2.368,1.1-4.144,3.7-4.144v-1.658c-1.8.237-2.859.691-3.7,2.684m-11.358,2.289c0,3.434,2.6,5.012,5.2,5.012a8.257,8.257,0,0,0,2.679-.414v-1.441a7.42,7.42,0,0,1-2.679.533,3.68,3.68,0,0,1,0-7.361,7.5,7.5,0,0,1,2.679.533v-1.44a7.853,7.853,0,0,0-2.679-.434c-2.6,0-5.2,1.6-5.2,5.012m45.292,0a3.564,3.564,0,1,1,3.56,3.749,3.483,3.483,0,0,1-3.56-3.749m-1.479,0a5.039,5.039,0,1,0,5.039-5.012,4.794,4.794,0,0,0-5.039,5.012m-16.017,2.9h0v-5.071a3.818,3.818,0,0,1,2.859-1.441c1.379,0,3.119.77,3.119,3.493,0,3.059-2,3.868-3.24,3.868a4.514,4.514,0,0,1-2.739-.848m0-6.453v-1.1h-1.48v13.162h1.48v-4.262a5.044,5.044,0,0,0,2.939.77,4.827,4.827,0,0,0,4.559-5.131c0-3.355-2.22-4.894-4.219-4.894a4.569,4.569,0,0,0-3.28,1.46m11.517-3.493-3,3.434v.2h1.64v5.683c0,1.362.44,2.546,2.1,2.546a5.851,5.851,0,0,0,2.579-.592v-1.3a6.274,6.274,0,0,1-2.28.513c-.64,0-.9-.316-.9-1.362V290.3h3.14v-1.243h-3.14v-2.388Z" transform="translate(-2121.322 -286.665)" fill="#fff"/>
    </clipPath>
    <clipPath id="clip-path-8">
      <path id="Path_4039-2" data-name="Path 4039" d="M22.149,207.639a2.837,2.837,0,0,1,3.016,2.753H18.731a3.313,3.313,0,0,1,3.418-2.753m0,0h0m-5.027,3.838h0a4.782,4.782,0,0,0,5.108,5.1,8.875,8.875,0,0,0,3.68-.763V214.33a7.408,7.408,0,0,1-3.559.924,3.414,3.414,0,0,1-3.68-3.737h8.043c0-3.094-1.93-5.144-4.484-5.144a4.782,4.782,0,0,0-5.108,5.1m-8.968,3.255h0v-6.008a4,4,0,0,1,2.875-.964c1.327,0,3.217.964,3.217,3.757,0,3.134-2.292,3.717-3.76,3.717a6.319,6.319,0,0,1-2.333-.5M6.666,201.853v13.663a7.846,7.846,0,0,0,3.881,1.065,4.918,4.918,0,0,0,5.228-5.1c0-2.913-1.85-5.1-4.886-5.1a4.411,4.411,0,0,0-2.735.884V201.33Z" transform="translate(-6.666 -201.33)" fill="#fff"/>
    </clipPath>
  </defs>
  <g id="partners_beincrypto" transform="translate(-176 -1281)">
    <rect id="Rectangle_1053" data-name="Rectangle 1053" width="172" height="48" transform="translate(176 1281)" fill="#151515" opacity="0"/>
    <path id="Path_4040" data-name="Path 4040" d="M0,0H172V48H0Z" transform="translate(348 1281)" fill="#151515" opacity="0"/>
    <g id="Group_2093" data-name="Group 2093" transform="translate(194.334 1282.336)">
      <g id="Group_2094" data-name="Group 2094" transform="translate(30.312 6.664)">
        <g id="Group_2093-2" data-name="Group 2093" transform="translate(0 0)" clip-path="url(#clip-path)">
          <rect id="Rectangle_1106" data-name="Rectangle 1106" width="41.724" height="32.428" transform="translate(-0.214 -0.214)"/>
        </g>
      </g>
      <g id="Group_2096" data-name="Group 2096" transform="translate(39.637 17.331)">
        <g id="Group_2095" data-name="Group 2095" clip-path="url(#clip-path-2)">
          <rect id="Rectangle_1107" data-name="Rectangle 1107" width="22.808" height="10.828" transform="translate(-0.214 -0.214)"/>
        </g>
      </g>
      <g id="Group_2098" data-name="Group 2098" transform="translate(74.607 15.66)">
        <g id="Group_2097" data-name="Group 2097" transform="translate(0)" clip-path="url(#clip-path-3)">
          <rect id="Rectangle_1108" data-name="Rectangle 1108" width="54.318" height="15.978" transform="translate(-0.214 -0.214)"/>
        </g>
      </g>
      <g id="Group_2100" data-name="Group 2100" transform="translate(6.666 12.918)">
        <g id="Group_2099" data-name="Group 2099" transform="translate(0 0)" clip-path="url(#clip-path-4)">
          <rect id="Rectangle_1109" data-name="Rectangle 1109" width="20.476" height="15.679" transform="translate(-0.214 -0.214)"/>
        </g>
      </g>
    </g>
    <g id="Group_2101" data-name="Group 2101" transform="translate(366.334 1282.336)">
      <g id="Group_2094-2" data-name="Group 2094" transform="translate(30.312 6.664)">
        <g id="Group_2093-3" data-name="Group 2093" transform="translate(0 0)" clip-path="url(#clip-path-5)">
          <rect id="Rectangle_1106-2" data-name="Rectangle 1106" width="41.724" height="32.428" transform="translate(-0.214 -0.214)" fill="#fff"/>
        </g>
      </g>
      <g id="Group_2096-2" data-name="Group 2096" transform="translate(39.637 17.331)">
        <g id="Group_2095-2" data-name="Group 2095" clip-path="url(#clip-path-6)">
          <rect id="Rectangle_1107-2" data-name="Rectangle 1107" width="22.808" height="10.828" transform="translate(-0.214 -0.214)" fill="#fff"/>
        </g>
      </g>
      <g id="Group_2098-2" data-name="Group 2098" transform="translate(74.607 15.66)">
        <g id="Group_2097-2" data-name="Group 2097" transform="translate(0)" clip-path="url(#clip-path-7)">
          <rect id="Rectangle_1108-2" data-name="Rectangle 1108" width="54.318" height="15.978" transform="translate(-0.214 -0.214)" fill="#fff"/>
        </g>
      </g>
      <g id="Group_2100-2" data-name="Group 2100" transform="translate(6.666 12.918)">
        <g id="Group_2099-2" data-name="Group 2099" transform="translate(0 0)" clip-path="url(#clip-path-8)">
          <rect id="Rectangle_1109-2" data-name="Rectangle 1109" width="20.476" height="15.679" transform="translate(-0.214 -0.214)" fill="#fff"/>
        </g>
      </g>
    </g>
  </g>
</svg>
