<svg xmlns="http://www.w3.org/2000/svg" width="344" height="48" viewBox="0 0 344 48">
  <g id="partners_cointelegraph" transform="translate(-176 -1473)">
    <rect id="Rectangle_1049" data-name="Rectangle 1049" width="172" height="48" transform="translate(176 1473)" fill="#151515" opacity="0"/>
    <rect id="Rectangle_1079" data-name="Rectangle 1079" width="172" height="48" transform="translate(348 1473)" fill="#151515" opacity="0"/>
    <rect id="Rectangle_1058" data-name="Rectangle 1058" width="172" height="48" transform="translate(348 1473)" fill="none" opacity="0.4"/>
    <g id="CT-logo-BlackYellow-tag" transform="translate(152 1454)">
      <g id="Molecules_Logos_CT-Logo-YG-tag" data-name="Molecules/Logos/CT-Logo-YG-tag" transform="translate(42 27)">
        <g id="CT-Logo-YG-tag">
          <g id="Atoms_Icons_logos_CT-GY-icon" data-name="Atoms/Icons/logos/CT-GY-icon">
            <g id="Group">
              <path id="Shape" d="M19.817,23.284l-5.7,2.477v-.248a17.5,17.5,0,0,1-3.468.5C5.293,25.957,1.04,23.153.991,19.817V18.578c1.76,2.559,5.343,4.274,9.661,4.211a14.686,14.686,0,0,0,4.211-.5l.5-1.239a16.352,16.352,0,0,1-4.707.743C5.293,21.809,1.04,19,.991,15.606v-.991c1.76,2.366,5.335,4.081,9.661,3.963a11.984,11.984,0,0,0,5.45-.991l.248-1.239a11.664,11.664,0,0,1-5.7,1.239c-5.358.065-9.612-2.739-9.661-6.193V10.4c1.76,2.42,5.343,4.135,9.661,4.211a15.463,15.463,0,0,0,6.688-1.734l.248-1.486a12.891,12.891,0,0,1-6.936,2.229C5.293,13.5,1.04,10.7.991,7.183c.049-3.344,4.3-6.148,9.661-6.193a11.461,11.461,0,0,1,7.927,2.972l.172.287,1.249,0-.183-.292C18.061,1.576,14.547,0,10.652,0,4.723,0,0,3.268,0,7.183V20.064C.208,23.887,4.823,27,10.652,27,14.5,27,17.961,25.486,19.817,23.284Z" fill="#263238"/>
              <path id="Shape-2" data-name="Shape" d="M49,44l2-8.5L45.25,38l3.5-14.75H42L43.75,16h21.5L63.5,23.25h-7l-1.5,4L62.75,24Zm3.5-10.25-1,5,8.25-12.5-6.75,3,3-7h6.75L64,17H44.5l-1.25,5.25H50l-3.25,14Z" transform="translate(-31.5 -12)" fill="#fabf2c"/>
            </g>
          </g>
          <path id="Shape-3" data-name="Shape" d="M174.778,20.1l.01.031A2.337,2.337,0,0,1,174.06,22a2.968,2.968,0,0,1-2.066.677,2.862,2.862,0,0,1-2.169-.864A3.1,3.1,0,0,1,169,19.583V18.1a3.156,3.156,0,0,1,.8-2.233A2.744,2.744,0,0,1,171.917,15a3.151,3.151,0,0,1,2.133.667,2.3,2.3,0,0,1,.749,1.876l-.01.031h-1.456a1.468,1.468,0,0,0-.346-1.069,1.443,1.443,0,0,0-1.069-.351,1.207,1.207,0,0,0-1.048.541,2.392,2.392,0,0,0-.377,1.4v1.492a2.322,2.322,0,0,0,.4,1.4,1.292,1.292,0,0,0,1.1.543,1.314,1.314,0,0,0,1-.351,1.528,1.528,0,0,0,.331-1.079Zm8.221-.59a3.135,3.135,0,0,1-.866,2.274,3.275,3.275,0,0,1-4.5,0,3.147,3.147,0,0,1-.861-2.271V18.168a3.155,3.155,0,0,1,.859-2.269,2.953,2.953,0,0,1,2.238-.9,3.008,3.008,0,0,1,2.261.9A3.129,3.129,0,0,1,183,18.168Zm-1.492-1.354a2.257,2.257,0,0,0-.436-1.43,1.443,1.443,0,0,0-1.2-.559,1.4,1.4,0,0,0-1.182.559,2.3,2.3,0,0,0-.423,1.43v1.354a2.321,2.321,0,0,0,.426,1.446,1.41,1.41,0,0,0,1.189.559,1.429,1.429,0,0,0,1.2-.559,2.3,2.3,0,0,0,.431-1.446Zm5.376,4.414h-1.5V15.108h1.5Zm8.616,0H194l-3.01-5.035-.031.005v5.03h-1.5V15.108h1.5l3.01,5.03.031-.005V15.108h1.5Zm7.529-6.311H200.9v6.311h-1.5V16.261h-2.1V15.108h5.732Zm6.186,3.03h-2.769v2.133h3.292v1.148h-4.789V15.108h4.778v1.154h-3.281v1.876h2.769Zm4.171,2.133h3.343v1.148h-4.84V15.108h1.5Zm9.7-2.133H220.32v2.133h3.292v1.148h-4.789V15.108H223.6v1.154H220.32v1.876h2.769Zm8.4,2.261a2.837,2.837,0,0,1-1.041.792,4.1,4.1,0,0,1-1.784.336,3.018,3.018,0,0,1-2.215-.851,2.97,2.97,0,0,1-.861-2.21V18.061a3.022,3.022,0,0,1,.836-2.207A2.875,2.875,0,0,1,228.567,15a3.053,3.053,0,0,1,2.1.649,2.13,2.13,0,0,1,.7,1.73l-.01.031h-1.41a1.224,1.224,0,0,0-.344-.925,1.386,1.386,0,0,0-1-.331,1.344,1.344,0,0,0-1.107.531,2.133,2.133,0,0,0-.42,1.366v1.569A2.126,2.126,0,0,0,227.506,21a1.407,1.407,0,0,0,1.154.533,2.654,2.654,0,0,0,.843-.108,1.286,1.286,0,0,0,.479-.272V19.707h-1.436V18.671h2.938Zm3.869-1.964v2.984h-1.5V15.108h2.584a3.1,3.1,0,0,1,2,.582,1.97,1.97,0,0,1,.72,1.623,1.637,1.637,0,0,1-.305.992,2.125,2.125,0,0,1-.889.674,1.606,1.606,0,0,1,.951.651,2.064,2.064,0,0,1,.29,1.128v.549a2.714,2.714,0,0,0,.085.654.9.9,0,0,0,.29.505v.108h-1.543a.829.829,0,0,1-.264-.543,4.774,4.774,0,0,1-.059-.733v-.528a1.186,1.186,0,0,0-.305-.869,1.157,1.157,0,0,0-.864-.31Zm0-1.154h1.061a1.4,1.4,0,0,0,.938-.267.988.988,0,0,0,.308-.79,1.086,1.086,0,0,0-.31-.815,1.253,1.253,0,0,0-.91-.3h-1.087Zm10.185,2.528h-2.42l-.5,1.61h-1.564l2.517-7.465H245.1l2.507,7.465h-1.564Zm-2.051-1.174h1.687l-.825-2.63h-.031Zm7.437.077v2.707h-1.5V15.108h2.856a2.94,2.94,0,0,1,2.025.656,2.385,2.385,0,0,1,0,3.45,2.955,2.955,0,0,1-2.025.651Zm0-1.154h1.359a1.245,1.245,0,0,0,.948-.341,1.213,1.213,0,0,0,.323-.869,1.269,1.269,0,0,0-.32-.89,1.223,1.223,0,0,0-.951-.351h-1.359Zm12.328,3.861h-1.5v-3.1h-3.04v3.1h-1.5V15.108h1.5v3.209h3.04V15.108h1.5Z" transform="translate(-126.75 -11.25)" fill="#263238"/>
          <g id="Tag_The-future-of-money-_-dark-grey" data-name="Tag/The-future-of-money-—-dark-grey" transform="translate(42.363 17.379)">
            <path id="The-future-of-money" d="M3.066,14.637H2.133V9.727H.453v-.8H4.746v.8H3.066Zm6.258,0H8.4V11.98a1.163,1.163,0,0,0-.2-.746.778.778,0,0,0-.639-.246,1.014,1.014,0,0,0-.85.346,1.9,1.9,0,0,0-.271,1.158v2.145H5.523V8.559h.918V10.1a7.2,7.2,0,0,1-.047.793h.059a1.275,1.275,0,0,1,.521-.484,1.681,1.681,0,0,1,.779-.172,1.393,1.393,0,0,1,1.57,1.582Zm3.164.078a2.09,2.09,0,0,1-1.576-.588,2.232,2.232,0,0,1-.568-1.619,2.448,2.448,0,0,1,.527-1.664,1.821,1.821,0,0,1,1.449-.605,1.78,1.78,0,0,1,1.352.52,1.985,1.985,0,0,1,.5,1.43v.5H11.289a1.419,1.419,0,0,0,.34.967,1.184,1.184,0,0,0,.9.338,3.331,3.331,0,0,0,.713-.072,3.737,3.737,0,0,0,.709-.24v.746a2.818,2.818,0,0,1-.68.227A4.168,4.168,0,0,1,12.488,14.715Zm-.168-3.781a.922.922,0,0,0-.7.277,1.322,1.322,0,0,0-.314.809h1.961a1.2,1.2,0,0,0-.258-.811A.882.882,0,0,0,12.32,10.934Zm7.137.078H18.4v3.625H17.48V11.012H16.77v-.43l.711-.281V10.02a1.572,1.572,0,0,1,.359-1.135,1.469,1.469,0,0,1,1.1-.369,2.929,2.929,0,0,1,.953.16l-.242.7A2.116,2.116,0,0,0,19,9.262a.528.528,0,0,0-.455.193.974.974,0,0,0-.143.58v.281h1.055Zm3.781,3.625-.129-.566h-.047a1.3,1.3,0,0,1-.545.473,1.822,1.822,0,0,1-.807.172,1.583,1.583,0,0,1-1.172-.391,1.619,1.619,0,0,1-.387-1.184V10.316h.926V12.98a1.156,1.156,0,0,0,.2.744.775.775,0,0,0,.637.248,1.014,1.014,0,0,0,.85-.346,1.9,1.9,0,0,0,.271-1.158V10.316h.922v4.32Zm3.641-.664a2.232,2.232,0,0,0,.672-.105v.691a1.853,1.853,0,0,1-.393.111,2.7,2.7,0,0,1-.5.045q-1.3,0-1.3-1.375V11.012h-.59v-.406l.633-.336.313-.914h.566v.961h1.23v.7h-1.23v2.313a.649.649,0,0,0,.166.49A.605.605,0,0,0,26.879,13.973Zm4.582.664-.129-.566h-.047a1.3,1.3,0,0,1-.545.473,1.822,1.822,0,0,1-.807.172,1.583,1.583,0,0,1-1.172-.391,1.619,1.619,0,0,1-.387-1.184V10.316H29.3V12.98a1.156,1.156,0,0,0,.2.744.775.775,0,0,0,.637.248,1.014,1.014,0,0,0,.85-.346,1.9,1.9,0,0,0,.271-1.158V10.316h.922v4.32Zm4.223-4.4a2.21,2.21,0,0,1,.457.039l-.09.855a1.735,1.735,0,0,0-.406-.047,1.176,1.176,0,0,0-.893.359,1.3,1.3,0,0,0-.342.934v2.258h-.918v-4.32h.719l.121.762h.047a1.712,1.712,0,0,1,.561-.613A1.332,1.332,0,0,1,35.684,10.238Zm2.984,4.477a2.09,2.09,0,0,1-1.576-.588,2.232,2.232,0,0,1-.568-1.619,2.449,2.449,0,0,1,.527-1.664,1.821,1.821,0,0,1,1.449-.605,1.78,1.78,0,0,1,1.352.52,1.985,1.985,0,0,1,.5,1.43v.5H37.469a1.419,1.419,0,0,0,.34.967,1.184,1.184,0,0,0,.9.338,3.331,3.331,0,0,0,.713-.072,3.736,3.736,0,0,0,.709-.24v.746a2.818,2.818,0,0,1-.68.227A4.168,4.168,0,0,1,38.668,14.715ZM38.5,10.934a.922.922,0,0,0-.7.277,1.322,1.322,0,0,0-.314.809h1.961a1.2,1.2,0,0,0-.258-.811A.882.882,0,0,0,38.5,10.934Zm8.8,1.535a2.358,2.358,0,0,1-.543,1.652,1.945,1.945,0,0,1-1.512.594,2.071,2.071,0,0,1-1.07-.273,1.805,1.805,0,0,1-.715-.785,2.674,2.674,0,0,1-.25-1.187,2.342,2.342,0,0,1,.539-1.641,1.955,1.955,0,0,1,1.52-.59,1.9,1.9,0,0,1,1.484.6A2.331,2.331,0,0,1,47.3,12.469Zm-3.145,0q0,1.5,1.105,1.5t1.094-1.5q0-1.48-1.1-1.48a.939.939,0,0,0-.838.383A1.948,1.948,0,0,0,44.156,12.469Zm6.367-1.457H49.469v3.625h-.922V11.012h-.711v-.43l.711-.281V10.02a1.572,1.572,0,0,1,.359-1.135A1.469,1.469,0,0,1,50,8.516a2.929,2.929,0,0,1,.953.16l-.242.7a2.116,2.116,0,0,0-.648-.109.528.528,0,0,0-.455.193.974.974,0,0,0-.143.58v.281h1.055Zm6.453,3.625h-.922V11.973a1.208,1.208,0,0,0-.187-.74.692.692,0,0,0-.586-.244.894.894,0,0,0-.779.346,2.028,2.028,0,0,0-.248,1.15v2.152h-.918v-4.32h.719l.129.566h.047a1.2,1.2,0,0,1,.521-.477,1.682,1.682,0,0,1,.752-.168,1.314,1.314,0,0,1,1.32.68h.063a1.317,1.317,0,0,1,.539-.5,1.711,1.711,0,0,1,.8-.18,1.451,1.451,0,0,1,1.127.391A1.73,1.73,0,0,1,59.7,11.82v2.816h-.918V11.973a1.2,1.2,0,0,0-.189-.74.7.7,0,0,0-.588-.244.911.911,0,0,0-.783.334,1.722,1.722,0,0,0-.248,1.025Zm7.84-2.168a2.358,2.358,0,0,1-.543,1.652,1.945,1.945,0,0,1-1.512.594,2.071,2.071,0,0,1-1.07-.273,1.805,1.805,0,0,1-.715-.785,2.674,2.674,0,0,1-.25-1.187,2.342,2.342,0,0,1,.539-1.641,1.955,1.955,0,0,1,1.52-.59,1.9,1.9,0,0,1,1.484.6A2.331,2.331,0,0,1,64.816,12.469Zm-3.145,0q0,1.5,1.105,1.5t1.094-1.5q0-1.48-1.1-1.48a.939.939,0,0,0-.838.383A1.948,1.948,0,0,0,61.672,12.469Zm8,2.168H68.75V11.98a1.163,1.163,0,0,0-.2-.746.778.778,0,0,0-.639-.246,1.016,1.016,0,0,0-.852.344,1.9,1.9,0,0,0-.27,1.152v2.152h-.918v-4.32h.719l.129.566h.047a1.278,1.278,0,0,1,.555-.477,1.859,1.859,0,0,1,.8-.168,1.386,1.386,0,0,1,1.555,1.582Zm3.164.078a2.09,2.09,0,0,1-1.576-.588,2.232,2.232,0,0,1-.568-1.619,2.449,2.449,0,0,1,.527-1.664,1.821,1.821,0,0,1,1.449-.605,1.78,1.78,0,0,1,1.352.52,1.985,1.985,0,0,1,.5,1.43v.5H71.637a1.419,1.419,0,0,0,.34.967,1.184,1.184,0,0,0,.9.338,3.331,3.331,0,0,0,.713-.072,3.736,3.736,0,0,0,.709-.24v.746a2.819,2.819,0,0,1-.68.227A4.168,4.168,0,0,1,72.836,14.715Zm-.168-3.781a.922.922,0,0,0-.7.277,1.322,1.322,0,0,0-.314.809h1.961a1.2,1.2,0,0,0-.258-.811A.882.882,0,0,0,72.668,10.934Zm2.074-.617h1l.879,2.449a4.648,4.648,0,0,1,.266.984h.031a4.106,4.106,0,0,1,.129-.521q.094-.307.992-2.912h.992l-1.848,4.895a1.753,1.753,0,0,1-1.68,1.348,2.643,2.643,0,0,1-.594-.066v-.727a2.151,2.151,0,0,0,.473.047.968.968,0,0,0,.934-.77l.16-.406Z" transform="translate(-0.453 -8.516)" fill="#263238" fill-rule="evenodd"/>
          </g>
        </g>
      </g>
    </g>
    <g id="CT-logo-BlackYellow-tag-2" data-name="CT-logo-BlackYellow-tag" transform="translate(324 1454)">
      <g id="Molecules_Logos_CT-Logo-YG-tag-2" data-name="Molecules/Logos/CT-Logo-YG-tag" transform="translate(42 27)">
        <g id="CT-Logo-YG-tag-2" data-name="CT-Logo-YG-tag">
          <g id="Atoms_Icons_logos_CT-GY-icon-2" data-name="Atoms/Icons/logos/CT-GY-icon">
            <g id="Group-2" data-name="Group">
              <path id="Shape-4" data-name="Shape" d="M19.817,23.284l-5.7,2.477v-.248a17.5,17.5,0,0,1-3.468.5C5.293,25.957,1.04,23.153.991,19.817V18.578c1.76,2.559,5.343,4.274,9.661,4.211a14.686,14.686,0,0,0,4.211-.5l.5-1.239a16.352,16.352,0,0,1-4.707.743C5.293,21.809,1.04,19,.991,15.606v-.991c1.76,2.366,5.335,4.081,9.661,3.963a11.984,11.984,0,0,0,5.45-.991l.248-1.239a11.664,11.664,0,0,1-5.7,1.239c-5.358.065-9.612-2.739-9.661-6.193V10.4c1.76,2.42,5.343,4.135,9.661,4.211a15.463,15.463,0,0,0,6.688-1.734l.248-1.486a12.891,12.891,0,0,1-6.936,2.229C5.293,13.5,1.04,10.7.991,7.183c.049-3.344,4.3-6.148,9.661-6.193a11.461,11.461,0,0,1,7.927,2.972l.172.287,1.249,0-.183-.292C18.061,1.576,14.547,0,10.652,0,4.723,0,0,3.268,0,7.183V20.064C.208,23.887,4.823,27,10.652,27,14.5,27,17.961,25.486,19.817,23.284Z" fill="#fff"/>
              <path id="Shape-5" data-name="Shape" d="M49,44l2-8.5L45.25,38l3.5-14.75H42L43.75,16h21.5L63.5,23.25h-7l-1.5,4L62.75,24Zm3.5-10.25-1,5,8.25-12.5-6.75,3,3-7h6.75L64,17H44.5l-1.25,5.25H50l-3.25,14Z" transform="translate(-31.5 -12)" fill="#fff"/>
            </g>
          </g>
          <path id="Shape-6" data-name="Shape" d="M174.778,20.1l.01.031A2.337,2.337,0,0,1,174.06,22a2.968,2.968,0,0,1-2.066.677,2.862,2.862,0,0,1-2.169-.864A3.1,3.1,0,0,1,169,19.583V18.1a3.156,3.156,0,0,1,.8-2.233A2.744,2.744,0,0,1,171.917,15a3.151,3.151,0,0,1,2.133.667,2.3,2.3,0,0,1,.749,1.876l-.01.031h-1.456a1.468,1.468,0,0,0-.346-1.069,1.443,1.443,0,0,0-1.069-.351,1.207,1.207,0,0,0-1.048.541,2.392,2.392,0,0,0-.377,1.4v1.492a2.322,2.322,0,0,0,.4,1.4,1.292,1.292,0,0,0,1.1.543,1.314,1.314,0,0,0,1-.351,1.528,1.528,0,0,0,.331-1.079Zm8.221-.59a3.135,3.135,0,0,1-.866,2.274,3.275,3.275,0,0,1-4.5,0,3.147,3.147,0,0,1-.861-2.271V18.168a3.155,3.155,0,0,1,.859-2.269,2.953,2.953,0,0,1,2.238-.9,3.008,3.008,0,0,1,2.261.9A3.129,3.129,0,0,1,183,18.168Zm-1.492-1.354a2.257,2.257,0,0,0-.436-1.43,1.443,1.443,0,0,0-1.2-.559,1.4,1.4,0,0,0-1.182.559,2.3,2.3,0,0,0-.423,1.43v1.354a2.321,2.321,0,0,0,.426,1.446,1.41,1.41,0,0,0,1.189.559,1.429,1.429,0,0,0,1.2-.559,2.3,2.3,0,0,0,.431-1.446Zm5.376,4.414h-1.5V15.108h1.5Zm8.616,0H194l-3.01-5.035-.031.005v5.03h-1.5V15.108h1.5l3.01,5.03.031-.005V15.108h1.5Zm7.529-6.311H200.9v6.311h-1.5V16.261h-2.1V15.108h5.732Zm6.186,3.03h-2.769v2.133h3.292v1.148h-4.789V15.108h4.778v1.154h-3.281v1.876h2.769Zm4.171,2.133h3.343v1.148h-4.84V15.108h1.5Zm9.7-2.133H220.32v2.133h3.292v1.148h-4.789V15.108H223.6v1.154H220.32v1.876h2.769Zm8.4,2.261a2.837,2.837,0,0,1-1.041.792,4.1,4.1,0,0,1-1.784.336,3.018,3.018,0,0,1-2.215-.851,2.97,2.97,0,0,1-.861-2.21V18.061a3.022,3.022,0,0,1,.836-2.207A2.875,2.875,0,0,1,228.567,15a3.053,3.053,0,0,1,2.1.649,2.13,2.13,0,0,1,.7,1.73l-.01.031h-1.41a1.224,1.224,0,0,0-.344-.925,1.386,1.386,0,0,0-1-.331,1.344,1.344,0,0,0-1.107.531,2.133,2.133,0,0,0-.42,1.366v1.569A2.126,2.126,0,0,0,227.506,21a1.407,1.407,0,0,0,1.154.533,2.654,2.654,0,0,0,.843-.108,1.286,1.286,0,0,0,.479-.272V19.707h-1.436V18.671h2.938Zm3.869-1.964v2.984h-1.5V15.108h2.584a3.1,3.1,0,0,1,2,.582,1.97,1.97,0,0,1,.72,1.623,1.637,1.637,0,0,1-.305.992,2.125,2.125,0,0,1-.889.674,1.606,1.606,0,0,1,.951.651,2.064,2.064,0,0,1,.29,1.128v.549a2.714,2.714,0,0,0,.085.654.9.9,0,0,0,.29.505v.108h-1.543a.829.829,0,0,1-.264-.543,4.774,4.774,0,0,1-.059-.733v-.528a1.186,1.186,0,0,0-.305-.869,1.157,1.157,0,0,0-.864-.31Zm0-1.154h1.061a1.4,1.4,0,0,0,.938-.267.988.988,0,0,0,.308-.79,1.086,1.086,0,0,0-.31-.815,1.253,1.253,0,0,0-.91-.3h-1.087Zm10.185,2.528h-2.42l-.5,1.61h-1.564l2.517-7.465H245.1l2.507,7.465h-1.564Zm-2.051-1.174h1.687l-.825-2.63h-.031Zm7.437.077v2.707h-1.5V15.108h2.856a2.94,2.94,0,0,1,2.025.656,2.385,2.385,0,0,1,0,3.45,2.955,2.955,0,0,1-2.025.651Zm0-1.154h1.359a1.245,1.245,0,0,0,.948-.341,1.213,1.213,0,0,0,.323-.869,1.269,1.269,0,0,0-.32-.89,1.223,1.223,0,0,0-.951-.351h-1.359Zm12.328,3.861h-1.5v-3.1h-3.04v3.1h-1.5V15.108h1.5v3.209h3.04V15.108h1.5Z" transform="translate(-126.75 -11.25)" fill="#fff"/>
          <g id="Tag_The-future-of-money-_-dark-grey-2" data-name="Tag/The-future-of-money-—-dark-grey" transform="translate(42.363 17.379)">
            <path id="The-future-of-money-2" data-name="The-future-of-money" d="M3.066,14.637H2.133V9.727H.453v-.8H4.746v.8H3.066Zm6.258,0H8.4V11.98a1.163,1.163,0,0,0-.2-.746.778.778,0,0,0-.639-.246,1.014,1.014,0,0,0-.85.346,1.9,1.9,0,0,0-.271,1.158v2.145H5.523V8.559h.918V10.1a7.2,7.2,0,0,1-.047.793h.059a1.275,1.275,0,0,1,.521-.484,1.681,1.681,0,0,1,.779-.172,1.393,1.393,0,0,1,1.57,1.582Zm3.164.078a2.09,2.09,0,0,1-1.576-.588,2.232,2.232,0,0,1-.568-1.619,2.448,2.448,0,0,1,.527-1.664,1.821,1.821,0,0,1,1.449-.605,1.78,1.78,0,0,1,1.352.52,1.985,1.985,0,0,1,.5,1.43v.5H11.289a1.419,1.419,0,0,0,.34.967,1.184,1.184,0,0,0,.9.338,3.331,3.331,0,0,0,.713-.072,3.737,3.737,0,0,0,.709-.24v.746a2.818,2.818,0,0,1-.68.227A4.168,4.168,0,0,1,12.488,14.715Zm-.168-3.781a.922.922,0,0,0-.7.277,1.322,1.322,0,0,0-.314.809h1.961a1.2,1.2,0,0,0-.258-.811A.882.882,0,0,0,12.32,10.934Zm7.137.078H18.4v3.625H17.48V11.012H16.77v-.43l.711-.281V10.02a1.572,1.572,0,0,1,.359-1.135,1.469,1.469,0,0,1,1.1-.369,2.929,2.929,0,0,1,.953.16l-.242.7A2.116,2.116,0,0,0,19,9.262a.528.528,0,0,0-.455.193.974.974,0,0,0-.143.58v.281h1.055Zm3.781,3.625-.129-.566h-.047a1.3,1.3,0,0,1-.545.473,1.822,1.822,0,0,1-.807.172,1.583,1.583,0,0,1-1.172-.391,1.619,1.619,0,0,1-.387-1.184V10.316h.926V12.98a1.156,1.156,0,0,0,.2.744.775.775,0,0,0,.637.248,1.014,1.014,0,0,0,.85-.346,1.9,1.9,0,0,0,.271-1.158V10.316h.922v4.32Zm3.641-.664a2.232,2.232,0,0,0,.672-.105v.691a1.853,1.853,0,0,1-.393.111,2.7,2.7,0,0,1-.5.045q-1.3,0-1.3-1.375V11.012h-.59v-.406l.633-.336.313-.914h.566v.961h1.23v.7h-1.23v2.313a.649.649,0,0,0,.166.49A.605.605,0,0,0,26.879,13.973Zm4.582.664-.129-.566h-.047a1.3,1.3,0,0,1-.545.473,1.822,1.822,0,0,1-.807.172,1.583,1.583,0,0,1-1.172-.391,1.619,1.619,0,0,1-.387-1.184V10.316H29.3V12.98a1.156,1.156,0,0,0,.2.744.775.775,0,0,0,.637.248,1.014,1.014,0,0,0,.85-.346,1.9,1.9,0,0,0,.271-1.158V10.316h.922v4.32Zm4.223-4.4a2.21,2.21,0,0,1,.457.039l-.09.855a1.735,1.735,0,0,0-.406-.047,1.176,1.176,0,0,0-.893.359,1.3,1.3,0,0,0-.342.934v2.258h-.918v-4.32h.719l.121.762h.047a1.712,1.712,0,0,1,.561-.613A1.332,1.332,0,0,1,35.684,10.238Zm2.984,4.477a2.09,2.09,0,0,1-1.576-.588,2.232,2.232,0,0,1-.568-1.619,2.449,2.449,0,0,1,.527-1.664,1.821,1.821,0,0,1,1.449-.605,1.78,1.78,0,0,1,1.352.52,1.985,1.985,0,0,1,.5,1.43v.5H37.469a1.419,1.419,0,0,0,.34.967,1.184,1.184,0,0,0,.9.338,3.331,3.331,0,0,0,.713-.072,3.736,3.736,0,0,0,.709-.24v.746a2.818,2.818,0,0,1-.68.227A4.168,4.168,0,0,1,38.668,14.715ZM38.5,10.934a.922.922,0,0,0-.7.277,1.322,1.322,0,0,0-.314.809h1.961a1.2,1.2,0,0,0-.258-.811A.882.882,0,0,0,38.5,10.934Zm8.8,1.535a2.358,2.358,0,0,1-.543,1.652,1.945,1.945,0,0,1-1.512.594,2.071,2.071,0,0,1-1.07-.273,1.805,1.805,0,0,1-.715-.785,2.674,2.674,0,0,1-.25-1.187,2.342,2.342,0,0,1,.539-1.641,1.955,1.955,0,0,1,1.52-.59,1.9,1.9,0,0,1,1.484.6A2.331,2.331,0,0,1,47.3,12.469Zm-3.145,0q0,1.5,1.105,1.5t1.094-1.5q0-1.48-1.1-1.48a.939.939,0,0,0-.838.383A1.948,1.948,0,0,0,44.156,12.469Zm6.367-1.457H49.469v3.625h-.922V11.012h-.711v-.43l.711-.281V10.02a1.572,1.572,0,0,1,.359-1.135A1.469,1.469,0,0,1,50,8.516a2.929,2.929,0,0,1,.953.16l-.242.7a2.116,2.116,0,0,0-.648-.109.528.528,0,0,0-.455.193.974.974,0,0,0-.143.58v.281h1.055Zm6.453,3.625h-.922V11.973a1.208,1.208,0,0,0-.187-.74.692.692,0,0,0-.586-.244.894.894,0,0,0-.779.346,2.028,2.028,0,0,0-.248,1.15v2.152h-.918v-4.32h.719l.129.566h.047a1.2,1.2,0,0,1,.521-.477,1.682,1.682,0,0,1,.752-.168,1.314,1.314,0,0,1,1.32.68h.063a1.317,1.317,0,0,1,.539-.5,1.711,1.711,0,0,1,.8-.18,1.451,1.451,0,0,1,1.127.391A1.73,1.73,0,0,1,59.7,11.82v2.816h-.918V11.973a1.2,1.2,0,0,0-.189-.74.7.7,0,0,0-.588-.244.911.911,0,0,0-.783.334,1.722,1.722,0,0,0-.248,1.025Zm7.84-2.168a2.358,2.358,0,0,1-.543,1.652,1.945,1.945,0,0,1-1.512.594,2.071,2.071,0,0,1-1.07-.273,1.805,1.805,0,0,1-.715-.785,2.674,2.674,0,0,1-.25-1.187,2.342,2.342,0,0,1,.539-1.641,1.955,1.955,0,0,1,1.52-.59,1.9,1.9,0,0,1,1.484.6A2.331,2.331,0,0,1,64.816,12.469Zm-3.145,0q0,1.5,1.105,1.5t1.094-1.5q0-1.48-1.1-1.48a.939.939,0,0,0-.838.383A1.948,1.948,0,0,0,61.672,12.469Zm8,2.168H68.75V11.98a1.163,1.163,0,0,0-.2-.746.778.778,0,0,0-.639-.246,1.016,1.016,0,0,0-.852.344,1.9,1.9,0,0,0-.27,1.152v2.152h-.918v-4.32h.719l.129.566h.047a1.278,1.278,0,0,1,.555-.477,1.859,1.859,0,0,1,.8-.168,1.386,1.386,0,0,1,1.555,1.582Zm3.164.078a2.09,2.09,0,0,1-1.576-.588,2.232,2.232,0,0,1-.568-1.619,2.449,2.449,0,0,1,.527-1.664,1.821,1.821,0,0,1,1.449-.605,1.78,1.78,0,0,1,1.352.52,1.985,1.985,0,0,1,.5,1.43v.5H71.637a1.419,1.419,0,0,0,.34.967,1.184,1.184,0,0,0,.9.338,3.331,3.331,0,0,0,.713-.072,3.736,3.736,0,0,0,.709-.24v.746a2.819,2.819,0,0,1-.68.227A4.168,4.168,0,0,1,72.836,14.715Zm-.168-3.781a.922.922,0,0,0-.7.277,1.322,1.322,0,0,0-.314.809h1.961a1.2,1.2,0,0,0-.258-.811A.882.882,0,0,0,72.668,10.934Zm2.074-.617h1l.879,2.449a4.648,4.648,0,0,1,.266.984h.031a4.106,4.106,0,0,1,.129-.521q.094-.307.992-2.912h.992l-1.848,4.895a1.753,1.753,0,0,1-1.68,1.348,2.643,2.643,0,0,1-.594-.066v-.727a2.151,2.151,0,0,0,.473.047.968.968,0,0,0,.934-.77l.16-.406Z" transform="translate(-0.453 -8.516)" fill="#fff" fill-rule="evenodd"/>
          </g>
        </g>
      </g>
    </g>
  </g>
</svg>
