<svg xmlns="http://www.w3.org/2000/svg" xmlns:xlink="http://www.w3.org/1999/xlink" width="344" height="48" viewBox="0 0 344 48">
  <defs>
    <clipPath id="clip-path">
      <rect id="Rectangle_1047" data-name="Rectangle 1047" width="133.056" height="28" fill="#d92812"/>
    </clipPath>
    <clipPath id="clip-path-2">
      <rect id="Rectangle_1047-2" data-name="Rectangle 1047" width="133.056" height="28" fill="#fff"/>
    </clipPath>
  </defs>
  <g id="partners_comparic" transform="translate(-176 -1425)">
    <rect id="Rectangle_1050" data-name="Rectangle 1050" width="172" height="48" transform="translate(176 1425)" fill="#151515" opacity="0"/>
    <rect id="Rectangle_1054" data-name="Rectangle 1054" width="172" height="48" transform="translate(348 1425)" fill="#151515" opacity="0"/>
    <g id="Group_2027" data-name="Group 2027" transform="translate(195 1435)">
      <g id="Group_2026" data-name="Group 2026" clip-path="url(#clip-path)">
        <path id="Path_3890" data-name="Path 3890" d="M565.366,79.935a5.542,5.542,0,0,1-.075-.654c0-6.6.017-13.192,0-19.788,0-.57.155-.737.721-.712,1.021.045,2.045.013,3.09.013l.3,1.754a.968.968,0,0,0,.192-.111c2-2.2,4.522-2.265,7.113-1.532a6.422,6.422,0,0,1,4.645,5.221,8.914,8.914,0,0,1-.563,5.771,6.934,6.934,0,0,1-7.146,3.835,5.643,5.643,0,0,1-3.763-1.747,2.176,2.176,0,0,0-.259-.181v8.132Zm4.323-13.867a3.762,3.762,0,0,0,3.968,3.842,3.8,3.8,0,0,0-.032-7.59,3.583,3.583,0,0,0-3.936,3.749" transform="translate(-501.978 -51.935)" fill="#d92812"/>
        <path id="Path_3891" data-name="Path 3891" d="M359.258,72.655h-4.227c-.013-.238-.034-.453-.034-.668,0-2.287.01-4.574.006-6.861a11.584,11.584,0,0,0-.078-1.334,2.091,2.091,0,0,0-1.314-1.971,2.475,2.475,0,0,0-2.646.559A3.274,3.274,0,0,0,350,64.911q0,3.514.01,7.028c0,.22,0,.441,0,.743h-2.777c-1.423,0-1.423,0-1.421-1.424,0-2.064.02-4.128,0-6.191a7.135,7.135,0,0,0-.2-1.652,2.193,2.193,0,0,0-1.962-1.794,2.4,2.4,0,0,0-2.451,1.1,3.715,3.715,0,0,0-.613,2.164q0,3.542.01,7.084c0,.217,0,.433,0,.681h-4.24V58.064h3.669l.32,1.491c2.99-2.8,5.953-2.516,8.2.806.176-.227.348-.43.5-.648,2.138-3.056,7.849-2.594,9.376.641a9.563,9.563,0,0,1,.86,4.107c.013,2.621.012,5.243.015,7.864a2.811,2.811,0,0,1-.044.33" transform="translate(-298.69 -51.189)" fill="#d92812"/>
        <path id="Path_3892" data-name="Path 3892" d="M19.42,5.272,16.6,8.2a6.666,6.666,0,0,0-3.181-1.548c-3.651-.7-7.333.892-8.05,5.288-.486,2.981.657,6.155,3.657,7.249a7.782,7.782,0,0,0,7.522-1.12c.121-.086.233-.184.351-.275a.759.759,0,0,1,.131-.041l2.838,3.127a9.152,9.152,0,0,1-3.642,2.328,13.4,13.4,0,0,1-9.982-.373,8.921,8.921,0,0,1-5.2-6.695A11.822,11.822,0,0,1,2.682,6.594a10.071,10.071,0,0,1,7.441-4.307,10.856,10.856,0,0,1,7.952,1.9c.48.342.92.742,1.345,1.088" transform="translate(-0.62 -1.936)" fill="#d92812"/>
        <path id="Path_3893" data-name="Path 3893" d="M733.891,60.311c.072-.629.127-1.106.187-1.622h3.929V73.263H734.2l-.258-1.7a5.6,5.6,0,0,1-4.186,2.049c-3.787.234-7.154-1.85-7.81-5.984a9.449,9.449,0,0,1,.169-4.031,7.025,7.025,0,0,1,6.951-5.238,10.354,10.354,0,0,1,2.268.234,4.222,4.222,0,0,1,2.556,1.723m.011,5.745a3.833,3.833,0,0,0-3.961-4,3.9,3.9,0,0,0,.045,7.806,3.829,3.829,0,0,0,3.916-3.81" transform="translate(-640.966 -51.819)" fill="#d92812"/>
        <path id="Path_3894" data-name="Path 3894" d="M173.841,65.146c.007-3.51,2.742-6.506,6.886-6.936a8.888,8.888,0,0,1,5.512,1.011,7.235,7.235,0,0,1,3.667,7.235,6.875,6.875,0,0,1-3.691,5.984,9.3,9.3,0,0,1-10.164-1.07c-1.608-1.5-2.242-3.415-2.209-6.224m8.088-3.19a3.863,3.863,0,0,0-.076,7.722,3.609,3.609,0,0,0,3.763-3.817,3.657,3.657,0,0,0-3.687-3.905" transform="translate(-154.37 -51.63)" fill="#d92812"/>
        <path id="Path_3895" data-name="Path 3895" d="M1077.318,59.994l-2.418,2.743c-2.653-1.227-4.815-.968-6,.694a3.985,3.985,0,0,0,.27,4.9c1.233,1.289,3.66,1.672,5.853.064.439.454.873.933,1.339,1.379s.943.839,1.438,1.277a7.7,7.7,0,0,1-4.191,2.206,9.307,9.307,0,0,1-5.935-.781c-2.755-1.4-3.793-3.8-3.774-6.75a7.346,7.346,0,0,1,6.922-7.56,8.306,8.306,0,0,1,4.225.474,19.868,19.868,0,0,1,2.274,1.356" transform="translate(-944.739 -51.585)" fill="#d92812"/>
        <path id="Path_3896" data-name="Path 3896" d="M905.118,59.438l-1.67,3.169a13.955,13.955,0,0,0-2.439-.529,3.205,3.205,0,0,0-3.46,3.391c-.013,2.285,0,4.569.007,6.854,0,.221,0,.442,0,.711h-4.241V58.456c1.253,0,2.479-.008,3.7.015.1,0,.24.195.28.324.112.363.182.74.3,1.241a4.742,4.742,0,0,1,4.366-1.922,4.952,4.952,0,0,1,3.155,1.325" transform="translate(-793.263 -51.59)" fill="#d92812"/>
        <path id="Path_3897" data-name="Path 3897" d="M1007.38,75.821V61.18h4.217c.016.174.045.351.045.529.008,4.517.007,9.033.026,13.55,0,.428-.1.585-.558.573-1.228-.031-2.457-.011-3.731-.011" transform="translate(-894.553 -54.328)" fill="#d92812"/>
      </g>
    </g>
    <g id="Group_2029" data-name="Group 2029" transform="translate(367 1435)">
      <g id="Group_2026-2" data-name="Group 2026" clip-path="url(#clip-path-2)">
        <path id="Path_3890-2" data-name="Path 3890" d="M565.366,79.935a5.542,5.542,0,0,1-.075-.654c0-6.6.017-13.192,0-19.788,0-.57.155-.737.721-.712,1.021.045,2.045.013,3.09.013l.3,1.754a.968.968,0,0,0,.192-.111c2-2.2,4.522-2.265,7.113-1.532a6.422,6.422,0,0,1,4.645,5.221,8.914,8.914,0,0,1-.563,5.771,6.934,6.934,0,0,1-7.146,3.835,5.643,5.643,0,0,1-3.763-1.747,2.176,2.176,0,0,0-.259-.181v8.132Zm4.323-13.867a3.762,3.762,0,0,0,3.968,3.842,3.8,3.8,0,0,0-.032-7.59,3.583,3.583,0,0,0-3.936,3.749" transform="translate(-501.978 -51.935)" fill="#fff"/>
        <path id="Path_3891-2" data-name="Path 3891" d="M359.258,72.655h-4.227c-.013-.238-.034-.453-.034-.668,0-2.287.01-4.574.006-6.861a11.584,11.584,0,0,0-.078-1.334,2.091,2.091,0,0,0-1.314-1.971,2.475,2.475,0,0,0-2.646.559A3.274,3.274,0,0,0,350,64.911q0,3.514.01,7.028c0,.22,0,.441,0,.743h-2.777c-1.423,0-1.423,0-1.421-1.424,0-2.064.02-4.128,0-6.191a7.135,7.135,0,0,0-.2-1.652,2.193,2.193,0,0,0-1.962-1.794,2.4,2.4,0,0,0-2.451,1.1,3.715,3.715,0,0,0-.613,2.164q0,3.542.01,7.084c0,.217,0,.433,0,.681h-4.24V58.064h3.669l.32,1.491c2.99-2.8,5.953-2.516,8.2.806.176-.227.348-.43.5-.648,2.138-3.056,7.849-2.594,9.376.641a9.563,9.563,0,0,1,.86,4.107c.013,2.621.012,5.243.015,7.864a2.811,2.811,0,0,1-.044.33" transform="translate(-298.69 -51.189)" fill="#fff"/>
        <path id="Path_3892-2" data-name="Path 3892" d="M19.42,5.272,16.6,8.2a6.666,6.666,0,0,0-3.181-1.548c-3.651-.7-7.333.892-8.05,5.288-.486,2.981.657,6.155,3.657,7.249a7.782,7.782,0,0,0,7.522-1.12c.121-.086.233-.184.351-.275a.759.759,0,0,1,.131-.041l2.838,3.127a9.152,9.152,0,0,1-3.642,2.328,13.4,13.4,0,0,1-9.982-.373,8.921,8.921,0,0,1-5.2-6.695A11.822,11.822,0,0,1,2.682,6.594a10.071,10.071,0,0,1,7.441-4.307,10.856,10.856,0,0,1,7.952,1.9c.48.342.92.742,1.345,1.088" transform="translate(-0.62 -1.936)" fill="#fff"/>
        <path id="Path_3893-2" data-name="Path 3893" d="M733.891,60.311c.072-.629.127-1.106.187-1.622h3.929V73.263H734.2l-.258-1.7a5.6,5.6,0,0,1-4.186,2.049c-3.787.234-7.154-1.85-7.81-5.984a9.449,9.449,0,0,1,.169-4.031,7.025,7.025,0,0,1,6.951-5.238,10.354,10.354,0,0,1,2.268.234,4.222,4.222,0,0,1,2.556,1.723m.011,5.745a3.833,3.833,0,0,0-3.961-4,3.9,3.9,0,0,0,.045,7.806,3.829,3.829,0,0,0,3.916-3.81" transform="translate(-640.966 -51.819)" fill="#fff"/>
        <path id="Path_3894-2" data-name="Path 3894" d="M173.841,65.146c.007-3.51,2.742-6.506,6.886-6.936a8.888,8.888,0,0,1,5.512,1.011,7.235,7.235,0,0,1,3.667,7.235,6.875,6.875,0,0,1-3.691,5.984,9.3,9.3,0,0,1-10.164-1.07c-1.608-1.5-2.242-3.415-2.209-6.224m8.088-3.19a3.863,3.863,0,0,0-.076,7.722,3.609,3.609,0,0,0,3.763-3.817,3.657,3.657,0,0,0-3.687-3.905" transform="translate(-154.37 -51.63)" fill="#fff"/>
        <path id="Path_3895-2" data-name="Path 3895" d="M1077.318,59.994l-2.418,2.743c-2.653-1.227-4.815-.968-6,.694a3.985,3.985,0,0,0,.27,4.9c1.233,1.289,3.66,1.672,5.853.064.439.454.873.933,1.339,1.379s.943.839,1.438,1.277a7.7,7.7,0,0,1-4.191,2.206,9.307,9.307,0,0,1-5.935-.781c-2.755-1.4-3.793-3.8-3.774-6.75a7.346,7.346,0,0,1,6.922-7.56,8.306,8.306,0,0,1,4.225.474,19.868,19.868,0,0,1,2.274,1.356" transform="translate(-944.739 -51.585)" fill="#fff"/>
        <path id="Path_3896-2" data-name="Path 3896" d="M905.118,59.438l-1.67,3.169a13.955,13.955,0,0,0-2.439-.529,3.205,3.205,0,0,0-3.46,3.391c-.013,2.285,0,4.569.007,6.854,0,.221,0,.442,0,.711h-4.241V58.456c1.253,0,2.479-.008,3.7.015.1,0,.24.195.28.324.112.363.182.74.3,1.241a4.742,4.742,0,0,1,4.366-1.922,4.952,4.952,0,0,1,3.155,1.325" transform="translate(-793.263 -51.59)" fill="#fff"/>
        <path id="Path_3897-2" data-name="Path 3897" d="M1007.38,75.821V61.18h4.217c.016.174.045.351.045.529.008,4.517.007,9.033.026,13.55,0,.428-.1.585-.558.573-1.228-.031-2.457-.011-3.731-.011" transform="translate(-894.553 -54.328)" fill="#fff"/>
      </g>
    </g>
  </g>
</svg>
