<svg xmlns="http://www.w3.org/2000/svg" width="344" height="48" viewBox="0 0 344 48">
  <g id="partners_ambcrypto" transform="translate(-176 -1281)">
    <rect id="Rectangle_1053" data-name="Rectangle 1053" width="172" height="48" transform="translate(176 1281)" fill="#151515" opacity="0"/>
    <path id="Path_4109" data-name="Path 4109" d="M0,0H172V48H0Z" transform="translate(348 1281)" fill="#151515" opacity="0"/>
    <g id="Stock_Market_News_Stock_Advice_Trading_Tips___InvestorPlace-1" data-name="Stock Market News, Stock Advice &amp; Trading Tips _ InvestorPlace-1" transform="translate(187 1296)">
      <path id="Path_4175" data-name="Path 4175" d="M38.865,7.3h1.942v11.05H38.865ZM51,7.3h1.9v11.05H51.046l-5.259-7.614v7.614h-1.9V7.3h1.849L51,14.915Zm3.735,0h2.128l3,8.716L62.91,7.3h2.035l-4.116,11.05H58.794Zm11.995,0h7.479V9.144H68.671v2.735H73.66v1.843H68.671v2.785h5.723v1.843H66.729ZM81.771,9.334a4.275,4.275,0,0,0-1.477-.3,1.841,1.841,0,0,0-1.106.3.919.919,0,0,0-.418.8,1.062,1.062,0,0,0,.279.751,2.257,2.257,0,0,0,.743.5,7.884,7.884,0,0,0,1.152.451,13.39,13.39,0,0,1,1.709.651,2.87,2.87,0,0,1,1.152.992,2.764,2.764,0,0,1,.465,1.693,3.049,3.049,0,0,1-.511,1.743,2.965,2.965,0,0,1-1.385,1.142,5.129,5.129,0,0,1-2.034.4,5.646,5.646,0,0,1-2.351-.5A6.251,6.251,0,0,1,76,16.668l.827-1.793a6.205,6.205,0,0,0,1.756,1.192,4.312,4.312,0,0,0,1.8.451,2.014,2.014,0,0,0,1.291-.351,1.105,1.105,0,0,0,.465-.942,1.189,1.189,0,0,0-.279-.8,2.258,2.258,0,0,0-.743-.5c-.279-.15-.7-.25-1.2-.451a13.392,13.392,0,0,1-1.709-.651,2.7,2.7,0,0,1-1.106-.942,2.764,2.764,0,0,1-.465-1.693,2.861,2.861,0,0,1,1.8-2.785A5.128,5.128,0,0,1,80.479,7a6.694,6.694,0,0,1,3.745,1.142L83.4,10.136C82.839,9.835,82.328,9.585,81.771,9.334ZM85.506,7.3h8.353V9.194H90.671v9.157H88.683V9.184H85.5V7.3Zm17.123.591a5.845,5.845,0,0,1,1.988,2.044,6.015,6.015,0,0,1,.743,2.885,5.662,5.662,0,0,1-.743,2.885,5.475,5.475,0,0,1-1.988,2.044,5.477,5.477,0,0,1-5.537,0A5.84,5.84,0,0,1,95.1,15.706a6.009,6.009,0,0,1-.744-2.885A5.656,5.656,0,0,1,95.1,9.935a5.467,5.467,0,0,1,1.988-2.044A5.278,5.278,0,0,1,99.86,7.14,5.349,5.349,0,0,1,102.629,7.892ZM98.15,9.535a3.922,3.922,0,0,0-1.291,1.343,3.792,3.792,0,0,0-.465,1.893,3.838,3.838,0,0,0,1.756,3.286,3.032,3.032,0,0,0,1.756.5,2.986,2.986,0,0,0,1.709-.5,3.945,3.945,0,0,0,1.245-1.393,3.792,3.792,0,0,0,.465-1.893,3.665,3.665,0,0,0-.465-1.893,3.779,3.779,0,0,0-1.245-1.343,2.986,2.986,0,0,0-1.709-.5A3.107,3.107,0,0,0,98.15,9.535Zm15.832,8.816-1.756-3.286H109.55V18.3h-1.942V7.3h4.246a4.559,4.559,0,0,1,3.093.992,3.491,3.491,0,0,1,1.059,2.785,4.618,4.618,0,0,1-.511,2.194,3.586,3.586,0,0,1-1.524,1.393l2.258,3.637h-2.258ZM109.5,13.222h2.3a2.534,2.534,0,0,0,1.709-.5,2.006,2.006,0,0,0,.6-1.543,1.693,1.693,0,0,0-.6-1.493,2.455,2.455,0,0,0-1.709-.5h-2.3Zm16.52-5.069a3.472,3.472,0,0,1,1.012,2.685,3.831,3.831,0,0,1-1.012,2.785,4.139,4.139,0,0,1-2.955.992H120.3V18.2h-1.013V7.21h3.781A4.5,4.5,0,0,1,126.024,8.152Zm-.744,4.829a2.718,2.718,0,0,0,.78-2.094,2.726,2.726,0,0,0-.78-2.044,3.128,3.128,0,0,0-2.257-.7H120.3v5.53h2.722A3.137,3.137,0,0,0,125.28,12.981Zm4.339-5.771h1.012V17.269h4.525v.992h-5.491V7.21ZM145.4,18.261l-1.2-2.935H138.52l-1.2,2.935h-1.059l4.618-11h1.059l4.618,11Zm-6.5-3.927h4.9l-2.443-5.971Zm15.553-5.881a3.972,3.972,0,0,0-1.663-.351,4.178,4.178,0,0,0-3.744,2.294,4.988,4.988,0,0,0-.6,2.344,4.649,4.649,0,0,0,.6,2.344,4.812,4.812,0,0,0,1.57,1.693,4.129,4.129,0,0,0,2.174.651,3.972,3.972,0,0,0,1.663-.351,4.326,4.326,0,0,0,1.431-.992l.6.7a6.205,6.205,0,0,1-1.756,1.192,4.781,4.781,0,0,1-1.988.451,5.049,5.049,0,0,1-2.676-.751,5.716,5.716,0,0,1-1.942-2.044,5.784,5.784,0,0,1-.7-2.835,5.178,5.178,0,0,1,.744-2.785,5.345,5.345,0,0,1,1.942-2.044,5.049,5.049,0,0,1,2.676-.751,5.434,5.434,0,0,1,1.988.4,6.029,6.029,0,0,1,1.709,1.142l-.6.741A4.45,4.45,0,0,0,154.444,8.453Zm4.794-1.242h6.828V8.2h-5.816V12.14h5.212v.992h-5.212v4.128h6v.992h-7.014Z" transform="translate(-15.339 -3.238)" fill="#212121"/>
      <path id="Path_4176" data-name="Path 4176" d="M31.228,14c.01.167.02.451-.039.48a1.822,1.822,0,0,1-.108-1.049h.01C31.17,13.456,31.219,13.8,31.228,14Z" transform="translate(-12.251 -5.684)" fill="#00a000"/>
      <path id="Path_4177" data-name="Path 4177" d="M14.983,12.117a1.52,1.52,0,1,1-1.509-1.627A1.529,1.529,0,0,1,14.983,12.117Z" transform="translate(-4.717 -4.475)" fill="#00a000"/>
      <path id="Path_4178" data-name="Path 4178" d="M12.244,16.929a1.426,1.426,0,0,1-1.391,1.323,1.567,1.567,0,0,1-1.009-2.675,1.389,1.389,0,0,1,.911-.343A1.552,1.552,0,0,1,12.244,16.929Z" transform="translate(-3.702 -6.498)" fill="#00a000"/>
      <path id="Path_4179" data-name="Path 4179" d="M19.573,14.889a1.484,1.484,0,0,1-1.431,1.382,1.542,1.542,0,0,1-.931-2.734,1.466,1.466,0,0,1,.931-.343A1.513,1.513,0,0,1,19.573,14.889Z" transform="translate(-6.573 -5.629)" fill="#00a000"/>
      <path id="Path_4180" data-name="Path 4180" d="M16.887,19.625a1.454,1.454,0,0,1-2.607.627,1.417,1.417,0,0,1,1.225-2.234A1.38,1.38,0,0,1,16.887,19.625Z" transform="translate(-5.533 -7.679)" fill="#00a000"/>
      <path id="Path_4181" data-name="Path 4181" d="M10.627,9.68a1.412,1.412,0,0,1-1.313,1.176c-1.254-.069-1.264-1.509-.529-2.175a1.275,1.275,0,0,1,.833-.343A1.082,1.082,0,0,1,10.627,9.68Z" transform="translate(-3.271 -3.548)" fill="#00a000"/>
      <path id="Path_4182" data-name="Path 4182" d="M17.393,7.934a1.209,1.209,0,0,1-2.1.735,1.157,1.157,0,0,1,.823-2A1.312,1.312,0,0,1,17.393,7.934Z" transform="translate(-5.892 -2.837)" fill="#00a000"/>
      <path id="Path_4183" data-name="Path 4183" d="M21.743,10.383a1.08,1.08,0,0,1-1.842.882c-.872-.735-.617-2.146.4-2.254A.518.518,0,0,0,20.42,9,1.459,1.459,0,0,1,21.743,10.383Z" transform="translate(-7.645 -3.832)" fill="#00a000"/>
      <path id="Path_4184" data-name="Path 4184" d="M7.9,14.191a1.3,1.3,0,0,1-1.147,1.254c-1.215-.078-1.421-1.833-.559-2.528a1.035,1.035,0,0,1,.617-.225A1.268,1.268,0,0,1,7.9,14.191Z" transform="translate(-2.235 -5.407)" fill="#00a000"/>
      <path id="Path_4185" data-name="Path 4185" d="M23.586,17.72c-.225,1.156-1.45,1.587-2.019.706a1.462,1.462,0,0,1,1.029-2.2A1.171,1.171,0,0,1,23.586,17.72Z" transform="translate(-8.431 -6.908)" fill="#00a000"/>
      <path id="Path_4186" data-name="Path 4186" d="M10.153,21.575a.957.957,0,0,1-1.7.686c-.8-.715-.657-1.94.255-2.048a.517.517,0,0,0,.118-.01A1.441,1.441,0,0,1,10.153,21.575Z" transform="translate(-3.131 -8.594)" fill="#00a000"/>
      <path id="Path_4187" data-name="Path 4187" d="M14.365,23.915a1.051,1.051,0,0,1-1.029.921c-1.019-.049-1.6-1.245-.921-1.881a1.1,1.1,0,0,1,.725-.274A1.171,1.171,0,0,1,14.365,23.915Z" transform="translate(-4.785 -9.637)" fill="#00a000"/>
      <path id="Path_4188" data-name="Path 4188" d="M20.743,22.219c-.333.951-1.578,1.382-2.048.48a1.331,1.331,0,0,1,1.186-1.833A.949.949,0,0,1,20.743,22.219Z" transform="translate(-7.332 -8.873)" fill="#00a000"/>
      <path id="Path_4189" data-name="Path 4189" d="M13.374,5.83a1.157,1.157,0,0,1-1.137.921c-.98-.059-1.107-1.039-.47-1.637a1.139,1.139,0,0,1,.764-.323A.876.876,0,0,1,13.374,5.83Z" transform="translate(-4.489 -2.034)" fill="#00a000"/>
      <path id="Path_4190" data-name="Path 4190" d="M6.031,19.092c.01.1.049.97-.676,1.029a1.409,1.409,0,0,1-.794-2.215.675.675,0,0,1,.4-.147C5.639,17.808,5.992,18.562,6.031,19.092Z" transform="translate(-1.684 -7.553)" fill="#00a000"/>
      <path id="Path_4191" data-name="Path 4191" d="M25.8,13.037c.02.941-.745,1.45-1.362.911-.725-.637-.627-2.175.343-2.244C25.416,11.744,25.778,12.42,25.8,13.037Z" transform="translate(-9.457 -4.98)" fill="#00a000"/>
      <path id="Path_4192" data-name="Path 4192" d="M17.889,26.14a1.157,1.157,0,0,1-.97.706.8.8,0,0,1-.421-1.431,1.089,1.089,0,0,1,.706-.274A.7.7,0,0,1,17.889,26.14Z" transform="translate(-6.389 -10.764)" fill="#00a000"/>
      <path id="Path_4193" data-name="Path 4193" d="M19.044,4.359a.6.6,0,0,1-.617.755c-.872-.049-1.274-.99-.8-1.45a.663.663,0,0,1,.412-.167A1.214,1.214,0,0,1,19.044,4.359Z" transform="translate(-6.877 -1.38)" fill="#00a000"/>
      <path id="Path_4194" data-name="Path 4194" d="M7.311,7.44a1.35,1.35,0,0,1-1.058.911c-.755-.059-.608-1.1.059-1.666a.988.988,0,0,1,.608-.274C7.438,6.45,7.467,7.038,7.311,7.44Z" transform="translate(-2.268 -2.722)" fill="#00a000"/>
      <path id="Path_4195" data-name="Path 4195" d="M4.492,11.663c-.078.353-.343.97-.882,1.009-.784-.069-.7-1.49-.049-2.038a.671.671,0,0,1,.421-.176C4.472,10.507,4.609,11.114,4.492,11.663Z" transform="translate(-1.203 -4.445)" fill="#00a000"/>
      <path id="Path_4196" data-name="Path 4196" d="M23.085,6.247c.216.666-.284,1.078-.921.745-.735-.392-.97-1.529-.353-1.7.039-.01.1-.01.137-.02A1.445,1.445,0,0,1,23.085,6.247Z" transform="translate(-8.468 -2.239)" fill="#00a000"/>
      <path id="Path_4197" data-name="Path 4197" d="M9.094,25.732c.01.029.206.666-.323.7-.725-.039-1.49-1.127-1.068-1.519a.414.414,0,0,1,.3-.108A1.347,1.347,0,0,1,9.094,25.732Z" transform="translate(-2.992 -10.63)" fill="#00a000"/>
      <path id="Path_4198" data-name="Path 4198" d="M26.446,20.57c-.274.764-1.078,1.215-1.343.588-.265-.608.225-1.715.941-1.764C26.6,19.443,26.613,20.109,26.446,20.57Z" transform="translate(-9.879 -8.237)" fill="#00a000"/>
      <path id="Path_4199" data-name="Path 4199" d="M23.323,24.641c-.392.676-1.235,1.029-1.391.451a1.339,1.339,0,0,1,1.117-1.441C23.558,23.691,23.587,24.2,23.323,24.641Z" transform="translate(-8.646 -10.032)" fill="#00a000"/>
      <path id="Path_4200" data-name="Path 4200" d="M12.88,27.634c.059.519-.431.794-1,.343-.6-.461-.51-1.078,0-1.137h.078A.962.962,0,0,1,12.88,27.634Z" transform="translate(-4.525 -11.435)" fill="#00a000"/>
      <path id="Path_4201" data-name="Path 4201" d="M15.546,2.8a.7.7,0,0,1-1.205.363.673.673,0,0,1,.568-1.029A.652.652,0,0,1,15.546,2.8Z" transform="translate(-5.612 -0.843)" fill="#00a000"/>
      <path id="Path_4202" data-name="Path 4202" d="M10.5,3.959c-.3.686-1.127.931-1.333.519S9.627,3.293,10.2,3.254C10.568,3.254,10.646,3.616,10.5,3.959Z" transform="translate(-3.604 -1.284)" fill="#00a000"/>
      <path id="Path_4203" data-name="Path 4203" d="M2.642,16.425c.01.735-.372,1.147-.745.794-.49-.47-.5-1.911.127-1.97C2.466,15.3,2.632,15.994,2.642,16.425Z" transform="translate(-0.608 -6.478)" fill="#00a000"/>
      <path id="Path_4204" data-name="Path 4204" d="M26.842,8.6c.186.627-.127,1.029-.608.774-.627-.333-.951-1.578-.451-1.744.029-.01.078-.01.108-.02C26.362,7.648,26.725,8.206,26.842,8.6Z" transform="translate(-10.079 -3.229)" fill="#00a000"/>
      <path id="Path_4205" data-name="Path 4205" d="M28.824,15.872c-.069.774-.568,1.2-.9.764-.4-.519-.235-1.852.372-1.921C28.726,14.755,28.863,15.421,28.824,15.872Z" transform="translate(-10.934 -6.251)" fill="#00a000"/>
      <path id="Path_4206" data-name="Path 4206" d="M5.2,23.6c.01.029.255.7-.176.745-.627-.049-1.352-1.245-.98-1.617a.308.308,0,0,1,.186-.078C4.647,22.677,5.039,23.157,5.2,23.6Z" transform="translate(-1.554 -9.605)" fill="#00a000"/>
      <path id="Path_4207" data-name="Path 4207" d="M15.822,29.161a.525.525,0,0,1-.99.1c-.157-.3.01-.657.48-.686C15.724,28.592,15.9,28.886,15.822,29.161Z" transform="translate(-5.831 -12.119)" fill="#00a000"/>
      <path id="Path_4208" data-name="Path 4208" d="M20.089,28.022a1.306,1.306,0,0,1-.833.49c-.412-.029-.284-.608.127-.951a.86.86,0,0,1,.568-.235C20.344,27.356,20.344,27.708,20.089,28.022Z" transform="translate(-7.5 -11.627)" fill="#00a000"/>
      <path id="Path_4209" data-name="Path 4209" d="M19.3,1.872c.118.157.186.4-.118.421-.519-.029-.911-.666-.706-.823a.14.14,0,0,1,.108-.029A1.146,1.146,0,0,1,19.3,1.872Z" transform="translate(-7.271 -0.569)" fill="#00a000"/>
      <path id="Path_4210" data-name="Path 4210" d="M13.3,1.425c-.186.382-.725.529-.833.294s.372-.647.7-.666C13.368,1.052,13.387,1.248,13.3,1.425Z" transform="translate(-4.915 -0.415)" fill="#00a000"/>
      <path id="Path_4211" data-name="Path 4211" d="M5.551,5.423c-.353.529-.823.725-.882.461a1.458,1.458,0,0,1,.98-1.156C5.933,4.756,5.708,5.188,5.551,5.423Z" transform="translate(-1.841 -2.001)" fill="#00a000"/>
      <path id="Path_4212" data-name="Path 4212" d="M22.658,3.3c.127.157.274.47-.039.49-.549-.049-1.1-.853-.921-1.019a.206.206,0,0,1,.108-.039A1.488,1.488,0,0,1,22.658,3.3Z" transform="translate(-8.55 -1.08)" fill="#00a000"/>
      <path id="Path_4213" data-name="Path 4213" d="M2.48,9.319c-.029.069-.274.657-.588.686-.4-.059,0-1.205.421-1.48a.32.32,0,0,1,.147-.059C2.706,8.506,2.608,9,2.48,9.319Z" transform="translate(-0.681 -3.589)" fill="#00a000"/>
      <path id="Path_4214" data-name="Path 4214" d="M29.848,11.152c.049.245.069.706-.176.735-.461-.059-.725-1.352-.461-1.578a.118.118,0,0,1,.088-.029C29.563,10.319,29.779,10.809,29.848,11.152Z" transform="translate(-11.487 -4.358)" fill="#00a000"/>
      <path id="Path_4215" data-name="Path 4215" d="M1.99,21.24c.118.382.1.755-.118.657-.4-.176-.823-1.411-.51-1.5h.029C1.638,20.427,1.892,20.907,1.99,21.24Z" transform="translate(-0.495 -8.645)" fill="#00a000"/>
      <path id="Path_4216" data-name="Path 4216" d="M27.867,23.312c-.255.441-.657.764-.735.51-.108-.333.412-1.264.794-1.3C28.151,22.548,28.072,22.949,27.867,23.312Z" transform="translate(-10.702 -9.539)" fill="#00a000"/>
      <path id="Path_4217" data-name="Path 4217" d="M9.548,29.225c.147.157.265.353.1.353-.323.01-1.176-.588-1.019-.8a.114.114,0,0,1,.1-.039A1.54,1.54,0,0,1,9.548,29.225Z" transform="translate(-3.397 -12.182)" fill="#00a000"/>
      <path id="Path_4218" data-name="Path 4218" d="M24.422,27.031a1.408,1.408,0,0,1-.725.461c-.274-.029.1-.6.461-.882a.709.709,0,0,1,.431-.206C24.823,26.433,24.686,26.747,24.422,27.031Z" transform="translate(-9.315 -11.262)" fill="#00a000"/>
      <path id="Path_4219" data-name="Path 4219" d="M12.68,30.444c.059.069.2.235.039.255-.323,0-.951-.392-.794-.549a.163.163,0,0,1,.108-.039A1.026,1.026,0,0,1,12.68,30.444Z" transform="translate(-4.697 -12.726)" fill="#00a000"/>
      <path id="Path_4220" data-name="Path 4220" d="M17.358,30.561a.884.884,0,0,1-.451.216c-.206-.01-.069-.294.088-.431a.526.526,0,0,1,.343-.137C17.563,30.227,17.524,30.4,17.358,30.561Z" transform="translate(-6.631 -12.764)" fill="#00a000"/>
      <path id="Path_4221" data-name="Path 4221" d="M9.131,2.448a1.376,1.376,0,0,1-.676.392c-.216-.02-.078-.265.176-.48a1.446,1.446,0,0,1,.676-.353C9.542,2.027,9.15,2.429,9.131,2.448Z" transform="translate(-3.295 -0.792)" fill="#00a000"/>
      <path id="Path_4222" data-name="Path 4222" d="M16.563.711c.1.206-.118.314-.323.235-.274-.108-.294-.412-.137-.49a.231.231,0,0,1,.078-.02A.512.512,0,0,1,16.563.711Z" transform="translate(-6.316 -0.172)" fill="#00a000"/>
      <path id="Path_4223" data-name="Path 4223" d="M26.067,5.153c.216.3.225.539.02.51-.343-.049-.99-.9-.823-1.078a.093.093,0,0,1,.069-.02C25.577,4.585,25.91,4.918,26.067,5.153Z" transform="translate(-9.96 -1.802)" fill="#00a000"/>
      <path id="Path_4224" data-name="Path 4224" d="M.418,13.683c-.029.245-.108.666-.265.7-.294-.059-.108-1.362.088-1.489l.039-.02C.447,12.9.457,13.389.418,13.683Z" transform="translate(0 -5.454)" fill="#00a000"/>
      <path id="Path_4225" data-name="Path 4225" d="M30.509,18.98c-.118.461-.333.755-.431.578-.137-.274.1-1.313.372-1.362C30.607,18.225,30.6,18.627,30.509,18.98Z" transform="translate(-11.855 -7.708)" fill="#00a000"/>
      <path id="Path_4226" data-name="Path 4226" d="M6.2,27.337c.186.216.3.421.137.4-.333-.049-1.068-.813-.892-.921l.049-.01A1.586,1.586,0,0,1,6.2,27.337Z" transform="translate(-2.14 -11.422)" fill="#00a000"/>
      <path id="Path_4227" data-name="Path 4227" d="M20.649,29.6c-.274.186-.647.333-.647.225a1.481,1.481,0,0,1,.872-.608c.167.02.02.186-.1.284C20.757,29.514,20.708,29.563,20.649,29.6Z" transform="translate(-7.894 -12.374)" fill="#00a000"/>
      <path id="Path_4228" data-name="Path 4228" d="M15.018,31.063c.049.1.02.176-.186.118s-.294-.186-.2-.245l.059-.02A.3.3,0,0,1,15.018,31.063Z" transform="translate(-5.761 -13.041)" fill="#00a000"/>
      <path id="Path_4229" data-name="Path 4229" d="M12.542.355C12.277.521,12.081.56,12.1.5c.02-.108.49-.314.637-.323.02,0,.049,0-.02.059A1.816,1.816,0,0,1,12.542.355Z" transform="translate(-4.775 -0.07)" fill="#00a000"/>
      <path id="Path_4230" data-name="Path 4230" d="M15.154.1a.251.251,0,0,1-.2.118c-.088-.01-.078-.069-.02-.127a.394.394,0,0,1,.2-.088C15.212.01,15.154.1,15.154.1Z" transform="translate(-5.878)" fill="#00a000"/>
      <path id="Path_4231" data-name="Path 4231" d="M.445,18.5c.069.323.069.539.02.51A2.261,2.261,0,0,1,.22,17.84,1.868,1.868,0,0,1,.445,18.5Z" transform="translate(-0.077 -7.551)" fill="#00a000"/>
      <path id="Path_4232" data-name="Path 4232" d="M29.068,7.593c.118.206.186.412.088.382-.167-.049-.608-.8-.49-.853h.01A1.254,1.254,0,0,1,29.068,7.593Z" transform="translate(-11.306 -3.011)" fill="#00a000"/>
      <path id="Path_4233" data-name="Path 4233" d="M3.305,25.032c.029.039.255.353.186.372-.157-.029-.755-.8-.657-.862h.01A2.058,2.058,0,0,1,3.305,25.032Z" transform="translate(-1.115 -10.375)" fill="#00a000"/>
      <path id="Path_4234" data-name="Path 4234" d="M17.867.2c.127.049.186.088.167.1a1.426,1.426,0,0,1-.588-.186l.01-.01A2.923,2.923,0,0,1,17.867.2Z" transform="translate(-6.885 -0.038)" fill="#00a000"/>
      <path id="Path_4235" data-name="Path 4235" d="M2.264,7.214a1.858,1.858,0,0,1-.255.333c-.088-.029.353-.686.421-.715h.01C2.49,6.851,2.294,7.175,2.264,7.214Z" transform="translate(-0.789 -2.887)" fill="#00a000"/>
      <path id="Path_4236" data-name="Path 4236" d="M5.439,3.59c-.216.206-.353.284-.363.235a1.469,1.469,0,0,1,.6-.539C5.743,3.286,5.576,3.463,5.439,3.59Z" transform="translate(-2.003 -1.297)" fill="#00a000"/>
      <path id="Path_4237" data-name="Path 4237" d="M20.678.908c.157.088.235.157.186.167-.1.02-.735-.323-.686-.363h.02A1.649,1.649,0,0,1,20.678.908Z" transform="translate(-7.963 -0.281)" fill="#00a000"/>
      <path id="Path_4238" data-name="Path 4238" d="M24.207,2.593c.176.137.265.245.2.245-.127.01-.872-.539-.794-.588h.02A2.065,2.065,0,0,1,24.207,2.593Z" transform="translate(-9.316 -0.888)" fill="#00a000"/>
      <path id="Path_4239" data-name="Path 4239" d="M9.493,1.209c-.069.039-.274.147-.3.127-.01-.059.441-.274.539-.284C9.738,1.082,9.533,1.189,9.493,1.209Z" transform="translate(-3.627 -0.415)" fill="#00a000"/>
    </g>
    <g id="Stock_Market_News_Stock_Advice_Trading_Tips___InvestorPlace-1-2" data-name="Stock Market News, Stock Advice &amp; Trading Tips _ InvestorPlace-1" transform="translate(359 1296)">
      <path id="Path_4175-2" data-name="Path 4175" d="M38.865,7.3h1.942v11.05H38.865ZM51,7.3h1.9v11.05H51.046l-5.259-7.614v7.614h-1.9V7.3h1.849L51,14.915Zm3.735,0h2.128l3,8.716L62.91,7.3h2.035l-4.116,11.05H58.794Zm11.995,0h7.479V9.144H68.671v2.735H73.66v1.843H68.671v2.785h5.723v1.843H66.729ZM81.771,9.334a4.275,4.275,0,0,0-1.477-.3,1.841,1.841,0,0,0-1.106.3.919.919,0,0,0-.418.8,1.062,1.062,0,0,0,.279.751,2.257,2.257,0,0,0,.743.5,7.884,7.884,0,0,0,1.152.451,13.39,13.39,0,0,1,1.709.651,2.87,2.87,0,0,1,1.152.992,2.764,2.764,0,0,1,.465,1.693,3.049,3.049,0,0,1-.511,1.743,2.965,2.965,0,0,1-1.385,1.142,5.129,5.129,0,0,1-2.034.4,5.646,5.646,0,0,1-2.351-.5A6.251,6.251,0,0,1,76,16.668l.827-1.793a6.205,6.205,0,0,0,1.756,1.192,4.312,4.312,0,0,0,1.8.451,2.014,2.014,0,0,0,1.291-.351,1.105,1.105,0,0,0,.465-.942,1.189,1.189,0,0,0-.279-.8,2.258,2.258,0,0,0-.743-.5c-.279-.15-.7-.25-1.2-.451a13.392,13.392,0,0,1-1.709-.651,2.7,2.7,0,0,1-1.106-.942,2.764,2.764,0,0,1-.465-1.693,2.861,2.861,0,0,1,1.8-2.785A5.128,5.128,0,0,1,80.479,7a6.694,6.694,0,0,1,3.745,1.142L83.4,10.136C82.839,9.835,82.328,9.585,81.771,9.334ZM85.506,7.3h8.353V9.194H90.671v9.157H88.683V9.184H85.5V7.3Zm17.123.591a5.845,5.845,0,0,1,1.988,2.044,6.015,6.015,0,0,1,.743,2.885,5.662,5.662,0,0,1-.743,2.885,5.475,5.475,0,0,1-1.988,2.044,5.477,5.477,0,0,1-5.537,0A5.84,5.84,0,0,1,95.1,15.706a6.009,6.009,0,0,1-.744-2.885A5.656,5.656,0,0,1,95.1,9.935a5.467,5.467,0,0,1,1.988-2.044A5.278,5.278,0,0,1,99.86,7.14,5.349,5.349,0,0,1,102.629,7.892ZM98.15,9.535a3.922,3.922,0,0,0-1.291,1.343,3.792,3.792,0,0,0-.465,1.893,3.838,3.838,0,0,0,1.756,3.286,3.032,3.032,0,0,0,1.756.5,2.986,2.986,0,0,0,1.709-.5,3.945,3.945,0,0,0,1.245-1.393,3.792,3.792,0,0,0,.465-1.893,3.665,3.665,0,0,0-.465-1.893,3.779,3.779,0,0,0-1.245-1.343,2.986,2.986,0,0,0-1.709-.5A3.107,3.107,0,0,0,98.15,9.535Zm15.832,8.816-1.756-3.286H109.55V18.3h-1.942V7.3h4.246a4.559,4.559,0,0,1,3.093.992,3.491,3.491,0,0,1,1.059,2.785,4.618,4.618,0,0,1-.511,2.194,3.586,3.586,0,0,1-1.524,1.393l2.258,3.637h-2.258ZM109.5,13.222h2.3a2.534,2.534,0,0,0,1.709-.5,2.006,2.006,0,0,0,.6-1.543,1.693,1.693,0,0,0-.6-1.493,2.455,2.455,0,0,0-1.709-.5h-2.3Zm16.52-5.069a3.472,3.472,0,0,1,1.012,2.685,3.831,3.831,0,0,1-1.012,2.785,4.139,4.139,0,0,1-2.955.992H120.3V18.2h-1.013V7.21h3.781A4.5,4.5,0,0,1,126.024,8.152Zm-.744,4.829a2.718,2.718,0,0,0,.78-2.094,2.726,2.726,0,0,0-.78-2.044,3.128,3.128,0,0,0-2.257-.7H120.3v5.53h2.722A3.137,3.137,0,0,0,125.28,12.981Zm4.339-5.771h1.012V17.269h4.525v.992h-5.491V7.21ZM145.4,18.261l-1.2-2.935H138.52l-1.2,2.935h-1.059l4.618-11h1.059l4.618,11Zm-6.5-3.927h4.9l-2.443-5.971Zm15.553-5.881a3.972,3.972,0,0,0-1.663-.351,4.178,4.178,0,0,0-3.744,2.294,4.988,4.988,0,0,0-.6,2.344,4.649,4.649,0,0,0,.6,2.344,4.812,4.812,0,0,0,1.57,1.693,4.129,4.129,0,0,0,2.174.651,3.972,3.972,0,0,0,1.663-.351,4.326,4.326,0,0,0,1.431-.992l.6.7a6.205,6.205,0,0,1-1.756,1.192,4.781,4.781,0,0,1-1.988.451,5.049,5.049,0,0,1-2.676-.751,5.716,5.716,0,0,1-1.942-2.044,5.784,5.784,0,0,1-.7-2.835,5.178,5.178,0,0,1,.744-2.785,5.345,5.345,0,0,1,1.942-2.044,5.049,5.049,0,0,1,2.676-.751,5.434,5.434,0,0,1,1.988.4,6.029,6.029,0,0,1,1.709,1.142l-.6.741A4.45,4.45,0,0,0,154.444,8.453Zm4.794-1.242h6.828V8.2h-5.816V12.14h5.212v.992h-5.212v4.128h6v.992h-7.014Z" transform="translate(-15.339 -3.238)" fill="#fff"/>
      <path id="Path_4176-2" data-name="Path 4176" d="M31.228,14c.01.167.02.451-.039.48a1.822,1.822,0,0,1-.108-1.049h.01C31.17,13.456,31.219,13.8,31.228,14Z" transform="translate(-12.251 -5.684)" fill="#00a000"/>
      <path id="Path_4177-2" data-name="Path 4177" d="M14.983,12.117a1.52,1.52,0,1,1-1.509-1.627A1.529,1.529,0,0,1,14.983,12.117Z" transform="translate(-4.717 -4.475)" fill="#00a000"/>
      <path id="Path_4178-2" data-name="Path 4178" d="M12.244,16.929a1.426,1.426,0,0,1-1.391,1.323,1.567,1.567,0,0,1-1.009-2.675,1.389,1.389,0,0,1,.911-.343A1.552,1.552,0,0,1,12.244,16.929Z" transform="translate(-3.702 -6.498)" fill="#00a000"/>
      <path id="Path_4179-2" data-name="Path 4179" d="M19.573,14.889a1.484,1.484,0,0,1-1.431,1.382,1.542,1.542,0,0,1-.931-2.734,1.466,1.466,0,0,1,.931-.343A1.513,1.513,0,0,1,19.573,14.889Z" transform="translate(-6.573 -5.629)" fill="#00a000"/>
      <path id="Path_4180-2" data-name="Path 4180" d="M16.887,19.625a1.454,1.454,0,0,1-2.607.627,1.417,1.417,0,0,1,1.225-2.234A1.38,1.38,0,0,1,16.887,19.625Z" transform="translate(-5.533 -7.679)" fill="#00a000"/>
      <path id="Path_4181-2" data-name="Path 4181" d="M10.627,9.68a1.412,1.412,0,0,1-1.313,1.176c-1.254-.069-1.264-1.509-.529-2.175a1.275,1.275,0,0,1,.833-.343A1.082,1.082,0,0,1,10.627,9.68Z" transform="translate(-3.271 -3.548)" fill="#00a000"/>
      <path id="Path_4182-2" data-name="Path 4182" d="M17.393,7.934a1.209,1.209,0,0,1-2.1.735,1.157,1.157,0,0,1,.823-2A1.312,1.312,0,0,1,17.393,7.934Z" transform="translate(-5.892 -2.837)" fill="#00a000"/>
      <path id="Path_4183-2" data-name="Path 4183" d="M21.743,10.383a1.08,1.08,0,0,1-1.842.882c-.872-.735-.617-2.146.4-2.254A.518.518,0,0,0,20.42,9,1.459,1.459,0,0,1,21.743,10.383Z" transform="translate(-7.645 -3.832)" fill="#00a000"/>
      <path id="Path_4184-2" data-name="Path 4184" d="M7.9,14.191a1.3,1.3,0,0,1-1.147,1.254c-1.215-.078-1.421-1.833-.559-2.528a1.035,1.035,0,0,1,.617-.225A1.268,1.268,0,0,1,7.9,14.191Z" transform="translate(-2.235 -5.407)" fill="#00a000"/>
      <path id="Path_4185-2" data-name="Path 4185" d="M23.586,17.72c-.225,1.156-1.45,1.587-2.019.706a1.462,1.462,0,0,1,1.029-2.2A1.171,1.171,0,0,1,23.586,17.72Z" transform="translate(-8.431 -6.908)" fill="#00a000"/>
      <path id="Path_4186-2" data-name="Path 4186" d="M10.153,21.575a.957.957,0,0,1-1.7.686c-.8-.715-.657-1.94.255-2.048a.517.517,0,0,0,.118-.01A1.441,1.441,0,0,1,10.153,21.575Z" transform="translate(-3.131 -8.594)" fill="#00a000"/>
      <path id="Path_4187-2" data-name="Path 4187" d="M14.365,23.915a1.051,1.051,0,0,1-1.029.921c-1.019-.049-1.6-1.245-.921-1.881a1.1,1.1,0,0,1,.725-.274A1.171,1.171,0,0,1,14.365,23.915Z" transform="translate(-4.785 -9.637)" fill="#00a000"/>
      <path id="Path_4188-2" data-name="Path 4188" d="M20.743,22.219c-.333.951-1.578,1.382-2.048.48a1.331,1.331,0,0,1,1.186-1.833A.949.949,0,0,1,20.743,22.219Z" transform="translate(-7.332 -8.873)" fill="#00a000"/>
      <path id="Path_4189-2" data-name="Path 4189" d="M13.374,5.83a1.157,1.157,0,0,1-1.137.921c-.98-.059-1.107-1.039-.47-1.637a1.139,1.139,0,0,1,.764-.323A.876.876,0,0,1,13.374,5.83Z" transform="translate(-4.489 -2.034)" fill="#00a000"/>
      <path id="Path_4190-2" data-name="Path 4190" d="M6.031,19.092c.01.1.049.97-.676,1.029a1.409,1.409,0,0,1-.794-2.215.675.675,0,0,1,.4-.147C5.639,17.808,5.992,18.562,6.031,19.092Z" transform="translate(-1.684 -7.553)" fill="#00a000"/>
      <path id="Path_4191-2" data-name="Path 4191" d="M25.8,13.037c.02.941-.745,1.45-1.362.911-.725-.637-.627-2.175.343-2.244C25.416,11.744,25.778,12.42,25.8,13.037Z" transform="translate(-9.457 -4.98)" fill="#00a000"/>
      <path id="Path_4192-2" data-name="Path 4192" d="M17.889,26.14a1.157,1.157,0,0,1-.97.706.8.8,0,0,1-.421-1.431,1.089,1.089,0,0,1,.706-.274A.7.7,0,0,1,17.889,26.14Z" transform="translate(-6.389 -10.764)" fill="#00a000"/>
      <path id="Path_4193-2" data-name="Path 4193" d="M19.044,4.359a.6.6,0,0,1-.617.755c-.872-.049-1.274-.99-.8-1.45a.663.663,0,0,1,.412-.167A1.214,1.214,0,0,1,19.044,4.359Z" transform="translate(-6.877 -1.38)" fill="#00a000"/>
      <path id="Path_4194-2" data-name="Path 4194" d="M7.311,7.44a1.35,1.35,0,0,1-1.058.911c-.755-.059-.608-1.1.059-1.666a.988.988,0,0,1,.608-.274C7.438,6.45,7.467,7.038,7.311,7.44Z" transform="translate(-2.268 -2.722)" fill="#00a000"/>
      <path id="Path_4195-2" data-name="Path 4195" d="M4.492,11.663c-.078.353-.343.97-.882,1.009-.784-.069-.7-1.49-.049-2.038a.671.671,0,0,1,.421-.176C4.472,10.507,4.609,11.114,4.492,11.663Z" transform="translate(-1.203 -4.445)" fill="#00a000"/>
      <path id="Path_4196-2" data-name="Path 4196" d="M23.085,6.247c.216.666-.284,1.078-.921.745-.735-.392-.97-1.529-.353-1.7.039-.01.1-.01.137-.02A1.445,1.445,0,0,1,23.085,6.247Z" transform="translate(-8.468 -2.239)" fill="#00a000"/>
      <path id="Path_4197-2" data-name="Path 4197" d="M9.094,25.732c.01.029.206.666-.323.7-.725-.039-1.49-1.127-1.068-1.519a.414.414,0,0,1,.3-.108A1.347,1.347,0,0,1,9.094,25.732Z" transform="translate(-2.992 -10.63)" fill="#00a000"/>
      <path id="Path_4198-2" data-name="Path 4198" d="M26.446,20.57c-.274.764-1.078,1.215-1.343.588-.265-.608.225-1.715.941-1.764C26.6,19.443,26.613,20.109,26.446,20.57Z" transform="translate(-9.879 -8.237)" fill="#00a000"/>
      <path id="Path_4199-2" data-name="Path 4199" d="M23.323,24.641c-.392.676-1.235,1.029-1.391.451a1.339,1.339,0,0,1,1.117-1.441C23.558,23.691,23.587,24.2,23.323,24.641Z" transform="translate(-8.646 -10.032)" fill="#00a000"/>
      <path id="Path_4200-2" data-name="Path 4200" d="M12.88,27.634c.059.519-.431.794-1,.343-.6-.461-.51-1.078,0-1.137h.078A.962.962,0,0,1,12.88,27.634Z" transform="translate(-4.525 -11.435)" fill="#00a000"/>
      <path id="Path_4201-2" data-name="Path 4201" d="M15.546,2.8a.7.7,0,0,1-1.205.363.673.673,0,0,1,.568-1.029A.652.652,0,0,1,15.546,2.8Z" transform="translate(-5.612 -0.843)" fill="#00a000"/>
      <path id="Path_4202-2" data-name="Path 4202" d="M10.5,3.959c-.3.686-1.127.931-1.333.519S9.627,3.293,10.2,3.254C10.568,3.254,10.646,3.616,10.5,3.959Z" transform="translate(-3.604 -1.284)" fill="#00a000"/>
      <path id="Path_4203-2" data-name="Path 4203" d="M2.642,16.425c.01.735-.372,1.147-.745.794-.49-.47-.5-1.911.127-1.97C2.466,15.3,2.632,15.994,2.642,16.425Z" transform="translate(-0.608 -6.478)" fill="#00a000"/>
      <path id="Path_4204-2" data-name="Path 4204" d="M26.842,8.6c.186.627-.127,1.029-.608.774-.627-.333-.951-1.578-.451-1.744.029-.01.078-.01.108-.02C26.362,7.648,26.725,8.206,26.842,8.6Z" transform="translate(-10.079 -3.229)" fill="#00a000"/>
      <path id="Path_4205-2" data-name="Path 4205" d="M28.824,15.872c-.069.774-.568,1.2-.9.764-.4-.519-.235-1.852.372-1.921C28.726,14.755,28.863,15.421,28.824,15.872Z" transform="translate(-10.934 -6.251)" fill="#00a000"/>
      <path id="Path_4206-2" data-name="Path 4206" d="M5.2,23.6c.01.029.255.7-.176.745-.627-.049-1.352-1.245-.98-1.617a.308.308,0,0,1,.186-.078C4.647,22.677,5.039,23.157,5.2,23.6Z" transform="translate(-1.554 -9.605)" fill="#00a000"/>
      <path id="Path_4207-2" data-name="Path 4207" d="M15.822,29.161a.525.525,0,0,1-.99.1c-.157-.3.01-.657.48-.686C15.724,28.592,15.9,28.886,15.822,29.161Z" transform="translate(-5.831 -12.119)" fill="#00a000"/>
      <path id="Path_4208-2" data-name="Path 4208" d="M20.089,28.022a1.306,1.306,0,0,1-.833.49c-.412-.029-.284-.608.127-.951a.86.86,0,0,1,.568-.235C20.344,27.356,20.344,27.708,20.089,28.022Z" transform="translate(-7.5 -11.627)" fill="#00a000"/>
      <path id="Path_4209-2" data-name="Path 4209" d="M19.3,1.872c.118.157.186.4-.118.421-.519-.029-.911-.666-.706-.823a.14.14,0,0,1,.108-.029A1.146,1.146,0,0,1,19.3,1.872Z" transform="translate(-7.271 -0.569)" fill="#00a000"/>
      <path id="Path_4210-2" data-name="Path 4210" d="M13.3,1.425c-.186.382-.725.529-.833.294s.372-.647.7-.666C13.368,1.052,13.387,1.248,13.3,1.425Z" transform="translate(-4.915 -0.415)" fill="#00a000"/>
      <path id="Path_4211-2" data-name="Path 4211" d="M5.551,5.423c-.353.529-.823.725-.882.461a1.458,1.458,0,0,1,.98-1.156C5.933,4.756,5.708,5.188,5.551,5.423Z" transform="translate(-1.841 -2.001)" fill="#00a000"/>
      <path id="Path_4212-2" data-name="Path 4212" d="M22.658,3.3c.127.157.274.47-.039.49-.549-.049-1.1-.853-.921-1.019a.206.206,0,0,1,.108-.039A1.488,1.488,0,0,1,22.658,3.3Z" transform="translate(-8.55 -1.08)" fill="#00a000"/>
      <path id="Path_4213-2" data-name="Path 4213" d="M2.48,9.319c-.029.069-.274.657-.588.686-.4-.059,0-1.205.421-1.48a.32.32,0,0,1,.147-.059C2.706,8.506,2.608,9,2.48,9.319Z" transform="translate(-0.681 -3.589)" fill="#00a000"/>
      <path id="Path_4214-2" data-name="Path 4214" d="M29.848,11.152c.049.245.069.706-.176.735-.461-.059-.725-1.352-.461-1.578a.118.118,0,0,1,.088-.029C29.563,10.319,29.779,10.809,29.848,11.152Z" transform="translate(-11.487 -4.358)" fill="#00a000"/>
      <path id="Path_4215-2" data-name="Path 4215" d="M1.99,21.24c.118.382.1.755-.118.657-.4-.176-.823-1.411-.51-1.5h.029C1.638,20.427,1.892,20.907,1.99,21.24Z" transform="translate(-0.495 -8.645)" fill="#00a000"/>
      <path id="Path_4216-2" data-name="Path 4216" d="M27.867,23.312c-.255.441-.657.764-.735.51-.108-.333.412-1.264.794-1.3C28.151,22.548,28.072,22.949,27.867,23.312Z" transform="translate(-10.702 -9.539)" fill="#00a000"/>
      <path id="Path_4217-2" data-name="Path 4217" d="M9.548,29.225c.147.157.265.353.1.353-.323.01-1.176-.588-1.019-.8a.114.114,0,0,1,.1-.039A1.54,1.54,0,0,1,9.548,29.225Z" transform="translate(-3.397 -12.182)" fill="#00a000"/>
      <path id="Path_4218-2" data-name="Path 4218" d="M24.422,27.031a1.408,1.408,0,0,1-.725.461c-.274-.029.1-.6.461-.882a.709.709,0,0,1,.431-.206C24.823,26.433,24.686,26.747,24.422,27.031Z" transform="translate(-9.315 -11.262)" fill="#00a000"/>
      <path id="Path_4219-2" data-name="Path 4219" d="M12.68,30.444c.059.069.2.235.039.255-.323,0-.951-.392-.794-.549a.163.163,0,0,1,.108-.039A1.026,1.026,0,0,1,12.68,30.444Z" transform="translate(-4.697 -12.726)" fill="#00a000"/>
      <path id="Path_4220-2" data-name="Path 4220" d="M17.358,30.561a.884.884,0,0,1-.451.216c-.206-.01-.069-.294.088-.431a.526.526,0,0,1,.343-.137C17.563,30.227,17.524,30.4,17.358,30.561Z" transform="translate(-6.631 -12.764)" fill="#00a000"/>
      <path id="Path_4221-2" data-name="Path 4221" d="M9.131,2.448a1.376,1.376,0,0,1-.676.392c-.216-.02-.078-.265.176-.48a1.446,1.446,0,0,1,.676-.353C9.542,2.027,9.15,2.429,9.131,2.448Z" transform="translate(-3.295 -0.792)" fill="#00a000"/>
      <path id="Path_4222-2" data-name="Path 4222" d="M16.563.711c.1.206-.118.314-.323.235-.274-.108-.294-.412-.137-.49a.231.231,0,0,1,.078-.02A.512.512,0,0,1,16.563.711Z" transform="translate(-6.316 -0.172)" fill="#00a000"/>
      <path id="Path_4223-2" data-name="Path 4223" d="M26.067,5.153c.216.3.225.539.02.51-.343-.049-.99-.9-.823-1.078a.093.093,0,0,1,.069-.02C25.577,4.585,25.91,4.918,26.067,5.153Z" transform="translate(-9.96 -1.802)" fill="#00a000"/>
      <path id="Path_4224-2" data-name="Path 4224" d="M.418,13.683c-.029.245-.108.666-.265.7-.294-.059-.108-1.362.088-1.489l.039-.02C.447,12.9.457,13.389.418,13.683Z" transform="translate(0 -5.454)" fill="#00a000"/>
      <path id="Path_4225-2" data-name="Path 4225" d="M30.509,18.98c-.118.461-.333.755-.431.578-.137-.274.1-1.313.372-1.362C30.607,18.225,30.6,18.627,30.509,18.98Z" transform="translate(-11.855 -7.708)" fill="#00a000"/>
      <path id="Path_4226-2" data-name="Path 4226" d="M6.2,27.337c.186.216.3.421.137.4-.333-.049-1.068-.813-.892-.921l.049-.01A1.586,1.586,0,0,1,6.2,27.337Z" transform="translate(-2.14 -11.422)" fill="#00a000"/>
      <path id="Path_4227-2" data-name="Path 4227" d="M20.649,29.6c-.274.186-.647.333-.647.225a1.481,1.481,0,0,1,.872-.608c.167.02.02.186-.1.284C20.757,29.514,20.708,29.563,20.649,29.6Z" transform="translate(-7.894 -12.374)" fill="#00a000"/>
      <path id="Path_4228-2" data-name="Path 4228" d="M15.018,31.063c.049.1.02.176-.186.118s-.294-.186-.2-.245l.059-.02A.3.3,0,0,1,15.018,31.063Z" transform="translate(-5.761 -13.041)" fill="#00a000"/>
      <path id="Path_4229-2" data-name="Path 4229" d="M12.542.355C12.277.521,12.081.56,12.1.5c.02-.108.49-.314.637-.323.02,0,.049,0-.02.059A1.816,1.816,0,0,1,12.542.355Z" transform="translate(-4.775 -0.07)" fill="#00a000"/>
      <path id="Path_4230-2" data-name="Path 4230" d="M15.154.1a.251.251,0,0,1-.2.118c-.088-.01-.078-.069-.02-.127a.394.394,0,0,1,.2-.088C15.212.01,15.154.1,15.154.1Z" transform="translate(-5.878)" fill="#00a000"/>
      <path id="Path_4231-2" data-name="Path 4231" d="M.445,18.5c.069.323.069.539.02.51A2.261,2.261,0,0,1,.22,17.84,1.868,1.868,0,0,1,.445,18.5Z" transform="translate(-0.077 -7.551)" fill="#00a000"/>
      <path id="Path_4232-2" data-name="Path 4232" d="M29.068,7.593c.118.206.186.412.088.382-.167-.049-.608-.8-.49-.853h.01A1.254,1.254,0,0,1,29.068,7.593Z" transform="translate(-11.306 -3.011)" fill="#00a000"/>
      <path id="Path_4233-2" data-name="Path 4233" d="M3.305,25.032c.029.039.255.353.186.372-.157-.029-.755-.8-.657-.862h.01A2.058,2.058,0,0,1,3.305,25.032Z" transform="translate(-1.115 -10.375)" fill="#00a000"/>
      <path id="Path_4234-2" data-name="Path 4234" d="M17.867.2c.127.049.186.088.167.1a1.426,1.426,0,0,1-.588-.186l.01-.01A2.923,2.923,0,0,1,17.867.2Z" transform="translate(-6.885 -0.038)" fill="#00a000"/>
      <path id="Path_4235-2" data-name="Path 4235" d="M2.264,7.214a1.858,1.858,0,0,1-.255.333c-.088-.029.353-.686.421-.715h.01C2.49,6.851,2.294,7.175,2.264,7.214Z" transform="translate(-0.789 -2.887)" fill="#00a000"/>
      <path id="Path_4236-2" data-name="Path 4236" d="M5.439,3.59c-.216.206-.353.284-.363.235a1.469,1.469,0,0,1,.6-.539C5.743,3.286,5.576,3.463,5.439,3.59Z" transform="translate(-2.003 -1.297)" fill="#00a000"/>
      <path id="Path_4237-2" data-name="Path 4237" d="M20.678.908c.157.088.235.157.186.167-.1.02-.735-.323-.686-.363h.02A1.649,1.649,0,0,1,20.678.908Z" transform="translate(-7.963 -0.281)" fill="#00a000"/>
      <path id="Path_4238-2" data-name="Path 4238" d="M24.207,2.593c.176.137.265.245.2.245-.127.01-.872-.539-.794-.588h.02A2.065,2.065,0,0,1,24.207,2.593Z" transform="translate(-9.316 -0.888)" fill="#00a000"/>
      <path id="Path_4239-2" data-name="Path 4239" d="M9.493,1.209c-.069.039-.274.147-.3.127-.01-.059.441-.274.539-.284C9.738,1.082,9.533,1.189,9.493,1.209Z" transform="translate(-3.627 -0.415)" fill="#00a000"/>
    </g>
  </g>
</svg>
