<svg xmlns="http://www.w3.org/2000/svg" width="344" height="48" viewBox="0 0 344 48">
  <g id="partners_u_today" transform="translate(-176 -1377)">
    <rect id="Rectangle_1051" data-name="Rectangle 1051" width="172" height="48" transform="translate(176 1377)" fill="#151515" opacity="0"/>
    <path id="Path_3898" data-name="Path 3898" d="M0,0H172V48H0Z" transform="translate(348 1377)" fill="#151515" opacity="0"/>
    <path id="Path_3929" data-name="Path 3929" d="M2.659,18.693A9.213,9.213,0,0,1,0,11.673V.409H6.981v11.02a4.994,4.994,0,0,0,.831,3.264,2.927,2.927,0,0,0,2.328.979,2.811,2.811,0,0,0,2.326-.979,4.981,4.981,0,0,0,.831-3.264V.409h6.9V11.592a9.521,9.521,0,0,1-2.659,7.1c-1.828,1.715-4.239,2.531-7.479,2.531-3.16,0-5.651-.816-7.4-2.531M26.015,2.45a1.546,1.546,0,0,1,1.33.49,1.428,1.428,0,0,1,.5,1.223,1.323,1.323,0,0,1-.5,1.225,1.682,1.682,0,0,1-1.33.49,1.678,1.678,0,0,1-1.33-.49,1.551,1.551,0,0,1-.5-1.225,1.542,1.542,0,0,1,.5-1.223,2.021,2.021,0,0,1,1.33-.49m0-2.041a4.092,4.092,0,0,0-2.744,1.06,3.37,3.37,0,0,0-1.079,2.694,3.367,3.367,0,0,0,1.079,2.694A3.794,3.794,0,0,0,26.1,7.919a3.794,3.794,0,0,0,2.827-1.062A3.6,3.6,0,0,0,30,4.163a3.485,3.485,0,0,0-1.079-2.694A4.528,4.528,0,0,0,26.015.409M38.149,5.795H32.082V.409H51.2V5.714H45.13V20.734H38.149ZM57.6,19.918a10.8,10.8,0,0,1-4.156-3.756,10.217,10.217,0,0,1-1.495-5.469A10.037,10.037,0,0,1,57.6,1.469,11.232,11.232,0,0,1,63.581,0a12.9,12.9,0,0,1,5.984,1.388,10.81,10.81,0,0,1,4.154,3.754,10.029,10.029,0,0,1,1.495,5.471,10.034,10.034,0,0,1-5.649,9.222,13.967,13.967,0,0,1-11.968.083m8.31-4.816a4.41,4.41,0,0,0,1.663-1.8,5.389,5.389,0,0,0,.583-2.692,5.392,5.392,0,0,0-.583-2.694,4.979,4.979,0,0,0-1.663-1.8,4.458,4.458,0,0,0-4.652,0,4.4,4.4,0,0,0-1.663,1.8,5.392,5.392,0,0,0-.583,2.694,6.455,6.455,0,0,0,.583,2.692,5,5,0,0,0,1.663,1.8,4.533,4.533,0,0,0,2.326.653,5.508,5.508,0,0,0,2.326-.653M77.793.409H88.014a14.746,14.746,0,0,1,6.15,1.223,10.245,10.245,0,0,1,4.156,3.51,9.748,9.748,0,0,1,1.495,5.388,9.748,9.748,0,0,1-1.495,5.388,9.2,9.2,0,0,1-4.156,3.51,14.473,14.473,0,0,1-6.15,1.223H77.793Zm9.973,15.019A5.1,5.1,0,0,0,91.337,14.2a4.569,4.569,0,0,0,1.332-3.591A4.689,4.689,0,0,0,91.337,7.02a5.1,5.1,0,0,0-3.571-1.225H84.774v9.634Zm28.339,1.8h-7.893l-1.417,3.51H99.734L108.791.409h6.9l8.976,20.405h-7.233Zm-1.908-4.9-2-5.142-2,5.142ZM136.8,13.387v7.346h-6.981v-7.51L122.009.326H129.4l4.241,7.02,1.093-1.811L137.881.326h6.731Z" transform="translate(190 1390)"/>
    <path id="Path_3930" data-name="Path 3930" d="M2.659,18.693A9.213,9.213,0,0,1,0,11.673V.409H6.981v11.02a4.994,4.994,0,0,0,.831,3.264,2.927,2.927,0,0,0,2.328.979,2.811,2.811,0,0,0,2.326-.979,4.981,4.981,0,0,0,.831-3.264V.409h6.9V11.592a9.521,9.521,0,0,1-2.659,7.1c-1.828,1.715-4.239,2.531-7.479,2.531-3.16,0-5.651-.816-7.4-2.531M26.015,2.45a1.546,1.546,0,0,1,1.33.49,1.428,1.428,0,0,1,.5,1.223,1.323,1.323,0,0,1-.5,1.225,1.682,1.682,0,0,1-1.33.49,1.678,1.678,0,0,1-1.33-.49,1.551,1.551,0,0,1-.5-1.225,1.542,1.542,0,0,1,.5-1.223,2.021,2.021,0,0,1,1.33-.49m0-2.041a4.092,4.092,0,0,0-2.744,1.06,3.37,3.37,0,0,0-1.079,2.694,3.367,3.367,0,0,0,1.079,2.694A3.794,3.794,0,0,0,26.1,7.919a3.794,3.794,0,0,0,2.827-1.062A3.6,3.6,0,0,0,30,4.163a3.485,3.485,0,0,0-1.079-2.694A4.528,4.528,0,0,0,26.015.409M38.149,5.795H32.082V.409H51.2V5.714H45.13V20.734H38.149ZM57.6,19.918a10.8,10.8,0,0,1-4.156-3.756,10.217,10.217,0,0,1-1.495-5.469A10.037,10.037,0,0,1,57.6,1.469,11.232,11.232,0,0,1,63.581,0a12.9,12.9,0,0,1,5.984,1.388,10.81,10.81,0,0,1,4.154,3.754,10.029,10.029,0,0,1,1.495,5.471,10.034,10.034,0,0,1-5.649,9.222,13.967,13.967,0,0,1-11.968.083m8.31-4.816a4.41,4.41,0,0,0,1.663-1.8,5.389,5.389,0,0,0,.583-2.692,5.392,5.392,0,0,0-.583-2.694,4.979,4.979,0,0,0-1.663-1.8,4.458,4.458,0,0,0-4.652,0,4.4,4.4,0,0,0-1.663,1.8,5.392,5.392,0,0,0-.583,2.694,6.455,6.455,0,0,0,.583,2.692,5,5,0,0,0,1.663,1.8,4.533,4.533,0,0,0,2.326.653,5.508,5.508,0,0,0,2.326-.653M77.793.409H88.014a14.746,14.746,0,0,1,6.15,1.223,10.245,10.245,0,0,1,4.156,3.51,9.748,9.748,0,0,1,1.495,5.388,9.748,9.748,0,0,1-1.495,5.388,9.2,9.2,0,0,1-4.156,3.51,14.473,14.473,0,0,1-6.15,1.223H77.793Zm9.973,15.019A5.1,5.1,0,0,0,91.337,14.2a4.569,4.569,0,0,0,1.332-3.591A4.689,4.689,0,0,0,91.337,7.02a5.1,5.1,0,0,0-3.571-1.225H84.774v9.634Zm28.339,1.8h-7.893l-1.417,3.51H99.734L108.791.409h6.9l8.976,20.405h-7.233Zm-1.908-4.9-2-5.142-2,5.142ZM136.8,13.387v7.346h-6.981v-7.51L122.009.326H129.4l4.241,7.02,1.093-1.811L137.881.326h6.731Z" transform="translate(362 1390)" fill="#fff"/>
  </g>
</svg>
