<svg xmlns="http://www.w3.org/2000/svg" width="344" height="48" viewBox="0 0 344 48">
  <g id="partners_ambcrypto" transform="translate(-176 -1281)">
    <rect id="Rectangle_1053" data-name="Rectangle 1053" width="172" height="48" transform="translate(176 1281)" fill="#151515" opacity="0"/>
    <path id="Path_4109" data-name="Path 4109" d="M0,0H172V48H0Z" transform="translate(348 1281)" fill="#151515" opacity="0"/>
    <g id="CoinRegWatch_1_" data-name="CoinRegWatch (1)" transform="translate(186 1594)">
      <path id="Path_4318" data-name="Path 4318" d="M0-288.652V-277.3H151.309V-300H0Zm108.035-6.885c.061.106,5.046,12.339,5.727,14.049.03.076-.3.1-1.513.1H110.7l-.235-.628c-.129-.34-.265-.673-.3-.734-.053-.1-.393-.113-2.323-.113h-2.262l-.265.734-.265.741h-3.14l.068-.166c.2-.522,5.7-14.026,5.727-14.072C107.77-295.741,107.952-295.688,108.035-295.536Zm-66.266,4.116,3.435,3.995.023-3.866.015-3.866h2.8v14.072h-.734l-3.473-3.874-3.473-3.874-.023,3.722-.015,3.722H37.6v-14.079l.363.023.371.023Zm-17.794-3.745a8.4,8.4,0,0,1,2.232.983,7.026,7.026,0,0,1,2.746,4.176,9.7,9.7,0,0,1-.045,3.586,6.68,6.68,0,0,1-4.645,4.91,8.07,8.07,0,0,1-5.47-.371,6.764,6.764,0,0,1-3.745-4.993,9.676,9.676,0,0,1,.068-3.162,6.661,6.661,0,0,1,5.462-5.235A10.689,10.689,0,0,1,23.975-295.166Zm-12.559-.068a7.274,7.274,0,0,1,.984.257c.393.136.5.2.484.318-.008.076-.068.635-.136,1.241s-.136,1.173-.151,1.256l-.038.166-.56-.219a4.83,4.83,0,0,0-4.055.272,4.457,4.457,0,0,0-.666,6.59,3.82,3.82,0,0,0,3,1.165,5.625,5.625,0,0,0,2.126-.4c.287-.113.461-.151.461-.1s.083.688.182,1.422l.166,1.347-.454.144a7.712,7.712,0,0,1-6.907-.931,6.666,6.666,0,0,1-2.429-3.752,5.793,5.793,0,0,1-.189-1.891,5.777,5.777,0,0,1,.166-1.778,7.42,7.42,0,0,1,1.316-2.746,6.757,6.757,0,0,1,4.252-2.383A15.588,15.588,0,0,1,11.416-295.234Zm68.74,0a8.936,8.936,0,0,1,2.028.454,23.172,23.172,0,0,1-.272,2.769,4.239,4.239,0,0,1-.545-.159,6.675,6.675,0,0,0-3.669-.076,3.991,3.991,0,0,0-2.618,2.913A4.048,4.048,0,0,0,75-288.047a3.927,3.927,0,0,0,1.218,2.867,3.694,3.694,0,0,0,2.754,1.074,4.178,4.178,0,0,0,.772-.045,12.882,12.882,0,0,0,.076-2.088v-2.035h2.8l-.015,3.041-.023,3.041-.59.25a6.964,6.964,0,0,1-2.663.605,6.719,6.719,0,0,1-7.263-6.446,7.334,7.334,0,0,1,1.6-5.084,7.258,7.258,0,0,1,4.759-2.368A6.092,6.092,0,0,1,80.156-295.234Zm54.418.166a3.741,3.741,0,0,1,.7.265,20.946,20.946,0,0,1-.265,2.807,2.3,2.3,0,0,1-.431-.159,4.329,4.329,0,0,0-1.914-.378,3.853,3.853,0,0,0-3.949,2.943,5.351,5.351,0,0,0,.023,2.565,3.95,3.95,0,0,0,2.489,2.648,6.149,6.149,0,0,0,3.578-.2c.227-.091.416-.129.454-.091a16.758,16.758,0,0,1,.333,2.761,4.568,4.568,0,0,1-.779.25,7.154,7.154,0,0,1-7.739-2.262,6.809,6.809,0,0,1-1.392-4.025,6.99,6.99,0,0,1,.711-3.692,6.554,6.554,0,0,1,4.691-3.556A9.9,9.9,0,0,1,134.575-295.067ZM34.5-288.274v6.885H31.7v-13.769h2.8Zm23.188-6.733a3.431,3.431,0,0,1,1.717.961,4.246,4.246,0,0,1,1.074,1.884,6.039,6.039,0,0,1,.008,2.33,3.862,3.862,0,0,1-1.975,2.519c-.31.151-.56.28-.56.287s.711,1.279,1.581,2.822l1.581,2.814H57.989l-1.369-2.595-1.369-2.587-.7-.023-.688-.023v5.228H51.143v-13.769h2.973A14.8,14.8,0,0,1,57.687-295.007Zm12.143,1.21v1.362l-2.058.015-2.065.023-.023,1.377-.015,1.384H69.3v2.724H65.668l.015,1.377.023,1.384,2.179.023,2.171.015v2.724H62.945v-13.769h6.885Zm17.991-.023c2.065,5.25,2.232,5.659,2.3,5.508.038-.083.635-1.619,1.339-3.4.719-1.831,1.316-3.253,1.362-3.253a14.842,14.842,0,0,1,.923,2.118c.461,1.165,1.052,2.693,1.332,3.389a12.854,12.854,0,0,0,.522,1.241c.023-.015.643-1.574,1.392-3.465l1.354-3.435,1.566-.023c1.241-.015,1.551,0,1.521.076-.28.711-4.94,12.3-5.213,12.982l-.386.931-.257-.023-.257-.023-1.226-2.966c-.673-1.627-1.241-2.981-1.263-3s-.6,1.339-1.279,3.019l-1.241,3.056h-.477l-2.784-6.922c-1.528-3.813-2.792-6.975-2.822-7.036-.03-.1.189-.113,1.513-.113H87.3Zm36.329.023v1.362h-3.4v11.046h-2.724l-.015-5.508-.023-5.5-1.717-.023-1.725-.015v-2.724h9.608Zm16.493,1.4v2.761h4.085v-5.523h2.724v13.769h-2.724v-5.523h-4.085v5.523h-2.8v-13.769h2.8Z"/>
      <path id="Path_4319" data-name="Path 4319" d="M1409.894-151.644c-.318.9-.605,1.68-.628,1.74-.03.091.174.106,1.225.106,1.173,0,1.264-.008,1.211-.136-.023-.068-.287-.825-.583-1.68s-.56-1.574-.583-1.6A9.61,9.61,0,0,0,1409.894-151.644Z" transform="translate(-1302.646 -135.676)"/>
      <path id="Path_4320" data-name="Path 4320" d="M240.5-201.408a3.632,3.632,0,0,0-2.353,1.173A4.193,4.193,0,0,0,237-197.216a4.038,4.038,0,0,0,2.7,4.04,4.284,4.284,0,0,0,4.312-.946,4.256,4.256,0,0,0,1.188-3.17A4.016,4.016,0,0,0,240.5-201.408Z" transform="translate(-219.07 -91.095)"/>
      <path id="Path_4321" data-name="Path 4321" d="M712.053-199.931A11.858,11.858,0,0,0,712-198.38v1.5h1.362c1.536,0,1.71-.038,2.1-.477a1.635,1.635,0,0,0,.174-1.861,1.173,1.173,0,0,0-.915-.681A13.8,13.8,0,0,0,712.053-199.931Z" transform="translate(-658.134 -92.451)"/>
    </g>
    <g id="CoinRegWatch_1_2" data-name="CoinRegWatch (1)" transform="translate(358 1594)">
      <path id="Path_4318-2" data-name="Path 4318" d="M0-288.652V-277.3H151.309V-300H0Zm108.035-6.885c.061.106,5.046,12.339,5.727,14.049.03.076-.3.1-1.513.1H110.7l-.235-.628c-.129-.34-.265-.673-.3-.734-.053-.1-.393-.113-2.323-.113h-2.262l-.265.734-.265.741h-3.14l.068-.166c.2-.522,5.7-14.026,5.727-14.072C107.77-295.741,107.952-295.688,108.035-295.536Zm-66.266,4.116,3.435,3.995.023-3.866.015-3.866h2.8v14.072h-.734l-3.473-3.874-3.473-3.874-.023,3.722-.015,3.722H37.6v-14.079l.363.023.371.023Zm-17.794-3.745a8.4,8.4,0,0,1,2.232.983,7.026,7.026,0,0,1,2.746,4.176,9.7,9.7,0,0,1-.045,3.586,6.68,6.68,0,0,1-4.645,4.91,8.07,8.07,0,0,1-5.47-.371,6.764,6.764,0,0,1-3.745-4.993,9.676,9.676,0,0,1,.068-3.162,6.661,6.661,0,0,1,5.462-5.235A10.689,10.689,0,0,1,23.975-295.166Zm-12.559-.068a7.274,7.274,0,0,1,.984.257c.393.136.5.2.484.318-.008.076-.068.635-.136,1.241s-.136,1.173-.151,1.256l-.038.166-.56-.219a4.83,4.83,0,0,0-4.055.272,4.457,4.457,0,0,0-.666,6.59,3.82,3.82,0,0,0,3,1.165,5.625,5.625,0,0,0,2.126-.4c.287-.113.461-.151.461-.1s.083.688.182,1.422l.166,1.347-.454.144a7.712,7.712,0,0,1-6.907-.931,6.666,6.666,0,0,1-2.429-3.752,5.793,5.793,0,0,1-.189-1.891,5.777,5.777,0,0,1,.166-1.778,7.42,7.42,0,0,1,1.316-2.746,6.757,6.757,0,0,1,4.252-2.383A15.588,15.588,0,0,1,11.416-295.234Zm68.74,0a8.936,8.936,0,0,1,2.028.454,23.172,23.172,0,0,1-.272,2.769,4.239,4.239,0,0,1-.545-.159,6.675,6.675,0,0,0-3.669-.076,3.991,3.991,0,0,0-2.618,2.913A4.048,4.048,0,0,0,75-288.047a3.927,3.927,0,0,0,1.218,2.867,3.694,3.694,0,0,0,2.754,1.074,4.178,4.178,0,0,0,.772-.045,12.882,12.882,0,0,0,.076-2.088v-2.035h2.8l-.015,3.041-.023,3.041-.59.25a6.964,6.964,0,0,1-2.663.605,6.719,6.719,0,0,1-7.263-6.446,7.334,7.334,0,0,1,1.6-5.084,7.258,7.258,0,0,1,4.759-2.368A6.092,6.092,0,0,1,80.156-295.234Zm54.418.166a3.741,3.741,0,0,1,.7.265,20.946,20.946,0,0,1-.265,2.807,2.3,2.3,0,0,1-.431-.159,4.329,4.329,0,0,0-1.914-.378,3.853,3.853,0,0,0-3.949,2.943,5.351,5.351,0,0,0,.023,2.565,3.95,3.95,0,0,0,2.489,2.648,6.149,6.149,0,0,0,3.578-.2c.227-.091.416-.129.454-.091a16.758,16.758,0,0,1,.333,2.761,4.568,4.568,0,0,1-.779.25,7.154,7.154,0,0,1-7.739-2.262,6.809,6.809,0,0,1-1.392-4.025,6.99,6.99,0,0,1,.711-3.692,6.554,6.554,0,0,1,4.691-3.556A9.9,9.9,0,0,1,134.575-295.067ZM34.5-288.274v6.885H31.7v-13.769h2.8Zm23.188-6.733a3.431,3.431,0,0,1,1.717.961,4.246,4.246,0,0,1,1.074,1.884,6.039,6.039,0,0,1,.008,2.33,3.862,3.862,0,0,1-1.975,2.519c-.31.151-.56.28-.56.287s.711,1.279,1.581,2.822l1.581,2.814H57.989l-1.369-2.595-1.369-2.587-.7-.023-.688-.023v5.228H51.143v-13.769h2.973A14.8,14.8,0,0,1,57.687-295.007Zm12.143,1.21v1.362l-2.058.015-2.065.023-.023,1.377-.015,1.384H69.3v2.724H65.668l.015,1.377.023,1.384,2.179.023,2.171.015v2.724H62.945v-13.769h6.885Zm17.991-.023c2.065,5.25,2.232,5.659,2.3,5.508.038-.083.635-1.619,1.339-3.4.719-1.831,1.316-3.253,1.362-3.253a14.842,14.842,0,0,1,.923,2.118c.461,1.165,1.052,2.693,1.332,3.389a12.854,12.854,0,0,0,.522,1.241c.023-.015.643-1.574,1.392-3.465l1.354-3.435,1.566-.023c1.241-.015,1.551,0,1.521.076-.28.711-4.94,12.3-5.213,12.982l-.386.931-.257-.023-.257-.023-1.226-2.966c-.673-1.627-1.241-2.981-1.263-3s-.6,1.339-1.279,3.019l-1.241,3.056h-.477l-2.784-6.922c-1.528-3.813-2.792-6.975-2.822-7.036-.03-.1.189-.113,1.513-.113H87.3Zm36.329.023v1.362h-3.4v11.046h-2.724l-.015-5.508-.023-5.5-1.717-.023-1.725-.015v-2.724h9.608Zm16.493,1.4v2.761h4.085v-5.523h2.724v13.769h-2.724v-5.523h-4.085v5.523h-2.8v-13.769h2.8Z" fill="#fff"/>
      <path id="Path_4319-2" data-name="Path 4319" d="M1409.894-151.644c-.318.9-.605,1.68-.628,1.74-.03.091.174.106,1.225.106,1.173,0,1.264-.008,1.211-.136-.023-.068-.287-.825-.583-1.68s-.56-1.574-.583-1.6A9.61,9.61,0,0,0,1409.894-151.644Z" transform="translate(-1302.646 -135.676)" fill="#fff"/>
      <path id="Path_4320-2" data-name="Path 4320" d="M240.5-201.408a3.632,3.632,0,0,0-2.353,1.173A4.193,4.193,0,0,0,237-197.216a4.038,4.038,0,0,0,2.7,4.04,4.284,4.284,0,0,0,4.312-.946,4.256,4.256,0,0,0,1.188-3.17A4.016,4.016,0,0,0,240.5-201.408Z" transform="translate(-219.07 -91.095)" fill="#fff"/>
      <path id="Path_4321-2" data-name="Path 4321" d="M712.053-199.931A11.858,11.858,0,0,0,712-198.38v1.5h1.362c1.536,0,1.71-.038,2.1-.477a1.635,1.635,0,0,0,.174-1.861,1.173,1.173,0,0,0-.915-.681A13.8,13.8,0,0,0,712.053-199.931Z" transform="translate(-658.134 -92.451)" fill="#fff"/>
    </g>
  </g>
</svg>
