<svg xmlns="http://www.w3.org/2000/svg" xmlns:xlink="http://www.w3.org/1999/xlink" width="344" height="48" viewBox="0 0 344 48">
  <defs>
    <clipPath id="clip-path">
      <rect id="Rectangle_1105" data-name="Rectangle 1105" width="158.947" height="13.593" fill="none"/>
    </clipPath>
    <clipPath id="clip-path-2">
      <rect id="Rectangle_1105-2" data-name="Rectangle 1105" width="158.947" height="13.593" fill="#fff"/>
    </clipPath>
  </defs>
  <g id="partners_invest_cuffs" transform="translate(-176 -1281)">
    <rect id="Rectangle_1053" data-name="Rectangle 1053" width="172" height="48" transform="translate(176 1281)" fill="#151515" opacity="0"/>
    <rect id="Rectangle_1057" data-name="Rectangle 1057" width="172" height="48" transform="translate(348 1281)" fill="#151515" opacity="0"/>
    <g id="Group_2091" data-name="Group 2091" transform="translate(183 1298)">
      <g id="Group_2091-2" data-name="Group 2091" transform="translate(0 0)" clip-path="url(#clip-path)">
        <path id="Path_4024" data-name="Path 4024" d="M1310,12.06c-.112.032-.13.133-.154.223a3.561,3.561,0,0,1-3.1,2.722,5.012,5.012,0,0,1-4.221-.837,2.88,2.88,0,0,1-.407-.4c-.989-1.217-.756-1.844.786-2.184.221-.049.245.056.322.2a2.627,2.627,0,0,0,3.209,1.329,1.659,1.659,0,0,0,1.233-1.25,1.617,1.617,0,0,0-.651-1.726,9.875,9.875,0,0,0-1.92-1.042,15.2,15.2,0,0,1-1.956-1.106,3.056,3.056,0,0,1-1.342-3.159,3.015,3.015,0,0,1,1.977-2.5,5.51,5.51,0,0,1,4.215.052,2,2,0,0,1,.405.219c.5.347,1.145.8,1.048,1.341-.085.473-.912.57-1.408.839-.26.141-.328-.128-.438-.255a2.185,2.185,0,0,0-2.455-.678,1.409,1.409,0,0,0-.609,2.45,5.129,5.129,0,0,0,1.595,1.019,14.149,14.149,0,0,1,2.539,1.355,2.963,2.963,0,0,1,1.231,1.881c.112.182-.036.409.1.586Z" transform="translate(-1151.052 -1.709)" fill="#b69e5b"/>
        <path id="Path_4025" data-name="Path 4025" d="M0,4.524c.6,0,1.194.013,1.79,0,.3-.009.4.1.4.4q-.012,5.86,0,11.721c0,.295-.1.419-.4.406C1.191,17.021.6,17.017,0,17V4.524" transform="translate(0 -3.996)" fill="#b69e5b"/>
        <path id="Path_4026" data-name="Path 4026" d="M1373.932,77.051c-.173-.171-.105-.384-.1-.586l.1.008Z" transform="translate(-1214.985 -67.625)" fill="#e1d7bb"/>
        <path id="Path_4027" data-name="Path 4027" d="M89.493,13.545c-1.012-.774-9.01-8.169-9.743-9-.162.137-.078.321-.078.475-.007,2.483-.015,4.967.005,7.45,0,.447-.108.59-.572.585-1.44-.018-1.44,0-1.44-1.453V0c3.309,3.074,6.62,5.94,9.756,9.017.137-.194.066-.41.066-.611.006-2.445.014-4.89-.006-7.335,0-.427.1-.558.544-.555,1.468.011,1.468-.007,1.468,1.459V13.545" transform="translate(-68.686 -0.001)" fill="#b69e5b"/>
        <path id="Path_4028" data-name="Path 4028" d="M936.836,8.593c0,1.175,0,2.349,0,3.524a4.391,4.391,0,0,1-4.566,4.786,9.172,9.172,0,0,1-3.206-.259,4.071,4.071,0,0,1-3-3.757c-.17-1.922-.058-3.848-.087-5.771-.014-.886.008-1.772-.008-2.658-.005-.3.1-.418.4-.4.572.041,1.288-.225,1.678.1.348.293.1,1.016.1,1.548.014,2.022,0,4.044.007,6.066a2.849,2.849,0,0,0,1.495,2.9,3.826,3.826,0,0,0,3.91-.227,3.18,3.18,0,0,0,1.139-2.885q.033-3.466,0-6.933c0-.447.109-.629.574-.579.494.053,1.129-.2,1.453.095s.1.944.11,1.436c.018,1,.005,2,.005,3" transform="translate(-818.911 -3.536)" fill="#b69e5b"/>
        <path id="Path_4029" data-name="Path 4029" d="M787,5.224a6.4,6.4,0,0,0-4.657-1.444,4.561,4.561,0,0,0-4.266,4.885c.088,3.17,3.078,5.417,6.832,4.076a6.513,6.513,0,0,0,1.622-.869c.12-.087.245-.262.39-.2.191.087.079.308.091.469a5.337,5.337,0,0,0,.011.691c.192.907-.309,1.291-1.059,1.613-2.454,1.051-6.5.83-8.677-1.823A6.577,6.577,0,0,1,781.005,2.05a7.893,7.893,0,0,1,5.687.81.692.692,0,0,1,.421.826A15.1,15.1,0,0,0,787,5.224" transform="translate(-686.117 -1.634)" fill="#b69e5b"/>
        <path id="Path_4030" data-name="Path 4030" d="M370.528,10.734c0-1.906.01-3.812-.008-5.718,0-.391.094-.532.509-.528q3.177.029,6.355,0c.415,0,.512.136.511.527,0,1.215.011,1.215-1.2,1.215-1.194,0-2.388.012-3.582-.007-.353-.006-.47.1-.458.457.024.731.026,1.464,0,2.194-.014.382.112.491.49.485,1.386-.021,2.773.007,4.159-.017.431-.007.6.08.6.562-.023,1.28,0,1.28-1.263,1.28-1.175,0-2.35.012-3.524-.007-.357-.006-.464.113-.457.463.02,1.02.026,2.041,0,3.061-.012.426.158.517.542.512,1.367-.017,2.735.008,4.1-.015.431-.007.609.086.6.567-.018,1.25.005,1.25-1.239,1.25-1.83,0-3.659-.017-5.488.011-.494.008-.665-.106-.656-.633.033-1.886.013-3.773.013-5.66" transform="translate(-327.679 -3.969)" fill="#b69f5b"/>
        <path id="Path_4031" data-name="Path 4031" d="M485.316,15.244a4.125,4.125,0,0,1-3.544-1.455c-.842-1.072-.769-1.308.427-1.877.44-.21.655-.251.929.276a2.667,2.667,0,0,0,3.695.746,1.631,1.631,0,0,0,.105-2.519,5.585,5.585,0,0,0-1.626-.974,13.049,13.049,0,0,1-2.282-1.232,3.089,3.089,0,0,1-1.409-3.542,3.34,3.34,0,0,1,2.926-2.5,5.541,5.541,0,0,1,3.432.476,3.041,3.041,0,0,1,1.145,1.111c.168.278.208.492-.173.61a1.806,1.806,0,0,0-.362.178c-.562.327-1.019.542-1.576-.157a2.04,2.04,0,0,0-2.416-.28,1.4,1.4,0,0,0-.475,2.15,3.706,3.706,0,0,0,1.335.987c.857.436,1.75.8,2.576,1.3a3.239,3.239,0,0,1,1.594,3.744,3.553,3.553,0,0,1-2.754,2.8,5.529,5.529,0,0,1-1.545.163" transform="translate(-425.576 -1.851)" fill="#b69e5b"/>
        <path id="Path_4032" data-name="Path 4032" d="M224.115,4.525c.725,0,1.358.013,1.991-.006.284-.008.352.174.434.37,1.121,2.653,2.439,5.222,3.405,7.941a.462.462,0,0,0,.083.118c1.062-2.755,2.349-5.416,3.51-8.131a.445.445,0,0,1,.49-.3c.6.011,1.191,0,1.9,0l-5.9,13.065L224.115,4.525" transform="translate(-198.205 -3.996)" fill="#b69e5b"/>
        <path id="Path_4033" data-name="Path 4033" d="M1193.654,10.7c0-1.905.012-3.811-.009-5.716,0-.413.124-.513.522-.51,2.118.018,4.236.022,6.353,0,.441,0,.549.127.542.552-.017,1.191,0,1.191-1.163,1.191-1.194,0-2.388.022-3.581-.011-.449-.012-.56.137-.539.557a18.458,18.458,0,0,1,0,2.02c-.03.478.155.572.591.564,1.366-.025,2.734,0,4.1-.018.424-.007.608.068.6.556-.028,1.222,0,1.223-1.2,1.223s-2.387.012-3.581-.007c-.378-.006-.5.119-.5.5.016,1.616-.006,3.234.015,4.85.006.421-.1.6-.547.56a6.017,6.017,0,0,0-1.1,0c-.426.038-.51-.148-.507-.534.017-1.924.008-3.849.008-5.774" transform="translate(-1055.645 -3.957)" fill="#b69e5b"/>
        <path id="Path_4034" data-name="Path 4034" d="M1078.49,10.711c0-1.905.008-3.811-.007-5.716,0-.367.089-.5.479-.5q3.205.026,6.411,0c.386,0,.482.125.483.5.005,1.246.02,1.246-1.226,1.246-1.194,0-2.388.009-3.581-.006-.322,0-.441.09-.432.423.021.75.023,1.5,0,2.252-.011.353.1.464.456.46,1.405-.018,2.811.013,4.216-.019.47-.011.577.146.57.587-.019,1.195,0,1.2-1.176,1.2-1.136,0-2.273.03-3.407-.013-.553-.021-.673.174-.663.688.031,1.558,0,3.118.021,4.677.007.432-.119.553-.551.552-1.592,0-1.592.012-1.592-1.588V10.711" transform="translate(-953.797 -3.977)" fill="#b69e5b"/>
        <path id="Path_4035" data-name="Path 4035" d="M601.184,11.651c0,1.6-.012,3.2.008,4.795.005.411-.082.61-.538.566a6.29,6.29,0,0,0-1.154,0c-.426.038-.505-.146-.5-.531.013-3.235,0-6.47.019-9.7,0-.468-.138-.584-.581-.566-.827.034-1.657-.006-2.484.017-.355.009-.454-.111-.46-.46-.022-1.28-.035-1.28,1.251-1.28,2.466,0,4.931.011,7.4-.011.438,0,.549.119.542.547-.02,1.2,0,1.2-1.211,1.2-.52,0-1.043.037-1.559-.01-.558-.05-.762.089-.741.706.052,1.577.017,3.157.017,4.736" transform="translate(-526.639 -3.958)" fill="#b69e5b"/>
      </g>
    </g>
    <g id="Group_2092" data-name="Group 2092" transform="translate(355 1298)">
      <g id="Group_2091-3" data-name="Group 2091" transform="translate(0 0)" clip-path="url(#clip-path-2)">
        <path id="Path_4024-2" data-name="Path 4024" d="M1310,12.06c-.112.032-.13.133-.154.223a3.561,3.561,0,0,1-3.1,2.722,5.012,5.012,0,0,1-4.221-.837,2.88,2.88,0,0,1-.407-.4c-.989-1.217-.756-1.844.786-2.184.221-.049.245.056.322.2a2.627,2.627,0,0,0,3.209,1.329,1.659,1.659,0,0,0,1.233-1.25,1.617,1.617,0,0,0-.651-1.726,9.875,9.875,0,0,0-1.92-1.042,15.2,15.2,0,0,1-1.956-1.106,3.056,3.056,0,0,1-1.342-3.159,3.015,3.015,0,0,1,1.977-2.5,5.51,5.51,0,0,1,4.215.052,2,2,0,0,1,.405.219c.5.347,1.145.8,1.048,1.341-.085.473-.912.57-1.408.839-.26.141-.328-.128-.438-.255a2.185,2.185,0,0,0-2.455-.678,1.409,1.409,0,0,0-.609,2.45,5.129,5.129,0,0,0,1.595,1.019,14.149,14.149,0,0,1,2.539,1.355,2.963,2.963,0,0,1,1.231,1.881c.112.182-.036.409.1.586Z" transform="translate(-1151.052 -1.709)" fill="#fff"/>
        <path id="Path_4025-2" data-name="Path 4025" d="M0,4.524c.6,0,1.194.013,1.79,0,.3-.009.4.1.4.4q-.012,5.86,0,11.721c0,.295-.1.419-.4.406C1.191,17.021.6,17.017,0,17V4.524" transform="translate(0 -3.996)" fill="#fff"/>
        <path id="Path_4026-2" data-name="Path 4026" d="M1373.932,77.051c-.173-.171-.105-.384-.1-.586l.1.008Z" transform="translate(-1214.985 -67.625)" fill="#fff"/>
        <path id="Path_4027-2" data-name="Path 4027" d="M89.493,13.545c-1.012-.774-9.01-8.169-9.743-9-.162.137-.078.321-.078.475-.007,2.483-.015,4.967.005,7.45,0,.447-.108.59-.572.585-1.44-.018-1.44,0-1.44-1.453V0c3.309,3.074,6.62,5.94,9.756,9.017.137-.194.066-.41.066-.611.006-2.445.014-4.89-.006-7.335,0-.427.1-.558.544-.555,1.468.011,1.468-.007,1.468,1.459V13.545" transform="translate(-68.686 -0.001)" fill="#fff"/>
        <path id="Path_4028-2" data-name="Path 4028" d="M936.836,8.593c0,1.175,0,2.349,0,3.524a4.391,4.391,0,0,1-4.566,4.786,9.172,9.172,0,0,1-3.206-.259,4.071,4.071,0,0,1-3-3.757c-.17-1.922-.058-3.848-.087-5.771-.014-.886.008-1.772-.008-2.658-.005-.3.1-.418.4-.4.572.041,1.288-.225,1.678.1.348.293.1,1.016.1,1.548.014,2.022,0,4.044.007,6.066a2.849,2.849,0,0,0,1.495,2.9,3.826,3.826,0,0,0,3.91-.227,3.18,3.18,0,0,0,1.139-2.885q.033-3.466,0-6.933c0-.447.109-.629.574-.579.494.053,1.129-.2,1.453.095s.1.944.11,1.436c.018,1,.005,2,.005,3" transform="translate(-818.911 -3.536)" fill="#fff"/>
        <path id="Path_4029-2" data-name="Path 4029" d="M787,5.224a6.4,6.4,0,0,0-4.657-1.444,4.561,4.561,0,0,0-4.266,4.885c.088,3.17,3.078,5.417,6.832,4.076a6.513,6.513,0,0,0,1.622-.869c.12-.087.245-.262.39-.2.191.087.079.308.091.469a5.337,5.337,0,0,0,.011.691c.192.907-.309,1.291-1.059,1.613-2.454,1.051-6.5.83-8.677-1.823A6.577,6.577,0,0,1,781.005,2.05a7.893,7.893,0,0,1,5.687.81.692.692,0,0,1,.421.826A15.1,15.1,0,0,0,787,5.224" transform="translate(-686.117 -1.634)" fill="#fff"/>
        <path id="Path_4030-2" data-name="Path 4030" d="M370.528,10.734c0-1.906.01-3.812-.008-5.718,0-.391.094-.532.509-.528q3.177.029,6.355,0c.415,0,.512.136.511.527,0,1.215.011,1.215-1.2,1.215-1.194,0-2.388.012-3.582-.007-.353-.006-.47.1-.458.457.024.731.026,1.464,0,2.194-.014.382.112.491.49.485,1.386-.021,2.773.007,4.159-.017.431-.007.6.08.6.562-.023,1.28,0,1.28-1.263,1.28-1.175,0-2.35.012-3.524-.007-.357-.006-.464.113-.457.463.02,1.02.026,2.041,0,3.061-.012.426.158.517.542.512,1.367-.017,2.735.008,4.1-.015.431-.007.609.086.6.567-.018,1.25.005,1.25-1.239,1.25-1.83,0-3.659-.017-5.488.011-.494.008-.665-.106-.656-.633.033-1.886.013-3.773.013-5.66" transform="translate(-327.679 -3.969)" fill="#fff"/>
        <path id="Path_4031-2" data-name="Path 4031" d="M485.316,15.244a4.125,4.125,0,0,1-3.544-1.455c-.842-1.072-.769-1.308.427-1.877.44-.21.655-.251.929.276a2.667,2.667,0,0,0,3.695.746,1.631,1.631,0,0,0,.105-2.519,5.585,5.585,0,0,0-1.626-.974,13.049,13.049,0,0,1-2.282-1.232,3.089,3.089,0,0,1-1.409-3.542,3.34,3.34,0,0,1,2.926-2.5,5.541,5.541,0,0,1,3.432.476,3.041,3.041,0,0,1,1.145,1.111c.168.278.208.492-.173.61a1.806,1.806,0,0,0-.362.178c-.562.327-1.019.542-1.576-.157a2.04,2.04,0,0,0-2.416-.28,1.4,1.4,0,0,0-.475,2.15,3.706,3.706,0,0,0,1.335.987c.857.436,1.75.8,2.576,1.3a3.239,3.239,0,0,1,1.594,3.744,3.553,3.553,0,0,1-2.754,2.8,5.529,5.529,0,0,1-1.545.163" transform="translate(-425.576 -1.851)" fill="#fff"/>
        <path id="Path_4032-2" data-name="Path 4032" d="M224.115,4.525c.725,0,1.358.013,1.991-.006.284-.008.352.174.434.37,1.121,2.653,2.439,5.222,3.405,7.941a.462.462,0,0,0,.083.118c1.062-2.755,2.349-5.416,3.51-8.131a.445.445,0,0,1,.49-.3c.6.011,1.191,0,1.9,0l-5.9,13.065L224.115,4.525" transform="translate(-198.205 -3.996)" fill="#fff"/>
        <path id="Path_4033-2" data-name="Path 4033" d="M1193.654,10.7c0-1.905.012-3.811-.009-5.716,0-.413.124-.513.522-.51,2.118.018,4.236.022,6.353,0,.441,0,.549.127.542.552-.017,1.191,0,1.191-1.163,1.191-1.194,0-2.388.022-3.581-.011-.449-.012-.56.137-.539.557a18.458,18.458,0,0,1,0,2.02c-.03.478.155.572.591.564,1.366-.025,2.734,0,4.1-.018.424-.007.608.068.6.556-.028,1.222,0,1.223-1.2,1.223s-2.387.012-3.581-.007c-.378-.006-.5.119-.5.5.016,1.616-.006,3.234.015,4.85.006.421-.1.6-.547.56a6.017,6.017,0,0,0-1.1,0c-.426.038-.51-.148-.507-.534.017-1.924.008-3.849.008-5.774" transform="translate(-1055.645 -3.957)" fill="#fff"/>
        <path id="Path_4034-2" data-name="Path 4034" d="M1078.49,10.711c0-1.905.008-3.811-.007-5.716,0-.367.089-.5.479-.5q3.205.026,6.411,0c.386,0,.482.125.483.5.005,1.246.02,1.246-1.226,1.246-1.194,0-2.388.009-3.581-.006-.322,0-.441.09-.432.423.021.75.023,1.5,0,2.252-.011.353.1.464.456.46,1.405-.018,2.811.013,4.216-.019.47-.011.577.146.57.587-.019,1.195,0,1.2-1.176,1.2-1.136,0-2.273.03-3.407-.013-.553-.021-.673.174-.663.688.031,1.558,0,3.118.021,4.677.007.432-.119.553-.551.552-1.592,0-1.592.012-1.592-1.588V10.711" transform="translate(-953.797 -3.977)" fill="#fff"/>
        <path id="Path_4035-2" data-name="Path 4035" d="M601.184,11.651c0,1.6-.012,3.2.008,4.795.005.411-.082.61-.538.566a6.29,6.29,0,0,0-1.154,0c-.426.038-.505-.146-.5-.531.013-3.235,0-6.47.019-9.7,0-.468-.138-.584-.581-.566-.827.034-1.657-.006-2.484.017-.355.009-.454-.111-.46-.46-.022-1.28-.035-1.28,1.251-1.28,2.466,0,4.931.011,7.4-.011.438,0,.549.119.542.547-.02,1.2,0,1.2-1.211,1.2-.52,0-1.043.037-1.559-.01-.558-.05-.762.089-.741.706.052,1.577.017,3.157.017,4.736" transform="translate(-526.639 -3.958)" fill="#fff"/>
      </g>
    </g>
  </g>
</svg>
