<svg xmlns="http://www.w3.org/2000/svg" xmlns:xlink="http://www.w3.org/1999/xlink" width="344" height="48" viewBox="0 0 344 48">
  <defs>
    <clipPath id="clip-path">
      <rect id="Rectangle_1112" data-name="Rectangle 1112" width="136.612" height="21.179" fill="none"/>
    </clipPath>
    <clipPath id="clip-path-2">
      <rect id="Rectangle_1112-2" data-name="Rectangle 1112" width="136.612" height="21.179" fill="#fff"/>
    </clipPath>
  </defs>
  <g id="partners_cryptopotato" transform="translate(-176 -1281)">
    <path id="Path_4041" data-name="Path 4041" d="M0,0H172V48H0Z" transform="translate(176 1281)" fill="#151515" opacity="0"/>
    <rect id="Rectangle_1057" data-name="Rectangle 1057" width="172" height="48" transform="translate(348 1281)" fill="#151515" opacity="0"/>
    <g id="Group_2102" data-name="Group 2102" transform="translate(194 1294)">
      <g id="Group_2102-2" data-name="Group 2102" clip-path="url(#clip-path)">
        <path id="Path_4041-2" data-name="Path 4041" d="M7.824,0c.3.053.607.1.906.162a5.887,5.887,0,0,1,4.824,4.662c.042.177.064.359.095.539.02.118-.015.168-.149.167q-1.446-.008-2.892,0c-.137,0-.163-.068-.2-.175A3.391,3.391,0,0,0,8.094,2.911a3.449,3.449,0,0,0-4.253,1.93A6.868,6.868,0,0,0,3.3,7.055a12,12,0,0,0,.006,2.293A6.041,6.041,0,0,0,4.111,12a3.09,3.09,0,0,0,2.562,1.522,3.465,3.465,0,0,0,2.453-.652,3.669,3.669,0,0,0,1.255-2.037c.059-.22.132-.3.372-.294.9.018,1.792.012,2.688,0,.189,0,.218.034.178.224a7.416,7.416,0,0,1-1.735,3.548,6.033,6.033,0,0,1-3.847,1.946A7.327,7.327,0,0,1,3.7,15.549a6.459,6.459,0,0,1-3.206-3.9,9.851,9.851,0,0,1-.452-2.3c0-.038.01-.084-.04-.1V9.123a.417.417,0,0,0,0-.285V7.779c.043-.067.011-.142.021-.212s0-.126,0-.19A8.2,8.2,0,0,1,1.815,2.271,6.188,6.188,0,0,1,5.856.047C6.035.021,6.219.036,6.4,0Z" transform="translate(-0.001)" fill="#fdd219"/>
        <path id="Path_4042" data-name="Path 4042" d="M650.337,517.332h-.53a.044.044,0,0,1,.016-.062.765.765,0,0,1,.5,0,.044.044,0,0,1,.015.062" transform="translate(-623.324 -496.153)" fill="#fde57e"/>
        <path id="Path_4043" data-name="Path 4043" d="M0,216.909a.231.231,0,0,1,0,.285Z" transform="translate(0 -208.071)" fill="#fde478"/>
        <path id="Path_4044" data-name="Path 4044" d="M644.162,517.617a.171.171,0,0,1,0,.037h-.244a.276.276,0,0,0,0-.035.163.163,0,0,1,.244,0" transform="translate(-617.681 -496.475)" fill="#fdf3c4"/>
        <path id="Path_4045" data-name="Path 4045" d="M0,180.875l.035,0q0,.1,0,.2c-.009.021-.021.023-.034,0Z" transform="translate(0 -173.503)" fill="#fdf2c1"/>
        <path id="Path_4046" data-name="Path 4046" d="M0,185.833l.034,0c0,.071.037.148-.034.207Z" transform="translate(0 -178.257)" fill="#fde57d"/>
        <path id="Path_4047" data-name="Path 4047" d="M662.964,517.824c0-.012,0-.023,0-.035a.13.13,0,0,1,.2,0c0,.011,0,.023,0,.034Z" transform="translate(-635.951 -496.645)" fill="#fdf4c7"/>
        <path id="Path_4048" data-name="Path 4048" d="M539.642,126.36H538.9l-.244,0a5.709,5.709,0,0,1-2.154-.521,3.957,3.957,0,0,1-2.2-2.985,8.535,8.535,0,0,1-.11-1.049c-.009-.123.017-.18.163-.179q1.232.011,2.465,0c.139,0,.17.052.174.178a1.99,1.99,0,0,0,2.034,1.99,2.2,2.2,0,0,0,2.364-2.263c0-.636,0-1.273,0-1.93-.112.16-.2.315-.318.45a3.007,3.007,0,0,1-1.822.982,4.388,4.388,0,0,1-3.416-.65,3.714,3.714,0,0,1-1.578-2.575,6.091,6.091,0,0,1-.066-.992q0-3.451,0-6.9c0-.173.034-.232.221-.229.862.011,1.725.009,2.587,0,.159,0,.2.04.2.2q-.008,3.451,0,6.9a2.033,2.033,0,0,0,.436,1.343,1.7,1.7,0,0,0,1.339.571,2.277,2.277,0,0,0,2.107-.981,2.159,2.159,0,0,0,.326-1.256c0-2.179,0-4.357-.006-6.536,0-.2.047-.249.245-.247.855.012,1.711.008,2.566,0,.14,0,.2.019.2.184-.005,3.814,0,7.629-.008,11.443a4.991,4.991,0,0,1-1.11,3.3,4.834,4.834,0,0,1-2.748,1.619,5.137,5.137,0,0,1-.9.128" transform="translate(-512.423 -105.215)" fill="#fdd219"/>
        <path id="Path_4049" data-name="Path 4049" d="M2811.766,39.261c0-1.731,0-3.461,0-5.192,0-.146.025-.193.184-.191.869.009,1.738.008,2.607,0,.147,0,.192.027.191.184-.009.889,0,1.778-.008,2.667,0,.165.031.212.205.211,1.956-.007,3.911,0,5.867-.009.164,0,.215.03.211.205-.013.583-.012,1.167,0,1.751,0,.165-.032.212-.206.211-1.956-.007-3.911,0-5.866-.009-.165,0-.212.031-.211.205.008,1.527-.009,3.054.013,4.581a2.519,2.519,0,0,0,.391,1.467,1.434,1.434,0,0,0,.98.6,1.9,1.9,0,0,0,1.14-.145,1.528,1.528,0,0,0,.821-1.116,4.474,4.474,0,0,0,.123-1.128q.007-1.293,0-2.586c0-.133.034-.168.167-.167q1.242.01,2.485,0c.133,0,.167.034.166.167,0,1.14.03,2.282-.013,3.42a4.446,4.446,0,0,1-.972,2.718,3.99,3.99,0,0,1-2.453,1.4,5.813,5.813,0,0,1-1.395.118,5.453,5.453,0,0,1-2.218-.507,3.823,3.823,0,0,1-2.038-2.626,6.019,6.019,0,0,1-.166-1.484c.007-1.581,0-3.163,0-4.744" transform="translate(-2697.196 -32.498)"/>
        <path id="Path_4050" data-name="Path 4050" d="M2280.793,39.264c0-1.731,0-3.462,0-5.193,0-.147.028-.192.185-.19q1.3.014,2.607,0c.148,0,.191.03.189.186-.009.9,0,1.792-.008,2.688,0,.149.031.19.186.189,1.962-.006,3.925,0,5.887-.008.167,0,.213.035.21.207-.012.59-.01,1.181,0,1.771,0,.151-.033.189-.187.188-1.962-.006-3.924,0-5.886-.008-.168,0-.21.037-.209.208.008,1.507,0,3.014.01,4.52a2.96,2.96,0,0,0,.263,1.309,1.431,1.431,0,0,0,1.133.818,1.966,1.966,0,0,0,1.048-.116,1.563,1.563,0,0,0,.931-1.3,5.854,5.854,0,0,0,.085-1.18c0-.794,0-1.588,0-2.382,0-.131.03-.169.165-.168q1.243.01,2.485,0c.132,0,.168.032.167.166-.006,1.154.027,2.309-.012,3.461a4.384,4.384,0,0,1-.93,2.632,4,4,0,0,1-2.494,1.443,5.672,5.672,0,0,1-1.354.116,5.535,5.535,0,0,1-2.293-.525,3.78,3.78,0,0,1-1.922-2.325,5.124,5.124,0,0,1-.246-1.563q0-2.474,0-4.948" transform="translate(-2187.858 -32.5)"/>
        <path id="Path_4051" data-name="Path 4051" d="M1113.789,39.53c0-1.7,0-3.407-.005-5.11,0-.2.057-.244.249-.241.835.011,1.67.009,2.5,0,.156,0,.192.045.191.195-.007.9,0,1.792-.008,2.687,0,.165.049.2.206.2,1.948-.005,3.9,0,5.845-.008.189,0,.236.052.232.235-.012.556-.011,1.113,0,1.669,0,.167-.04.216-.212.215-1.942-.006-3.883,0-5.825-.009-.195,0-.248.046-.247.244.01,1.534,0,3.067.013,4.6a3.294,3.294,0,0,0,.116.842,1.549,1.549,0,0,0,1.7,1.227,1.648,1.648,0,0,0,1.636-1.72c.092-1.069.026-2.142.034-3.214,0-.183.049-.225.226-.222.787.01,1.575.008,2.363,0,.142,0,.2.022.2.185-.008,1.093.027,2.186-.014,3.277a4.248,4.248,0,0,1-1.674,3.457,4.309,4.309,0,0,1-2.145.79,6.163,6.163,0,0,1-2.475-.183,3.842,3.842,0,0,1-2.782-3.067,5.589,5.589,0,0,1-.127-1.23c0-1.608,0-3.217,0-4.825" transform="translate(-1068.402 -32.786)" fill="#fdd219"/>
        <path id="Path_4052" data-name="Path 4052" d="M355.662,103.848a4.447,4.447,0,0,1,.883-.973,3.161,3.161,0,0,1,1.728-.631c.324-.027.65-.018.975-.033.12-.005.166.026.165.156q-.008,1.374,0,2.748c0,.233-.154.137-.249.127a4.365,4.365,0,0,0-1.672.1,2.125,2.125,0,0,0-1.583,1.795,5.132,5.132,0,0,0-.078.949c0,1.845,0,3.691.006,5.536,0,.192-.056.232-.237.23-.848-.009-1.7-.007-2.545,0-.147,0-.209-.02-.209-.193q.008-5.475,0-10.95c0-.153.04-.193.192-.191q1.222.011,2.443,0c.139,0,.188.032.184.178-.01.365,0,.73,0,1.153" transform="translate(-338.468 -98.045)" fill="#fdd219"/>
        <path id="Path_4053" data-name="Path 4053" d="M828.405,105.736a4.594,4.594,0,0,0-4.895-3.324,3.37,3.37,0,0,0-2.184.954c-.2.2-.367.424-.552.645-.02-.385-.027-.762-.017-1.139,0-.146-.044-.18-.184-.179-.828.006-1.657.009-2.485,0-.189,0-.231.052-.231.235q.007,8.237,0,16.474H820.8a.585.585,0,0,0,.028-.26q0-3.156,0-6.313v-.266a4.61,4.61,0,0,0,.992,1.021,4.127,4.127,0,0,0,3.721.533,4.169,4.169,0,0,0,2.789-2.745,8.385,8.385,0,0,0,.079-5.633m-2.622,2.905a6.2,6.2,0,0,1-.174,1.243,2.29,2.29,0,0,1-2.585,1.87,2.219,2.219,0,0,1-2.1-1.809,6.058,6.058,0,0,1-.171-.874c-.04-.29-.034-.581-.052-.95a3.821,3.821,0,0,1,.525-2.081,2.28,2.28,0,0,1,4.078.105,4.519,4.519,0,0,1,.479,2.5" transform="translate(-784.534 -98.221)" fill="#fdd219"/>
        <path id="Path_4054" data-name="Path 4054" d="M3079.188,106.862a5.494,5.494,0,0,0-.24-1.32,5.131,5.131,0,0,0-1.653-2.615,5.584,5.584,0,0,0-3.278-1.252,7.385,7.385,0,0,0-1.945.108,5.222,5.222,0,0,0-3.278,1.952,5.932,5.932,0,0,0-1.171,3.354,8.136,8.136,0,0,0,.15,2.178,5.649,5.649,0,0,0,1.306,2.629,4.938,4.938,0,0,0,1.684,1.2,7.018,7.018,0,0,0,4.358.337,5.213,5.213,0,0,0,2.433-1.318,4.96,4.96,0,0,0,.853-1.1,6.249,6.249,0,0,0,.749-2.2c.024-.158-.017-.329.073-.477V106.92c-.033-.006-.04-.029-.04-.058m-3.025,1.324a3.935,3.935,0,0,1-.436,1.663,2.252,2.252,0,0,1-1.74,1.187,3.264,3.264,0,0,1-1.406-.071,2.3,2.3,0,0,1-1.623-1.659,4.515,4.515,0,0,1-.2-1.609,5,5,0,0,1,.236-1.79,2.244,2.244,0,0,1,1.635-1.572,3.141,3.141,0,0,1,2.044.132,2.321,2.321,0,0,1,1.3,1.577,5.89,5.89,0,0,1,.193,2.143" transform="translate(-2942.616 -97.512)"/>
        <path id="Path_4055" data-name="Path 4055" d="M1684.386,15.742a4.629,4.629,0,0,0-1.728-2.911,4.491,4.491,0,0,0-2.78-.977c-2.287-.03-4.575-.007-6.863-.014-.172,0-.207.043-.207.21q.009,3.715,0,7.43,0,3.746,0,7.492c0,.146.026.192.184.191q1.415-.013,2.831,0c.164,0,.212-.03.212-.2-.008-1.71,0-3.42-.009-5.13,0-.162.026-.215.2-.213,1.093.01,2.186,0,3.279.008a6.312,6.312,0,0,0,1.5-.166,4.408,4.408,0,0,0,2.44-1.5,4.883,4.883,0,0,0,1.048-3.041,5.532,5.532,0,0,0-.117-1.17m-2.894,1.872a1.807,1.807,0,0,1-.84,1,2.808,2.808,0,0,1-1.4.354c-1.012.007-2.023,0-3.035.006-.152,0-.19-.035-.188-.187.01-.679,0-1.357,0-2.036s0-1.371,0-2.056c0-.132.032-.168.166-.167,1.045.006,2.092-.016,3.136.011a2.534,2.534,0,0,1,1.691.61,1.907,1.907,0,0,1,.591,1.175,2.664,2.664,0,0,1-.12,1.288" transform="translate(-1604.65 -11.356)"/>
        <path id="Path_4056" data-name="Path 4056" d="M2539.772,106.982a10.978,10.978,0,0,0-.162-2.239,3.331,3.331,0,0,0-1.4-2.194,5.158,5.158,0,0,0-2.7-.766,10.765,10.765,0,0,0-1.518.024,7.394,7.394,0,0,0-1.551.3,3.405,3.405,0,0,0-1.82,1.233,3.91,3.91,0,0,0-.712,2.282c0,.143.02.195.182.193.814-.01,1.629-.012,2.444,0,.175,0,.2-.077.23-.212a1.688,1.688,0,0,1,.737-1.183,2.45,2.45,0,0,1,1.389-.31,2.692,2.692,0,0,1,.983.189,1.048,1.048,0,0,1,.751,1.251c-.07.475-.463.664-.871.786a12.984,12.984,0,0,1-1.849.325,13.146,13.146,0,0,0-1.946.413,3.592,3.592,0,0,0-1.577.9,3.21,3.21,0,0,0-.831,2.1,4.736,4.736,0,0,0,.031,1.17,2.7,2.7,0,0,0,1.111,1.819,4.532,4.532,0,0,0,2.418.683,5.4,5.4,0,0,0,1.354-.115,4.413,4.413,0,0,0,2.283-1.149,5.36,5.36,0,0,0,.119.741c.032.181.106.206.262.2.808-.006,1.616-.008,2.424,0,.171,0,.223-.029.222-.215-.008-2.077-.005-4.154,0-6.231m-3.179,2.744a2.52,2.52,0,0,1-1.9,1.741,2.4,2.4,0,0,1-1.337,0,1.167,1.167,0,0,1-.768-1.4c.1-.786.681-1.068,1.325-1.288.517-.177,1.061-.237,1.59-.366a3,3,0,0,0,1.216-.483,6.31,6.31,0,0,1-.125,1.793" transform="translate(-2426.466 -97.621)"/>
        <path id="Path_4057" data-name="Path 4057" d="M1981.137,107.829a6.524,6.524,0,0,0-.2-1.88,5.471,5.471,0,0,0-1.3-2.461,4.917,4.917,0,0,0-1.666-1.157,5.973,5.973,0,0,0-2.164-.486,7.862,7.862,0,0,0-1.568.073,6.146,6.146,0,0,0-1.579.456,5.038,5.038,0,0,0-2.421,2.288,6.527,6.527,0,0,0-.7,2.627,7.248,7.248,0,0,0,.082,1.79,6.366,6.366,0,0,0,.714,2.065,4.969,4.969,0,0,0,1.843,1.872,6.438,6.438,0,0,0,2.944.8,6.285,6.285,0,0,0,1.617-.13,5.483,5.483,0,0,0,2.407-1.1,5.1,5.1,0,0,0,1.494-2,6.3,6.3,0,0,0,.5-2.75m-3.175,1.323a2.4,2.4,0,0,1-1.576,1.939,3,3,0,0,1-2.423-.176,2.137,2.137,0,0,1-.933-1.049,4.659,4.659,0,0,1-.363-2.055,4.356,4.356,0,0,1,.405-2.122,2.241,2.241,0,0,1,1.829-1.249,3.165,3.165,0,0,1,1.677.192,2.291,2.291,0,0,1,1.3,1.532,4.6,4.6,0,0,1,.207,1.308,6.639,6.639,0,0,1-.123,1.678" transform="translate(-1889.265 -97.686)"/>
        <path id="Path_4058" data-name="Path 4058" d="M1375.625,106.051a5.04,5.04,0,0,0-3.376-3.635,6.8,6.8,0,0,0-3.588-.181,4.978,4.978,0,0,0-3.581,2.556,6.939,6.939,0,0,0-.422,5.551,4.938,4.938,0,0,0,3.141,3.284,6.757,6.757,0,0,0,3.722.251,5.044,5.044,0,0,0,3.573-2.541,7.556,7.556,0,0,0,.53-5.285m-3.182,4.17a2.271,2.271,0,0,1-1.928,1.264,3.372,3.372,0,0,1-1.422-.134,2.229,2.229,0,0,1-1.477-1.584,5.881,5.881,0,0,1-.021-3.342,2.316,2.316,0,0,1,2.378-1.8,2.963,2.963,0,0,1,1.606.336,2.508,2.508,0,0,1,1.148,1.72,4.674,4.674,0,0,1,.126,1.322,4.536,4.536,0,0,1-.412,2.217" transform="translate(-1308.685 -97.918)" fill="#fdd219"/>
        <path id="Path_4059" data-name="Path 4059" d="M3175.9,192.32a2.391,2.391,0,0,1-.558,1.568,1.251,1.251,0,0,1-1.925.026,2.355,2.355,0,0,1-.558-1.906,2.256,2.256,0,0,1,.449-1.156,1.274,1.274,0,0,1,2.122,0,2.458,2.458,0,0,1,.47,1.464" transform="translate(-3043.561 -182.532)" fill="#fdd219"/>
        <path id="Path_4060" data-name="Path 4060" d="M1472.083,195.772a2.279,2.279,0,0,1-.59,1.688,1.231,1.231,0,0,1-1.8.092,2.06,2.06,0,0,1-.671-1.346,2.382,2.382,0,0,1,.376-1.771,1.281,1.281,0,0,1,1.468-.617,1.427,1.427,0,0,1,.9.747,2.358,2.358,0,0,1,.324,1.207" transform="translate(-1409.133 -185.873)"/>
      </g>
    </g>
    <g id="Group_2103" data-name="Group 2103" transform="translate(366 1294)">
      <g id="Group_2102-3" data-name="Group 2102" clip-path="url(#clip-path-2)">
        <path id="Path_4041-3" data-name="Path 4041" d="M7.824,0c.3.053.607.1.906.162a5.887,5.887,0,0,1,4.824,4.662c.042.177.064.359.095.539.02.118-.015.168-.149.167q-1.446-.008-2.892,0c-.137,0-.163-.068-.2-.175A3.391,3.391,0,0,0,8.094,2.911a3.449,3.449,0,0,0-4.253,1.93A6.868,6.868,0,0,0,3.3,7.055a12,12,0,0,0,.006,2.293A6.041,6.041,0,0,0,4.111,12a3.09,3.09,0,0,0,2.562,1.522,3.465,3.465,0,0,0,2.453-.652,3.669,3.669,0,0,0,1.255-2.037c.059-.22.132-.3.372-.294.9.018,1.792.012,2.688,0,.189,0,.218.034.178.224a7.416,7.416,0,0,1-1.735,3.548,6.033,6.033,0,0,1-3.847,1.946A7.327,7.327,0,0,1,3.7,15.549a6.459,6.459,0,0,1-3.206-3.9,9.851,9.851,0,0,1-.452-2.3c0-.038.01-.084-.04-.1V9.123a.417.417,0,0,0,0-.285V7.779c.043-.067.011-.142.021-.212s0-.126,0-.19A8.2,8.2,0,0,1,1.815,2.271,6.188,6.188,0,0,1,5.856.047C6.035.021,6.219.036,6.4,0Z" transform="translate(-0.001)" fill="#fff"/>
        <path id="Path_4042-2" data-name="Path 4042" d="M650.337,517.332h-.53a.044.044,0,0,1,.016-.062.765.765,0,0,1,.5,0,.044.044,0,0,1,.015.062" transform="translate(-623.324 -496.153)" fill="#fff"/>
        <path id="Path_4043-2" data-name="Path 4043" d="M0,216.909a.231.231,0,0,1,0,.285Z" transform="translate(0 -208.071)" fill="#fff"/>
        <path id="Path_4044-2" data-name="Path 4044" d="M644.162,517.617a.171.171,0,0,1,0,.037h-.244a.276.276,0,0,0,0-.035.163.163,0,0,1,.244,0" transform="translate(-617.681 -496.475)" fill="#fff"/>
        <path id="Path_4045-2" data-name="Path 4045" d="M0,180.875l.035,0q0,.1,0,.2c-.009.021-.021.023-.034,0Z" transform="translate(0 -173.503)" fill="#fff"/>
        <path id="Path_4046-2" data-name="Path 4046" d="M0,185.833l.034,0c0,.071.037.148-.034.207Z" transform="translate(0 -178.257)" fill="#fff"/>
        <path id="Path_4047-2" data-name="Path 4047" d="M662.964,517.824c0-.012,0-.023,0-.035a.13.13,0,0,1,.2,0c0,.011,0,.023,0,.034Z" transform="translate(-635.951 -496.645)" fill="#fff"/>
        <path id="Path_4048-2" data-name="Path 4048" d="M539.642,126.36H538.9l-.244,0a5.709,5.709,0,0,1-2.154-.521,3.957,3.957,0,0,1-2.2-2.985,8.535,8.535,0,0,1-.11-1.049c-.009-.123.017-.18.163-.179q1.232.011,2.465,0c.139,0,.17.052.174.178a1.99,1.99,0,0,0,2.034,1.99,2.2,2.2,0,0,0,2.364-2.263c0-.636,0-1.273,0-1.93-.112.16-.2.315-.318.45a3.007,3.007,0,0,1-1.822.982,4.388,4.388,0,0,1-3.416-.65,3.714,3.714,0,0,1-1.578-2.575,6.091,6.091,0,0,1-.066-.992q0-3.451,0-6.9c0-.173.034-.232.221-.229.862.011,1.725.009,2.587,0,.159,0,.2.04.2.2q-.008,3.451,0,6.9a2.033,2.033,0,0,0,.436,1.343,1.7,1.7,0,0,0,1.339.571,2.277,2.277,0,0,0,2.107-.981,2.159,2.159,0,0,0,.326-1.256c0-2.179,0-4.357-.006-6.536,0-.2.047-.249.245-.247.855.012,1.711.008,2.566,0,.14,0,.2.019.2.184-.005,3.814,0,7.629-.008,11.443a4.991,4.991,0,0,1-1.11,3.3,4.834,4.834,0,0,1-2.748,1.619,5.137,5.137,0,0,1-.9.128" transform="translate(-512.423 -105.215)" fill="#fff"/>
        <path id="Path_4049-2" data-name="Path 4049" d="M2811.766,39.261c0-1.731,0-3.461,0-5.192,0-.146.025-.193.184-.191.869.009,1.738.008,2.607,0,.147,0,.192.027.191.184-.009.889,0,1.778-.008,2.667,0,.165.031.212.205.211,1.956-.007,3.911,0,5.867-.009.164,0,.215.03.211.205-.013.583-.012,1.167,0,1.751,0,.165-.032.212-.206.211-1.956-.007-3.911,0-5.866-.009-.165,0-.212.031-.211.205.008,1.527-.009,3.054.013,4.581a2.519,2.519,0,0,0,.391,1.467,1.434,1.434,0,0,0,.98.6,1.9,1.9,0,0,0,1.14-.145,1.528,1.528,0,0,0,.821-1.116,4.474,4.474,0,0,0,.123-1.128q.007-1.293,0-2.586c0-.133.034-.168.167-.167q1.242.01,2.485,0c.133,0,.167.034.166.167,0,1.14.03,2.282-.013,3.42a4.446,4.446,0,0,1-.972,2.718,3.99,3.99,0,0,1-2.453,1.4,5.813,5.813,0,0,1-1.395.118,5.453,5.453,0,0,1-2.218-.507,3.823,3.823,0,0,1-2.038-2.626,6.019,6.019,0,0,1-.166-1.484c.007-1.581,0-3.163,0-4.744" transform="translate(-2697.196 -32.498)" fill="#fff"/>
        <path id="Path_4050-2" data-name="Path 4050" d="M2280.793,39.264c0-1.731,0-3.462,0-5.193,0-.147.028-.192.185-.19q1.3.014,2.607,0c.148,0,.191.03.189.186-.009.9,0,1.792-.008,2.688,0,.149.031.19.186.189,1.962-.006,3.925,0,5.887-.008.167,0,.213.035.21.207-.012.59-.01,1.181,0,1.771,0,.151-.033.189-.187.188-1.962-.006-3.924,0-5.886-.008-.168,0-.21.037-.209.208.008,1.507,0,3.014.01,4.52a2.96,2.96,0,0,0,.263,1.309,1.431,1.431,0,0,0,1.133.818,1.966,1.966,0,0,0,1.048-.116,1.563,1.563,0,0,0,.931-1.3,5.854,5.854,0,0,0,.085-1.18c0-.794,0-1.588,0-2.382,0-.131.03-.169.165-.168q1.243.01,2.485,0c.132,0,.168.032.167.166-.006,1.154.027,2.309-.012,3.461a4.384,4.384,0,0,1-.93,2.632,4,4,0,0,1-2.494,1.443,5.672,5.672,0,0,1-1.354.116,5.535,5.535,0,0,1-2.293-.525,3.78,3.78,0,0,1-1.922-2.325,5.124,5.124,0,0,1-.246-1.563q0-2.474,0-4.948" transform="translate(-2187.858 -32.5)" fill="#fff"/>
        <path id="Path_4051-2" data-name="Path 4051" d="M1113.789,39.53c0-1.7,0-3.407-.005-5.11,0-.2.057-.244.249-.241.835.011,1.67.009,2.5,0,.156,0,.192.045.191.195-.007.9,0,1.792-.008,2.687,0,.165.049.2.206.2,1.948-.005,3.9,0,5.845-.008.189,0,.236.052.232.235-.012.556-.011,1.113,0,1.669,0,.167-.04.216-.212.215-1.942-.006-3.883,0-5.825-.009-.195,0-.248.046-.247.244.01,1.534,0,3.067.013,4.6a3.294,3.294,0,0,0,.116.842,1.549,1.549,0,0,0,1.7,1.227,1.648,1.648,0,0,0,1.636-1.72c.092-1.069.026-2.142.034-3.214,0-.183.049-.225.226-.222.787.01,1.575.008,2.363,0,.142,0,.2.022.2.185-.008,1.093.027,2.186-.014,3.277a4.248,4.248,0,0,1-1.674,3.457,4.309,4.309,0,0,1-2.145.79,6.163,6.163,0,0,1-2.475-.183,3.842,3.842,0,0,1-2.782-3.067,5.589,5.589,0,0,1-.127-1.23c0-1.608,0-3.217,0-4.825" transform="translate(-1068.402 -32.786)" fill="#fff"/>
        <path id="Path_4052-2" data-name="Path 4052" d="M355.662,103.848a4.447,4.447,0,0,1,.883-.973,3.161,3.161,0,0,1,1.728-.631c.324-.027.65-.018.975-.033.12-.005.166.026.165.156q-.008,1.374,0,2.748c0,.233-.154.137-.249.127a4.365,4.365,0,0,0-1.672.1,2.125,2.125,0,0,0-1.583,1.795,5.132,5.132,0,0,0-.078.949c0,1.845,0,3.691.006,5.536,0,.192-.056.232-.237.23-.848-.009-1.7-.007-2.545,0-.147,0-.209-.02-.209-.193q.008-5.475,0-10.95c0-.153.04-.193.192-.191q1.222.011,2.443,0c.139,0,.188.032.184.178-.01.365,0,.73,0,1.153" transform="translate(-338.468 -98.045)" fill="#fff"/>
        <path id="Path_4053-2" data-name="Path 4053" d="M828.405,105.736a4.594,4.594,0,0,0-4.895-3.324,3.37,3.37,0,0,0-2.184.954c-.2.2-.367.424-.552.645-.02-.385-.027-.762-.017-1.139,0-.146-.044-.18-.184-.179-.828.006-1.657.009-2.485,0-.189,0-.231.052-.231.235q.007,8.237,0,16.474H820.8a.585.585,0,0,0,.028-.26q0-3.156,0-6.313v-.266a4.61,4.61,0,0,0,.992,1.021,4.127,4.127,0,0,0,3.721.533,4.169,4.169,0,0,0,2.789-2.745,8.385,8.385,0,0,0,.079-5.633m-2.622,2.905a6.2,6.2,0,0,1-.174,1.243,2.29,2.29,0,0,1-2.585,1.87,2.219,2.219,0,0,1-2.1-1.809,6.058,6.058,0,0,1-.171-.874c-.04-.29-.034-.581-.052-.95a3.821,3.821,0,0,1,.525-2.081,2.28,2.28,0,0,1,4.078.105,4.519,4.519,0,0,1,.479,2.5" transform="translate(-784.534 -98.221)" fill="#fff"/>
        <path id="Path_4054-2" data-name="Path 4054" d="M3079.188,106.862a5.494,5.494,0,0,0-.24-1.32,5.131,5.131,0,0,0-1.653-2.615,5.584,5.584,0,0,0-3.278-1.252,7.385,7.385,0,0,0-1.945.108,5.222,5.222,0,0,0-3.278,1.952,5.932,5.932,0,0,0-1.171,3.354,8.136,8.136,0,0,0,.15,2.178,5.649,5.649,0,0,0,1.306,2.629,4.938,4.938,0,0,0,1.684,1.2,7.018,7.018,0,0,0,4.358.337,5.213,5.213,0,0,0,2.433-1.318,4.96,4.96,0,0,0,.853-1.1,6.249,6.249,0,0,0,.749-2.2c.024-.158-.017-.329.073-.477V106.92c-.033-.006-.04-.029-.04-.058m-3.025,1.324a3.935,3.935,0,0,1-.436,1.663,2.252,2.252,0,0,1-1.74,1.187,3.264,3.264,0,0,1-1.406-.071,2.3,2.3,0,0,1-1.623-1.659,4.515,4.515,0,0,1-.2-1.609,5,5,0,0,1,.236-1.79,2.244,2.244,0,0,1,1.635-1.572,3.141,3.141,0,0,1,2.044.132,2.321,2.321,0,0,1,1.3,1.577,5.89,5.89,0,0,1,.193,2.143" transform="translate(-2942.616 -97.512)" fill="#fff"/>
        <path id="Path_4055-2" data-name="Path 4055" d="M1684.386,15.742a4.629,4.629,0,0,0-1.728-2.911,4.491,4.491,0,0,0-2.78-.977c-2.287-.03-4.575-.007-6.863-.014-.172,0-.207.043-.207.21q.009,3.715,0,7.43,0,3.746,0,7.492c0,.146.026.192.184.191q1.415-.013,2.831,0c.164,0,.212-.03.212-.2-.008-1.71,0-3.42-.009-5.13,0-.162.026-.215.2-.213,1.093.01,2.186,0,3.279.008a6.312,6.312,0,0,0,1.5-.166,4.408,4.408,0,0,0,2.44-1.5,4.883,4.883,0,0,0,1.048-3.041,5.532,5.532,0,0,0-.117-1.17m-2.894,1.872a1.807,1.807,0,0,1-.84,1,2.808,2.808,0,0,1-1.4.354c-1.012.007-2.023,0-3.035.006-.152,0-.19-.035-.188-.187.01-.679,0-1.357,0-2.036s0-1.371,0-2.056c0-.132.032-.168.166-.167,1.045.006,2.092-.016,3.136.011a2.534,2.534,0,0,1,1.691.61,1.907,1.907,0,0,1,.591,1.175,2.664,2.664,0,0,1-.12,1.288" transform="translate(-1604.65 -11.356)" fill="#fff"/>
        <path id="Path_4056-2" data-name="Path 4056" d="M2539.772,106.982a10.978,10.978,0,0,0-.162-2.239,3.331,3.331,0,0,0-1.4-2.194,5.158,5.158,0,0,0-2.7-.766,10.765,10.765,0,0,0-1.518.024,7.394,7.394,0,0,0-1.551.3,3.405,3.405,0,0,0-1.82,1.233,3.91,3.91,0,0,0-.712,2.282c0,.143.02.195.182.193.814-.01,1.629-.012,2.444,0,.175,0,.2-.077.23-.212a1.688,1.688,0,0,1,.737-1.183,2.45,2.45,0,0,1,1.389-.31,2.692,2.692,0,0,1,.983.189,1.048,1.048,0,0,1,.751,1.251c-.07.475-.463.664-.871.786a12.984,12.984,0,0,1-1.849.325,13.146,13.146,0,0,0-1.946.413,3.592,3.592,0,0,0-1.577.9,3.21,3.21,0,0,0-.831,2.1,4.736,4.736,0,0,0,.031,1.17,2.7,2.7,0,0,0,1.111,1.819,4.532,4.532,0,0,0,2.418.683,5.4,5.4,0,0,0,1.354-.115,4.413,4.413,0,0,0,2.283-1.149,5.36,5.36,0,0,0,.119.741c.032.181.106.206.262.2.808-.006,1.616-.008,2.424,0,.171,0,.223-.029.222-.215-.008-2.077-.005-4.154,0-6.231m-3.179,2.744a2.52,2.52,0,0,1-1.9,1.741,2.4,2.4,0,0,1-1.337,0,1.167,1.167,0,0,1-.768-1.4c.1-.786.681-1.068,1.325-1.288.517-.177,1.061-.237,1.59-.366a3,3,0,0,0,1.216-.483,6.31,6.31,0,0,1-.125,1.793" transform="translate(-2426.466 -97.621)" fill="#fff"/>
        <path id="Path_4057-2" data-name="Path 4057" d="M1981.137,107.829a6.524,6.524,0,0,0-.2-1.88,5.471,5.471,0,0,0-1.3-2.461,4.917,4.917,0,0,0-1.666-1.157,5.973,5.973,0,0,0-2.164-.486,7.862,7.862,0,0,0-1.568.073,6.146,6.146,0,0,0-1.579.456,5.038,5.038,0,0,0-2.421,2.288,6.527,6.527,0,0,0-.7,2.627,7.248,7.248,0,0,0,.082,1.79,6.366,6.366,0,0,0,.714,2.065,4.969,4.969,0,0,0,1.843,1.872,6.438,6.438,0,0,0,2.944.8,6.285,6.285,0,0,0,1.617-.13,5.483,5.483,0,0,0,2.407-1.1,5.1,5.1,0,0,0,1.494-2,6.3,6.3,0,0,0,.5-2.75m-3.175,1.323a2.4,2.4,0,0,1-1.576,1.939,3,3,0,0,1-2.423-.176,2.137,2.137,0,0,1-.933-1.049,4.659,4.659,0,0,1-.363-2.055,4.356,4.356,0,0,1,.405-2.122,2.241,2.241,0,0,1,1.829-1.249,3.165,3.165,0,0,1,1.677.192,2.291,2.291,0,0,1,1.3,1.532,4.6,4.6,0,0,1,.207,1.308,6.639,6.639,0,0,1-.123,1.678" transform="translate(-1889.265 -97.686)" fill="#fff"/>
        <path id="Path_4058-2" data-name="Path 4058" d="M1375.625,106.051a5.04,5.04,0,0,0-3.376-3.635,6.8,6.8,0,0,0-3.588-.181,4.978,4.978,0,0,0-3.581,2.556,6.939,6.939,0,0,0-.422,5.551,4.938,4.938,0,0,0,3.141,3.284,6.757,6.757,0,0,0,3.722.251,5.044,5.044,0,0,0,3.573-2.541,7.556,7.556,0,0,0,.53-5.285m-3.182,4.17a2.271,2.271,0,0,1-1.928,1.264,3.372,3.372,0,0,1-1.422-.134,2.229,2.229,0,0,1-1.477-1.584,5.881,5.881,0,0,1-.021-3.342,2.316,2.316,0,0,1,2.378-1.8,2.963,2.963,0,0,1,1.606.336,2.508,2.508,0,0,1,1.148,1.72,4.674,4.674,0,0,1,.126,1.322,4.536,4.536,0,0,1-.412,2.217" transform="translate(-1308.685 -97.918)" fill="#fff"/>
        <path id="Path_4059-2" data-name="Path 4059" d="M3175.9,192.32a2.391,2.391,0,0,1-.558,1.568,1.251,1.251,0,0,1-1.925.026,2.355,2.355,0,0,1-.558-1.906,2.256,2.256,0,0,1,.449-1.156,1.274,1.274,0,0,1,2.122,0,2.458,2.458,0,0,1,.47,1.464" transform="translate(-3043.561 -182.532)" fill="#fff"/>
        <path id="Path_4060-2" data-name="Path 4060" d="M1472.083,195.772a2.279,2.279,0,0,1-.59,1.688,1.231,1.231,0,0,1-1.8.092,2.06,2.06,0,0,1-.671-1.346,2.382,2.382,0,0,1,.376-1.771,1.281,1.281,0,0,1,1.468-.617,1.427,1.427,0,0,1,.9.747,2.358,2.358,0,0,1,.324,1.207" transform="translate(-1409.133 -185.873)" fill="#fff"/>
      </g>
    </g>
  </g>
</svg>
