<svg xmlns="http://www.w3.org/2000/svg" width="344" height="48" viewBox="0 0 344 48">
  <g id="partners_ambcrypto" transform="translate(-176 -1281)">
    <rect id="Rectangle_1053" data-name="Rectangle 1053" width="172" height="48" transform="translate(176 1281)" fill="#151515" opacity="0"/>
    <path id="Path_4109" data-name="Path 4109" d="M0,0H172V48H0Z" transform="translate(348 1281)" fill="#151515" opacity="0"/>
    <g id="Group_2114" data-name="Group 2114" transform="translate(-578.039 -151.607)">
      <path id="Path_4297" data-name="Path 4297" d="M358.693,63.527c0,.128,0,.255,0,.383.173-.072.151-.221.143-.363a.516.516,0,0,1-.141-.019" transform="translate(534.926 1402.498)" fill="#b7b7b7"/>
      <path id="Path_4298" data-name="Path 4298" d="M358.689,28.727l0,.384a.541.541,0,0,1,.143-.02c.006-.143.028-.293-.146-.365" transform="translate(534.928 1425.018)" fill="#b7b7b7"/>
      <path id="Path_4299" data-name="Path 4299" d="M358.668,65.009l.138.207c.029-.119-.041-.172-.138-.207" transform="translate(534.941 1401.539)" fill="#b7b7b7"/>
      <path id="Path_4300" data-name="Path 4300" d="M43.652,24.556a1.5,1.5,0,0,0-1.087.229c.094.059.188.169.283.169,1.741.013,3.482.012,5.223.018.268,0,.455-.077.457-.383a.548.548,0,0,0-.316-.058c-1.52.047-3.041.006-4.561.024" transform="translate(739.494 1427.735)" fill="#edc05a"/>
      <path id="Path_4301" data-name="Path 4301" d="M21.187,21.836c.376-1.444.076-2.913.164-4.368.015-.247.079-.529-.185-.715h0c-.046,0-.091-.008-.137-.016-.1-.226.1-.531-.193-.705a.2.2,0,0,1,.012-.145l.131-.183h0l-.148-.185-.01.008c0-.059,0-.117-.007-.176h0l-.138-.192c-.1-.154-.251-.283-.222-.494a.172.172,0,0,0-.151-.2l-.013.01-.151-.2-.705-.7-.2-.149.01-.013-.191-.148a.334.334,0,0,0-.168-.019l0,0a.764.764,0,0,0-.195-.149,1.561,1.561,0,0,1-.148-.052l-.194-.13h0a1.562,1.562,0,0,1-.158-.058l-.2-.112h0l-.178.007-.348-.022.013-.021a.321.321,0,0,0-.364-.154h0l-.176.013h0l-.175-.018.008-.011c-.05-.167-.115-.161-.192-.017a.164.164,0,0,1-.146.006h0c-.033-.094-.082-.163-.2-.131h0l-.157-.054-.195-.137-.178.012c-.055-.018-.11-.038-.164-.06l-.188-.114h-.175L15,12.029,15.016,12a.32.32,0,0,0-.366-.15.347.347,0,0,0-.173.006l-.162-.046-.019.068h0l.019-.067a.307.307,0,0,0-.373-.126h0a1.251,1.251,0,0,1-.152-.049.359.359,0,0,0-.372-.14l-.176.009-.176,0-.175-.019.008-.011c-.05-.167-.115-.161-.193-.016a.163.163,0,0,1-.146.006c-.032-.094-.082-.164-.2-.133h0c-.052-.02-.1-.039-.156-.055l-.2-.127h-.175l-.164-.062-.19-.11-.185.131-.5-.181-.2-.121-.165-.062-.188-.114h-.175l-.18-.01.014-.024a.326.326,0,0,0-.363-.156l-.175.009-.176,0-.175-.019.009-.011c-.051-.168-.116-.162-.193-.016a.164.164,0,0,1-.146.006c-.032-.094-.08-.165-.2-.134q-.077-.031-.156-.055l-.2-.128-.167-.059-.188-.11H7.6c-.11-.025-.156.041-.187.13L7.1,9.884l-.193-.152,0,0a.154.154,0,0,0-.185-.162l.017-.025L6.721,6.563A.493.493,0,0,0,6.728,6.4h0c.112-.013.176-.067.159-.188.071-.19.231-.155.379-.149.2.245.485.16.737.161q3.245.006,6.49,0l.083.009h.083l.005-.005.155.2a.7.7,0,0,1,.031.139c.056.134.08.278.133.412.132.454-.075.968.056,1.422l0,.447.079.007.078-.01h.184a30.206,30.206,0,0,0,3.846.085,2.783,2.783,0,0,0,1.037-.067l.539,0c.006-.06.012-.119.018-.179l.021.015a5.821,5.821,0,0,0,0-3.008.845.845,0,0,0-.049-.157c0-.062,0-.125,0-.188l.065.017L20.806,5c-.005-.122-.01-.245-.016-.367a.213.213,0,0,0,.014-.156l-.184-.184c0-.112,0-.224.007-.336a.16.16,0,0,0-.144-.2l-.008.007a.288.288,0,0,0-.018-.166L20.314,3.4l-.019.013a.232.232,0,0,0-.018-.17c.014-.114-.045-.17-.152-.186l-.005,0-.152-.2a3.383,3.383,0,0,0-1.061-1.227l-.2-.149.009-.011a.173.173,0,0,0-.2-.153c-.208.027-.34-.119-.494-.216l-.195-.15,0,0a.16.16,0,0,0-.187-.149h-.18L17.143.758c-.009-.044-.018-.088-.028-.131a.381.381,0,0,0-.174.012L16.777.575c-.061-.108-.119-.131-.171.006L16.238.63a.343.343,0,0,0,.055.058A3.5,3.5,0,0,1,15.7.45c-.094-.01-.19-.015-.283-.016-3.086,0-6.175-.008-9.265,0a2.32,2.32,0,0,0-.541.155L4.619.644a.07.07,0,0,0,0-.084l-.17.068-.2.129L4.1.81c-.118-.029-.17.04-.2.136l-.67.209a.161.161,0,0,0-.2.151l0,0-.2.152-.317.216a.163.163,0,0,0-.193.158h0l.006.005a.168.168,0,0,0-.178.174.167.167,0,0,0-.175.176l.175-.176c-.061.056-.12.114-.175.176l0,0a.16.16,0,0,0-.157.193L1.6,2.694l-.15.2v0c-.107.014-.168.068-.155.183h0a.229.229,0,0,0-.019.169l-.018-.013-.158.19,0,0L.94,3.6V3.78c-.017.051-.035.1-.053.152l-.129.193h0A1.511,1.511,0,0,1,.7,4.284L.783,4.3h0v0L.7,4.284l-.114.171A1.527,1.527,0,0,0,.4,5.529l.07-.007a1.526,1.526,0,0,1-.018.2A13.053,13.053,0,0,0,.4,8.228a6.8,6.8,0,0,0,.137,2.394.5.5,0,0,0,.061.692.168.168,0,0,0-.013.154c0,.118.005.235.008.352l.108.2.2.179.022-.014c.006.058.012.116.019.174a.215.215,0,0,0,0,.17.162.162,0,0,0,.153.186l0,0a.81.81,0,0,1,.144.2,7.429,7.429,0,0,0,1.424,1.362l.193.023L2.85,14.3a.164.164,0,0,0,.2.149l.08.016.077-.025a.764.764,0,0,0,.16.056l.2.147-.009.011a1.792,1.792,0,0,0,.2.155l.074.012L3.9,14.8l.2-.009.349.023-.014.025.192.14.175,0,.176-.007c0-.019,0-.039-.007-.059,0,.02,0,.039.007.059l.175.022L5.14,15l.187.142.175,0,.172.053-.006-.078v0l.045,0-.04.074a.33.33,0,0,0,.357.137l.178-.017c.056.018.11.038.164.06l.187.117h.186l.331.17.082.024.084-.018.171.042c.134.25.347.144.542.119l.367.028-.013.022a.314.314,0,0,0,.367.145,1.29,1.29,0,0,1,.165.055l.187.114.175,0h.175l.18.012-.014.025a.325.325,0,0,0,.364.155l.176-.016.165.062.188.114h.35l.179.014-.014.025a.32.32,0,0,0,.367.146,1.081,1.081,0,0,1,.165.053h0l.188.114.179-.007c.052.017.1.035.154.055a.364.364,0,0,0,.369.143l.178-.013.167.059.194.109h0l.344.01.17.05-.005-.078.044,0-.038.074a.335.335,0,0,0,.359.133l.175-.011.174.019-.006.007.188.148.085.023.088-.006-.011.015a1.245,1.245,0,0,1,.181.17l.006-.006.154.194.02-.015,0,.343q0,1.152,0,2.3l.016.343-.362.354c-2.241,0-4.482-.009-6.723,0-.26,0-.619-.136-.686.315-.209,0-.284-.158-.367-.307,0-.712.011-1.424,0-2.135,0-.264.106-.6-.315-.681L6.2,18.317a37.493,37.493,0,0,0-5.635.025,1.193,1.193,0,0,1-.048.155.483.483,0,0,0,.076.067c0,.041-.01.083-.016.124l-.025-.013a3.641,3.641,0,0,0-.108.415,1.274,1.274,0,0,0-.219-.573,9.836,9.836,0,0,0-.091,3.74c0,.039.149.067.228.1l.223.692,0,.184.113.2q.032.077.058.157l.142.191.022-.014.017.172c-.019.115.039.17.146.188l.006-.006a.281.281,0,0,0,.018.167l.145.194.017-.012a.243.243,0,0,0,.017.168.162.162,0,0,0,.152.189l0,0a1.922,1.922,0,0,1,.172.18l.007-.006.157.194.706.7.2.151-.007.008.182.17,0,0,.189.153.085.021.087-.011-.013.019.192.15.083.019.085,0-.005.005.188.147h.179l.322.182.189.056.193.11h0l.356.011.08.014.077-.026.177.053c.183.2.428.151.656.151q4.722,0,9.444,0c.229,0,.471.044.663-.139l.016-.041-.037-.024.173.005h.359a.314.314,0,0,0,.37-.126l-.047-.074.023-.007.025.081q.079-.025.161-.043h.174l.2-.131q.076-.03.153-.057l.174.007a.046.046,0,0,0,.03-.017l.173-.094.17-.206-.012-.017.087.007.084-.024a.156.156,0,0,0,.185-.153l0,0,.2-.149,1.24-1.233.152-.194v0a.155.155,0,0,0,.151-.186h0a.236.236,0,0,0,.018-.17l.018.013.161-.188,0,0,.151-.19h0c0-.059,0-.118,0-.178.016-.051.033-.1.053-.151h0l.13-.192a1.359,1.359,0,0,1,.059-.16l.122-.183h0c.34-.309.148-.7.175-1.064h0c.005-.055.013-.11.024-.165M.732,4.487A.2.2,0,0,0,.657,4.46c.026,0,.053.006.079.006l.041-.045c0,.022,0,.043,0,.065l-.038-.02,0,.021m.1-.115a1.065,1.065,0,0,0-.061.114ZM4.617,26.954c0-.009,0-.018,0-.027L4.6,26.9h0l.028.006-.011.016.017,0a.139.139,0,0,0-.014.025m1.413-8.118.007-.007c0,.006,0,.011,0,.017l-.008-.01M17.3,26.8v-.017l.011,0c0,.006,0,.013,0,.019l-.014,0m3.493-3.752h0l-.064.12a1.149,1.149,0,0,0,.064-.12m-.008.191h0v0l.08.016-.08-.012m.044-.171-.039.043c0-.021,0-.042,0-.063l.036.02v-.029a.245.245,0,0,0,.074.029h-.073" transform="translate(767.038 1443.327)" fill="#edc05a"/>
      <path id="Path_4302" data-name="Path 4302" d="M52.974,36.3l.195.149c-.019-.109-.076-.169-.195-.149" transform="translate(732.759 1420.12)" fill="#edc05a"/>
      <path id="Path_4303" data-name="Path 4303" d="M159.606,39.714v-.007l0,0,0,0" transform="translate(663.758 1417.912)" fill="#edc05a"/>
      <path id="Path_4304" data-name="Path 4304" d="M159.609,39.689V39.7h0l-.005-.006" transform="translate(663.754 1417.924)" fill="#edc05a"/>
      <path id="Path_4305" data-name="Path 4305" d="M161.039,33.276c-.017-.339,0-.681-.024-1.02-.041-.519.169-1.091-.3-1.527a18.769,18.769,0,0,0-4.779-.018c-.562.47-.026,1.207-.423,1.715a1.2,1.2,0,0,0-.049.148c-.055.1-.162.13-.252.18l-.1.051c-.061.041-.123.084-.181.131a.726.726,0,0,1-.212.1q-2.763.061-5.534,0a1,1,0,0,1-.243-.088l-.114-.054a.651.651,0,0,1-.212-.126h0a.6.6,0,0,1-.132-.227c-.019-.04-.037-.081-.056-.121s-.034-.083-.052-.123a14.518,14.518,0,0,1-.048-2.146c0-.387-.116-.816.256-1.125a1.984,1.984,0,0,1,1.03-.113c3.365-.006,6.73,0,10.095-.008a1.852,1.852,0,0,0,1.111-.14,1.7,1.7,0,0,0,.2-1.1c.007-1.806,0-3.612,0-5.419a12.12,12.12,0,0,0-.1-1.234l-.121-.339a.256.256,0,0,0,.041-.168l-.046-.077a1.314,1.314,0,0,1-.1-.145,1.014,1.014,0,0,0-.082-.155l-.018.012a.383.383,0,0,1-.083-.179.36.36,0,0,0-.085-.178l0,0a.552.552,0,0,1-.148-.2l-.219-.316a1.206,1.206,0,0,0-.158-.193l-.006.006c-.055-.062-.114-.12-.174-.178h0c-.058-.06-.116-.118-.176-.176l0,0a1.125,1.125,0,0,0-.193-.155l-.85-.566a.9.9,0,0,1-.2-.148l0,0a.332.332,0,0,0-.167-.083c-.063,0-.126,0-.19,0a.4.4,0,0,1-.332-.136l-.086-.037-.091-.024a1.46,1.46,0,0,0-.181-.051,2.1,2.1,0,0,1-.278-.047.914.914,0,0,0-.181-.053.462.462,0,0,0-.274.06.155.155,0,0,1-.152-.006.909.909,0,0,0-.3-.127c-2.676-.045-5.353-.015-8.031-.015-.485.032-.887.446-1.408.3a1.179,1.179,0,0,0-.253-.036.5.5,0,0,0-.242.054c-.05.018-.1.036-.152.053a.52.52,0,0,1-.189.065.39.39,0,0,0-.181.081l0,0a.853.853,0,0,1-.189.16l.013.017a1.047,1.047,0,0,1-.2.161c-.669.178-.97.778-1.411,1.218a.71.71,0,0,1-.154.2l-.011-.01a2.353,2.353,0,0,1-.163.187l0,0a.324.324,0,0,0-.088.2,1.976,1.976,0,0,1-.416,1.027,2.626,2.626,0,0,0-.043.929c-.1,3.821-.068,7.643-.017,11.465a8.8,8.8,0,0,0,.049.928,1.909,1.909,0,0,1,.427,1.029.346.346,0,0,0,.086.206l0,0a.578.578,0,0,1,.146.2l.22.317a1.186,1.186,0,0,0,.158.193l.006-.006c.055.062.114.12.174.177s.116.118.176.176l0,0a1.107,1.107,0,0,0,.193.155l.848.7a.148.148,0,0,1,.2.021l0,0a.372.372,0,0,0,.179.083.511.511,0,0,1,.188.065l.152.053a.512.512,0,0,0,.243.054c.085,0,.17,0,.255,0,.512-.116.93.265,1.418.269q3.9.013,7.8,0c.435.02.789-.349,1.239-.249a1.416,1.416,0,0,0,.241.023c.078-.013.155-.024.233-.034a.506.506,0,0,0,.221-.061c.05-.019.1-.036.153-.053a.537.537,0,0,1,.188-.064.36.36,0,0,0,.178-.084l-.005,0a.79.79,0,0,1,.2-.15l.491-.216a.819.819,0,0,0,.2-.155l-.006-.006c.064-.053.121-.114.182-.169h0c.058-.059.116-.119.179-.174l0,0c.061-.057.119-.116.179-.174h0c.058-.06.117-.118.175-.178l.007.007a1.78,1.78,0,0,0,.155-.194l.218-.317a.516.516,0,0,1,.151-.2l0,0a.408.408,0,0,0,.083-.18.375.375,0,0,1,.084-.178l.018.012a.519.519,0,0,0,.075-.185.347.347,0,0,1,.087-.176l.008.007a.392.392,0,0,0,.077-.173c0-.064,0-.128.007-.192a.4.4,0,0,1,.075-.173l.028.015a.446.446,0,0,0,.071-.253,1.386,1.386,0,0,0,.027-.4,3.367,3.367,0,0,1-.029-.426m-12.761-7.529h0a4.186,4.186,0,0,1-.028-2.629l.181-.2.165-.17.182-.182a1.752,1.752,0,0,1,.318-.045c2.03.066,4.065-.134,6.091.114a.729.729,0,0,1,.28.152,1.518,1.518,0,0,0,.046.148c.31.048.357.275.328.52-.085.705.21,1.443-.183,2.121a.286.286,0,0,1,0,.152c-.123.219-.337.2-.539.2q-3.145,0-6.29,0c-.2,0-.414.026-.546-.183Z" transform="translate(674.568 1432.394)" fill="#edc05a"/>
      <path id="Path_4306" data-name="Path 4306" d="M378.769,39.714v-.007l0,0,0,0" transform="translate(521.936 1417.912)" fill="#b7b7b7"/>
      <path id="Path_4307" data-name="Path 4307" d="M378.772,39.689V39.7h0l-.005-.006" transform="translate(521.932 1417.924)" fill="#b7b7b7"/>
      <path id="Path_4308" data-name="Path 4308" d="M380.23,33.7a3.35,3.35,0,0,1-.029-.426c-.017-.339,0-.681-.024-1.02-.041-.519.169-1.091-.3-1.527a18.77,18.77,0,0,0-4.779-.018c-.562.47-.026,1.207-.423,1.715a1.2,1.2,0,0,0-.049.148c-.055.1-.162.13-.252.18l-.1.051c-.061.041-.123.084-.181.131a.726.726,0,0,1-.212.1q-2.763.061-5.534,0a1,1,0,0,1-.243-.088L368,32.894a.651.651,0,0,1-.212-.126h0a.6.6,0,0,1-.132-.227c-.019-.04-.037-.081-.056-.121s-.034-.083-.052-.123a14.516,14.516,0,0,1-.048-2.146c0-.387-.116-.816.255-1.125a1.984,1.984,0,0,1,1.03-.113c3.365-.006,6.73,0,10.095-.008a1.852,1.852,0,0,0,1.111-.14,1.7,1.7,0,0,0,.2-1.1c.007-1.806,0-3.612,0-5.419a12.12,12.12,0,0,0-.1-1.234l-.121-.339a.256.256,0,0,0,.041-.168l-.045-.077a1.314,1.314,0,0,1-.1-.145,1.008,1.008,0,0,0-.082-.155l-.018.012a.383.383,0,0,1-.083-.179.36.36,0,0,0-.085-.178l0,0a.552.552,0,0,1-.148-.2l-.219-.316a1.207,1.207,0,0,0-.158-.193l-.006.006c-.055-.062-.114-.12-.174-.178h0c-.058-.06-.116-.118-.176-.176l0,0a1.126,1.126,0,0,0-.193-.155l-.85-.566a.9.9,0,0,1-.2-.148l0,0a.332.332,0,0,0-.167-.083c-.063,0-.126,0-.19,0a.4.4,0,0,1-.332-.136L376.7,17.6l-.091-.024a1.462,1.462,0,0,0-.181-.051,2.1,2.1,0,0,1-.278-.047.914.914,0,0,0-.181-.053.462.462,0,0,0-.274.06.155.155,0,0,1-.152-.006.908.908,0,0,0-.3-.127c-2.676-.045-5.353-.015-8.031-.015-.485.032-.887.446-1.408.3a1.178,1.178,0,0,0-.253-.036.5.5,0,0,0-.242.054c-.05.018-.1.036-.152.053a.52.52,0,0,1-.189.065.39.39,0,0,0-.181.081l0,0a.854.854,0,0,1-.189.16l.013.017a1.045,1.045,0,0,1-.2.161c-.669.178-.97.778-1.411,1.218a.711.711,0,0,1-.154.2l-.011-.01a2.362,2.362,0,0,1-.163.187l0,0a.324.324,0,0,0-.088.2,1.976,1.976,0,0,1-.416,1.027,2.626,2.626,0,0,0-.043.929c-.1,3.821-.068,7.643-.017,11.465a8.8,8.8,0,0,0,.049.928,1.909,1.909,0,0,1,.427,1.029.346.346,0,0,0,.086.206l0,0a.578.578,0,0,1,.146.2l.219.317a1.185,1.185,0,0,0,.158.193l.006-.006c.055.062.114.12.174.177s.116.118.176.176l0,0a1.109,1.109,0,0,0,.193.155l.848.7a.148.148,0,0,1,.2.021l0,0a.373.373,0,0,0,.179.083.511.511,0,0,1,.188.065l.152.053a.512.512,0,0,0,.243.054c.085,0,.17,0,.255,0,.512-.116.93.265,1.418.269q3.9.013,7.8,0c.435.02.789-.349,1.239-.249a1.416,1.416,0,0,0,.241.023c.078-.013.155-.024.233-.034a.506.506,0,0,0,.221-.061c.05-.019.1-.036.153-.053a.538.538,0,0,1,.188-.064.36.36,0,0,0,.178-.084l-.005,0a.789.789,0,0,1,.2-.15l.49-.216a.818.818,0,0,0,.2-.155l-.006-.006c.064-.053.121-.114.182-.169h0c.058-.059.116-.119.179-.174l0,0c.061-.057.119-.116.179-.174h0c.058-.06.117-.118.175-.178l.007.007a1.788,1.788,0,0,0,.155-.194l.218-.317a.515.515,0,0,1,.151-.2l0,0a.408.408,0,0,0,.083-.18.375.375,0,0,1,.084-.178l.018.012a.518.518,0,0,0,.075-.185.346.346,0,0,1,.087-.176l.008.007a.392.392,0,0,0,.077-.173c0-.064,0-.128.007-.192a.4.4,0,0,1,.075-.173l.028.015a.446.446,0,0,0,.071-.253,1.388,1.388,0,0,0,.027-.4m-12.789-7.955h0a4.186,4.186,0,0,1-.028-2.629l.181-.2.165-.17.182-.182a1.753,1.753,0,0,1,.318-.045c2.03.066,4.065-.134,6.091.114a.729.729,0,0,1,.28.152,1.5,1.5,0,0,0,.046.148c.31.048.357.275.328.52-.085.705.21,1.443-.183,2.121a.286.286,0,0,1,0,.152c-.123.219-.337.2-.539.2q-3.145,0-6.29,0c-.2,0-.414.026-.546-.183Z" transform="translate(532.745 1432.394)" fill="#b7b7b7"/>
      <path id="Path_4309" data-name="Path 4309" d="M318.088,25.753l-.734-.847a.159.159,0,0,0-.158-.192l0,0-.157-.192h0l-1.094-1.2c.019-.118-.04-.177-.149-.2l-.008.007-.156-.2-.74-.843a.16.16,0,0,0-.158-.192l0,0-.157-.193-1.094-1.2c.018-.117-.041-.176-.15-.2l-.008.007-.156-.2-.741-.843a.16.16,0,0,0-.158-.192l0,0-.156-.193-1.095-1.2c.018-.117-.041-.176-.15-.2l-.008.007-.155-.2-.741-.844h0l.012-.185q0-.18,0-.36l-.008-.19h0l.387-.49.155-.2.007.007c.109-.022.169-.081.15-.2l1.8-1.9.157-.192,0,0c.112-.016.171-.074.158-.191h0l1.446-1.546.156-.195.007.007a1.03,1.03,0,0,1,.173-.178l0,0a.164.164,0,0,0,.173-.179l.007.007a.166.166,0,0,0,.156-.2l1.445-1.547.157-.192,0,0c.112-.016.171-.073.158-.191l.913-1.017a.563.563,0,0,0,.323-.351c-.041-.515-.443-.365-.728-.366-1.744-.012-3.488-.009-5.232,0-.248,0-.535-.086-.709.2a.184.184,0,0,0,.016.159l-.926,1.027-.158.193-.006-.005c-.11.018-.17.076-.155.194h0l-.741.844-.155.2-.009-.008c-.108.024-.168.083-.148.2l-.743.842-.16.192,0,0c-.111.018-.171.075-.154.194l-.742.844-.154.2-.008-.007a1.877,1.877,0,0,1-.17.181l0,0a.165.165,0,0,0-.174.177l-.008-.007a.167.167,0,0,0-.156.2l-.741.844-.155.193,0,0a.166.166,0,0,0-.163.187l-.019-.015c-.577-.148-.334-.62-.335-.946-.016-4.707-.007-6.578-.021-11.284,0-.308.209-.73-.291-.9L304.67.6c-.007-.021-.013-.042-.021-.063l.044.006.043-.013-.07-.169h0c.231-.468-.164-.348-.358-.35-1.626-.01-3.253,0-4.88-.007-.383,0-.706.059-.729.535h0c0,9.2,0,15.561,0,24.76,0,.285-.072.589.144.841a.548.548,0,0,0,.058-.056V26.1l-.058.044a20.622,20.622,0,0,0,4.253.14,2.756,2.756,0,0,0,1.625-.141l-.064-.046c0-.009,0-.018,0-.028l.059.073c.449-.133.313-.507.315-.8.01-1.69.007-3.38,0-5.071a1.863,1.863,0,0,1,.187-1.015l.539.532h0a.17.17,0,0,0,.156.2l.008-.007.151.2.74.845a.163.163,0,0,0,.158.193l.006-.006.155.194.739.845a.165.165,0,0,0,.153.2l.009-.008.154.2.741.844c-.014.117.046.175.155.194l.006-.006.158.193.7.885.185.158.008-.008.156.2.567.667c.039.073.1.128.14.2l-.14-.2c-.021.115.038.174.141.2l.017-.013a.224.224,0,0,0,.01.155c.123.219.339.195.54.195q3.063,0,6.125,0c.2,0,.416.021.538-.2.014-.143.022-.282-.152-.342M299.065.549c0-.006-.012-.01-.017-.015h.021l0,.014" transform="translate(573.758 1443.607)" fill="#b7b7b7"/>
      <path id="Path_4310" data-name="Path 4310" d="M274.054,19.664c0-.276.089-.617-.352-.672-.193-.255-.474-.175-.724-.177q-2.178-.01-4.356,0c-.249,0-.532-.083-.724.174-.3.251-.179.6-.18.9q-.011,8.746,0,17.492c0,.312-.089.646.143.927a.552.552,0,0,0,.059-.055v.011l-.058.044a18.894,18.894,0,0,0,4.077.14,3.36,3.36,0,0,0,1.8-.14l-.063-.046c0-.011.008-.021.012-.031l.051.078c.4-.108.318-.437.318-.716q0-8.964,0-17.929m-5.96-.655a.1.1,0,0,0-.012-.01h.015l0,.009m5.543.168-.008,0,.008-.006v.008" transform="translate(593.812 1431.439)" fill="#b7b7b7"/>
      <path id="Path_4311" data-name="Path 4311" d="M226.32,21.2l-.308-.017c-.188-.513-.633-.325-.979-.326-3.682-.016-7.363-.014-11.045-.018q0-9.414-.01-18.828c0-.33.149-.709-.188-.982h0c-.053,0-.1.007-.157.013-.491-.386-1.065-.191-1.589-.177a24.29,24.29,0,0,0-4.419.119h0a.5.5,0,0,1-.14.045c-.32.243-.19.592-.19.895q-.011,11.909,0,23.818c0,.3-.13.651.19.895h0a.521.521,0,0,1,.141.045h0a1.247,1.247,0,0,0,.847.132q8.339.005,16.677,0c.275,0,.6.115.806-.19a1.563,1.563,0,0,1,.05-.158l.069,0,.069,0c.057.125.116.123.178,0,.4-1.383.083-2.8.164-4.193.02-.353.152-.756-.165-1.07m-18.5,5.3c0-.015,0-.029,0-.044h.012a.227.227,0,0,0-.013.044m5.85-5.319-.038,0a.133.133,0,0,0,.035-.067c0,.021,0,.042,0,.064h0Z" transform="translate(632.913 1443.089)" fill="#b7b7b7"/>
      <path id="Path_4312" data-name="Path 4312" d="M273.634,1.045c0,.078,0,.156.008.233,0,.029-.008.058-.012.087,0-.015-.006-.03-.01-.045l.022-.042a.233.233,0,0,1-.052.006.336.336,0,0,0,.043-.239c-.2-.351-.477-.234-.728-.23q-2.177.039-4.354.105c-.249.008-.532-.1-.722.259a15.221,15.221,0,0,0,.019,4.946h0c.732.456,1.5.182,2.24.146,1.214-.059,2.445.218,3.641-.279h0a9.582,9.582,0,0,0-.013-4.923c-.016-.024-.055-.017-.084-.025" transform="translate(593.85 1443.094)" fill="#b7b7b7"/>
      <path id="Path_4313" data-name="Path 4313" d="M77.59,19.664c0-.276.089-.617-.352-.672-.193-.255-.474-.175-.724-.177q-2.178-.01-4.356,0c-.249,0-.532-.083-.724.174-.3.251-.179.6-.18.9q-.011,8.746,0,17.492c0,.312-.089.646.143.927a.546.546,0,0,0,.059-.055v.011l-.058.044a18.894,18.894,0,0,0,4.077.14,3.36,3.36,0,0,0,1.8-.14l-.063-.046c0-.011.008-.021.012-.031l.051.078c.4-.108.318-.437.318-.716q0-8.964,0-17.929m-5.96-.655a.1.1,0,0,0-.012-.01h.015l0,.009m5.542.168-.008,0,.008-.006v.008" transform="translate(720.945 1431.439)" fill="#edc05a"/>
      <path id="Path_4314" data-name="Path 4314" d="M77.169,1.045c0,.078,0,.156.008.233,0,.029-.008.058-.012.087,0-.015-.006-.03-.01-.045l.022-.042a.233.233,0,0,1-.052.006.337.337,0,0,0,.043-.239c-.2-.351-.477-.234-.728-.23q-2.177.039-4.354.105c-.249.008-.533-.1-.722.259a15.221,15.221,0,0,0,.019,4.946h0c.732.456,1.5.182,2.24.146,1.214-.059,2.445.218,3.641-.279h0a9.583,9.583,0,0,0-.013-4.923c-.016-.024-.055-.017-.084-.025" transform="translate(720.984 1443.094)" fill="#edc05a"/>
      <path id="Path_4315" data-name="Path 4315" d="M108.894,23.127h0l-.2-.205c-.11-.482-.5-.309-.79-.314-1.26-.02-2.52-.014-3.781-.017h0c-.017-.461-.2-.89-.193-1.365.026-2.345.014-4.69.015-7.036h0c1.314,0,2.628,0,3.943-.016.275,0,.6.115.8-.2h0a.914.914,0,0,1,.054-.154c.257-.041.308-.219.308-.442q0-1.907,0-3.813c0-.264-.069-.456-.376-.466a1.006,1.006,0,0,1-.158-.036l.018.069-.109,0,.091-.067c-.24-.243-.547-.144-.827-.148-1.248-.016-2.5-.016-3.746-.022h0c0-1.421,0-2.842-.008-4.263,0-.276.1-.59-.187-.8h0a1.025,1.025,0,0,0-.164.008,1.325,1.325,0,0,0,0-.172h0c-.066-.053-.133-.153-.2-.153q-2.443-.012-4.887,0s0,.091,0,.14a1.158,1.158,0,0,1-.059.157c-.019.011-.031.022-.049.033l-.113,1.234.005.484-.05.01-.3,3.331h-.336l0,.006a11.133,11.133,0,0,1-1.48-.006h-.78a3.8,3.8,0,0,0-.955.155.183.183,0,0,0-.109.03h0l-.179,0c-.354.4-.192.888-.17,1.323a11.723,11.723,0,0,0,.16,3.41c.076.127.135.11.18-.021l.14.041a.4.4,0,0,0,.08-.1c0,.017,0,.033,0,.049l-.081.05a.8.8,0,0,1,.04.138.65.65,0,0,0,.32.11,15.772,15.772,0,0,0,2.672.081l0,0q0,4.649,0,9.3a2.481,2.481,0,0,0,.551,1.385.163.163,0,0,0,.146.2l.009-.008a.277.277,0,0,0,.018.17l0,.174.118.188c.024.052.045.1.064.159l.121.208h0l.2.162.014-.011.152.2,1.059,1.053.2.15h0a.156.156,0,0,0,.183.154l.083.026.087-.007-.013.017.189.16-.005.006.191.147.086.016.085-.017.177.015-.016.026.193.139c.055.017.11.036.164.058l.194.11h0l.357.008.342.037c.235.256.546.153.824.155,1.456.01,2.912.014,4.368,0,.4,0,.819.127,1.183-.152h0c.4-.109.309-.438.312-.714.007-.725.037-1.452-.007-2.175a6.475,6.475,0,0,0-.149-2.391m-.408-9.494v-.01l.013.011h-.013M94.454,9.1h0m14.183,19.121h0c0-.021,0-.042,0-.062,0,.009,0,.018,0,.026a.262.262,0,0,0,.049.031Z" transform="translate(706.303 1441.336)" fill="#edc05a"/>
    </g>
    <g id="Group_2115" data-name="Group 2115" transform="translate(-406.039 -151.607)">
      <path id="Path_4297-2" data-name="Path 4297" d="M358.693,63.527c0,.128,0,.255,0,.383.173-.072.151-.221.143-.363a.516.516,0,0,1-.141-.019" transform="translate(534.926 1402.498)" fill="#fff"/>
      <path id="Path_4298-2" data-name="Path 4298" d="M358.689,28.727l0,.384a.541.541,0,0,1,.143-.02c.006-.143.028-.293-.146-.365" transform="translate(534.928 1425.018)" fill="#fff"/>
      <path id="Path_4299-2" data-name="Path 4299" d="M358.668,65.009l.138.207c.029-.119-.041-.172-.138-.207" transform="translate(534.941 1401.539)" fill="#fff"/>
      <path id="Path_4300-2" data-name="Path 4300" d="M43.652,24.556a1.5,1.5,0,0,0-1.087.229c.094.059.188.169.283.169,1.741.013,3.482.012,5.223.018.268,0,.455-.077.457-.383a.548.548,0,0,0-.316-.058c-1.52.047-3.041.006-4.561.024" transform="translate(739.494 1427.735)" fill="#fff"/>
      <path id="Path_4301-2" data-name="Path 4301" d="M21.187,21.836c.376-1.444.076-2.913.164-4.368.015-.247.079-.529-.185-.715h0c-.046,0-.091-.008-.137-.016-.1-.226.1-.531-.193-.705a.2.2,0,0,1,.012-.145l.131-.183h0l-.148-.185-.01.008c0-.059,0-.117-.007-.176h0l-.138-.192c-.1-.154-.251-.283-.222-.494a.172.172,0,0,0-.151-.2l-.013.01-.151-.2-.705-.7-.2-.149.01-.013-.191-.148a.334.334,0,0,0-.168-.019l0,0a.764.764,0,0,0-.195-.149,1.561,1.561,0,0,1-.148-.052l-.194-.13h0a1.562,1.562,0,0,1-.158-.058l-.2-.112h0l-.178.007-.348-.022.013-.021a.321.321,0,0,0-.364-.154h0l-.176.013h0l-.175-.018.008-.011c-.05-.167-.115-.161-.192-.017a.164.164,0,0,1-.146.006h0c-.033-.094-.082-.163-.2-.131h0l-.157-.054-.195-.137-.178.012c-.055-.018-.11-.038-.164-.06l-.188-.114h-.175L15,12.029,15.016,12a.32.32,0,0,0-.366-.15.347.347,0,0,0-.173.006l-.162-.046-.019.068h0l.019-.067a.307.307,0,0,0-.373-.126h0a1.251,1.251,0,0,1-.152-.049.359.359,0,0,0-.372-.14l-.176.009-.176,0-.175-.019.008-.011c-.05-.167-.115-.161-.193-.016a.163.163,0,0,1-.146.006c-.032-.094-.082-.164-.2-.133h0c-.052-.02-.1-.039-.156-.055l-.2-.127h-.175l-.164-.062-.19-.11-.185.131-.5-.181-.2-.121-.165-.062-.188-.114h-.175l-.18-.01.014-.024a.326.326,0,0,0-.363-.156l-.175.009-.176,0-.175-.019.009-.011c-.051-.168-.116-.162-.193-.016a.164.164,0,0,1-.146.006c-.032-.094-.08-.165-.2-.134q-.077-.031-.156-.055l-.2-.128-.167-.059-.188-.11H7.6c-.11-.025-.156.041-.187.13L7.1,9.884l-.193-.152,0,0a.154.154,0,0,0-.185-.162l.017-.025L6.721,6.563A.493.493,0,0,0,6.728,6.4h0c.112-.013.176-.067.159-.188.071-.19.231-.155.379-.149.2.245.485.16.737.161q3.245.006,6.49,0l.083.009h.083l.005-.005.155.2a.7.7,0,0,1,.031.139c.056.134.08.278.133.412.132.454-.075.968.056,1.422l0,.447.079.007.078-.01h.184a30.206,30.206,0,0,0,3.846.085,2.783,2.783,0,0,0,1.037-.067l.539,0c.006-.06.012-.119.018-.179l.021.015a5.821,5.821,0,0,0,0-3.008.845.845,0,0,0-.049-.157c0-.062,0-.125,0-.188l.065.017L20.806,5c-.005-.122-.01-.245-.016-.367a.213.213,0,0,0,.014-.156l-.184-.184c0-.112,0-.224.007-.336a.16.16,0,0,0-.144-.2l-.008.007a.288.288,0,0,0-.018-.166L20.314,3.4l-.019.013a.232.232,0,0,0-.018-.17c.014-.114-.045-.17-.152-.186l-.005,0-.152-.2a3.383,3.383,0,0,0-1.061-1.227l-.2-.149.009-.011a.173.173,0,0,0-.2-.153c-.208.027-.34-.119-.494-.216l-.195-.15,0,0a.16.16,0,0,0-.187-.149h-.18L17.143.758c-.009-.044-.018-.088-.028-.131a.381.381,0,0,0-.174.012L16.777.575c-.061-.108-.119-.131-.171.006L16.238.63a.343.343,0,0,0,.055.058A3.5,3.5,0,0,1,15.7.45c-.094-.01-.19-.015-.283-.016-3.086,0-6.175-.008-9.265,0a2.32,2.32,0,0,0-.541.155L4.619.644a.07.07,0,0,0,0-.084l-.17.068-.2.129L4.1.81c-.118-.029-.17.04-.2.136l-.67.209a.161.161,0,0,0-.2.151l0,0-.2.152-.317.216a.163.163,0,0,0-.193.158h0l.006.005a.168.168,0,0,0-.178.174.167.167,0,0,0-.175.176l.175-.176c-.061.056-.12.114-.175.176l0,0a.16.16,0,0,0-.157.193L1.6,2.694l-.15.2v0c-.107.014-.168.068-.155.183h0a.229.229,0,0,0-.019.169l-.018-.013-.158.19,0,0L.94,3.6V3.78c-.017.051-.035.1-.053.152l-.129.193h0A1.511,1.511,0,0,1,.7,4.284L.783,4.3h0v0L.7,4.284l-.114.171A1.527,1.527,0,0,0,.4,5.529l.07-.007a1.526,1.526,0,0,1-.018.2A13.053,13.053,0,0,0,.4,8.228a6.8,6.8,0,0,0,.137,2.394.5.5,0,0,0,.061.692.168.168,0,0,0-.013.154c0,.118.005.235.008.352l.108.2.2.179.022-.014c.006.058.012.116.019.174a.215.215,0,0,0,0,.17.162.162,0,0,0,.153.186l0,0a.81.81,0,0,1,.144.2,7.429,7.429,0,0,0,1.424,1.362l.193.023L2.85,14.3a.164.164,0,0,0,.2.149l.08.016.077-.025a.764.764,0,0,0,.16.056l.2.147-.009.011a1.792,1.792,0,0,0,.2.155l.074.012L3.9,14.8l.2-.009.349.023-.014.025.192.14.175,0,.176-.007c0-.019,0-.039-.007-.059,0,.02,0,.039.007.059l.175.022L5.14,15l.187.142.175,0,.172.053-.006-.078v0l.045,0-.04.074a.33.33,0,0,0,.357.137l.178-.017c.056.018.11.038.164.06l.187.117h.186l.331.17.082.024.084-.018.171.042c.134.25.347.144.542.119l.367.028-.013.022a.314.314,0,0,0,.367.145,1.29,1.29,0,0,1,.165.055l.187.114.175,0h.175l.18.012-.014.025a.325.325,0,0,0,.364.155l.176-.016.165.062.188.114h.35l.179.014-.014.025a.32.32,0,0,0,.367.146,1.081,1.081,0,0,1,.165.053h0l.188.114.179-.007c.052.017.1.035.154.055a.364.364,0,0,0,.369.143l.178-.013.167.059.194.109h0l.344.01.17.05-.005-.078.044,0-.038.074a.335.335,0,0,0,.359.133l.175-.011.174.019-.006.007.188.148.085.023.088-.006-.011.015a1.245,1.245,0,0,1,.181.17l.006-.006.154.194.02-.015,0,.343q0,1.152,0,2.3l.016.343-.362.354c-2.241,0-4.482-.009-6.723,0-.26,0-.619-.136-.686.315-.209,0-.284-.158-.367-.307,0-.712.011-1.424,0-2.135,0-.264.106-.6-.315-.681L6.2,18.317a37.493,37.493,0,0,0-5.635.025,1.193,1.193,0,0,1-.048.155.483.483,0,0,0,.076.067c0,.041-.01.083-.016.124l-.025-.013a3.641,3.641,0,0,0-.108.415,1.274,1.274,0,0,0-.219-.573,9.836,9.836,0,0,0-.091,3.74c0,.039.149.067.228.1l.223.692,0,.184.113.2q.032.077.058.157l.142.191.022-.014.017.172c-.019.115.039.17.146.188l.006-.006a.281.281,0,0,0,.018.167l.145.194.017-.012a.243.243,0,0,0,.017.168.162.162,0,0,0,.152.189l0,0a1.922,1.922,0,0,1,.172.18l.007-.006.157.194.706.7.2.151-.007.008.182.17,0,0,.189.153.085.021.087-.011-.013.019.192.15.083.019.085,0-.005.005.188.147h.179l.322.182.189.056.193.11h0l.356.011.08.014.077-.026.177.053c.183.2.428.151.656.151q4.722,0,9.444,0c.229,0,.471.044.663-.139l.016-.041-.037-.024.173.005h.359a.314.314,0,0,0,.37-.126l-.047-.074.023-.007.025.081q.079-.025.161-.043h.174l.2-.131q.076-.03.153-.057l.174.007a.046.046,0,0,0,.03-.017l.173-.094.17-.206-.012-.017.087.007.084-.024a.156.156,0,0,0,.185-.153l0,0,.2-.149,1.24-1.233.152-.194v0a.155.155,0,0,0,.151-.186h0a.236.236,0,0,0,.018-.17l.018.013.161-.188,0,0,.151-.19h0c0-.059,0-.118,0-.178.016-.051.033-.1.053-.151h0l.13-.192a1.359,1.359,0,0,1,.059-.16l.122-.183h0c.34-.309.148-.7.175-1.064h0c.005-.055.013-.11.024-.165M.732,4.487A.2.2,0,0,0,.657,4.46c.026,0,.053.006.079.006l.041-.045c0,.022,0,.043,0,.065l-.038-.02,0,.021m.1-.115a1.065,1.065,0,0,0-.061.114ZM4.617,26.954c0-.009,0-.018,0-.027L4.6,26.9h0l.028.006-.011.016.017,0a.139.139,0,0,0-.014.025m1.413-8.118.007-.007c0,.006,0,.011,0,.017l-.008-.01M17.3,26.8v-.017l.011,0c0,.006,0,.013,0,.019l-.014,0m3.493-3.752h0l-.064.12a1.149,1.149,0,0,0,.064-.12m-.008.191h0v0l.08.016-.08-.012m.044-.171-.039.043c0-.021,0-.042,0-.063l.036.02v-.029a.245.245,0,0,0,.074.029h-.073" transform="translate(767.038 1443.327)" fill="#fff"/>
      <path id="Path_4302-2" data-name="Path 4302" d="M52.974,36.3l.195.149c-.019-.109-.076-.169-.195-.149" transform="translate(732.759 1420.12)" fill="#fff"/>
      <path id="Path_4303-2" data-name="Path 4303" d="M159.606,39.714v-.007l0,0,0,0" transform="translate(663.758 1417.912)" fill="#fff"/>
      <path id="Path_4304-2" data-name="Path 4304" d="M159.609,39.689V39.7h0l-.005-.006" transform="translate(663.754 1417.924)" fill="#fff"/>
      <path id="Path_4305-2" data-name="Path 4305" d="M161.039,33.276c-.017-.339,0-.681-.024-1.02-.041-.519.169-1.091-.3-1.527a18.769,18.769,0,0,0-4.779-.018c-.562.47-.026,1.207-.423,1.715a1.2,1.2,0,0,0-.049.148c-.055.1-.162.13-.252.18l-.1.051c-.061.041-.123.084-.181.131a.726.726,0,0,1-.212.1q-2.763.061-5.534,0a1,1,0,0,1-.243-.088l-.114-.054a.651.651,0,0,1-.212-.126h0a.6.6,0,0,1-.132-.227c-.019-.04-.037-.081-.056-.121s-.034-.083-.052-.123a14.518,14.518,0,0,1-.048-2.146c0-.387-.116-.816.256-1.125a1.984,1.984,0,0,1,1.03-.113c3.365-.006,6.73,0,10.095-.008a1.852,1.852,0,0,0,1.111-.14,1.7,1.7,0,0,0,.2-1.1c.007-1.806,0-3.612,0-5.419a12.12,12.12,0,0,0-.1-1.234l-.121-.339a.256.256,0,0,0,.041-.168l-.046-.077a1.314,1.314,0,0,1-.1-.145,1.014,1.014,0,0,0-.082-.155l-.018.012a.383.383,0,0,1-.083-.179.36.36,0,0,0-.085-.178l0,0a.552.552,0,0,1-.148-.2l-.219-.316a1.206,1.206,0,0,0-.158-.193l-.006.006c-.055-.062-.114-.12-.174-.178h0c-.058-.06-.116-.118-.176-.176l0,0a1.125,1.125,0,0,0-.193-.155l-.85-.566a.9.9,0,0,1-.2-.148l0,0a.332.332,0,0,0-.167-.083c-.063,0-.126,0-.19,0a.4.4,0,0,1-.332-.136l-.086-.037-.091-.024a1.46,1.46,0,0,0-.181-.051,2.1,2.1,0,0,1-.278-.047.914.914,0,0,0-.181-.053.462.462,0,0,0-.274.06.155.155,0,0,1-.152-.006.909.909,0,0,0-.3-.127c-2.676-.045-5.353-.015-8.031-.015-.485.032-.887.446-1.408.3a1.179,1.179,0,0,0-.253-.036.5.5,0,0,0-.242.054c-.05.018-.1.036-.152.053a.52.52,0,0,1-.189.065.39.39,0,0,0-.181.081l0,0a.853.853,0,0,1-.189.16l.013.017a1.047,1.047,0,0,1-.2.161c-.669.178-.97.778-1.411,1.218a.71.71,0,0,1-.154.2l-.011-.01a2.353,2.353,0,0,1-.163.187l0,0a.324.324,0,0,0-.088.2,1.976,1.976,0,0,1-.416,1.027,2.626,2.626,0,0,0-.043.929c-.1,3.821-.068,7.643-.017,11.465a8.8,8.8,0,0,0,.049.928,1.909,1.909,0,0,1,.427,1.029.346.346,0,0,0,.086.206l0,0a.578.578,0,0,1,.146.2l.22.317a1.186,1.186,0,0,0,.158.193l.006-.006c.055.062.114.12.174.177s.116.118.176.176l0,0a1.107,1.107,0,0,0,.193.155l.848.7a.148.148,0,0,1,.2.021l0,0a.372.372,0,0,0,.179.083.511.511,0,0,1,.188.065l.152.053a.512.512,0,0,0,.243.054c.085,0,.17,0,.255,0,.512-.116.93.265,1.418.269q3.9.013,7.8,0c.435.02.789-.349,1.239-.249a1.416,1.416,0,0,0,.241.023c.078-.013.155-.024.233-.034a.506.506,0,0,0,.221-.061c.05-.019.1-.036.153-.053a.537.537,0,0,1,.188-.064.36.36,0,0,0,.178-.084l-.005,0a.79.79,0,0,1,.2-.15l.491-.216a.819.819,0,0,0,.2-.155l-.006-.006c.064-.053.121-.114.182-.169h0c.058-.059.116-.119.179-.174l0,0c.061-.057.119-.116.179-.174h0c.058-.06.117-.118.175-.178l.007.007a1.78,1.78,0,0,0,.155-.194l.218-.317a.516.516,0,0,1,.151-.2l0,0a.408.408,0,0,0,.083-.18.375.375,0,0,1,.084-.178l.018.012a.519.519,0,0,0,.075-.185.347.347,0,0,1,.087-.176l.008.007a.392.392,0,0,0,.077-.173c0-.064,0-.128.007-.192a.4.4,0,0,1,.075-.173l.028.015a.446.446,0,0,0,.071-.253,1.386,1.386,0,0,0,.027-.4,3.367,3.367,0,0,1-.029-.426m-12.761-7.529h0a4.186,4.186,0,0,1-.028-2.629l.181-.2.165-.17.182-.182a1.752,1.752,0,0,1,.318-.045c2.03.066,4.065-.134,6.091.114a.729.729,0,0,1,.28.152,1.518,1.518,0,0,0,.046.148c.31.048.357.275.328.52-.085.705.21,1.443-.183,2.121a.286.286,0,0,1,0,.152c-.123.219-.337.2-.539.2q-3.145,0-6.29,0c-.2,0-.414.026-.546-.183Z" transform="translate(674.568 1432.394)" fill="#fff"/>
      <path id="Path_4306-2" data-name="Path 4306" d="M378.769,39.714v-.007l0,0,0,0" transform="translate(521.936 1417.912)" fill="#fff"/>
      <path id="Path_4307-2" data-name="Path 4307" d="M378.772,39.689V39.7h0l-.005-.006" transform="translate(521.932 1417.924)" fill="#fff"/>
      <path id="Path_4308-2" data-name="Path 4308" d="M380.23,33.7a3.35,3.35,0,0,1-.029-.426c-.017-.339,0-.681-.024-1.02-.041-.519.169-1.091-.3-1.527a18.77,18.77,0,0,0-4.779-.018c-.562.47-.026,1.207-.423,1.715a1.2,1.2,0,0,0-.049.148c-.055.1-.162.13-.252.18l-.1.051c-.061.041-.123.084-.181.131a.726.726,0,0,1-.212.1q-2.763.061-5.534,0a1,1,0,0,1-.243-.088L368,32.894a.651.651,0,0,1-.212-.126h0a.6.6,0,0,1-.132-.227c-.019-.04-.037-.081-.056-.121s-.034-.083-.052-.123a14.516,14.516,0,0,1-.048-2.146c0-.387-.116-.816.255-1.125a1.984,1.984,0,0,1,1.03-.113c3.365-.006,6.73,0,10.095-.008a1.852,1.852,0,0,0,1.111-.14,1.7,1.7,0,0,0,.2-1.1c.007-1.806,0-3.612,0-5.419a12.12,12.12,0,0,0-.1-1.234l-.121-.339a.256.256,0,0,0,.041-.168l-.045-.077a1.314,1.314,0,0,1-.1-.145,1.008,1.008,0,0,0-.082-.155l-.018.012a.383.383,0,0,1-.083-.179.36.36,0,0,0-.085-.178l0,0a.552.552,0,0,1-.148-.2l-.219-.316a1.207,1.207,0,0,0-.158-.193l-.006.006c-.055-.062-.114-.12-.174-.178h0c-.058-.06-.116-.118-.176-.176l0,0a1.126,1.126,0,0,0-.193-.155l-.85-.566a.9.9,0,0,1-.2-.148l0,0a.332.332,0,0,0-.167-.083c-.063,0-.126,0-.19,0a.4.4,0,0,1-.332-.136L376.7,17.6l-.091-.024a1.462,1.462,0,0,0-.181-.051,2.1,2.1,0,0,1-.278-.047.914.914,0,0,0-.181-.053.462.462,0,0,0-.274.06.155.155,0,0,1-.152-.006.908.908,0,0,0-.3-.127c-2.676-.045-5.353-.015-8.031-.015-.485.032-.887.446-1.408.3a1.178,1.178,0,0,0-.253-.036.5.5,0,0,0-.242.054c-.05.018-.1.036-.152.053a.52.52,0,0,1-.189.065.39.39,0,0,0-.181.081l0,0a.854.854,0,0,1-.189.16l.013.017a1.045,1.045,0,0,1-.2.161c-.669.178-.97.778-1.411,1.218a.711.711,0,0,1-.154.2l-.011-.01a2.362,2.362,0,0,1-.163.187l0,0a.324.324,0,0,0-.088.2,1.976,1.976,0,0,1-.416,1.027,2.626,2.626,0,0,0-.043.929c-.1,3.821-.068,7.643-.017,11.465a8.8,8.8,0,0,0,.049.928,1.909,1.909,0,0,1,.427,1.029.346.346,0,0,0,.086.206l0,0a.578.578,0,0,1,.146.2l.219.317a1.185,1.185,0,0,0,.158.193l.006-.006c.055.062.114.12.174.177s.116.118.176.176l0,0a1.109,1.109,0,0,0,.193.155l.848.7a.148.148,0,0,1,.2.021l0,0a.373.373,0,0,0,.179.083.511.511,0,0,1,.188.065l.152.053a.512.512,0,0,0,.243.054c.085,0,.17,0,.255,0,.512-.116.93.265,1.418.269q3.9.013,7.8,0c.435.02.789-.349,1.239-.249a1.416,1.416,0,0,0,.241.023c.078-.013.155-.024.233-.034a.506.506,0,0,0,.221-.061c.05-.019.1-.036.153-.053a.538.538,0,0,1,.188-.064.36.36,0,0,0,.178-.084l-.005,0a.789.789,0,0,1,.2-.15l.49-.216a.818.818,0,0,0,.2-.155l-.006-.006c.064-.053.121-.114.182-.169h0c.058-.059.116-.119.179-.174l0,0c.061-.057.119-.116.179-.174h0c.058-.06.117-.118.175-.178l.007.007a1.788,1.788,0,0,0,.155-.194l.218-.317a.515.515,0,0,1,.151-.2l0,0a.408.408,0,0,0,.083-.18.375.375,0,0,1,.084-.178l.018.012a.518.518,0,0,0,.075-.185.346.346,0,0,1,.087-.176l.008.007a.392.392,0,0,0,.077-.173c0-.064,0-.128.007-.192a.4.4,0,0,1,.075-.173l.028.015a.446.446,0,0,0,.071-.253,1.388,1.388,0,0,0,.027-.4m-12.789-7.955h0a4.186,4.186,0,0,1-.028-2.629l.181-.2.165-.17.182-.182a1.753,1.753,0,0,1,.318-.045c2.03.066,4.065-.134,6.091.114a.729.729,0,0,1,.28.152,1.5,1.5,0,0,0,.046.148c.31.048.357.275.328.52-.085.705.21,1.443-.183,2.121a.286.286,0,0,1,0,.152c-.123.219-.337.2-.539.2q-3.145,0-6.29,0c-.2,0-.414.026-.546-.183Z" transform="translate(532.745 1432.394)" fill="#fff"/>
      <path id="Path_4309-2" data-name="Path 4309" d="M318.088,25.753l-.734-.847a.159.159,0,0,0-.158-.192l0,0-.157-.192h0l-1.094-1.2c.019-.118-.04-.177-.149-.2l-.008.007-.156-.2-.74-.843a.16.16,0,0,0-.158-.192l0,0-.157-.193-1.094-1.2c.018-.117-.041-.176-.15-.2l-.008.007-.156-.2-.741-.843a.16.16,0,0,0-.158-.192l0,0-.156-.193-1.095-1.2c.018-.117-.041-.176-.15-.2l-.008.007-.155-.2-.741-.844h0l.012-.185q0-.18,0-.36l-.008-.19h0l.387-.49.155-.2.007.007c.109-.022.169-.081.15-.2l1.8-1.9.157-.192,0,0c.112-.016.171-.074.158-.191h0l1.446-1.546.156-.195.007.007a1.03,1.03,0,0,1,.173-.178l0,0a.164.164,0,0,0,.173-.179l.007.007a.166.166,0,0,0,.156-.2l1.445-1.547.157-.192,0,0c.112-.016.171-.073.158-.191l.913-1.017a.563.563,0,0,0,.323-.351c-.041-.515-.443-.365-.728-.366-1.744-.012-3.488-.009-5.232,0-.248,0-.535-.086-.709.2a.184.184,0,0,0,.016.159l-.926,1.027-.158.193-.006-.005c-.11.018-.17.076-.155.194h0l-.741.844-.155.2-.009-.008c-.108.024-.168.083-.148.2l-.743.842-.16.192,0,0c-.111.018-.171.075-.154.194l-.742.844-.154.2-.008-.007a1.877,1.877,0,0,1-.17.181l0,0a.165.165,0,0,0-.174.177l-.008-.007a.167.167,0,0,0-.156.2l-.741.844-.155.193,0,0a.166.166,0,0,0-.163.187l-.019-.015c-.577-.148-.334-.62-.335-.946-.016-4.707-.007-6.578-.021-11.284,0-.308.209-.73-.291-.9L304.67.6c-.007-.021-.013-.042-.021-.063l.044.006.043-.013-.07-.169h0c.231-.468-.164-.348-.358-.35-1.626-.01-3.253,0-4.88-.007-.383,0-.706.059-.729.535h0c0,9.2,0,15.561,0,24.76,0,.285-.072.589.144.841a.548.548,0,0,0,.058-.056V26.1l-.058.044a20.622,20.622,0,0,0,4.253.14,2.756,2.756,0,0,0,1.625-.141l-.064-.046c0-.009,0-.018,0-.028l.059.073c.449-.133.313-.507.315-.8.01-1.69.007-3.38,0-5.071a1.863,1.863,0,0,1,.187-1.015l.539.532h0a.17.17,0,0,0,.156.2l.008-.007.151.2.74.845a.163.163,0,0,0,.158.193l.006-.006.155.194.739.845a.165.165,0,0,0,.153.2l.009-.008.154.2.741.844c-.014.117.046.175.155.194l.006-.006.158.193.7.885.185.158.008-.008.156.2.567.667c.039.073.1.128.14.2l-.14-.2c-.021.115.038.174.141.2l.017-.013a.224.224,0,0,0,.01.155c.123.219.339.195.54.195q3.063,0,6.125,0c.2,0,.416.021.538-.2.014-.143.022-.282-.152-.342M299.065.549c0-.006-.012-.01-.017-.015h.021l0,.014" transform="translate(573.758 1443.607)" fill="#fff"/>
      <path id="Path_4310-2" data-name="Path 4310" d="M274.054,19.664c0-.276.089-.617-.352-.672-.193-.255-.474-.175-.724-.177q-2.178-.01-4.356,0c-.249,0-.532-.083-.724.174-.3.251-.179.6-.18.9q-.011,8.746,0,17.492c0,.312-.089.646.143.927a.552.552,0,0,0,.059-.055v.011l-.058.044a18.894,18.894,0,0,0,4.077.14,3.36,3.36,0,0,0,1.8-.14l-.063-.046c0-.011.008-.021.012-.031l.051.078c.4-.108.318-.437.318-.716q0-8.964,0-17.929m-5.96-.655a.1.1,0,0,0-.012-.01h.015l0,.009m5.543.168-.008,0,.008-.006v.008" transform="translate(593.812 1431.439)" fill="#fff"/>
      <path id="Path_4311-2" data-name="Path 4311" d="M226.32,21.2l-.308-.017c-.188-.513-.633-.325-.979-.326-3.682-.016-7.363-.014-11.045-.018q0-9.414-.01-18.828c0-.33.149-.709-.188-.982h0c-.053,0-.1.007-.157.013-.491-.386-1.065-.191-1.589-.177a24.29,24.29,0,0,0-4.419.119h0a.5.5,0,0,1-.14.045c-.32.243-.19.592-.19.895q-.011,11.909,0,23.818c0,.3-.13.651.19.895h0a.521.521,0,0,1,.141.045h0a1.247,1.247,0,0,0,.847.132q8.339.005,16.677,0c.275,0,.6.115.806-.19a1.563,1.563,0,0,1,.05-.158l.069,0,.069,0c.057.125.116.123.178,0,.4-1.383.083-2.8.164-4.193.02-.353.152-.756-.165-1.07m-18.5,5.3c0-.015,0-.029,0-.044h.012a.227.227,0,0,0-.013.044m5.85-5.319-.038,0a.133.133,0,0,0,.035-.067c0,.021,0,.042,0,.064h0Z" transform="translate(632.913 1443.089)" fill="#fff"/>
      <path id="Path_4312-2" data-name="Path 4312" d="M273.634,1.045c0,.078,0,.156.008.233,0,.029-.008.058-.012.087,0-.015-.006-.03-.01-.045l.022-.042a.233.233,0,0,1-.052.006.336.336,0,0,0,.043-.239c-.2-.351-.477-.234-.728-.23q-2.177.039-4.354.105c-.249.008-.532-.1-.722.259a15.221,15.221,0,0,0,.019,4.946h0c.732.456,1.5.182,2.24.146,1.214-.059,2.445.218,3.641-.279h0a9.582,9.582,0,0,0-.013-4.923c-.016-.024-.055-.017-.084-.025" transform="translate(593.85 1443.094)" fill="#fff"/>
      <path id="Path_4313-2" data-name="Path 4313" d="M77.59,19.664c0-.276.089-.617-.352-.672-.193-.255-.474-.175-.724-.177q-2.178-.01-4.356,0c-.249,0-.532-.083-.724.174-.3.251-.179.6-.18.9q-.011,8.746,0,17.492c0,.312-.089.646.143.927a.546.546,0,0,0,.059-.055v.011l-.058.044a18.894,18.894,0,0,0,4.077.14,3.36,3.36,0,0,0,1.8-.14l-.063-.046c0-.011.008-.021.012-.031l.051.078c.4-.108.318-.437.318-.716q0-8.964,0-17.929m-5.96-.655a.1.1,0,0,0-.012-.01h.015l0,.009m5.542.168-.008,0,.008-.006v.008" transform="translate(720.945 1431.439)" fill="#fff"/>
      <path id="Path_4314-2" data-name="Path 4314" d="M77.169,1.045c0,.078,0,.156.008.233,0,.029-.008.058-.012.087,0-.015-.006-.03-.01-.045l.022-.042a.233.233,0,0,1-.052.006.337.337,0,0,0,.043-.239c-.2-.351-.477-.234-.728-.23q-2.177.039-4.354.105c-.249.008-.533-.1-.722.259a15.221,15.221,0,0,0,.019,4.946h0c.732.456,1.5.182,2.24.146,1.214-.059,2.445.218,3.641-.279h0a9.583,9.583,0,0,0-.013-4.923c-.016-.024-.055-.017-.084-.025" transform="translate(720.984 1443.094)" fill="#fff"/>
      <path id="Path_4315-2" data-name="Path 4315" d="M108.894,23.127h0l-.2-.205c-.11-.482-.5-.309-.79-.314-1.26-.02-2.52-.014-3.781-.017h0c-.017-.461-.2-.89-.193-1.365.026-2.345.014-4.69.015-7.036h0c1.314,0,2.628,0,3.943-.016.275,0,.6.115.8-.2h0a.914.914,0,0,1,.054-.154c.257-.041.308-.219.308-.442q0-1.907,0-3.813c0-.264-.069-.456-.376-.466a1.006,1.006,0,0,1-.158-.036l.018.069-.109,0,.091-.067c-.24-.243-.547-.144-.827-.148-1.248-.016-2.5-.016-3.746-.022h0c0-1.421,0-2.842-.008-4.263,0-.276.1-.59-.187-.8h0a1.025,1.025,0,0,0-.164.008,1.325,1.325,0,0,0,0-.172h0c-.066-.053-.133-.153-.2-.153q-2.443-.012-4.887,0s0,.091,0,.14a1.158,1.158,0,0,1-.059.157c-.019.011-.031.022-.049.033l-.113,1.234.005.484-.05.01-.3,3.331h-.336l0,.006a11.133,11.133,0,0,1-1.48-.006h-.78a3.8,3.8,0,0,0-.955.155.183.183,0,0,0-.109.03h0l-.179,0c-.354.4-.192.888-.17,1.323a11.723,11.723,0,0,0,.16,3.41c.076.127.135.11.18-.021l.14.041a.4.4,0,0,0,.08-.1c0,.017,0,.033,0,.049l-.081.05a.8.8,0,0,1,.04.138.65.65,0,0,0,.32.11,15.772,15.772,0,0,0,2.672.081l0,0q0,4.649,0,9.3a2.481,2.481,0,0,0,.551,1.385.163.163,0,0,0,.146.2l.009-.008a.277.277,0,0,0,.018.17l0,.174.118.188c.024.052.045.1.064.159l.121.208h0l.2.162.014-.011.152.2,1.059,1.053.2.15h0a.156.156,0,0,0,.183.154l.083.026.087-.007-.013.017.189.16-.005.006.191.147.086.016.085-.017.177.015-.016.026.193.139c.055.017.11.036.164.058l.194.11h0l.357.008.342.037c.235.256.546.153.824.155,1.456.01,2.912.014,4.368,0,.4,0,.819.127,1.183-.152h0c.4-.109.309-.438.312-.714.007-.725.037-1.452-.007-2.175a6.475,6.475,0,0,0-.149-2.391m-.408-9.494v-.01l.013.011h-.013M94.454,9.1h0m14.183,19.121h0c0-.021,0-.042,0-.062,0,.009,0,.018,0,.026a.262.262,0,0,0,.049.031Z" transform="translate(706.303 1441.336)" fill="#fff"/>
    </g>
  </g>
</svg>
