<svg xmlns="http://www.w3.org/2000/svg" width="15.754" height="15.847" viewBox="0 0 15.754 15.847"><defs><style>.a{fill:none;}.b,.c{stroke:none;}.c{fill:#0645ad;}</style></defs><g class="a" transform="translate(-0.99 9.498)"><path class="b" d="M13.313,1.143a8.321,8.321,0,0,1-2.9-.478A6.121,6.121,0,0,1,8.2-.717,6.026,6.026,0,0,1,6.8-2.9a8.06,8.06,0,0,1-.486-2.878,8.3,8.3,0,0,1,.063-.985,9.465,9.465,0,0,1,.177-1.018,4.81,4.81,0,0,1,.258-.82A.976.976,0,0,0,6.9-8.847a1.063,1.063,0,0,0,.017-.169.515.515,0,0,0-.123-.33A.444.444,0,0,0,6.425-9.5a1.378,1.378,0,0,0-.207.021,1.587,1.587,0,0,0-.275.072,7.2,7.2,0,0,0-2.6,1.766A8.575,8.575,0,0,0,1.611-4.921,8.508,8.508,0,0,0,.99-1.714a8.188,8.188,0,0,0,.625,3.237A7.7,7.7,0,0,0,3.361,4.075a7.954,7.954,0,0,0,2.62,1.678,8.747,8.747,0,0,0,3.258.6,8.233,8.233,0,0,0,2.455-.363A8.5,8.5,0,0,0,13.845,4.98a7.763,7.763,0,0,0,1.7-1.5,6.6,6.6,0,0,0,1.107-1.842,1.357,1.357,0,0,0,.076-.292,1.689,1.689,0,0,0,.017-.2A.482.482,0,0,0,16.6.783a.465.465,0,0,0-.325-.139,1.241,1.241,0,0,0-.406.085,7.43,7.43,0,0,1-1.137.287A7.806,7.806,0,0,1,13.313,1.143Z"/><path class="c" d="M 9.239057540893555 5.348830223083496 C 9.990857124328613 5.348830223083496 10.71714782714844 5.241690158843994 11.3977575302124 5.030380249023438 C 12.08552742004395 4.816850185394287 12.72458744049072 4.518360137939453 13.29718780517578 4.143200397491455 C 13.86633777618408 3.770310163497925 14.36485767364502 3.331780195236206 14.77889728546143 2.839810132980347 C 15.03183746337891 2.539255380630493 15.24999713897705 2.222039699554443 15.43130207061768 1.891603946685791 C 15.26875305175781 1.92931604385376 15.09514713287354 1.965126752853394 14.90940761566162 1.999310255050659 C 14.39277744293213 2.094390153884888 13.85558795928955 2.142600297927856 13.31276702880859 2.142600297927856 C 12.12859725952148 2.142600297927856 11.03670787811279 1.961110234260559 10.06743717193604 1.603160262107849 C 9.075197219848633 1.236750245094299 8.211907386779785 0.695770263671875 7.501557350158691 -0.00475975638255477 C 6.790007591247559 -0.7064797282218933 6.239667415618896 -1.561709761619568 5.865827560424805 -2.546679735183716 C 5.500187397003174 -3.510079860687256 5.3147873878479 -4.597689628601074 5.3147873878479 -5.779309749603271 C 5.3147873878479 -6.121789932250977 5.338507652282715 -6.493139743804932 5.385287284851074 -6.883079528808594 C 5.431677341461182 -7.269649982452393 5.497757434844971 -7.648489952087402 5.581687450408936 -8.009039878845215 C 5.592666149139404 -8.056212425231934 5.603829383850098 -8.102445602416992 5.615180492401123 -8.147746086120605 C 5.044926166534424 -7.834996223449707 4.527419090270996 -7.434463977813721 4.070457458496094 -6.95143985748291 C 3.419467449188232 -6.263319969177246 2.904217481613159 -5.454649925231934 2.539027452468872 -4.547889709472656 C 2.174877405166626 -3.643699645996094 1.990237474441528 -2.690269708633423 1.990237474441528 -1.714059710502625 C 1.990237474441528 -0.6771997809410095 2.173827409744263 0.2802102565765381 2.535887479782104 1.131560206413269 C 2.8981773853302 1.983410239219666 3.409517526626587 2.731860160827637 4.055717468261719 3.356120347976685 C 4.704517364501953 3.982890129089355 5.476447582244873 4.476620197296143 6.350077629089355 4.823610305786133 C 7.227547645568848 5.172120094299316 8.19953727722168 5.348830223083496 9.239057540893555 5.348830223083496 M 9.239057540893555 6.348830223083496 C 8.067097663879395 6.348830223083496 6.981057643890381 6.150210380554199 5.980947494506836 5.752990245819092 C 4.980827331542969 5.355760097503662 4.107487678527832 4.796540260314941 3.360927581787109 4.075330257415771 C 2.614367485046387 3.354120254516602 2.032607555389404 2.503320217132568 1.615657448768616 1.522930264472961 C 1.198707461357117 0.5425302386283875 0.9902374744415283 -0.536459743976593 0.9902374744415283 -1.714059710502625 C 0.9902374744415283 -2.824049711227417 1.19729745388031 -3.893179655075073 1.611427545547485 -4.921469688415527 C 2.025567531585693 -5.949759960174561 2.603097438812256 -6.855489730834961 3.344027519226074 -7.638679981231689 C 4.084957599639893 -8.421870231628418 4.951247692108154 -9.010669708251953 5.942907333374023 -9.40507984161377 C 6.038697719573975 -9.43887996673584 6.130257606506348 -9.46282958984375 6.217587471008301 -9.476920127868652 C 6.304927349090576 -9.491000175476074 6.373947620391846 -9.498049736022949 6.424657344818115 -9.498049736022949 C 6.588057518005371 -9.498049736022949 6.710607528686523 -9.44734001159668 6.792307376861572 -9.345919609069824 C 6.874007701873779 -9.244500160217285 6.914847373962402 -9.13463020324707 6.914847373962402 -9.016300201416016 C 6.914847373962402 -8.971229553222656 6.909217357635498 -8.91487979888916 6.897947311401367 -8.847270011901855 C 6.886677265167236 -8.779660224914551 6.858507633209229 -8.697959899902344 6.813427448272705 -8.602169990539551 C 6.717647552490234 -8.382430076599121 6.631717681884766 -8.109159469604492 6.555657386779785 -7.782359600067139 C 6.479587554931641 -7.455559730529785 6.420427322387695 -7.116079807281494 6.378167629241943 -6.763929843902588 C 6.335917472839355 -6.411779880523682 6.3147873878479 -6.083569526672363 6.3147873878479 -5.779309749603271 C 6.3147873878479 -4.714399814605713 6.47677755355835 -3.755139827728271 6.80075740814209 -2.901519775390625 C 7.12473726272583 -2.047899723052979 7.592397689819336 -1.319649815559387 8.203727722167969 -0.7167697548866272 C 8.815067291259766 -0.1138797551393509 9.551777839660645 0.3467402458190918 10.41384792327881 0.6650802493095398 C 11.27590751647949 0.9834302663803101 12.24221706390381 1.142600297927856 13.31276702880859 1.142600297927856 C 13.79732704162598 1.142600297927856 14.26920795440674 1.100340247154236 14.72841739654541 1.015830278396606 C 15.1876277923584 0.93131023645401 15.56653785705566 0.8355202674865723 15.86516761779785 0.7284702658653259 C 16.02292823791504 0.6721202731132507 16.15815734863281 0.6439502239227295 16.27084732055664 0.6439502239227295 C 16.38916778564453 0.6439502239227295 16.49763679504395 0.6904402375221252 16.59623718261719 0.7834102511405945 C 16.69483757019043 0.8763702511787415 16.74413681030273 0.9989202618598938 16.74413681030273 1.151050209999084 C 16.74413681030273 1.196130275726318 16.7385082244873 1.262330293655396 16.72723770141602 1.34967029094696 C 16.71596717834473 1.437000274658203 16.69061660766602 1.534200191497803 16.65117835998535 1.641250252723694 C 16.39198684692383 2.300480127334595 16.02292823791504 2.914630174636841 15.54400730133057 3.483710289001465 C 15.06507778167725 4.05279016494751 14.49881744384766 4.551440238952637 13.84521770477295 4.979660034179688 C 13.19162750244141 5.407880306243896 12.47463703155518 5.743130207061768 11.69426727294922 5.985410213470459 C 10.91389751434326 6.22769021987915 10.09549713134766 6.348830223083496 9.239057540893555 6.348830223083496 Z"/></g></svg>