<svg xmlns="http://www.w3.org/2000/svg" width="344" height="48" viewBox="0 0 344 48">
  <g id="partners_ambcrypto" transform="translate(-176 -1281)">
    <rect id="Rectangle_1053" data-name="Rectangle 1053" width="172" height="48" transform="translate(176 1281)" fill="#151515" opacity="0"/>
    <path id="Path_4109" data-name="Path 4109" d="M0,0H172V48H0Z" transform="translate(348 1281)" fill="#151515" opacity="0"/>
    <g id="logo-zc_2_" data-name="logo-zc (2)" transform="translate(184 1384.888)">
      <path id="Path_7694" data-name="Path 7694" d="M150.4-87.337c-2.3,1.136-3.768,3.962-3.8,7.232a6.548,6.548,0,0,0,.97,3.99c1.219,2.466,2.494,3.491,4.461,3.63a3.763,3.763,0,0,0,2.577-.526,8.553,8.553,0,0,0,3.214-4.461c1.053-3.907-.526-8.451-3.408-9.864A3.938,3.938,0,0,0,150.4-87.337Zm2.771,0c1.413.637,2.134,3.131,2.134,7.454,0,3.519-.388,5.292-1.385,6.373a1.848,1.848,0,0,1-2.826.277c-1.108-.859-1.663-2.6-1.8-5.68-.222-4.323.61-7.62,2.134-8.368C152.28-87.725,152.336-87.725,153.167-87.337Z" transform="translate(-98.028)"/>
      <path id="Path_7695" data-name="Path 7695" d="M198.641-87.611a7,7,0,0,0-3.464,3.741,10.5,10.5,0,0,0-.554,5.819c.776,4.461,4.489,6.927,7.592,4.987,1.413-.859,2.078-.887,2.106-.083.028.526.055.5.277-.194a8.559,8.559,0,0,0,.083-2.632l-.194-1.8-.333,1.136c-.776,2.521-1.8,3.713-3.214,3.713-1.081,0-2.327-1.191-2.937-2.715-.665-1.69-.665-6.428,0-8.673s1.247-2.882,2.688-2.882a2.218,2.218,0,0,1,2.078,1.025,6.406,6.406,0,0,1,1.275,2.217c.277,1,.36,1.108.554.637a6.455,6.455,0,0,0,.083-3.131c-.139-.72-.249-.8-.665-.554-.388.249-.8.194-1.884-.277A4.264,4.264,0,0,0,198.641-87.611Z" transform="translate(-132.612 -0.031)"/>
      <path id="Path_7696" data-name="Path 7696" d="M11.554-84.922c0,2.189.471,2.882.61.914.111-1.607.914-2.106,3.63-2.327a5.758,5.758,0,0,1,2.134,0c0,.083-1.552,3.3-3.464,7.093S11-72.259,11-72.176a48.77,48.77,0,0,0,5.292.139h5.265l-.194-2.023c-.194-2.05-.388-2.8-.388-1.469a2.722,2.722,0,0,1-2.272,2.8c-1.441.416-4.129.554-4.461.222a55.71,55.71,0,0,1,3.214-6.844c1.884-3.685,3.491-6.9,3.6-7.176.166-.443-.166-.471-4.655-.471H11.554Z" transform="translate(0 -0.642)"/>
      <path id="Path_7697" data-name="Path 7697" d="M52-86.723c0,.139.249.277.554.277.526,0,.554.194.554,6.927s-.028,6.927-.554,6.927c-.3,0-.554.111-.554.277s2.078.277,5.68.277h5.68v-2.244c0-1.413-.111-2.161-.277-2.05a1.171,1.171,0,0,0-.277.831c0,2.078-1.3,2.909-4.544,2.909H55.879v-6.927h1.053c1.385,0,2.272.637,2.272,1.69,0,.443.139.8.277.8.166,0,.277-1.108.277-2.771s-.111-2.771-.277-2.771c-.139,0-.277.36-.277.8,0,1.053-.887,1.69-2.272,1.69H55.879v-6.1h2.632c2.466,0,2.715.055,3.353.693a3.444,3.444,0,0,1,.831,1.524c.3,1.5.665.887.665-1.108V-87H57.68C54.078-87,52-86.889,52-86.723Z" transform="translate(-29.64 -0.642)"/>
      <path id="Path_7698" data-name="Path 7698" d="M97.637-86.568l.748.3v13.743h-.693c-.388,0-.693.111-.693.277s1.081.277,2.66.277c1.69,0,2.577-.111,2.466-.277a.874.874,0,0,0-.72-.277c-.5,0-.526-.222-.526-3.63v-3.657l1.136.166c1.773.222,2.189.831,2.632,3.8.3,2.161.5,2.715,1.136,3.38a1.878,1.878,0,0,0,1.856.72c.637-.055,1.136-.249,1.219-.471.083-.277,0-.332-.333-.222-.693.277-1.191-.831-1.358-3.048-.139-2.189-.61-3.186-1.856-3.907l-.748-.443,1.081-.526a3.092,3.092,0,0,0,1.8-3.436,3.135,3.135,0,0,0-2.383-2.854,30.963,30.963,0,0,0-4.6-.249C97.554-86.872,97-86.817,97.637-86.568Zm6.317,1a2.418,2.418,0,0,1,.8,2.078c0,2.244-1.081,3.491-3.048,3.491h-.831v-6.373h1.136A2.307,2.307,0,0,1,103.955-85.57Z" transform="translate(-62.171 -0.714)"/>
      <path id="Path_7699" data-name="Path 7699" d="M237.637-86.568l.748.3v13.743h-.693c-.388,0-.693.111-.693.277s1.081.277,2.66.277c1.69,0,2.577-.111,2.466-.277a.874.874,0,0,0-.72-.277c-.5,0-.526-.222-.526-3.63v-3.657l1.136.166c1.773.222,2.189.831,2.632,3.8.3,2.161.5,2.715,1.136,3.38a1.878,1.878,0,0,0,1.856.72c.637-.055,1.136-.249,1.219-.471.083-.277,0-.332-.333-.222-.693.277-1.191-.831-1.358-3.048-.139-2.189-.61-3.186-1.856-3.907l-.748-.443,1.081-.526a3.093,3.093,0,0,0,1.8-3.436,3.135,3.135,0,0,0-2.383-2.854,30.964,30.964,0,0,0-4.6-.249C237.554-86.872,237-86.817,237.637-86.568Zm6.318,1a2.418,2.418,0,0,1,.8,2.078c0,2.244-1.081,3.491-3.048,3.491h-.831v-6.373h1.136A2.307,2.307,0,0,1,243.955-85.57Z" transform="translate(-163.379 -0.714)"/>
      <path id="Path_7700" data-name="Path 7700" d="M281.51-86.591c.637.249.97.914,2.411,4.655,1.635,4.267,1.69,4.461,1.69,7.01v2.632l-.748.111c-.443.055.471.111,1.995.139,1.524,0,2.466-.083,2.078-.194-.665-.194-.693-.277-.776-2.909-.083-2.688-.055-2.743,1.358-6.373,2.106-5.32,1.8-4.877,3.353-4.877h1.33v14.1l-.748.111c-.443.055.471.111,1.995.139,1.524,0,2.466-.083,2.078-.194-.665-.194-.693-.277-.776-2.8-.111-3.574,0-3.907,1.053-3.6a5.336,5.336,0,0,0,4.627-1.5,2.889,2.889,0,0,0,.914-2.632,3.35,3.35,0,0,0-.582-2.355c-1.219-1.552-1.829-1.69-8.119-1.773-4.1-.083-5.708-.028-5.6.194a1.277,1.277,0,0,0,.914.3c.637,0,.693.083.554.776-.277,1.385-2.494,6.456-2.715,6.234-.194-.194-2.743-6.622-2.743-6.9,0-.055.249-.111.554-.111s.554-.139.554-.277c0-.166-1.053-.277-2.688-.249C281.261-86.9,280.9-86.84,281.51-86.591Zm17.207.194c.914,0,2.078,1.469,2.272,2.882.416,2.688-1.441,5.126-3.38,4.433-.776-.249-.776-.277-.859-3.02a26.843,26.843,0,0,1,.083-3.685c.139-.8.277-.914.776-.776A5.661,5.661,0,0,0,298.717-86.4Z" transform="translate(-195.365 -0.691)"/>
      <path id="Path_7701" data-name="Path 7701" d="M364-84.783c0,2.494.416,2.992.61.776.194-1.8.859-2.438,2.6-2.438h1.219l-.055,6.982-.083,7.01-.831.166c-.443.111.554.194,2.217.166,1.69,0,2.771-.055,2.411-.111a1.532,1.532,0,0,1-.914-.8A101.288,101.288,0,0,1,371.093-86c.111-.3.526-.443,1.275-.443a2.306,2.306,0,0,1,2.438,2.272,3.181,3.181,0,0,0,.277,1.33c.194.277.277-.3.277-1.884V-87H364Z" transform="translate(-255.19 -0.642)"/>
      <path id="Path_7702" data-name="Path 7702" d="M407-86.723c0,.139.249.277.554.277.526,0,.554.194.554,6.927s-.028,6.927-.554,6.927c-.3,0-.554.111-.554.277s2.078.277,5.68.277h5.68v-2.244c0-1.413-.111-2.161-.277-2.05a1.171,1.171,0,0,0-.277.831c0,2.078-1.3,2.909-4.544,2.909h-2.383v-6.927h1.053c1.385,0,2.272.637,2.272,1.69,0,.443.139.8.277.8.166,0,.277-1.108.277-2.771s-.111-2.771-.277-2.771c-.139,0-.277.36-.277.8,0,1.053-.887,1.69-2.272,1.69h-1.053v-6.1h2.632c2.466,0,2.715.055,3.353.693a3.445,3.445,0,0,1,.831,1.524c.3,1.5.665.887.665-1.108V-87h-5.68C409.078-87,407-86.889,407-86.723Z" transform="translate(-286.275 -0.642)"/>
      <path id="Path_7703" data-name="Path 7703" d="M454.688-86.472l.748.333-.055,6.927-.083,6.927-.693.222c-.388.111,1.108.166,3.325.139,3.491-.055,4.156-.139,5.126-.665,2.272-1.219,3.242-2.909,3.408-6.068.194-3.768-.831-5.93-3.436-7.2-1.441-.693-1.856-.776-5.348-.831C454.6-86.777,454.051-86.722,454.688-86.472Zm6.595.859a5.755,5.755,0,0,1,1.635,2c.61,1.219.693,1.746.693,4.433,0,2.6-.083,3.242-.637,4.322a4.61,4.61,0,0,1-3.657,2.521c-.776.083-.97-.028-1.136-.61a117.465,117.465,0,0,1-.083-12.857C458.345-86.472,460.146-86.362,461.282-85.613Z" transform="translate(-320.58 -0.837)"/>
    </g>
    <g id="logo-zc_2_2" data-name="logo-zc (2)" transform="translate(356 1384.888)">
      <path id="Path_7694-2" data-name="Path 7694" d="M150.4-87.337c-2.3,1.136-3.768,3.962-3.8,7.232a6.548,6.548,0,0,0,.97,3.99c1.219,2.466,2.494,3.491,4.461,3.63a3.763,3.763,0,0,0,2.577-.526,8.553,8.553,0,0,0,3.214-4.461c1.053-3.907-.526-8.451-3.408-9.864A3.938,3.938,0,0,0,150.4-87.337Zm2.771,0c1.413.637,2.134,3.131,2.134,7.454,0,3.519-.388,5.292-1.385,6.373a1.848,1.848,0,0,1-2.826.277c-1.108-.859-1.663-2.6-1.8-5.68-.222-4.323.61-7.62,2.134-8.368C152.28-87.725,152.336-87.725,153.167-87.337Z" transform="translate(-98.028)" fill="#fff"/>
      <path id="Path_7695-2" data-name="Path 7695" d="M198.641-87.611a7,7,0,0,0-3.464,3.741,10.5,10.5,0,0,0-.554,5.819c.776,4.461,4.489,6.927,7.592,4.987,1.413-.859,2.078-.887,2.106-.083.028.526.055.5.277-.194a8.559,8.559,0,0,0,.083-2.632l-.194-1.8-.333,1.136c-.776,2.521-1.8,3.713-3.214,3.713-1.081,0-2.327-1.191-2.937-2.715-.665-1.69-.665-6.428,0-8.673s1.247-2.882,2.688-2.882a2.218,2.218,0,0,1,2.078,1.025,6.406,6.406,0,0,1,1.275,2.217c.277,1,.36,1.108.554.637a6.455,6.455,0,0,0,.083-3.131c-.139-.72-.249-.8-.665-.554-.388.249-.8.194-1.884-.277A4.264,4.264,0,0,0,198.641-87.611Z" transform="translate(-132.612 -0.031)" fill="#fff"/>
      <path id="Path_7696-2" data-name="Path 7696" d="M11.554-84.922c0,2.189.471,2.882.61.914.111-1.607.914-2.106,3.63-2.327a5.758,5.758,0,0,1,2.134,0c0,.083-1.552,3.3-3.464,7.093S11-72.259,11-72.176a48.77,48.77,0,0,0,5.292.139h5.265l-.194-2.023c-.194-2.05-.388-2.8-.388-1.469a2.722,2.722,0,0,1-2.272,2.8c-1.441.416-4.129.554-4.461.222a55.71,55.71,0,0,1,3.214-6.844c1.884-3.685,3.491-6.9,3.6-7.176.166-.443-.166-.471-4.655-.471H11.554Z" transform="translate(0 -0.642)" fill="#fff"/>
      <path id="Path_7697-2" data-name="Path 7697" d="M52-86.723c0,.139.249.277.554.277.526,0,.554.194.554,6.927s-.028,6.927-.554,6.927c-.3,0-.554.111-.554.277s2.078.277,5.68.277h5.68v-2.244c0-1.413-.111-2.161-.277-2.05a1.171,1.171,0,0,0-.277.831c0,2.078-1.3,2.909-4.544,2.909H55.879v-6.927h1.053c1.385,0,2.272.637,2.272,1.69,0,.443.139.8.277.8.166,0,.277-1.108.277-2.771s-.111-2.771-.277-2.771c-.139,0-.277.36-.277.8,0,1.053-.887,1.69-2.272,1.69H55.879v-6.1h2.632c2.466,0,2.715.055,3.353.693a3.444,3.444,0,0,1,.831,1.524c.3,1.5.665.887.665-1.108V-87H57.68C54.078-87,52-86.889,52-86.723Z" transform="translate(-29.64 -0.642)" fill="#fff"/>
      <path id="Path_7698-2" data-name="Path 7698" d="M97.637-86.568l.748.3v13.743h-.693c-.388,0-.693.111-.693.277s1.081.277,2.66.277c1.69,0,2.577-.111,2.466-.277a.874.874,0,0,0-.72-.277c-.5,0-.526-.222-.526-3.63v-3.657l1.136.166c1.773.222,2.189.831,2.632,3.8.3,2.161.5,2.715,1.136,3.38a1.878,1.878,0,0,0,1.856.72c.637-.055,1.136-.249,1.219-.471.083-.277,0-.332-.333-.222-.693.277-1.191-.831-1.358-3.048-.139-2.189-.61-3.186-1.856-3.907l-.748-.443,1.081-.526a3.092,3.092,0,0,0,1.8-3.436,3.135,3.135,0,0,0-2.383-2.854,30.963,30.963,0,0,0-4.6-.249C97.554-86.872,97-86.817,97.637-86.568Zm6.317,1a2.418,2.418,0,0,1,.8,2.078c0,2.244-1.081,3.491-3.048,3.491h-.831v-6.373h1.136A2.307,2.307,0,0,1,103.955-85.57Z" transform="translate(-62.171 -0.714)" fill="#fff"/>
      <path id="Path_7699-2" data-name="Path 7699" d="M237.637-86.568l.748.3v13.743h-.693c-.388,0-.693.111-.693.277s1.081.277,2.66.277c1.69,0,2.577-.111,2.466-.277a.874.874,0,0,0-.72-.277c-.5,0-.526-.222-.526-3.63v-3.657l1.136.166c1.773.222,2.189.831,2.632,3.8.3,2.161.5,2.715,1.136,3.38a1.878,1.878,0,0,0,1.856.72c.637-.055,1.136-.249,1.219-.471.083-.277,0-.332-.333-.222-.693.277-1.191-.831-1.358-3.048-.139-2.189-.61-3.186-1.856-3.907l-.748-.443,1.081-.526a3.093,3.093,0,0,0,1.8-3.436,3.135,3.135,0,0,0-2.383-2.854,30.964,30.964,0,0,0-4.6-.249C237.554-86.872,237-86.817,237.637-86.568Zm6.318,1a2.418,2.418,0,0,1,.8,2.078c0,2.244-1.081,3.491-3.048,3.491h-.831v-6.373h1.136A2.307,2.307,0,0,1,243.955-85.57Z" transform="translate(-163.379 -0.714)" fill="#fff"/>
      <path id="Path_7700-2" data-name="Path 7700" d="M281.51-86.591c.637.249.97.914,2.411,4.655,1.635,4.267,1.69,4.461,1.69,7.01v2.632l-.748.111c-.443.055.471.111,1.995.139,1.524,0,2.466-.083,2.078-.194-.665-.194-.693-.277-.776-2.909-.083-2.688-.055-2.743,1.358-6.373,2.106-5.32,1.8-4.877,3.353-4.877h1.33v14.1l-.748.111c-.443.055.471.111,1.995.139,1.524,0,2.466-.083,2.078-.194-.665-.194-.693-.277-.776-2.8-.111-3.574,0-3.907,1.053-3.6a5.336,5.336,0,0,0,4.627-1.5,2.889,2.889,0,0,0,.914-2.632,3.35,3.35,0,0,0-.582-2.355c-1.219-1.552-1.829-1.69-8.119-1.773-4.1-.083-5.708-.028-5.6.194a1.277,1.277,0,0,0,.914.3c.637,0,.693.083.554.776-.277,1.385-2.494,6.456-2.715,6.234-.194-.194-2.743-6.622-2.743-6.9,0-.055.249-.111.554-.111s.554-.139.554-.277c0-.166-1.053-.277-2.688-.249C281.261-86.9,280.9-86.84,281.51-86.591Zm17.207.194c.914,0,2.078,1.469,2.272,2.882.416,2.688-1.441,5.126-3.38,4.433-.776-.249-.776-.277-.859-3.02a26.843,26.843,0,0,1,.083-3.685c.139-.8.277-.914.776-.776A5.661,5.661,0,0,0,298.717-86.4Z" transform="translate(-195.365 -0.691)" fill="#fff"/>
      <path id="Path_7701-2" data-name="Path 7701" d="M364-84.783c0,2.494.416,2.992.61.776.194-1.8.859-2.438,2.6-2.438h1.219l-.055,6.982-.083,7.01-.831.166c-.443.111.554.194,2.217.166,1.69,0,2.771-.055,2.411-.111a1.532,1.532,0,0,1-.914-.8A101.288,101.288,0,0,1,371.093-86c.111-.3.526-.443,1.275-.443a2.306,2.306,0,0,1,2.438,2.272,3.181,3.181,0,0,0,.277,1.33c.194.277.277-.3.277-1.884V-87H364Z" transform="translate(-255.19 -0.642)" fill="#fff"/>
      <path id="Path_7702-2" data-name="Path 7702" d="M407-86.723c0,.139.249.277.554.277.526,0,.554.194.554,6.927s-.028,6.927-.554,6.927c-.3,0-.554.111-.554.277s2.078.277,5.68.277h5.68v-2.244c0-1.413-.111-2.161-.277-2.05a1.171,1.171,0,0,0-.277.831c0,2.078-1.3,2.909-4.544,2.909h-2.383v-6.927h1.053c1.385,0,2.272.637,2.272,1.69,0,.443.139.8.277.8.166,0,.277-1.108.277-2.771s-.111-2.771-.277-2.771c-.139,0-.277.36-.277.8,0,1.053-.887,1.69-2.272,1.69h-1.053v-6.1h2.632c2.466,0,2.715.055,3.353.693a3.445,3.445,0,0,1,.831,1.524c.3,1.5.665.887.665-1.108V-87h-5.68C409.078-87,407-86.889,407-86.723Z" transform="translate(-286.275 -0.642)" fill="#fff"/>
      <path id="Path_7703-2" data-name="Path 7703" d="M454.688-86.472l.748.333-.055,6.927-.083,6.927-.693.222c-.388.111,1.108.166,3.325.139,3.491-.055,4.156-.139,5.126-.665,2.272-1.219,3.242-2.909,3.408-6.068.194-3.768-.831-5.93-3.436-7.2-1.441-.693-1.856-.776-5.348-.831C454.6-86.777,454.051-86.722,454.688-86.472Zm6.595.859a5.755,5.755,0,0,1,1.635,2c.61,1.219.693,1.746.693,4.433,0,2.6-.083,3.242-.637,4.322a4.61,4.61,0,0,1-3.657,2.521c-.776.083-.97-.028-1.136-.61a117.465,117.465,0,0,1-.083-12.857C458.345-86.472,460.146-86.362,461.282-85.613Z" transform="translate(-320.58 -0.837)" fill="#fff"/>
    </g>
  </g>
</svg>
